G04 Layer_Color=2752767*
%FSTAX44Y44*%
%MOMM*%
G71*
G01*
G75*
%ADD107C,0.0508*%
%ADD108C,0.0677*%
%ADD109C,0.0339*%
D107*
X01073088Y00953128D02*
Y00957192D01*
X01077152D01*
Y00953128D01*
X01073088D01*
X00323088D02*
Y00957192D01*
X00327152D01*
Y00953128D01*
X00323088D01*
X01073088Y00643128D02*
Y00647192D01*
X01077152D01*
Y00643128D01*
X01073088D01*
X00323088D02*
Y00647192D01*
X00327152D01*
Y00643128D01*
X00323088D01*
X009017Y00290068D02*
X00899668Y00294132D01*
X00903732D01*
X009017Y00290068D01*
Y00315468D02*
X00899668Y00319532D01*
X00903732D01*
X009017Y00315468D01*
X0037296Y01133518D02*
X00373976Y01134534D01*
X00374992D01*
X00373976Y0113555D01*
X00374992Y01136566D01*
X00373976D01*
X0037296Y01137582D01*
X00371944Y01136566D01*
X00370928D01*
X00371944Y0113555D01*
X00370928Y01134534D01*
X00371944D01*
X0037296Y01133518D01*
X0034756D02*
X00348576Y01134534D01*
X00349592D01*
X00348576Y0113555D01*
X00349592Y01136566D01*
X00348576D01*
X0034756Y01137582D01*
X00346544Y01136566D01*
X00345528D01*
X00346544Y0113555D01*
X00345528Y01134534D01*
X00346544D01*
X0034756Y01133518D01*
X0032216D02*
X00323176Y01134534D01*
X00324192D01*
X00323176Y0113555D01*
X00324192Y01136566D01*
X00323176D01*
X0032216Y01137582D01*
X00321144Y01136566D01*
X00320128D01*
X00321144Y0113555D01*
X00320128Y01134534D01*
X00321144D01*
X0032216Y01133518D01*
X00287528Y01215898D02*
X00288544Y0121793D01*
X00287528Y01219962D01*
X0028956Y01218946D01*
X00291592Y01219962D01*
X00290576Y0121793D01*
X00291592Y01215898D01*
X0028956Y01216914D01*
X00287528Y01215898D01*
X01053084Y00376174D02*
Y00375158D01*
X01055116D01*
Y00376174D01*
X01056132D01*
Y00378206D01*
X01055116D01*
Y00379222D01*
X01053084D01*
Y00378206D01*
X01052068D01*
Y00376174D01*
X01053084D01*
Y00287274D02*
Y00286258D01*
X01055116D01*
Y00287274D01*
X01056132D01*
Y00289306D01*
X01055116D01*
Y00290322D01*
X01053084D01*
Y00289306D01*
X01052068D01*
Y00287274D01*
X01053084D01*
X00948944Y00350774D02*
Y00349758D01*
X00950976D01*
Y00350774D01*
X00951992D01*
Y00352806D01*
X00950976D01*
Y00353822D01*
X00948944D01*
Y00352806D01*
X00947928D01*
Y00350774D01*
X00948944D01*
Y00325374D02*
Y00324358D01*
X00950976D01*
Y00325374D01*
X00951992D01*
Y00327406D01*
X00950976D01*
Y00328422D01*
X00948944D01*
Y00327406D01*
X00947928D01*
Y00325374D01*
X00948944D01*
Y00299974D02*
Y00298958D01*
X00950976D01*
Y00299974D01*
X00951992D01*
Y00302006D01*
X00950976D01*
Y00303022D01*
X00948944D01*
Y00302006D01*
X00947928D01*
Y00299974D01*
X00948944D01*
X01012444D02*
Y00298958D01*
X01014476D01*
Y00299974D01*
X01015492D01*
Y00302006D01*
X01014476D01*
Y00303022D01*
X01012444D01*
Y00302006D01*
X01011428D01*
Y00299974D01*
X01012444D01*
Y00325374D02*
Y00324358D01*
X01014476D01*
Y00325374D01*
X01015492D01*
Y00327406D01*
X01014476D01*
Y00328422D01*
X01012444D01*
Y00327406D01*
X01011428D01*
Y00325374D01*
X01012444D01*
Y00350774D02*
Y00349758D01*
X01014476D01*
Y00350774D01*
X01015492D01*
Y00352806D01*
X01014476D01*
Y00353822D01*
X01012444D01*
Y00352806D01*
X01011428D01*
Y00350774D01*
X01012444D01*
X01209548Y00293878D02*
X01210564Y0029591D01*
X01209548Y00297942D01*
X0121158Y00296926D01*
X01213612Y00297942D01*
X01212596Y0029591D01*
X01213612Y00293878D01*
X0121158Y00294894D01*
X01209548Y00293878D01*
X00289988Y00292518D02*
X00291004Y0029455D01*
X00289988Y00296582D01*
X0029202Y00295566D01*
X00294052Y00296582D01*
X00293036Y0029455D01*
X00294052Y00292518D01*
X0029202Y00293534D01*
X00289988Y00292518D01*
X01210028Y01213698D02*
X01211044Y0121573D01*
X01210028Y01217762D01*
X0121206Y01216746D01*
X01214092Y01217762D01*
X01213076Y0121573D01*
X01214092Y01213698D01*
X0121206Y01214714D01*
X01210028Y01213698D01*
X00486128Y01206078D02*
X00487144D01*
X0048816Y01207094D01*
X00489176Y01206078D01*
X00490192D01*
Y01207094D01*
X00489176Y0120811D01*
X00490192Y01209126D01*
Y01210142D01*
X00489176D01*
X0048816Y01209126D01*
X00487144Y01210142D01*
X00486128D01*
Y01209126D01*
X00487144Y0120811D01*
X00486128Y01207094D01*
Y01206078D01*
X00575028D02*
X00576044D01*
X0057706Y01207094D01*
X00578076Y01206078D01*
X00579092D01*
Y01207094D01*
X00578076Y0120811D01*
X00579092Y01209126D01*
Y01210142D01*
X00578076D01*
X0057706Y01209126D01*
X00576044Y01210142D01*
X00575028D01*
Y01209126D01*
X00576044Y0120811D01*
X00575028Y01207094D01*
Y01206078D01*
X0061722Y01101598D02*
X00615188Y01105662D01*
X00619252D01*
X0061722Y01101598D01*
Y01126998D02*
X00615188Y01131062D01*
X00619252D01*
X0061722Y01126998D01*
X00811248Y01208618D02*
X00812264D01*
X0081328Y01209634D01*
X00814296Y01208618D01*
X00815312D01*
Y01209634D01*
X00814296Y0121065D01*
X00815312Y01211666D01*
Y01212682D01*
X00814296D01*
X0081328Y01211666D01*
X00812264Y01212682D01*
X00811248D01*
Y01211666D01*
X00812264Y0121065D01*
X00811248Y01209634D01*
Y01208618D01*
X00785848D02*
X00786864D01*
X0078788Y01209634D01*
X00788896Y01208618D01*
X00789912D01*
Y01209634D01*
X00788896Y0121065D01*
X00789912Y01211666D01*
Y01212682D01*
X00788896D01*
X0078788Y01211666D01*
X00786864Y01212682D01*
X00785848D01*
Y01211666D01*
X00786864Y0121065D01*
X00785848Y01209634D01*
Y01208618D01*
X00760448D02*
X00761464D01*
X0076248Y01209634D01*
X00763496Y01208618D01*
X00764512D01*
Y01209634D01*
X00763496Y0121065D01*
X00764512Y01211666D01*
Y01212682D01*
X00763496D01*
X0076248Y01211666D01*
X00761464Y01212682D01*
X00760448D01*
Y01211666D01*
X00761464Y0121065D01*
X00760448Y01209634D01*
Y01208618D01*
X00735048D02*
X00736064D01*
X0073708Y01209634D01*
X00738096Y01208618D01*
X00739112D01*
Y01209634D01*
X00738096Y0121065D01*
X00739112Y01211666D01*
Y01212682D01*
X00738096D01*
X0073708Y01211666D01*
X00736064Y01212682D01*
X00735048D01*
Y01211666D01*
X00736064Y0121065D01*
X00735048Y01209634D01*
Y01208618D01*
X00811248Y01132418D02*
X00812264D01*
X0081328Y01133434D01*
X00814296Y01132418D01*
X00815312D01*
Y01133434D01*
X00814296Y0113445D01*
X00815312Y01135466D01*
Y01136482D01*
X00814296D01*
X0081328Y01135466D01*
X00812264Y01136482D01*
X00811248D01*
Y01135466D01*
X00812264Y0113445D01*
X00811248Y01133434D01*
Y01132418D01*
X00785848D02*
X00786864D01*
X0078788Y01133434D01*
X00788896Y01132418D01*
X00789912D01*
Y01133434D01*
X00788896Y0113445D01*
X00789912Y01135466D01*
Y01136482D01*
X00788896D01*
X0078788Y01135466D01*
X00786864Y01136482D01*
X00785848D01*
Y01135466D01*
X00786864Y0113445D01*
X00785848Y01133434D01*
Y01132418D01*
X00760448D02*
X00761464D01*
X0076248Y01133434D01*
X00763496Y01132418D01*
X00764512D01*
Y01133434D01*
X00763496Y0113445D01*
X00764512Y01135466D01*
Y01136482D01*
X00763496D01*
X0076248Y01135466D01*
X00761464Y01136482D01*
X00760448D01*
Y01135466D01*
X00761464Y0113445D01*
X00760448Y01133434D01*
Y01132418D01*
X00735048D02*
X00736064D01*
X0073708Y01133434D01*
X00738096Y01132418D01*
X00739112D01*
Y01133434D01*
X00738096Y0113445D01*
X00739112Y01135466D01*
Y01136482D01*
X00738096D01*
X0073708Y01135466D01*
X00736064Y01136482D01*
X00735048D01*
Y01135466D01*
X00736064Y0113445D01*
X00735048Y01133434D01*
Y01132418D01*
X00658368Y002921D02*
X006604Y00294132D01*
X00662432Y002921D01*
X006604Y00290068D01*
X00658368Y002921D01*
Y003175D02*
X006604Y00319532D01*
X00662432Y003175D01*
X006604Y00315468D01*
X00658368Y003175D01*
Y003429D02*
X006604Y00344932D01*
X00662432Y003429D01*
X006604Y00340868D01*
X00658368Y003429D01*
X00607568Y002921D02*
X006096Y00294132D01*
X00611632Y002921D01*
X006096Y00290068D01*
X00607568Y002921D01*
Y003175D02*
X006096Y00319532D01*
X00611632Y003175D01*
X006096Y00315468D01*
X00607568Y003175D01*
Y003429D02*
X006096Y00344932D01*
X00611632Y003429D01*
X006096Y00340868D01*
X00607568Y003429D01*
X0090472Y01211158D02*
X00902688Y01215222D01*
X00906752D01*
X0090472Y01211158D01*
X0087932D02*
X00877288Y01215222D01*
X00881352D01*
X0087932Y01211158D01*
X00615188Y00800608D02*
Y00804672D01*
X00619252D01*
Y00800608D01*
X00615188D01*
X00616204Y00801624D02*
Y00803656D01*
X00618236D01*
Y00801624D01*
X00616204D01*
X00665988Y00800608D02*
Y00804672D01*
X00670052D01*
Y00800608D01*
X00665988D01*
X00667004Y00801624D02*
Y00803656D01*
X00669036D01*
Y00801624D01*
X00667004D01*
X01158748Y00472948D02*
X01159764D01*
X0116078Y00473964D01*
X01161796Y00472948D01*
X01162812D01*
Y00473964D01*
X01161796Y0047498D01*
X01162812Y00475996D01*
Y00477012D01*
X01161796D01*
X0116078Y00475996D01*
X01159764Y00477012D01*
X01158748D01*
Y00475996D01*
X01159764Y0047498D01*
X01158748Y00473964D01*
Y00472948D01*
X01222248Y00422148D02*
X01223264D01*
X0122428Y00423164D01*
X01225296Y00422148D01*
X01226312D01*
Y00423164D01*
X01225296Y0042418D01*
X01226312Y00425196D01*
Y00426212D01*
X01225296D01*
X0122428Y00425196D01*
X01223264Y00426212D01*
X01222248D01*
Y00425196D01*
X01223264Y0042418D01*
X01222248Y00423164D01*
Y00422148D01*
Y00472948D02*
X01223264D01*
X0122428Y00473964D01*
X01225296Y00472948D01*
X01226312D01*
Y00473964D01*
X01225296Y0047498D01*
X01226312Y00475996D01*
Y00477012D01*
X01225296D01*
X0122428Y00475996D01*
X01223264Y00477012D01*
X01222248D01*
Y00475996D01*
X01223264Y0047498D01*
X01222248Y00473964D01*
Y00472948D01*
X01158748Y00422148D02*
X01159764D01*
X0116078Y00423164D01*
X01161796Y00422148D01*
X01162812D01*
Y00423164D01*
X01161796Y0042418D01*
X01162812Y00425196D01*
Y00426212D01*
X01161796D01*
X0116078Y00425196D01*
X01159764Y00426212D01*
X01158748D01*
Y00425196D01*
X01159764Y0042418D01*
X01158748Y00423164D01*
Y00422148D01*
X01036828Y00472948D02*
X01037844D01*
X0103886Y00473964D01*
X01039876Y00472948D01*
X01040892D01*
Y00473964D01*
X01039876Y0047498D01*
X01040892Y00475996D01*
Y00477012D01*
X01039876D01*
X0103886Y00475996D01*
X01037844Y00477012D01*
X01036828D01*
Y00475996D01*
X01037844Y0047498D01*
X01036828Y00473964D01*
Y00472948D01*
X01100328Y00422148D02*
X01101344D01*
X0110236Y00423164D01*
X01103376Y00422148D01*
X01104392D01*
Y00423164D01*
X01103376Y0042418D01*
X01104392Y00425196D01*
Y00426212D01*
X01103376D01*
X0110236Y00425196D01*
X01101344Y00426212D01*
X01100328D01*
Y00425196D01*
X01101344Y0042418D01*
X01100328Y00423164D01*
Y00422148D01*
Y00472948D02*
X01101344D01*
X0110236Y00473964D01*
X01103376Y00472948D01*
X01104392D01*
Y00473964D01*
X01103376Y0047498D01*
X01104392Y00475996D01*
Y00477012D01*
X01103376D01*
X0110236Y00475996D01*
X01101344Y00477012D01*
X01100328D01*
Y00475996D01*
X01101344Y0047498D01*
X01100328Y00473964D01*
Y00472948D01*
X01036828Y00422148D02*
X01037844D01*
X0103886Y00423164D01*
X01039876Y00422148D01*
X01040892D01*
Y00423164D01*
X01039876Y0042418D01*
X01040892Y00425196D01*
Y00426212D01*
X01039876D01*
X0103886Y00425196D01*
X01037844Y00426212D01*
X01036828D01*
Y00425196D01*
X01037844Y0042418D01*
X01036828Y00423164D01*
Y00422148D01*
X01158748Y00569468D02*
X01159764D01*
X0116078Y00570484D01*
X01161796Y00569468D01*
X01162812D01*
Y00570484D01*
X01161796Y005715D01*
X01162812Y00572516D01*
Y00573532D01*
X01161796D01*
X0116078Y00572516D01*
X01159764Y00573532D01*
X01158748D01*
Y00572516D01*
X01159764Y005715D01*
X01158748Y00570484D01*
Y00569468D01*
X01222248Y00518668D02*
X01223264D01*
X0122428Y00519684D01*
X01225296Y00518668D01*
X01226312D01*
Y00519684D01*
X01225296Y005207D01*
X01226312Y00521716D01*
Y00522732D01*
X01225296D01*
X0122428Y00521716D01*
X01223264Y00522732D01*
X01222248D01*
Y00521716D01*
X01223264Y005207D01*
X01222248Y00519684D01*
Y00518668D01*
Y00569468D02*
X01223264D01*
X0122428Y00570484D01*
X01225296Y00569468D01*
X01226312D01*
Y00570484D01*
X01225296Y005715D01*
X01226312Y00572516D01*
Y00573532D01*
X01225296D01*
X0122428Y00572516D01*
X01223264Y00573532D01*
X01222248D01*
Y00572516D01*
X01223264Y005715D01*
X01222248Y00570484D01*
Y00569468D01*
X01158748Y00518668D02*
X01159764D01*
X0116078Y00519684D01*
X01161796Y00518668D01*
X01162812D01*
Y00519684D01*
X01161796Y005207D01*
X01162812Y00521716D01*
Y00522732D01*
X01161796D01*
X0116078Y00521716D01*
X01159764Y00522732D01*
X01158748D01*
Y00521716D01*
X01159764Y005207D01*
X01158748Y00519684D01*
Y00518668D01*
X01036828Y00569468D02*
X01037844D01*
X0103886Y00570484D01*
X01039876Y00569468D01*
X01040892D01*
Y00570484D01*
X01039876Y005715D01*
X01040892Y00572516D01*
Y00573532D01*
X01039876D01*
X0103886Y00572516D01*
X01037844Y00573532D01*
X01036828D01*
Y00572516D01*
X01037844Y005715D01*
X01036828Y00570484D01*
Y00569468D01*
X01100328Y00518668D02*
X01101344D01*
X0110236Y00519684D01*
X01103376Y00518668D01*
X01104392D01*
Y00519684D01*
X01103376Y005207D01*
X01104392Y00521716D01*
Y00522732D01*
X01103376D01*
X0110236Y00521716D01*
X01101344Y00522732D01*
X01100328D01*
Y00521716D01*
X01101344Y005207D01*
X01100328Y00519684D01*
Y00518668D01*
Y00569468D02*
X01101344D01*
X0110236Y00570484D01*
X01103376Y00569468D01*
X01104392D01*
Y00570484D01*
X01103376Y005715D01*
X01104392Y00572516D01*
Y00573532D01*
X01103376D01*
X0110236Y00572516D01*
X01101344Y00573532D01*
X01100328D01*
Y00572516D01*
X01101344Y005715D01*
X01100328Y00570484D01*
Y00569468D01*
X01036828Y00518668D02*
X01037844D01*
X0103886Y00519684D01*
X01039876Y00518668D01*
X01040892D01*
Y00519684D01*
X01039876Y005207D01*
X01040892Y00521716D01*
Y00522732D01*
X01039876D01*
X0103886Y00521716D01*
X01037844Y00522732D01*
X01036828D01*
Y00521716D01*
X01037844Y005207D01*
X01036828Y00519684D01*
Y00518668D01*
X00429768Y01160018D02*
X00430784D01*
X004318Y01161034D01*
X00432816Y01160018D01*
X00433832D01*
Y01161034D01*
X00432816Y0116205D01*
X00433832Y01163066D01*
Y01164082D01*
X00432816D01*
X004318Y01163066D01*
X00430784Y01164082D01*
X00429768D01*
Y01163066D01*
X00430784Y0116205D01*
X00429768Y01161034D01*
Y01160018D01*
X00493268Y01109218D02*
X00494284D01*
X004953Y01110234D01*
X00496316Y01109218D01*
X00497332D01*
Y01110234D01*
X00496316Y0111125D01*
X00497332Y01112266D01*
Y01113282D01*
X00496316D01*
X004953Y01112266D01*
X00494284Y01113282D01*
X00493268D01*
Y01112266D01*
X00494284Y0111125D01*
X00493268Y01110234D01*
Y01109218D01*
Y01160018D02*
X00494284D01*
X004953Y01161034D01*
X00496316Y01160018D01*
X00497332D01*
Y01161034D01*
X00496316Y0116205D01*
X00497332Y01163066D01*
Y01164082D01*
X00496316D01*
X004953Y01163066D01*
X00494284Y01164082D01*
X00493268D01*
Y01163066D01*
X00494284Y0116205D01*
X00493268Y01161034D01*
Y01160018D01*
X00429768Y01109218D02*
X00430784D01*
X004318Y01110234D01*
X00432816Y01109218D01*
X00433832D01*
Y01110234D01*
X00432816Y0111125D01*
X00433832Y01112266D01*
Y01113282D01*
X00432816D01*
X004318Y01112266D01*
X00430784Y01113282D01*
X00429768D01*
Y01112266D01*
X00430784Y0111125D01*
X00429768Y01110234D01*
Y01109218D01*
X01127784Y00856244D02*
Y00855228D01*
X01129816D01*
Y00856244D01*
X01130832D01*
Y00858276D01*
X01129816D01*
Y00859292D01*
X01127784D01*
Y00858276D01*
X01126768D01*
Y00856244D01*
X01127784D01*
Y00745444D02*
Y00744428D01*
X01129816D01*
Y00745444D01*
X01130832D01*
Y00747476D01*
X01129816D01*
Y00748492D01*
X01127784D01*
Y00747476D01*
X01126768D01*
Y00745444D01*
X01127784D01*
X01156184Y00759294D02*
Y00758278D01*
X01158216D01*
Y00759294D01*
X01159232D01*
Y00761326D01*
X01158216D01*
Y00762342D01*
X01156184D01*
Y00761326D01*
X01155168D01*
Y00759294D01*
X01156184D01*
X01127784Y00773144D02*
Y00772128D01*
X01129816D01*
Y00773144D01*
X01130832D01*
Y00775176D01*
X01129816D01*
Y00776192D01*
X01127784D01*
Y00775176D01*
X01126768D01*
Y00773144D01*
X01127784D01*
Y00800844D02*
Y00799828D01*
X01129816D01*
Y00800844D01*
X01130832D01*
Y00802876D01*
X01129816D01*
Y00803892D01*
X01127784D01*
Y00802876D01*
X01126768D01*
Y00800844D01*
X01127784D01*
X01156184Y00814694D02*
Y00813678D01*
X01158216D01*
Y00814694D01*
X01159232D01*
Y00816726D01*
X01158216D01*
Y00817742D01*
X01156184D01*
Y00816726D01*
X01155168D01*
Y00814694D01*
X01156184D01*
X01127784Y00828544D02*
Y00827528D01*
X01129816D01*
Y00828544D01*
X01130832D01*
Y00830576D01*
X01129816D01*
Y00831592D01*
X01127784D01*
Y00830576D01*
X01126768D01*
Y00828544D01*
X01127784D01*
X01156184Y00842394D02*
Y00841378D01*
X01158216D01*
Y00842394D01*
X01159232D01*
Y00844426D01*
X01158216D01*
Y00845442D01*
X01156184D01*
Y00844426D01*
X01155168D01*
Y00842394D01*
X01156184D01*
Y00786994D02*
Y00785978D01*
X01158216D01*
Y00786994D01*
X01159232D01*
Y00789026D01*
X01158216D01*
Y00790042D01*
X01156184D01*
Y00789026D01*
X01155168D01*
Y00786994D01*
X01156184D01*
X00668528Y00404368D02*
X00669544D01*
X0067056Y00405384D01*
X00671576Y00404368D01*
X00672592D01*
Y00405384D01*
X00671576Y004064D01*
X00672592Y00407416D01*
Y00408432D01*
X00671576D01*
X0067056Y00407416D01*
X00669544Y00408432D01*
X00668528D01*
Y00407416D01*
X00669544Y004064D01*
X00668528Y00405384D01*
Y00404368D01*
X00579628D02*
X00580644D01*
X0058166Y00405384D01*
X00582676Y00404368D01*
X00583692D01*
Y00405384D01*
X00582676Y004064D01*
X00583692Y00407416D01*
Y00408432D01*
X00582676D01*
X0058166Y00407416D01*
X00580644Y00408432D01*
X00579628D01*
Y00407416D01*
X00580644Y004064D01*
X00579628Y00405384D01*
Y00404368D01*
X00899668Y00869188D02*
X00900684D01*
X009017Y00870204D01*
X00902716Y00869188D01*
X00903732D01*
Y00870204D01*
X00902716Y0087122D01*
X00903732Y00872236D01*
Y00873252D01*
X00902716D01*
X009017Y00872236D01*
X00900684Y00873252D01*
X00899668D01*
Y00872236D01*
X00900684Y0087122D01*
X00899668Y00870204D01*
Y00869188D01*
Y00958088D02*
X00900684D01*
X009017Y00959104D01*
X00902716Y00958088D01*
X00903732D01*
Y00959104D01*
X00902716Y0096012D01*
X00903732Y00961136D01*
Y00962152D01*
X00902716D01*
X009017Y00961136D01*
X00900684Y00962152D01*
X00899668D01*
Y00961136D01*
X00900684Y0096012D01*
X00899668Y00959104D01*
Y00958088D01*
X00861568Y00869188D02*
X00862584D01*
X008636Y00870204D01*
X00864616Y00869188D01*
X00865632D01*
Y00870204D01*
X00864616Y0087122D01*
X00865632Y00872236D01*
Y00873252D01*
X00864616D01*
X008636Y00872236D01*
X00862584Y00873252D01*
X00861568D01*
Y00872236D01*
X00862584Y0087122D01*
X00861568Y00870204D01*
Y00869188D01*
Y00958088D02*
X00862584D01*
X008636Y00959104D01*
X00864616Y00958088D01*
X00865632D01*
Y00959104D01*
X00864616Y0096012D01*
X00865632Y00961136D01*
Y00962152D01*
X00864616D01*
X008636Y00961136D01*
X00862584Y00962152D01*
X00861568D01*
Y00961136D01*
X00862584Y0096012D01*
X00861568Y00959104D01*
Y00958088D01*
X00343888Y01206078D02*
X00344904D01*
X0034592Y01207094D01*
X00346936Y01206078D01*
X00347952D01*
Y01207094D01*
X00346936Y0120811D01*
X00347952Y01209126D01*
Y01210142D01*
X00346936D01*
X0034592Y01209126D01*
X00344904Y01210142D01*
X00343888D01*
Y01209126D01*
X00344904Y0120811D01*
X00343888Y01207094D01*
Y01206078D01*
X00432788D02*
X00433804D01*
X0043482Y01207094D01*
X00435836Y01206078D01*
X00436852D01*
Y01207094D01*
X00435836Y0120811D01*
X00436852Y01209126D01*
Y01210142D01*
X00435836D01*
X0043482Y01209126D01*
X00433804Y01210142D01*
X00432788D01*
Y01209126D01*
X00433804Y0120811D01*
X00432788Y01207094D01*
Y01206078D01*
X00516128Y00406908D02*
X00517144D01*
X0051816Y00407924D01*
X00519176Y00406908D01*
X00520192D01*
Y00407924D01*
X00519176Y0040894D01*
X00520192Y00409956D01*
Y00410972D01*
X00519176D01*
X0051816Y00409956D01*
X00517144Y00410972D01*
X00516128D01*
Y00409956D01*
X00517144Y0040894D01*
X00516128Y00407924D01*
Y00406908D01*
X00427228D02*
X00428244D01*
X0042926Y00407924D01*
X00430276Y00406908D01*
X00431292D01*
Y00407924D01*
X00430276Y0040894D01*
X00431292Y00409956D01*
Y00410972D01*
X00430276D01*
X0042926Y00409956D01*
X00428244Y00410972D01*
X00427228D01*
Y00409956D01*
X00428244Y0040894D01*
X00427228Y00407924D01*
Y00406908D01*
X00389128Y01050798D02*
X00390144D01*
X0039116Y01051814D01*
X00392176Y01050798D01*
X00393192D01*
Y01051814D01*
X00392176Y0105283D01*
X00393192Y01053846D01*
Y01054862D01*
X00392176D01*
X0039116Y01053846D01*
X00390144Y01054862D01*
X00389128D01*
Y01053846D01*
X00390144Y0105283D01*
X00389128Y01051814D01*
Y01050798D01*
X00300228D02*
X00301244D01*
X0030226Y01051814D01*
X00303276Y01050798D01*
X00304292D01*
Y01051814D01*
X00303276Y0105283D01*
X00304292Y01053846D01*
Y01054862D01*
X00303276D01*
X0030226Y01053846D01*
X00301244Y01054862D01*
X00300228D01*
Y01053846D01*
X00301244Y0105283D01*
X00300228Y01051814D01*
Y01050798D01*
X00820928Y00404368D02*
X00821944D01*
X0082296Y00405384D01*
X00823976Y00404368D01*
X00824992D01*
Y00405384D01*
X00823976Y004064D01*
X00824992Y00407416D01*
Y00408432D01*
X00823976D01*
X0082296Y00407416D01*
X00821944Y00408432D01*
X00820928D01*
Y00407416D01*
X00821944Y004064D01*
X00820928Y00405384D01*
Y00404368D01*
X00732028D02*
X00733044D01*
X0073406Y00405384D01*
X00735076Y00404368D01*
X00736092D01*
Y00405384D01*
X00735076Y004064D01*
X00736092Y00407416D01*
Y00408432D01*
X00735076D01*
X0073406Y00407416D01*
X00733044Y00408432D01*
X00732028D01*
Y00407416D01*
X00733044Y004064D01*
X00732028Y00405384D01*
Y00404368D01*
X00671068Y005461D02*
X006731Y00548132D01*
X00675132Y005461D01*
X006731Y00544068D01*
X00671068Y005461D01*
X00696468D02*
X006985Y00548132D01*
X00700532Y005461D01*
X006985Y00544068D01*
X00696468Y005461D01*
X00721868D02*
X007239Y00548132D01*
X00725932Y005461D01*
X007239Y00544068D01*
X00721868Y005461D01*
X00747268D02*
X007493Y00548132D01*
X00751332Y005461D01*
X007493Y00544068D01*
X00747268Y005461D01*
X00772668D02*
X007747Y00548132D01*
X00776732Y005461D01*
X007747Y00544068D01*
X00772668Y005461D01*
X00798068D02*
X008001Y00548132D01*
X00802132Y005461D01*
X008001Y00544068D01*
X00798068Y005461D01*
X00823468D02*
X008255Y00548132D01*
X00827532Y005461D01*
X008255Y00544068D01*
X00823468Y005461D01*
X00848868D02*
X008509Y00548132D01*
X00852932Y005461D01*
X008509Y00544068D01*
X00848868Y005461D01*
X00658368Y010541D02*
X006604Y01056132D01*
X00662432Y010541D01*
X006604Y01052068D01*
X00658368Y010541D01*
X00683768D02*
X006858Y01056132D01*
X00687832Y010541D01*
X006858Y01052068D01*
X00683768Y010541D01*
X00709168D02*
X007112Y01056132D01*
X00713232Y010541D01*
X007112Y01052068D01*
X00709168Y010541D01*
X00734568D02*
X007366Y01056132D01*
X00738632Y010541D01*
X007366Y01052068D01*
X00734568Y010541D01*
X00759968D02*
X00762Y01056132D01*
X00764032Y010541D01*
X00762Y01052068D01*
X00759968Y010541D01*
X00785368D02*
X007874Y01056132D01*
X00789432Y010541D01*
X007874Y01052068D01*
X00785368Y010541D01*
X00810768D02*
X008128Y01056132D01*
X00814832Y010541D01*
X008128Y01052068D01*
X00810768Y010541D01*
X00836168D02*
X008382Y01056132D01*
X00840232Y010541D01*
X008382Y01052068D01*
X00836168Y010541D01*
X00429768Y005461D02*
X004318Y00548132D01*
X00433832Y005461D01*
X004318Y00544068D01*
X00429768Y005461D01*
X00455168D02*
X004572Y00548132D01*
X00459232Y005461D01*
X004572Y00544068D01*
X00455168Y005461D01*
X00480568D02*
X004826Y00548132D01*
X00484632Y005461D01*
X004826Y00544068D01*
X00480568Y005461D01*
X00505968D02*
X00508Y00548132D01*
X00510032Y005461D01*
X00508Y00544068D01*
X00505968Y005461D01*
X00531368D02*
X005334Y00548132D01*
X00535432Y005461D01*
X005334Y00544068D01*
X00531368Y005461D01*
X00556768D02*
X005588Y00548132D01*
X00560832Y005461D01*
X005588Y00544068D01*
X00556768Y005461D01*
X00582168D02*
X005842Y00548132D01*
X00586232Y005461D01*
X005842Y00544068D01*
X00582168Y005461D01*
X00607568D02*
X006096Y00548132D01*
X00611632Y005461D01*
X006096Y00544068D01*
X00607568Y005461D01*
X00417068Y010541D02*
X004191Y01056132D01*
X00421132Y010541D01*
X004191Y01052068D01*
X00417068Y010541D01*
X00442468D02*
X004445Y01056132D01*
X00446532Y010541D01*
X004445Y01052068D01*
X00442468Y010541D01*
X00467868D02*
X004699Y01056132D01*
X00471932Y010541D01*
X004699Y01052068D01*
X00467868Y010541D01*
X00493268D02*
X004953Y01056132D01*
X00497332Y010541D01*
X004953Y01052068D01*
X00493268Y010541D01*
X00518668D02*
X005207Y01056132D01*
X00522732Y010541D01*
X005207Y01052068D01*
X00518668Y010541D01*
X00544068D02*
X005461Y01056132D01*
X00548132Y010541D01*
X005461Y01052068D01*
X00544068Y010541D01*
X00569468D02*
X005715Y01056132D01*
X00573532Y010541D01*
X005715Y01052068D01*
X00569468Y010541D01*
X00594868D02*
X005969Y01056132D01*
X00598932Y010541D01*
X005969Y01052068D01*
X00594868Y010541D01*
X0089662Y00361188D02*
X00894588Y00365252D01*
X00898652D01*
X0089662Y00361188D01*
Y00386588D02*
X00894588Y00390652D01*
X00898652D01*
X0089662Y00386588D01*
X00919988Y00836168D02*
X00921004D01*
X0092202Y00837184D01*
X00923036Y00836168D01*
X00924052D01*
Y00837184D01*
X00923036Y008382D01*
X00924052Y00839216D01*
Y00840232D01*
X00923036D01*
X0092202Y00839216D01*
X00921004Y00840232D01*
X00919988D01*
Y00839216D01*
X00921004Y008382D01*
X00919988Y00837184D01*
Y00836168D01*
Y00810768D02*
X00921004D01*
X0092202Y00811784D01*
X00923036Y00810768D01*
X00924052D01*
Y00811784D01*
X00923036Y008128D01*
X00924052Y00813816D01*
Y00814832D01*
X00923036D01*
X0092202Y00813816D01*
X00921004Y00814832D01*
X00919988D01*
Y00813816D01*
X00921004Y008128D01*
X00919988Y00811784D01*
Y00810768D01*
Y00785368D02*
X00921004D01*
X0092202Y00786384D01*
X00923036Y00785368D01*
X00924052D01*
Y00786384D01*
X00923036Y007874D01*
X00924052Y00788416D01*
Y00789432D01*
X00923036D01*
X0092202Y00788416D01*
X00921004Y00789432D01*
X00919988D01*
Y00788416D01*
X00921004Y007874D01*
X00919988Y00786384D01*
Y00785368D01*
Y00759968D02*
X00921004D01*
X0092202Y00760984D01*
X00923036Y00759968D01*
X00924052D01*
Y00760984D01*
X00923036Y00762D01*
X00924052Y00763016D01*
Y00764032D01*
X00923036D01*
X0092202Y00763016D01*
X00921004Y00764032D01*
X00919988D01*
Y00763016D01*
X00921004Y00762D01*
X00919988Y00760984D01*
Y00759968D01*
Y00734568D02*
X00921004D01*
X0092202Y00735584D01*
X00923036Y00734568D01*
X00924052D01*
Y00735584D01*
X00923036Y007366D01*
X00924052Y00737616D01*
Y00738632D01*
X00923036D01*
X0092202Y00737616D01*
X00921004Y00738632D01*
X00919988D01*
Y00737616D01*
X00921004Y007366D01*
X00919988Y00735584D01*
Y00734568D01*
Y00709168D02*
X00921004D01*
X0092202Y00710184D01*
X00923036Y00709168D01*
X00924052D01*
Y00710184D01*
X00923036Y007112D01*
X00924052Y00712216D01*
Y00713232D01*
X00923036D01*
X0092202Y00712216D01*
X00921004Y00713232D01*
X00919988D01*
Y00712216D01*
X00921004Y007112D01*
X00919988Y00710184D01*
Y00709168D01*
Y00683768D02*
X00921004D01*
X0092202Y00684784D01*
X00923036Y00683768D01*
X00924052D01*
Y00684784D01*
X00923036Y006858D01*
X00924052Y00686816D01*
Y00687832D01*
X00923036D01*
X0092202Y00686816D01*
X00921004Y00687832D01*
X00919988D01*
Y00686816D01*
X00921004Y006858D01*
X00919988Y00684784D01*
Y00683768D01*
Y00658368D02*
X00921004D01*
X0092202Y00659384D01*
X00923036Y00658368D01*
X00924052D01*
Y00659384D01*
X00923036Y006604D01*
X00924052Y00661416D01*
Y00662432D01*
X00923036D01*
X0092202Y00661416D01*
X00921004Y00662432D01*
X00919988D01*
Y00661416D01*
X00921004Y006604D01*
X00919988Y00659384D01*
Y00658368D01*
X00996188Y00836168D02*
X00997204D01*
X0099822Y00837184D01*
X00999236Y00836168D01*
X01000252D01*
Y00837184D01*
X00999236Y008382D01*
X01000252Y00839216D01*
Y00840232D01*
X00999236D01*
X0099822Y00839216D01*
X00997204Y00840232D01*
X00996188D01*
Y00839216D01*
X00997204Y008382D01*
X00996188Y00837184D01*
Y00836168D01*
Y00810768D02*
X00997204D01*
X0099822Y00811784D01*
X00999236Y00810768D01*
X01000252D01*
Y00811784D01*
X00999236Y008128D01*
X01000252Y00813816D01*
Y00814832D01*
X00999236D01*
X0099822Y00813816D01*
X00997204Y00814832D01*
X00996188D01*
Y00813816D01*
X00997204Y008128D01*
X00996188Y00811784D01*
Y00810768D01*
Y00785368D02*
X00997204D01*
X0099822Y00786384D01*
X00999236Y00785368D01*
X01000252D01*
Y00786384D01*
X00999236Y007874D01*
X01000252Y00788416D01*
Y00789432D01*
X00999236D01*
X0099822Y00788416D01*
X00997204Y00789432D01*
X00996188D01*
Y00788416D01*
X00997204Y007874D01*
X00996188Y00786384D01*
Y00785368D01*
Y00759968D02*
X00997204D01*
X0099822Y00760984D01*
X00999236Y00759968D01*
X01000252D01*
Y00760984D01*
X00999236Y00762D01*
X01000252Y00763016D01*
Y00764032D01*
X00999236D01*
X0099822Y00763016D01*
X00997204Y00764032D01*
X00996188D01*
Y00763016D01*
X00997204Y00762D01*
X00996188Y00760984D01*
Y00759968D01*
Y00734568D02*
X00997204D01*
X0099822Y00735584D01*
X00999236Y00734568D01*
X01000252D01*
Y00735584D01*
X00999236Y007366D01*
X01000252Y00737616D01*
Y00738632D01*
X00999236D01*
X0099822Y00737616D01*
X00997204Y00738632D01*
X00996188D01*
Y00737616D01*
X00997204Y007366D01*
X00996188Y00735584D01*
Y00734568D01*
Y00709168D02*
X00997204D01*
X0099822Y00710184D01*
X00999236Y00709168D01*
X01000252D01*
Y00710184D01*
X00999236Y007112D01*
X01000252Y00712216D01*
Y00713232D01*
X00999236D01*
X0099822Y00712216D01*
X00997204Y00713232D01*
X00996188D01*
Y00712216D01*
X00997204Y007112D01*
X00996188Y00710184D01*
Y00709168D01*
Y00683768D02*
X00997204D01*
X0099822Y00684784D01*
X00999236Y00683768D01*
X01000252D01*
Y00684784D01*
X00999236Y006858D01*
X01000252Y00686816D01*
Y00687832D01*
X00999236D01*
X0099822Y00686816D01*
X00997204Y00687832D01*
X00996188D01*
Y00686816D01*
X00997204Y006858D01*
X00996188Y00684784D01*
Y00683768D01*
Y00658368D02*
X00997204D01*
X0099822Y00659384D01*
X00999236Y00658368D01*
X01000252D01*
Y00659384D01*
X00999236Y006604D01*
X01000252Y00661416D01*
Y00662432D01*
X00999236D01*
X0099822Y00661416D01*
X00997204Y00662432D01*
X00996188D01*
Y00661416D01*
X00997204Y006604D01*
X00996188Y00659384D01*
Y00658368D01*
X0083058Y00302768D02*
X00828548Y00306832D01*
X00832612D01*
X0083058Y00302768D01*
Y00303784D02*
X00829564Y00305816D01*
X00831596D01*
X0083058Y00303784D01*
Y00328168D02*
X00828548Y00332232D01*
X00832612D01*
X0083058Y00328168D01*
Y00329184D02*
X00829564Y00331216D01*
X00831596D01*
X0083058Y00329184D01*
Y00353568D02*
X00828548Y00357632D01*
X00832612D01*
X0083058Y00353568D01*
Y00354584D02*
X00829564Y00356616D01*
X00831596D01*
X0083058Y00354584D01*
X00635508Y01182878D02*
Y01186942D01*
X00639572D01*
Y01182878D01*
X00635508D01*
X00636524Y01183894D02*
Y01185926D01*
X00638556D01*
Y01183894D01*
X00636524D01*
X00660908Y01182878D02*
Y01186942D01*
X00664972D01*
Y01182878D01*
X00660908D01*
X00661924Y01183894D02*
Y01185926D01*
X00663956D01*
Y01183894D01*
X00661924D01*
X00912368Y00472948D02*
X00913384D01*
X009144Y00473964D01*
X00915416Y00472948D01*
X00916432D01*
Y00473964D01*
X00915416Y0047498D01*
X00916432Y00475996D01*
Y00477012D01*
X00915416D01*
X009144Y00475996D01*
X00913384Y00477012D01*
X00912368D01*
Y00475996D01*
X00913384Y0047498D01*
X00912368Y00473964D01*
Y00472948D01*
X00975868Y00422148D02*
X00976884D01*
X009779Y00423164D01*
X00978916Y00422148D01*
X00979932D01*
Y00423164D01*
X00978916Y0042418D01*
X00979932Y00425196D01*
Y00426212D01*
X00978916D01*
X009779Y00425196D01*
X00976884Y00426212D01*
X00975868D01*
Y00425196D01*
X00976884Y0042418D01*
X00975868Y00423164D01*
Y00422148D01*
Y00472948D02*
X00976884D01*
X009779Y00473964D01*
X00978916Y00472948D01*
X00979932D01*
Y00473964D01*
X00978916Y0047498D01*
X00979932Y00475996D01*
Y00477012D01*
X00978916D01*
X009779Y00475996D01*
X00976884Y00477012D01*
X00975868D01*
Y00475996D01*
X00976884Y0047498D01*
X00975868Y00473964D01*
Y00472948D01*
X00912368Y00422148D02*
X00913384D01*
X009144Y00423164D01*
X00915416Y00422148D01*
X00916432D01*
Y00423164D01*
X00915416Y0042418D01*
X00916432Y00425196D01*
Y00426212D01*
X00915416D01*
X009144Y00425196D01*
X00913384Y00426212D01*
X00912368D01*
Y00425196D01*
X00913384Y0042418D01*
X00912368Y00423164D01*
Y00422148D01*
Y00572008D02*
X00913384D01*
X009144Y00573024D01*
X00915416Y00572008D01*
X00916432D01*
Y00573024D01*
X00915416Y0057404D01*
X00916432Y00575056D01*
Y00576072D01*
X00915416D01*
X009144Y00575056D01*
X00913384Y00576072D01*
X00912368D01*
Y00575056D01*
X00913384Y0057404D01*
X00912368Y00573024D01*
Y00572008D01*
X00975868Y00521208D02*
X00976884D01*
X009779Y00522224D01*
X00978916Y00521208D01*
X00979932D01*
Y00522224D01*
X00978916Y0052324D01*
X00979932Y00524256D01*
Y00525272D01*
X00978916D01*
X009779Y00524256D01*
X00976884Y00525272D01*
X00975868D01*
Y00524256D01*
X00976884Y0052324D01*
X00975868Y00522224D01*
Y00521208D01*
Y00572008D02*
X00976884D01*
X009779Y00573024D01*
X00978916Y00572008D01*
X00979932D01*
Y00573024D01*
X00978916Y0057404D01*
X00979932Y00575056D01*
Y00576072D01*
X00978916D01*
X009779Y00575056D01*
X00976884Y00576072D01*
X00975868D01*
Y00575056D01*
X00976884Y0057404D01*
X00975868Y00573024D01*
Y00572008D01*
X00912368Y00521208D02*
X00913384D01*
X009144Y00522224D01*
X00915416Y00521208D01*
X00916432D01*
Y00522224D01*
X00915416Y0052324D01*
X00916432Y00524256D01*
Y00525272D01*
X00915416D01*
X009144Y00524256D01*
X00913384Y00525272D01*
X00912368D01*
Y00524256D01*
X00913384Y0052324D01*
X00912368Y00522224D01*
Y00521208D01*
X0075184Y00467868D02*
X00752856Y00468884D01*
X00753872D01*
X00752856Y004699D01*
X00753872Y00470916D01*
X00752856D01*
X0075184Y00471932D01*
X00750824Y00470916D01*
X00749808D01*
X00750824Y004699D01*
X00749808Y00468884D01*
X00750824D01*
X0075184Y00467868D01*
Y00468884D02*
X00752348Y00469392D01*
X00752856D01*
X00752348Y004699D01*
X00752856Y00470408D01*
X00752348D01*
X0075184Y00470916D01*
X00751332Y00470408D01*
X00750824D01*
X00751332Y004699D01*
X00750824Y00469392D01*
X00751332D01*
X0075184Y00468884D01*
X0072644Y00467868D02*
X00727456Y00468884D01*
X00728472D01*
X00727456Y004699D01*
X00728472Y00470916D01*
X00727456D01*
X0072644Y00471932D01*
X00725424Y00470916D01*
X00724408D01*
X00725424Y004699D01*
X00724408Y00468884D01*
X00725424D01*
X0072644Y00467868D01*
Y00468884D02*
X00726948Y00469392D01*
X00727456D01*
X00726948Y004699D01*
X00727456Y00470408D01*
X00726948D01*
X0072644Y00470916D01*
X00725932Y00470408D01*
X00725424D01*
X00725932Y004699D01*
X00725424Y00469392D01*
X00725932D01*
X0072644Y00468884D01*
X0070104Y00467868D02*
X00702056Y00468884D01*
X00703072D01*
X00702056Y004699D01*
X00703072Y00470916D01*
X00702056D01*
X0070104Y00471932D01*
X00700024Y00470916D01*
X00699008D01*
X00700024Y004699D01*
X00699008Y00468884D01*
X00700024D01*
X0070104Y00467868D01*
Y00468884D02*
X00701548Y00469392D01*
X00702056D01*
X00701548Y004699D01*
X00702056Y00470408D01*
X00701548D01*
X0070104Y00470916D01*
X00700532Y00470408D01*
X00700024D01*
X00700532Y004699D01*
X00700024Y00469392D01*
X00700532D01*
X0070104Y00468884D01*
X0067564Y00467868D02*
X00676656Y00468884D01*
X00677672D01*
X00676656Y004699D01*
X00677672Y00470916D01*
X00676656D01*
X0067564Y00471932D01*
X00674624Y00470916D01*
X00673608D01*
X00674624Y004699D01*
X00673608Y00468884D01*
X00674624D01*
X0067564Y00467868D01*
Y00468884D02*
X00676148Y00469392D01*
X00676656D01*
X00676148Y004699D01*
X00676656Y00470408D01*
X00676148D01*
X0067564Y00470916D01*
X00675132Y00470408D01*
X00674624D01*
X00675132Y004699D01*
X00674624Y00469392D01*
X00675132D01*
X0067564Y00468884D01*
X00559308Y00818388D02*
X00560324D01*
X0056134Y00819404D01*
X00562356Y00818388D01*
X00563372D01*
Y00819404D01*
X00562356Y0082042D01*
X00563372Y00821436D01*
Y00822452D01*
X00562356D01*
X0056134Y00821436D01*
X00560324Y00822452D01*
X00559308D01*
Y00821436D01*
X00560324Y0082042D01*
X00559308Y00819404D01*
Y00818388D01*
Y00792988D02*
X00560324D01*
X0056134Y00794004D01*
X00562356Y00792988D01*
X00563372D01*
Y00794004D01*
X00562356Y0079502D01*
X00563372Y00796036D01*
Y00797052D01*
X00562356D01*
X0056134Y00796036D01*
X00560324Y00797052D01*
X00559308D01*
Y00796036D01*
X00560324Y0079502D01*
X00559308Y00794004D01*
Y00792988D01*
X00716788Y00818388D02*
X00717804D01*
X0071882Y00819404D01*
X00719836Y00818388D01*
X00720852D01*
Y00819404D01*
X00719836Y0082042D01*
X00720852Y00821436D01*
Y00822452D01*
X00719836D01*
X0071882Y00821436D01*
X00717804Y00822452D01*
X00716788D01*
Y00821436D01*
X00717804Y0082042D01*
X00716788Y00819404D01*
Y00818388D01*
Y00792988D02*
X00717804D01*
X0071882Y00794004D01*
X00719836Y00792988D01*
X00720852D01*
Y00794004D01*
X00719836Y0079502D01*
X00720852Y00796036D01*
Y00797052D01*
X00719836D01*
X0071882Y00796036D01*
X00717804Y00797052D01*
X00716788D01*
Y00796036D01*
X00717804Y0079502D01*
X00716788Y00794004D01*
Y00792988D01*
X00536928Y01117178D02*
X00537944D01*
X0053896Y01118194D01*
X00539976Y01117178D01*
X00540992D01*
Y01118194D01*
X00539976Y0111921D01*
X00540992Y01120226D01*
Y01121242D01*
X00539976D01*
X0053896Y01120226D01*
X00537944Y01121242D01*
X00536928D01*
Y01120226D01*
X00537944Y0111921D01*
X00536928Y01118194D01*
Y01117178D01*
Y01167978D02*
X00537944D01*
X0053896Y01168994D01*
X00539976Y01167978D01*
X00540992D01*
Y01168994D01*
X00539976Y0117001D01*
X00540992Y01171026D01*
Y01172042D01*
X00539976D01*
X0053896Y01171026D01*
X00537944Y01172042D01*
X00536928D01*
Y01171026D01*
X00537944Y0117001D01*
X00536928Y01168994D01*
Y01167978D01*
X010541Y00732028D02*
X01052068Y00736092D01*
X01056132D01*
X010541Y00732028D01*
Y00706628D02*
X01052068Y00710692D01*
X01056132D01*
X010541Y00706628D01*
Y00808228D02*
X01052068Y00812292D01*
X01056132D01*
X010541Y00808228D01*
Y00782828D02*
X01052068Y00786892D01*
X01056132D01*
X010541Y00782828D01*
X0087376Y00737108D02*
X00871728Y00741172D01*
X00875792D01*
X0087376Y00737108D01*
Y00711708D02*
X00871728Y00715772D01*
X00875792D01*
X0087376Y00711708D01*
Y00808228D02*
X00871728Y00812292D01*
X00875792D01*
X0087376Y00808228D01*
Y00782828D02*
X00871728Y00786892D01*
X00875792D01*
X0087376Y00782828D01*
X00620268Y00848868D02*
X00621284D01*
X006223Y00849884D01*
X00623316Y00848868D01*
X00624332D01*
Y00849884D01*
X00623316Y008509D01*
X00624332Y00851916D01*
Y00852932D01*
X00623316D01*
X006223Y00851916D01*
X00621284Y00852932D01*
X00620268D01*
Y00851916D01*
X00621284Y008509D01*
X00620268Y00849884D01*
Y00848868D01*
X00569468D02*
X00570484D01*
X005715Y00849884D01*
X00572516Y00848868D01*
X00573532D01*
Y00849884D01*
X00572516Y008509D01*
X00573532Y00851916D01*
Y00852932D01*
X00572516D01*
X005715Y00851916D01*
X00570484Y00852932D01*
X00569468D01*
Y00851916D01*
X00570484Y008509D01*
X00569468Y00849884D01*
Y00848868D01*
X00389128Y00339598D02*
X00390144D01*
X0039116Y00340614D01*
X00392176Y00339598D01*
X00393192D01*
Y00340614D01*
X00392176Y0034163D01*
X00393192Y00342646D01*
Y00343662D01*
X00392176D01*
X0039116Y00342646D01*
X00390144Y00343662D01*
X00389128D01*
Y00342646D01*
X00390144Y0034163D01*
X00389128Y00340614D01*
Y00339598D01*
Y00288798D02*
X00390144D01*
X0039116Y00289814D01*
X00392176Y00288798D01*
X00393192D01*
Y00289814D01*
X00392176Y0029083D01*
X00393192Y00291846D01*
Y00292862D01*
X00392176D01*
X0039116Y00291846D01*
X00390144Y00292862D01*
X00389128D01*
Y00291846D01*
X00390144Y0029083D01*
X00389128Y00289814D01*
Y00288798D01*
X00445008Y00339598D02*
X00446024D01*
X0044704Y00340614D01*
X00448056Y00339598D01*
X00449072D01*
Y00340614D01*
X00448056Y0034163D01*
X00449072Y00342646D01*
Y00343662D01*
X00448056D01*
X0044704Y00342646D01*
X00446024Y00343662D01*
X00445008D01*
Y00342646D01*
X00446024Y0034163D01*
X00445008Y00340614D01*
Y00339598D01*
Y00288798D02*
X00446024D01*
X0044704Y00289814D01*
X00448056Y00288798D01*
X00449072D01*
Y00289814D01*
X00448056Y0029083D01*
X00449072Y00291846D01*
Y00292862D01*
X00448056D01*
X0044704Y00291846D01*
X00446024Y00292862D01*
X00445008D01*
Y00291846D01*
X00446024Y0029083D01*
X00445008Y00289814D01*
Y00288798D01*
X00711708Y00340868D02*
X00712724D01*
X0071374Y00341884D01*
X00714756Y00340868D01*
X00715772D01*
Y00341884D01*
X00714756Y003429D01*
X00715772Y00343916D01*
Y00344932D01*
X00714756D01*
X0071374Y00343916D01*
X00712724Y00344932D01*
X00711708D01*
Y00343916D01*
X00712724Y003429D01*
X00711708Y00341884D01*
Y00340868D01*
Y00290068D02*
X00712724D01*
X0071374Y00291084D01*
X00714756Y00290068D01*
X00715772D01*
Y00291084D01*
X00714756Y002921D01*
X00715772Y00293116D01*
Y00294132D01*
X00714756D01*
X0071374Y00293116D01*
X00712724Y00294132D01*
X00711708D01*
Y00293116D01*
X00712724Y002921D01*
X00711708Y00291084D01*
Y00290068D01*
X00759968Y00340868D02*
X00760984D01*
X00762Y00341884D01*
X00763016Y00340868D01*
X00764032D01*
Y00341884D01*
X00763016Y003429D01*
X00764032Y00343916D01*
Y00344932D01*
X00763016D01*
X00762Y00343916D01*
X00760984Y00344932D01*
X00759968D01*
Y00343916D01*
X00760984Y003429D01*
X00759968Y00341884D01*
Y00340868D01*
Y00290068D02*
X00760984D01*
X00762Y00291084D01*
X00763016Y00290068D01*
X00764032D01*
Y00291084D01*
X00763016Y002921D01*
X00764032Y00293116D01*
Y00294132D01*
X00763016D01*
X00762Y00293116D01*
X00760984Y00294132D01*
X00759968D01*
Y00293116D01*
X00760984Y002921D01*
X00759968Y00291084D01*
Y00290068D01*
X00978408Y01105408D02*
X00979424Y0110744D01*
X00978408Y01109472D01*
X0098044Y01108456D01*
X00982472Y01109472D01*
X00981456Y0110744D01*
X00982472Y01105408D01*
X0098044Y01106424D01*
X00978408Y01105408D01*
X00979424Y01106424D02*
X00979932Y0110744D01*
X00979424Y01108456D01*
X0098044Y01107948D01*
X00981456Y01108456D01*
X00980948Y0110744D01*
X00981456Y01106424D01*
X0098044Y01106932D01*
X00979424Y01106424D01*
X01181608Y01105408D02*
X01182624Y0110744D01*
X01181608Y01109472D01*
X0118364Y01108456D01*
X01185672Y01109472D01*
X01184656Y0110744D01*
X01185672Y01105408D01*
X0118364Y01106424D01*
X01181608Y01105408D01*
X01182624Y01106424D02*
X01183132Y0110744D01*
X01182624Y01108456D01*
X0118364Y01107948D01*
X01184656Y01108456D01*
X01184148Y0110744D01*
X01184656Y01106424D01*
X0118364Y01106932D01*
X01182624Y01106424D01*
X00335788Y00747268D02*
X00336804D01*
X0033782Y00748284D01*
X00338836Y00747268D01*
X00339852D01*
Y00748284D01*
X00338836Y007493D01*
X00339852Y00750316D01*
Y00751332D01*
X00338836D01*
X0033782Y00750316D01*
X00336804Y00751332D01*
X00335788D01*
Y00750316D01*
X00336804Y007493D01*
X00335788Y00748284D01*
Y00747268D01*
X00361188D02*
X00362204D01*
X0036322Y00748284D01*
X00364236Y00747268D01*
X00365252D01*
Y00748284D01*
X00364236Y007493D01*
X00365252Y00750316D01*
Y00751332D01*
X00364236D01*
X0036322Y00750316D01*
X00362204Y00751332D01*
X00361188D01*
Y00750316D01*
X00362204Y007493D01*
X00361188Y00748284D01*
Y00747268D01*
X00386588D02*
X00387604D01*
X0038862Y00748284D01*
X00389636Y00747268D01*
X00390652D01*
Y00748284D01*
X00389636Y007493D01*
X00390652Y00750316D01*
Y00751332D01*
X00389636D01*
X0038862Y00750316D01*
X00387604Y00751332D01*
X00386588D01*
Y00750316D01*
X00387604Y007493D01*
X00386588Y00748284D01*
Y00747268D01*
X00411988D02*
X00413004D01*
X0041402Y00748284D01*
X00415036Y00747268D01*
X00416052D01*
Y00748284D01*
X00415036Y007493D01*
X00416052Y00750316D01*
Y00751332D01*
X00415036D01*
X0041402Y00750316D01*
X00413004Y00751332D01*
X00411988D01*
Y00750316D01*
X00413004Y007493D01*
X00411988Y00748284D01*
Y00747268D01*
X00437388D02*
X00438404D01*
X0043942Y00748284D01*
X00440436Y00747268D01*
X00441452D01*
Y00748284D01*
X00440436Y007493D01*
X00441452Y00750316D01*
Y00751332D01*
X00440436D01*
X0043942Y00750316D01*
X00438404Y00751332D01*
X00437388D01*
Y00750316D01*
X00438404Y007493D01*
X00437388Y00748284D01*
Y00747268D01*
X00462788D02*
X00463804D01*
X0046482Y00748284D01*
X00465836Y00747268D01*
X00466852D01*
Y00748284D01*
X00465836Y007493D01*
X00466852Y00750316D01*
Y00751332D01*
X00465836D01*
X0046482Y00750316D01*
X00463804Y00751332D01*
X00462788D01*
Y00750316D01*
X00463804Y007493D01*
X00462788Y00748284D01*
Y00747268D01*
X00488188D02*
X00489204D01*
X0049022Y00748284D01*
X00491236Y00747268D01*
X00492252D01*
Y00748284D01*
X00491236Y007493D01*
X00492252Y00750316D01*
Y00751332D01*
X00491236D01*
X0049022Y00750316D01*
X00489204Y00751332D01*
X00488188D01*
Y00750316D01*
X00489204Y007493D01*
X00488188Y00748284D01*
Y00747268D01*
X00513588D02*
X00514604D01*
X0051562Y00748284D01*
X00516636Y00747268D01*
X00517652D01*
Y00748284D01*
X00516636Y007493D01*
X00517652Y00750316D01*
Y00751332D01*
X00516636D01*
X0051562Y00750316D01*
X00514604Y00751332D01*
X00513588D01*
Y00750316D01*
X00514604Y007493D01*
X00513588Y00748284D01*
Y00747268D01*
X00538988D02*
X00540004D01*
X0054102Y00748284D01*
X00542036Y00747268D01*
X00543052D01*
Y00748284D01*
X00542036Y007493D01*
X00543052Y00750316D01*
Y00751332D01*
X00542036D01*
X0054102Y00750316D01*
X00540004Y00751332D01*
X00538988D01*
Y00750316D01*
X00540004Y007493D01*
X00538988Y00748284D01*
Y00747268D01*
X00564388D02*
X00565404D01*
X0056642Y00748284D01*
X00567436Y00747268D01*
X00568452D01*
Y00748284D01*
X00567436Y007493D01*
X00568452Y00750316D01*
Y00751332D01*
X00567436D01*
X0056642Y00750316D01*
X00565404Y00751332D01*
X00564388D01*
Y00750316D01*
X00565404Y007493D01*
X00564388Y00748284D01*
Y00747268D01*
X00589788D02*
X00590804D01*
X0059182Y00748284D01*
X00592836Y00747268D01*
X00593852D01*
Y00748284D01*
X00592836Y007493D01*
X00593852Y00750316D01*
Y00751332D01*
X00592836D01*
X0059182Y00750316D01*
X00590804Y00751332D01*
X00589788D01*
Y00750316D01*
X00590804Y007493D01*
X00589788Y00748284D01*
Y00747268D01*
X00615188D02*
X00616204D01*
X0061722Y00748284D01*
X00618236Y00747268D01*
X00619252D01*
Y00748284D01*
X00618236Y007493D01*
X00619252Y00750316D01*
Y00751332D01*
X00618236D01*
X0061722Y00750316D01*
X00616204Y00751332D01*
X00615188D01*
Y00750316D01*
X00616204Y007493D01*
X00615188Y00748284D01*
Y00747268D01*
X00640588D02*
X00641604D01*
X0064262Y00748284D01*
X00643636Y00747268D01*
X00644652D01*
Y00748284D01*
X00643636Y007493D01*
X00644652Y00750316D01*
Y00751332D01*
X00643636D01*
X0064262Y00750316D01*
X00641604Y00751332D01*
X00640588D01*
Y00750316D01*
X00641604Y007493D01*
X00640588Y00748284D01*
Y00747268D01*
X00665988D02*
X00667004D01*
X0066802Y00748284D01*
X00669036Y00747268D01*
X00670052D01*
Y00748284D01*
X00669036Y007493D01*
X00670052Y00750316D01*
Y00751332D01*
X00669036D01*
X0066802Y00750316D01*
X00667004Y00751332D01*
X00665988D01*
Y00750316D01*
X00667004Y007493D01*
X00665988Y00748284D01*
Y00747268D01*
X00691388D02*
X00692404D01*
X0069342Y00748284D01*
X00694436Y00747268D01*
X00695452D01*
Y00748284D01*
X00694436Y007493D01*
X00695452Y00750316D01*
Y00751332D01*
X00694436D01*
X0069342Y00750316D01*
X00692404Y00751332D01*
X00691388D01*
Y00750316D01*
X00692404Y007493D01*
X00691388Y00748284D01*
Y00747268D01*
X00716788D02*
X00717804D01*
X0071882Y00748284D01*
X00719836Y00747268D01*
X00720852D01*
Y00748284D01*
X00719836Y007493D01*
X00720852Y00750316D01*
Y00751332D01*
X00719836D01*
X0071882Y00750316D01*
X00717804Y00751332D01*
X00716788D01*
Y00750316D01*
X00717804Y007493D01*
X00716788Y00748284D01*
Y00747268D01*
X00742188D02*
X00743204D01*
X0074422Y00748284D01*
X00745236Y00747268D01*
X00746252D01*
Y00748284D01*
X00745236Y007493D01*
X00746252Y00750316D01*
Y00751332D01*
X00745236D01*
X0074422Y00750316D01*
X00743204Y00751332D01*
X00742188D01*
Y00750316D01*
X00743204Y007493D01*
X00742188Y00748284D01*
Y00747268D01*
X00767588D02*
X00768604D01*
X0076962Y00748284D01*
X00770636Y00747268D01*
X00771652D01*
Y00748284D01*
X00770636Y007493D01*
X00771652Y00750316D01*
Y00751332D01*
X00770636D01*
X0076962Y00750316D01*
X00768604Y00751332D01*
X00767588D01*
Y00750316D01*
X00768604Y007493D01*
X00767588Y00748284D01*
Y00747268D01*
X00792988D02*
X00794004D01*
X0079502Y00748284D01*
X00796036Y00747268D01*
X00797052D01*
Y00748284D01*
X00796036Y007493D01*
X00797052Y00750316D01*
Y00751332D01*
X00796036D01*
X0079502Y00750316D01*
X00794004Y00751332D01*
X00792988D01*
Y00750316D01*
X00794004Y007493D01*
X00792988Y00748284D01*
Y00747268D01*
X00818388D02*
X00819404D01*
X0082042Y00748284D01*
X00821436Y00747268D01*
X00822452D01*
Y00748284D01*
X00821436Y007493D01*
X00822452Y00750316D01*
Y00751332D01*
X00821436D01*
X0082042Y00750316D01*
X00819404Y00751332D01*
X00818388D01*
Y00750316D01*
X00819404Y007493D01*
X00818388Y00748284D01*
Y00747268D01*
X00335788Y00899668D02*
X00336804D01*
X0033782Y00900684D01*
X00338836Y00899668D01*
X00339852D01*
Y00900684D01*
X00338836Y009017D01*
X00339852Y00902716D01*
Y00903732D01*
X00338836D01*
X0033782Y00902716D01*
X00336804Y00903732D01*
X00335788D01*
Y00902716D01*
X00336804Y009017D01*
X00335788Y00900684D01*
Y00899668D01*
X00361188D02*
X00362204D01*
X0036322Y00900684D01*
X00364236Y00899668D01*
X00365252D01*
Y00900684D01*
X00364236Y009017D01*
X00365252Y00902716D01*
Y00903732D01*
X00364236D01*
X0036322Y00902716D01*
X00362204Y00903732D01*
X00361188D01*
Y00902716D01*
X00362204Y009017D01*
X00361188Y00900684D01*
Y00899668D01*
X00386588D02*
X00387604D01*
X0038862Y00900684D01*
X00389636Y00899668D01*
X00390652D01*
Y00900684D01*
X00389636Y009017D01*
X00390652Y00902716D01*
Y00903732D01*
X00389636D01*
X0038862Y00902716D01*
X00387604Y00903732D01*
X00386588D01*
Y00902716D01*
X00387604Y009017D01*
X00386588Y00900684D01*
Y00899668D01*
X00411988D02*
X00413004D01*
X0041402Y00900684D01*
X00415036Y00899668D01*
X00416052D01*
Y00900684D01*
X00415036Y009017D01*
X00416052Y00902716D01*
Y00903732D01*
X00415036D01*
X0041402Y00902716D01*
X00413004Y00903732D01*
X00411988D01*
Y00902716D01*
X00413004Y009017D01*
X00411988Y00900684D01*
Y00899668D01*
X00437388D02*
X00438404D01*
X0043942Y00900684D01*
X00440436Y00899668D01*
X00441452D01*
Y00900684D01*
X00440436Y009017D01*
X00441452Y00902716D01*
Y00903732D01*
X00440436D01*
X0043942Y00902716D01*
X00438404Y00903732D01*
X00437388D01*
Y00902716D01*
X00438404Y009017D01*
X00437388Y00900684D01*
Y00899668D01*
X00462788D02*
X00463804D01*
X0046482Y00900684D01*
X00465836Y00899668D01*
X00466852D01*
Y00900684D01*
X00465836Y009017D01*
X00466852Y00902716D01*
Y00903732D01*
X00465836D01*
X0046482Y00902716D01*
X00463804Y00903732D01*
X00462788D01*
Y00902716D01*
X00463804Y009017D01*
X00462788Y00900684D01*
Y00899668D01*
X00488188D02*
X00489204D01*
X0049022Y00900684D01*
X00491236Y00899668D01*
X00492252D01*
Y00900684D01*
X00491236Y009017D01*
X00492252Y00902716D01*
Y00903732D01*
X00491236D01*
X0049022Y00902716D01*
X00489204Y00903732D01*
X00488188D01*
Y00902716D01*
X00489204Y009017D01*
X00488188Y00900684D01*
Y00899668D01*
X00513588D02*
X00514604D01*
X0051562Y00900684D01*
X00516636Y00899668D01*
X00517652D01*
Y00900684D01*
X00516636Y009017D01*
X00517652Y00902716D01*
Y00903732D01*
X00516636D01*
X0051562Y00902716D01*
X00514604Y00903732D01*
X00513588D01*
Y00902716D01*
X00514604Y009017D01*
X00513588Y00900684D01*
Y00899668D01*
X00538988D02*
X00540004D01*
X0054102Y00900684D01*
X00542036Y00899668D01*
X00543052D01*
Y00900684D01*
X00542036Y009017D01*
X00543052Y00902716D01*
Y00903732D01*
X00542036D01*
X0054102Y00902716D01*
X00540004Y00903732D01*
X00538988D01*
Y00902716D01*
X00540004Y009017D01*
X00538988Y00900684D01*
Y00899668D01*
X00564388D02*
X00565404D01*
X0056642Y00900684D01*
X00567436Y00899668D01*
X00568452D01*
Y00900684D01*
X00567436Y009017D01*
X00568452Y00902716D01*
Y00903732D01*
X00567436D01*
X0056642Y00902716D01*
X00565404Y00903732D01*
X00564388D01*
Y00902716D01*
X00565404Y009017D01*
X00564388Y00900684D01*
Y00899668D01*
X00589788D02*
X00590804D01*
X0059182Y00900684D01*
X00592836Y00899668D01*
X00593852D01*
Y00900684D01*
X00592836Y009017D01*
X00593852Y00902716D01*
Y00903732D01*
X00592836D01*
X0059182Y00902716D01*
X00590804Y00903732D01*
X00589788D01*
Y00902716D01*
X00590804Y009017D01*
X00589788Y00900684D01*
Y00899668D01*
X00615188D02*
X00616204D01*
X0061722Y00900684D01*
X00618236Y00899668D01*
X00619252D01*
Y00900684D01*
X00618236Y009017D01*
X00619252Y00902716D01*
Y00903732D01*
X00618236D01*
X0061722Y00902716D01*
X00616204Y00903732D01*
X00615188D01*
Y00902716D01*
X00616204Y009017D01*
X00615188Y00900684D01*
Y00899668D01*
X00640588D02*
X00641604D01*
X0064262Y00900684D01*
X00643636Y00899668D01*
X00644652D01*
Y00900684D01*
X00643636Y009017D01*
X00644652Y00902716D01*
Y00903732D01*
X00643636D01*
X0064262Y00902716D01*
X00641604Y00903732D01*
X00640588D01*
Y00902716D01*
X00641604Y009017D01*
X00640588Y00900684D01*
Y00899668D01*
X00665988D02*
X00667004D01*
X0066802Y00900684D01*
X00669036Y00899668D01*
X00670052D01*
Y00900684D01*
X00669036Y009017D01*
X00670052Y00902716D01*
Y00903732D01*
X00669036D01*
X0066802Y00902716D01*
X00667004Y00903732D01*
X00665988D01*
Y00902716D01*
X00667004Y009017D01*
X00665988Y00900684D01*
Y00899668D01*
X00691388D02*
X00692404D01*
X0069342Y00900684D01*
X00694436Y00899668D01*
X00695452D01*
Y00900684D01*
X00694436Y009017D01*
X00695452Y00902716D01*
Y00903732D01*
X00694436D01*
X0069342Y00902716D01*
X00692404Y00903732D01*
X00691388D01*
Y00902716D01*
X00692404Y009017D01*
X00691388Y00900684D01*
Y00899668D01*
X00716788D02*
X00717804D01*
X0071882Y00900684D01*
X00719836Y00899668D01*
X00720852D01*
Y00900684D01*
X00719836Y009017D01*
X00720852Y00902716D01*
Y00903732D01*
X00719836D01*
X0071882Y00902716D01*
X00717804Y00903732D01*
X00716788D01*
Y00902716D01*
X00717804Y009017D01*
X00716788Y00900684D01*
Y00899668D01*
X00742188D02*
X00743204D01*
X0074422Y00900684D01*
X00745236Y00899668D01*
X00746252D01*
Y00900684D01*
X00745236Y009017D01*
X00746252Y00902716D01*
Y00903732D01*
X00745236D01*
X0074422Y00902716D01*
X00743204Y00903732D01*
X00742188D01*
Y00902716D01*
X00743204Y009017D01*
X00742188Y00900684D01*
Y00899668D01*
X00767588D02*
X00768604D01*
X0076962Y00900684D01*
X00770636Y00899668D01*
X00771652D01*
Y00900684D01*
X00770636Y009017D01*
X00771652Y00902716D01*
Y00903732D01*
X00770636D01*
X0076962Y00902716D01*
X00768604Y00903732D01*
X00767588D01*
Y00902716D01*
X00768604Y009017D01*
X00767588Y00900684D01*
Y00899668D01*
X00792988D02*
X00794004D01*
X0079502Y00900684D01*
X00796036Y00899668D01*
X00797052D01*
Y00900684D01*
X00796036Y009017D01*
X00797052Y00902716D01*
Y00903732D01*
X00796036D01*
X0079502Y00902716D01*
X00794004Y00903732D01*
X00792988D01*
Y00902716D01*
X00794004Y009017D01*
X00792988Y00900684D01*
Y00899668D01*
X00818388D02*
X00819404D01*
X0082042Y00900684D01*
X00821436Y00899668D01*
X00822452D01*
Y00900684D01*
X00821436Y009017D01*
X00822452Y00902716D01*
Y00903732D01*
X00821436D01*
X0082042Y00902716D01*
X00819404Y00903732D01*
X00818388D01*
Y00902716D01*
X00819404Y009017D01*
X00818388Y00900684D01*
Y00899668D01*
X005588Y00472948D02*
X00556768Y00477012D01*
X00560832D01*
X005588Y00472948D01*
X005334D02*
X00531368Y00477012D01*
X00535432D01*
X005334Y00472948D01*
X00508D02*
X00505968Y00477012D01*
X00510032D01*
X00508Y00472948D01*
X01131824Y00393954D02*
Y00392938D01*
X01133856D01*
Y00393954D01*
X01134872D01*
Y00395986D01*
X01133856D01*
Y00397002D01*
X01131824D01*
Y00395986D01*
X01130808D01*
Y00393954D01*
X01131824D01*
X01132332Y00394462D02*
Y00393954D01*
X01133348D01*
Y00394462D01*
X01133856D01*
Y00395478D01*
X01133348D01*
Y00395986D01*
X01132332D01*
Y00395478D01*
X01131824D01*
Y00394462D01*
X01132332D01*
X01131824Y00330454D02*
Y00329438D01*
X01133856D01*
Y00330454D01*
X01134872D01*
Y00332486D01*
X01133856D01*
Y00333502D01*
X01131824D01*
Y00332486D01*
X01130808D01*
Y00330454D01*
X01131824D01*
X01132332Y00330962D02*
Y00330454D01*
X01133348D01*
Y00330962D01*
X01133856D01*
Y00331978D01*
X01133348D01*
Y00332486D01*
X01132332D01*
Y00331978D01*
X01131824D01*
Y00330962D01*
X01132332D01*
X01182624Y00368554D02*
Y00367538D01*
X01184656D01*
Y00368554D01*
X01185672D01*
Y00370586D01*
X01184656D01*
Y00371602D01*
X01182624D01*
Y00370586D01*
X01181608D01*
Y00368554D01*
X01182624D01*
X01183132Y00369062D02*
Y00368554D01*
X01184148D01*
Y00369062D01*
X01184656D01*
Y00370078D01*
X01184148D01*
Y00370586D01*
X01183132D01*
Y00370078D01*
X01182624D01*
Y00369062D01*
X01183132D01*
X00335788Y0029083D02*
X0033782Y00292862D01*
X00339852Y0029083D01*
X0033782Y00288798D01*
X00335788Y0029083D01*
Y0031623D02*
X0033782Y00318262D01*
X00339852Y0031623D01*
X0033782Y00314198D01*
X00335788Y0031623D01*
Y0034163D02*
X0033782Y00343662D01*
X00339852Y0034163D01*
X0033782Y00339598D01*
X00335788Y0034163D01*
X00615188Y01078738D02*
X00616204D01*
X0061722Y01079754D01*
X00618236Y01078738D01*
X00619252D01*
Y01079754D01*
X00618236Y0108077D01*
X00619252Y01081786D01*
Y01082802D01*
X00618236D01*
X0061722Y01081786D01*
X00616204Y01082802D01*
X00615188D01*
Y01081786D01*
X00616204Y0108077D01*
X00615188Y01079754D01*
Y01078738D01*
X00616204Y01079754D02*
X00616712D01*
X0061722Y01080262D01*
X00617728Y01079754D01*
X00618236D01*
Y01080262D01*
X00617728Y0108077D01*
X00618236Y01081278D01*
Y01081786D01*
X00617728D01*
X0061722Y01081278D01*
X00616712Y01081786D01*
X00616204D01*
Y01081278D01*
X00616712Y0108077D01*
X00616204Y01080262D01*
Y01079754D01*
X00351508Y01002878D02*
X00352524D01*
X0035354Y01003894D01*
X00354556Y01002878D01*
X00355572D01*
Y01003894D01*
X00354556Y0100491D01*
X00355572Y01005926D01*
Y01006942D01*
X00354556D01*
X0035354Y01005926D01*
X00352524Y01006942D01*
X00351508D01*
Y01005926D01*
X00352524Y0100491D01*
X00351508Y01003894D01*
Y01002878D01*
X00352524Y01003894D02*
X00353032D01*
X0035354Y01004402D01*
X00354048Y01003894D01*
X00354556D01*
Y01004402D01*
X00354048Y0100491D01*
X00354556Y01005418D01*
Y01005926D01*
X00354048D01*
X0035354Y01005418D01*
X00353032Y01005926D01*
X00352524D01*
Y01005418D01*
X00353032Y0100491D01*
X00352524Y01004402D01*
Y01003894D01*
X00514068Y01226398D02*
X00515084D01*
X005161Y01227414D01*
X00517116Y01226398D01*
X00518132D01*
Y01227414D01*
X00517116Y0122843D01*
X00518132Y01229446D01*
Y01230462D01*
X00517116D01*
X005161Y01229446D01*
X00515084Y01230462D01*
X00514068D01*
Y01229446D01*
X00515084Y0122843D01*
X00514068Y01227414D01*
Y01226398D01*
X00515084Y01227414D02*
X00515592D01*
X005161Y01227922D01*
X00516608Y01227414D01*
X00517116D01*
Y01227922D01*
X00516608Y0122843D01*
X00517116Y01228938D01*
Y01229446D01*
X00516608D01*
X005161Y01228938D01*
X00515592Y01229446D01*
X00515084D01*
Y01228938D01*
X00515592Y0122843D01*
X00515084Y01227922D01*
Y01227414D01*
X00318008Y01081278D02*
X00319024D01*
X0032004Y01082294D01*
X00321056Y01081278D01*
X00322072D01*
Y01082294D01*
X00321056Y0108331D01*
X00322072Y01084326D01*
Y01085342D01*
X00321056D01*
X0032004Y01084326D01*
X00319024Y01085342D01*
X00318008D01*
Y01084326D01*
X00319024Y0108331D01*
X00318008Y01082294D01*
Y01081278D01*
X00319024Y01082294D02*
X00319532D01*
X0032004Y01082802D01*
X00320548Y01082294D01*
X00321056D01*
Y01082802D01*
X00320548Y0108331D01*
X00321056Y01083818D01*
Y01084326D01*
X00320548D01*
X0032004Y01083818D01*
X00319532Y01084326D01*
X00319024D01*
Y01083818D01*
X00319532Y0108331D01*
X00319024Y01082802D01*
Y01082294D01*
X00351028Y01081278D02*
X00352044D01*
X0035306Y01082294D01*
X00354076Y01081278D01*
X00355092D01*
Y01082294D01*
X00354076Y0108331D01*
X00355092Y01084326D01*
Y01085342D01*
X00354076D01*
X0035306Y01084326D01*
X00352044Y01085342D01*
X00351028D01*
Y01084326D01*
X00352044Y0108331D01*
X00351028Y01082294D01*
Y01081278D01*
X00352044Y01082294D02*
X00352552D01*
X0035306Y01082802D01*
X00353568Y01082294D01*
X00354076D01*
Y01082802D01*
X00353568Y0108331D01*
X00354076Y01083818D01*
Y01084326D01*
X00353568D01*
X0035306Y01083818D01*
X00352552Y01084326D01*
X00352044D01*
Y01083818D01*
X00352552Y0108331D01*
X00352044Y01082802D01*
Y01082294D01*
X00579628Y00382778D02*
X00580644D01*
X0058166Y00383794D01*
X00582676Y00382778D01*
X00583692D01*
Y00383794D01*
X00582676Y0038481D01*
X00583692Y00385826D01*
Y00386842D01*
X00582676D01*
X0058166Y00385826D01*
X00580644Y00386842D01*
X00579628D01*
Y00385826D01*
X00580644Y0038481D01*
X00579628Y00383794D01*
Y00382778D01*
X00580644Y00383794D02*
X00581152D01*
X0058166Y00384302D01*
X00582168Y00383794D01*
X00582676D01*
Y00384302D01*
X00582168Y0038481D01*
X00582676Y00385318D01*
Y00385826D01*
X00582168D01*
X0058166Y00385318D01*
X00581152Y00385826D01*
X00580644D01*
Y00385318D01*
X00581152Y0038481D01*
X00580644Y00384302D01*
Y00383794D01*
X00622808Y00456438D02*
X00623824D01*
X0062484Y00457454D01*
X00625856Y00456438D01*
X00626872D01*
Y00457454D01*
X00625856Y0045847D01*
X00626872Y00459486D01*
Y00460502D01*
X00625856D01*
X0062484Y00459486D01*
X00623824Y00460502D01*
X00622808D01*
Y00459486D01*
X00623824Y0045847D01*
X00622808Y00457454D01*
Y00456438D01*
X00623824Y00457454D02*
X00624332D01*
X0062484Y00457962D01*
X00625348Y00457454D01*
X00625856D01*
Y00457962D01*
X00625348Y0045847D01*
X00625856Y00458978D01*
Y00459486D01*
X00625348D01*
X0062484Y00458978D01*
X00624332Y00459486D01*
X00623824D01*
Y00458978D01*
X00624332Y0045847D01*
X00623824Y00457962D01*
Y00457454D01*
X00564388Y00687578D02*
X00565404D01*
X0056642Y00688594D01*
X00567436Y00687578D01*
X00568452D01*
Y00688594D01*
X00567436Y0068961D01*
X00568452Y00690626D01*
Y00691642D01*
X00567436D01*
X0056642Y00690626D01*
X00565404Y00691642D01*
X00564388D01*
Y00690626D01*
X00565404Y0068961D01*
X00564388Y00688594D01*
Y00687578D01*
X00565404Y00688594D02*
X00565912D01*
X0056642Y00689102D01*
X00566928Y00688594D01*
X00567436D01*
Y00689102D01*
X00566928Y0068961D01*
X00567436Y00690118D01*
Y00690626D01*
X00566928D01*
X0056642Y00690118D01*
X00565912Y00690626D01*
X00565404D01*
Y00690118D01*
X00565912Y0068961D01*
X00565404Y00689102D01*
Y00688594D01*
X00818388Y00827278D02*
X00819404D01*
X0082042Y00828294D01*
X00821436Y00827278D01*
X00822452D01*
Y00828294D01*
X00821436Y0082931D01*
X00822452Y00830326D01*
Y00831342D01*
X00821436D01*
X0082042Y00830326D01*
X00819404Y00831342D01*
X00818388D01*
Y00830326D01*
X00819404Y0082931D01*
X00818388Y00828294D01*
Y00827278D01*
X00819404Y00828294D02*
X00819912D01*
X0082042Y00828802D01*
X00820928Y00828294D01*
X00821436D01*
Y00828802D01*
X00820928Y0082931D01*
X00821436Y00829818D01*
Y00830326D01*
X00820928D01*
X0082042Y00829818D01*
X00819912Y00830326D01*
X00819404D01*
Y00829818D01*
X00819912Y0082931D01*
X00819404Y00828802D01*
Y00828294D01*
X00787908Y00801878D02*
X00788924D01*
X0078994Y00802894D01*
X00790956Y00801878D01*
X00791972D01*
Y00802894D01*
X00790956Y0080391D01*
X00791972Y00804926D01*
Y00805942D01*
X00790956D01*
X0078994Y00804926D01*
X00788924Y00805942D01*
X00787908D01*
Y00804926D01*
X00788924Y0080391D01*
X00787908Y00802894D01*
Y00801878D01*
X00788924Y00802894D02*
X00789432D01*
X0078994Y00803402D01*
X00790448Y00802894D01*
X00790956D01*
Y00803402D01*
X00790448Y0080391D01*
X00790956Y00804418D01*
Y00804926D01*
X00790448D01*
X0078994Y00804418D01*
X00789432Y00804926D01*
X00788924D01*
Y00804418D01*
X00789432Y0080391D01*
X00788924Y00803402D01*
Y00802894D01*
X00617728Y00687578D02*
X00618744D01*
X0061976Y00688594D01*
X00620776Y00687578D01*
X00621792D01*
Y00688594D01*
X00620776Y0068961D01*
X00621792Y00690626D01*
Y00691642D01*
X00620776D01*
X0061976Y00690626D01*
X00618744Y00691642D01*
X00617728D01*
Y00690626D01*
X00618744Y0068961D01*
X00617728Y00688594D01*
Y00687578D01*
X00618744Y00688594D02*
X00619252D01*
X0061976Y00689102D01*
X00620268Y00688594D01*
X00620776D01*
Y00689102D01*
X00620268Y0068961D01*
X00620776Y00690118D01*
Y00690626D01*
X00620268D01*
X0061976Y00690118D01*
X00619252Y00690626D01*
X00618744D01*
Y00690118D01*
X00619252Y0068961D01*
X00618744Y00689102D01*
Y00688594D01*
X00643128Y00499618D02*
X00644144D01*
X0064516Y00500634D01*
X00646176Y00499618D01*
X00647192D01*
Y00500634D01*
X00646176Y0050165D01*
X00647192Y00502666D01*
Y00503682D01*
X00646176D01*
X0064516Y00502666D01*
X00644144Y00503682D01*
X00643128D01*
Y00502666D01*
X00644144Y0050165D01*
X00643128Y00500634D01*
Y00499618D01*
X00644144Y00500634D02*
X00644652D01*
X0064516Y00501142D01*
X00645668Y00500634D01*
X00646176D01*
Y00501142D01*
X00645668Y0050165D01*
X00646176Y00502158D01*
Y00502666D01*
X00645668D01*
X0064516Y00502158D01*
X00644652Y00502666D01*
X00644144D01*
Y00502158D01*
X00644652Y0050165D01*
X00644144Y00501142D01*
Y00500634D01*
X00711708Y00418338D02*
X00712724D01*
X0071374Y00419354D01*
X00714756Y00418338D01*
X00715772D01*
Y00419354D01*
X00714756Y0042037D01*
X00715772Y00421386D01*
Y00422402D01*
X00714756D01*
X0071374Y00421386D01*
X00712724Y00422402D01*
X00711708D01*
Y00421386D01*
X00712724Y0042037D01*
X00711708Y00419354D01*
Y00418338D01*
X00712724Y00419354D02*
X00713232D01*
X0071374Y00419862D01*
X00714248Y00419354D01*
X00714756D01*
Y00419862D01*
X00714248Y0042037D01*
X00714756Y00420878D01*
Y00421386D01*
X00714248D01*
X0071374Y00420878D01*
X00713232Y00421386D01*
X00712724D01*
Y00420878D01*
X00713232Y0042037D01*
X00712724Y00419862D01*
Y00419354D01*
X00879348Y00575818D02*
X00880364D01*
X0088138Y00576834D01*
X00882396Y00575818D01*
X00883412D01*
Y00576834D01*
X00882396Y0057785D01*
X00883412Y00578866D01*
Y00579882D01*
X00882396D01*
X0088138Y00578866D01*
X00880364Y00579882D01*
X00879348D01*
Y00578866D01*
X00880364Y0057785D01*
X00879348Y00576834D01*
Y00575818D01*
X00880364Y00576834D02*
X00880872D01*
X0088138Y00577342D01*
X00881888Y00576834D01*
X00882396D01*
Y00577342D01*
X00881888Y0057785D01*
X00882396Y00578358D01*
Y00578866D01*
X00881888D01*
X0088138Y00578358D01*
X00880872Y00578866D01*
X00880364D01*
Y00578358D01*
X00880872Y0057785D01*
X00880364Y00577342D01*
Y00576834D01*
X00409448Y00469138D02*
X00410464D01*
X0041148Y00470154D01*
X00412496Y00469138D01*
X00413512D01*
Y00470154D01*
X00412496Y0047117D01*
X00413512Y00472186D01*
Y00473202D01*
X00412496D01*
X0041148Y00472186D01*
X00410464Y00473202D01*
X00409448D01*
Y00472186D01*
X00410464Y0047117D01*
X00409448Y00470154D01*
Y00469138D01*
X00410464Y00470154D02*
X00410972D01*
X0041148Y00470662D01*
X00411988Y00470154D01*
X00412496D01*
Y00470662D01*
X00411988Y0047117D01*
X00412496Y00471678D01*
Y00472186D01*
X00411988D01*
X0041148Y00471678D01*
X00410972Y00472186D01*
X00410464D01*
Y00471678D01*
X00410972Y0047117D01*
X00410464Y00470662D01*
Y00470154D01*
X00409448Y00522478D02*
X00410464D01*
X0041148Y00523494D01*
X00412496Y00522478D01*
X00413512D01*
Y00523494D01*
X00412496Y0052451D01*
X00413512Y00525526D01*
Y00526542D01*
X00412496D01*
X0041148Y00525526D01*
X00410464Y00526542D01*
X00409448D01*
Y00525526D01*
X00410464Y0052451D01*
X00409448Y00523494D01*
Y00522478D01*
X00410464Y00523494D02*
X00410972D01*
X0041148Y00524002D01*
X00411988Y00523494D01*
X00412496D01*
Y00524002D01*
X00411988Y0052451D01*
X00412496Y00525018D01*
Y00525526D01*
X00411988D01*
X0041148Y00525018D01*
X00410972Y00525526D01*
X00410464D01*
Y00525018D01*
X00410972Y0052451D01*
X00410464Y00524002D01*
Y00523494D01*
X00451358Y00521208D02*
X00452374D01*
X0045339Y00522224D01*
X00454406Y00521208D01*
X00455422D01*
Y00522224D01*
X00454406Y0052324D01*
X00455422Y00524256D01*
Y00525272D01*
X00454406D01*
X0045339Y00524256D01*
X00452374Y00525272D01*
X00451358D01*
Y00524256D01*
X00452374Y0052324D01*
X00451358Y00522224D01*
Y00521208D01*
X00452374Y00522224D02*
X00452882D01*
X0045339Y00522732D01*
X00453898Y00522224D01*
X00454406D01*
Y00522732D01*
X00453898Y0052324D01*
X00454406Y00523748D01*
Y00524256D01*
X00453898D01*
X0045339Y00523748D01*
X00452882Y00524256D01*
X00452374D01*
Y00523748D01*
X00452882Y0052324D01*
X00452374Y00522732D01*
Y00522224D01*
X00861568Y00900938D02*
X00862584D01*
X008636Y00901954D01*
X00864616Y00900938D01*
X00865632D01*
Y00901954D01*
X00864616Y0090297D01*
X00865632Y00903986D01*
Y00905002D01*
X00864616D01*
X008636Y00903986D01*
X00862584Y00905002D01*
X00861568D01*
Y00903986D01*
X00862584Y0090297D01*
X00861568Y00901954D01*
Y00900938D01*
X00862584Y00901954D02*
X00863092D01*
X008636Y00902462D01*
X00864108Y00901954D01*
X00864616D01*
Y00902462D01*
X00864108Y0090297D01*
X00864616Y00903478D01*
Y00903986D01*
X00864108D01*
X008636Y00903478D01*
X00863092Y00903986D01*
X00862584D01*
Y00903478D01*
X00863092Y0090297D01*
X00862584Y00902462D01*
Y00901954D01*
X01135888Y00530098D02*
X01136904D01*
X0113792Y00531114D01*
X01138936Y00530098D01*
X01139952D01*
Y00531114D01*
X01138936Y0053213D01*
X01139952Y00533146D01*
Y00534162D01*
X01138936D01*
X0113792Y00533146D01*
X01136904Y00534162D01*
X01135888D01*
Y00533146D01*
X01136904Y0053213D01*
X01135888Y00531114D01*
Y00530098D01*
X01136904Y00531114D02*
X01137412D01*
X0113792Y00531622D01*
X01138428Y00531114D01*
X01138936D01*
Y00531622D01*
X01138428Y0053213D01*
X01138936Y00532638D01*
Y00533146D01*
X01138428D01*
X0113792Y00532638D01*
X01137412Y00533146D01*
X01136904D01*
Y00532638D01*
X01137412Y0053213D01*
X01136904Y00531622D01*
Y00531114D01*
X01024128Y00911098D02*
X01025144D01*
X0102616Y00912114D01*
X01027176Y00911098D01*
X01028192D01*
Y00912114D01*
X01027176Y0091313D01*
X01028192Y00914146D01*
Y00915162D01*
X01027176D01*
X0102616Y00914146D01*
X01025144Y00915162D01*
X01024128D01*
Y00914146D01*
X01025144Y0091313D01*
X01024128Y00912114D01*
Y00911098D01*
X01025144Y00912114D02*
X01025652D01*
X0102616Y00912622D01*
X01026668Y00912114D01*
X01027176D01*
Y00912622D01*
X01026668Y0091313D01*
X01027176Y00913638D01*
Y00914146D01*
X01026668D01*
X0102616Y00913638D01*
X01025652Y00914146D01*
X01025144D01*
Y00913638D01*
X01025652Y0091313D01*
X01025144Y00912622D01*
Y00912114D01*
X00991108Y00860298D02*
X00992124D01*
X0099314Y00861314D01*
X00994156Y00860298D01*
X00995172D01*
Y00861314D01*
X00994156Y0086233D01*
X00995172Y00863346D01*
Y00864362D01*
X00994156D01*
X0099314Y00863346D01*
X00992124Y00864362D01*
X00991108D01*
Y00863346D01*
X00992124Y0086233D01*
X00991108Y00861314D01*
Y00860298D01*
X00992124Y00861314D02*
X00992632D01*
X0099314Y00861822D01*
X00993648Y00861314D01*
X00994156D01*
Y00861822D01*
X00993648Y0086233D01*
X00994156Y00862838D01*
Y00863346D01*
X00993648D01*
X0099314Y00862838D01*
X00992632Y00863346D01*
X00992124D01*
Y00862838D01*
X00992632Y0086233D01*
X00992124Y00861822D01*
Y00861314D01*
X00856488Y00626618D02*
X00857504D01*
X0085852Y00627634D01*
X00859536Y00626618D01*
X00860552D01*
Y00627634D01*
X00859536Y0062865D01*
X00860552Y00629666D01*
Y00630682D01*
X00859536D01*
X0085852Y00629666D01*
X00857504Y00630682D01*
X00856488D01*
Y00629666D01*
X00857504Y0062865D01*
X00856488Y00627634D01*
Y00626618D01*
X00857504Y00627634D02*
X00858012D01*
X0085852Y00628142D01*
X00859028Y00627634D01*
X00859536D01*
Y00628142D01*
X00859028Y0062865D01*
X00859536Y00629158D01*
Y00629666D01*
X00859028D01*
X0085852Y00629158D01*
X00858012Y00629666D01*
X00857504D01*
Y00629158D01*
X00858012Y0062865D01*
X00857504Y00628142D01*
Y00627634D01*
X00856488Y00652018D02*
X00857504D01*
X0085852Y00653034D01*
X00859536Y00652018D01*
X00860552D01*
Y00653034D01*
X00859536Y0065405D01*
X00860552Y00655066D01*
Y00656082D01*
X00859536D01*
X0085852Y00655066D01*
X00857504Y00656082D01*
X00856488D01*
Y00655066D01*
X00857504Y0065405D01*
X00856488Y00653034D01*
Y00652018D01*
X00857504Y00653034D02*
X00858012D01*
X0085852Y00653542D01*
X00859028Y00653034D01*
X00859536D01*
Y00653542D01*
X00859028Y0065405D01*
X00859536Y00654558D01*
Y00655066D01*
X00859028D01*
X0085852Y00654558D01*
X00858012Y00655066D01*
X00857504D01*
Y00654558D01*
X00858012Y0065405D01*
X00857504Y00653542D01*
Y00653034D01*
X00950468Y00707898D02*
X00951484D01*
X009525Y00708914D01*
X00953516Y00707898D01*
X00954532D01*
Y00708914D01*
X00953516Y0070993D01*
X00954532Y00710946D01*
Y00711962D01*
X00953516D01*
X009525Y00710946D01*
X00951484Y00711962D01*
X00950468D01*
Y00710946D01*
X00951484Y0070993D01*
X00950468Y00708914D01*
Y00707898D01*
X00951484Y00708914D02*
X00951992D01*
X009525Y00709422D01*
X00953008Y00708914D01*
X00953516D01*
Y00709422D01*
X00953008Y0070993D01*
X00953516Y00710438D01*
Y00710946D01*
X00953008D01*
X009525Y00710438D01*
X00951992Y00710946D01*
X00951484D01*
Y00710438D01*
X00951992Y0070993D01*
X00951484Y00709422D01*
Y00708914D01*
X00945388Y00883158D02*
X00946404D01*
X0094742Y00884174D01*
X00948436Y00883158D01*
X00949452D01*
Y00884174D01*
X00948436Y0088519D01*
X00949452Y00886206D01*
Y00887222D01*
X00948436D01*
X0094742Y00886206D01*
X00946404Y00887222D01*
X00945388D01*
Y00886206D01*
X00946404Y0088519D01*
X00945388Y00884174D01*
Y00883158D01*
X00946404Y00884174D02*
X00946912D01*
X0094742Y00884682D01*
X00947928Y00884174D01*
X00948436D01*
Y00884682D01*
X00947928Y0088519D01*
X00948436Y00885698D01*
Y00886206D01*
X00947928D01*
X0094742Y00885698D01*
X00946912Y00886206D01*
X00946404D01*
Y00885698D01*
X00946912Y0088519D01*
X00946404Y00884682D01*
Y00884174D01*
X00894588Y01073658D02*
X00895604D01*
X0089662Y01074674D01*
X00897636Y01073658D01*
X00898652D01*
Y01074674D01*
X00897636Y0107569D01*
X00898652Y01076706D01*
Y01077722D01*
X00897636D01*
X0089662Y01076706D01*
X00895604Y01077722D01*
X00894588D01*
Y01076706D01*
X00895604Y0107569D01*
X00894588Y01074674D01*
Y01073658D01*
X00895604Y01074674D02*
X00896112D01*
X0089662Y01075182D01*
X00897128Y01074674D01*
X00897636D01*
Y01075182D01*
X00897128Y0107569D01*
X00897636Y01076198D01*
Y01076706D01*
X00897128D01*
X0089662Y01076198D01*
X00896112Y01076706D01*
X00895604D01*
Y01076198D01*
X00896112Y0107569D01*
X00895604Y01075182D01*
Y01074674D01*
X01095248Y00695198D02*
X01096264D01*
X0109728Y00696214D01*
X01098296Y00695198D01*
X01099312D01*
Y00696214D01*
X01098296Y0069723D01*
X01099312Y00698246D01*
Y00699262D01*
X01098296D01*
X0109728Y00698246D01*
X01096264Y00699262D01*
X01095248D01*
Y00698246D01*
X01096264Y0069723D01*
X01095248Y00696214D01*
Y00695198D01*
X01096264Y00696214D02*
X01096772D01*
X0109728Y00696722D01*
X01097788Y00696214D01*
X01098296D01*
Y00696722D01*
X01097788Y0069723D01*
X01098296Y00697738D01*
Y00698246D01*
X01097788D01*
X0109728Y00697738D01*
X01096772Y00698246D01*
X01096264D01*
Y00697738D01*
X01096772Y0069723D01*
X01096264Y00696722D01*
Y00696214D01*
X01146048Y01025398D02*
X01147064D01*
X0114808Y01026414D01*
X01149096Y01025398D01*
X01150112D01*
Y01026414D01*
X01149096Y0102743D01*
X01150112Y01028446D01*
Y01029462D01*
X01149096D01*
X0114808Y01028446D01*
X01147064Y01029462D01*
X01146048D01*
Y01028446D01*
X01147064Y0102743D01*
X01146048Y01026414D01*
Y01025398D01*
X01147064Y01026414D02*
X01147572D01*
X0114808Y01026922D01*
X01148588Y01026414D01*
X01149096D01*
Y01026922D01*
X01148588Y0102743D01*
X01149096Y01027938D01*
Y01028446D01*
X01148588D01*
X0114808Y01027938D01*
X01147572Y01028446D01*
X01147064D01*
Y01027938D01*
X01147572Y0102743D01*
X01147064Y01026922D01*
Y01026414D01*
X00742188Y00852678D02*
X00743204D01*
X0074422Y00853694D01*
X00745236Y00852678D01*
X00746252D01*
Y00853694D01*
X00745236Y0085471D01*
X00746252Y00855726D01*
Y00856742D01*
X00745236D01*
X0074422Y00855726D01*
X00743204Y00856742D01*
X00742188D01*
Y00855726D01*
X00743204Y0085471D01*
X00742188Y00853694D01*
Y00852678D01*
X00743204Y00853694D02*
X00743712D01*
X0074422Y00854202D01*
X00744728Y00853694D01*
X00745236D01*
Y00854202D01*
X00744728Y0085471D01*
X00745236Y00855218D01*
Y00855726D01*
X00744728D01*
X0074422Y00855218D01*
X00743712Y00855726D01*
X00743204D01*
Y00855218D01*
X00743712Y0085471D01*
X00743204Y00854202D01*
Y00853694D01*
D108*
X00763152Y0095516D02*
X00761748Y00957092D01*
X00759476Y00956354D01*
Y00953966D01*
X00761748Y00953227D01*
X00763152Y0095516D01*
X00737752D02*
X00736348Y00957092D01*
X00734076Y00956354D01*
Y00953966D01*
X00736348Y00953227D01*
X00737752Y0095516D01*
X00712352D02*
X00710948Y00957092D01*
X00708676Y00956354D01*
Y00953966D01*
X00710948Y00953227D01*
X00712352Y0095516D01*
X00686952D02*
X00685548Y00957092D01*
X00683276Y00956354D01*
Y00953966D01*
X00685548Y00953227D01*
X00686952Y0095516D01*
X00661552D02*
X00660148Y00957092D01*
X00657876Y00956354D01*
Y00953966D01*
X00660148Y00953227D01*
X00661552Y0095516D01*
X00636152D02*
X00634748Y00957092D01*
X00632476Y00956354D01*
Y00953966D01*
X00634748Y00953227D01*
X00636152Y0095516D01*
X00382152D02*
X00380748Y00957092D01*
X00378476Y00956354D01*
Y00953966D01*
X00380748Y00953227D01*
X00382152Y0095516D01*
X00407552D02*
X00406148Y00957092D01*
X00403876Y00956354D01*
Y00953966D01*
X00406148Y00953227D01*
X00407552Y0095516D01*
X00432952D02*
X00431548Y00957092D01*
X00429276Y00956354D01*
Y00953966D01*
X00431548Y00953227D01*
X00432952Y0095516D01*
X00458352D02*
X00456948Y00957092D01*
X00454676Y00956354D01*
Y00953966D01*
X00456948Y00953227D01*
X00458352Y0095516D01*
X00483752D02*
X00482348Y00957092D01*
X00480076Y00956354D01*
Y00953966D01*
X00482348Y00953227D01*
X00483752Y0095516D01*
X00509152D02*
X00507748Y00957092D01*
X00505476Y00956354D01*
Y00953966D01*
X00507748Y00953227D01*
X00509152Y0095516D01*
X00534552D02*
X00533148Y00957092D01*
X00530876Y00956354D01*
Y00953966D01*
X00533148Y00953227D01*
X00534552Y0095516D01*
X00559952D02*
X00558548Y00957092D01*
X00556276Y00956354D01*
Y00953966D01*
X00558548Y00953227D01*
X00559952Y0095516D01*
X00585352D02*
X00583948Y00957092D01*
X00581676Y00956354D01*
Y00953966D01*
X00583948Y00953227D01*
X00585352Y0095516D01*
X00610752D02*
X00609348Y00957092D01*
X00607076Y00956354D01*
Y00953966D01*
X00609348Y00953227D01*
X00610752Y0095516D01*
X01145032Y0092681D02*
X01143628Y00928743D01*
X01141356Y00928004D01*
Y00925616D01*
X01143628Y00924877D01*
X01145032Y0092681D01*
Y0067691D02*
X01143628Y00678843D01*
X01141356Y00678104D01*
Y00675716D01*
X01143628Y00674977D01*
X01145032Y0067691D01*
X00329692Y0044704D02*
X00328288Y00448973D01*
X00326016Y00448234D01*
Y00445846D01*
X00328288Y00445107D01*
X00329692Y0044704D01*
Y0047244D02*
X00328288Y00474373D01*
X00326016Y00473634D01*
Y00471246D01*
X00328288Y00470507D01*
X00329692Y0047244D01*
Y0049784D02*
X00328288Y00499773D01*
X00326016Y00499034D01*
Y00496646D01*
X00328288Y00495907D01*
X00329692Y0049784D01*
Y0052324D02*
X00328288Y00525173D01*
X00326016Y00524434D01*
Y00522046D01*
X00328288Y00521307D01*
X00329692Y0052324D01*
Y0054864D02*
X00328288Y00550573D01*
X00326016Y00549834D01*
Y00547446D01*
X00328288Y00546707D01*
X00329692Y0054864D01*
X00355092D02*
X00353688Y00550573D01*
X00351416Y00549834D01*
Y00547446D01*
X00353688Y00546707D01*
X00355092Y0054864D01*
Y0052324D02*
X00353688Y00525173D01*
X00351416Y00524434D01*
Y00522046D01*
X00353688Y00521307D01*
X00355092Y0052324D01*
Y0049784D02*
X00353688Y00499773D01*
X00351416Y00499034D01*
Y00496646D01*
X00353688Y00495907D01*
X00355092Y0049784D01*
Y0047244D02*
X00353688Y00474373D01*
X00351416Y00473634D01*
Y00471246D01*
X00353688Y00470507D01*
X00355092Y0047244D01*
Y0044704D02*
X00353688Y00448973D01*
X00351416Y00448234D01*
Y00445846D01*
X00353688Y00445107D01*
X00355092Y0044704D01*
D109*
X01144016Y0092681D02*
X01142492Y0092769D01*
Y0092593D01*
X01144016Y0092681D01*
Y0067691D02*
X01142492Y0067779D01*
Y0067603D01*
X01144016Y0067691D01*
M02*
