G04 Layer_Color=65280*
%FSTAX44Y44*%
%MOMM*%
G71*
G01*
G75*
G04:AMPARAMS|DCode=65|XSize=3.4832mm|YSize=1.7032mm|CornerRadius=0.4766mm|HoleSize=0mm|Usage=FLASHONLY|Rotation=270.000|XOffset=0mm|YOffset=0mm|HoleType=Round|Shape=RoundedRectangle|*
%AMROUNDEDRECTD65*
21,1,3.4832,0.7500,0,0,270.0*
21,1,2.5300,1.7032,0,0,270.0*
1,1,0.9532,-0.3750,-1.2650*
1,1,0.9532,-0.3750,1.2650*
1,1,0.9532,0.3750,1.2650*
1,1,0.9532,0.3750,-1.2650*
%
%ADD65ROUNDEDRECTD65*%
G04:AMPARAMS|DCode=66|XSize=1.2032mm|YSize=1.7032mm|CornerRadius=0.3516mm|HoleSize=0mm|Usage=FLASHONLY|Rotation=270.000|XOffset=0mm|YOffset=0mm|HoleType=Round|Shape=RoundedRectangle|*
%AMROUNDEDRECTD66*
21,1,1.2032,1.0000,0,0,270.0*
21,1,0.5000,1.7032,0,0,270.0*
1,1,0.7032,-0.5000,-0.2500*
1,1,0.7032,-0.5000,0.2500*
1,1,0.7032,0.5000,0.2500*
1,1,0.7032,0.5000,-0.2500*
%
%ADD66ROUNDEDRECTD66*%
%ADD67C,4.2032*%
%ADD68C,1.8000*%
%ADD69R,2.7432X1.9812*%
%ADD70O,2.7432X1.9812*%
%ADD71O,1.8542X2.4892*%
%ADD72R,1.8542X2.4892*%
%ADD73C,2.2352*%
%ADD74R,2.2352X2.2352*%
%ADD75R,2.2352X1.9812*%
%ADD76O,2.2352X1.9812*%
%ADD77C,1.9812*%
%ADD78R,2.7432X1.8542*%
%ADD79O,2.7432X1.8542*%
%ADD80R,1.7272X2.4892*%
%ADD81O,1.7272X2.4892*%
%ADD82R,1.7032X1.7032*%
%ADD83C,1.7032*%
%ADD84O,1.8032X2.2032*%
%ADD85C,2.1082*%
%ADD86R,2.4892X1.8542*%
%ADD87O,2.4892X1.8542*%
%ADD88C,4.9632*%
%ADD89R,1.7032X1.7032*%
%ADD90R,2.4892X1.7272*%
%ADD91O,2.4892X1.7272*%
%ADD92R,2.7432X2.2352*%
%ADD93O,2.7432X2.2352*%
%ADD94O,2.2032X1.7032*%
%ADD95R,2.2032X1.7032*%
%ADD96R,2.1082X2.4892*%
%ADD97O,2.1082X2.4892*%
%ADD98C,1.7232*%
%ADD99R,1.7232X1.7232*%
%ADD100R,2.7432X2.7432*%
%ADD101C,2.7432*%
%ADD102O,1.8796X2.7432*%
%ADD103R,4.2672X2.7432*%
%ADD104R,2.7432X4.2672*%
%ADD105C,1.4732*%
D65*
X0049174Y0031623D02*
D03*
D66*
X0055474Y0033923D02*
D03*
Y0031623D02*
D03*
Y0029323D02*
D03*
D67*
X0107512Y0095516D02*
D03*
X0032512D02*
D03*
X0107512Y0064516D02*
D03*
X0032512D02*
D03*
X0028956Y0121793D02*
D03*
X0121158Y0029591D02*
D03*
X0029202Y0029455D02*
D03*
X0121206Y0121573D02*
D03*
D68*
X0076112Y0095516D02*
D03*
X0073572D02*
D03*
X0071032D02*
D03*
X0068492D02*
D03*
X0065952D02*
D03*
X0063412D02*
D03*
X0038012D02*
D03*
X0040552D02*
D03*
X0043092D02*
D03*
X0045632D02*
D03*
X0048172D02*
D03*
X0050712D02*
D03*
X0053252D02*
D03*
X0055792D02*
D03*
X0058332D02*
D03*
X0060872D02*
D03*
D69*
X009017Y002921D02*
D03*
X010541Y0073406D02*
D03*
Y0081026D02*
D03*
X0087376Y0073914D02*
D03*
Y0081026D02*
D03*
D70*
X009017Y003175D02*
D03*
X010541Y0070866D02*
D03*
Y0078486D02*
D03*
X0087376Y0071374D02*
D03*
Y0078486D02*
D03*
D71*
X0037296Y0113555D02*
D03*
X0034756D02*
D03*
D72*
X0032216D02*
D03*
D73*
X010541Y0037719D02*
D03*
D74*
Y0028829D02*
D03*
D75*
X0094996Y0035179D02*
D03*
D76*
Y0032639D02*
D03*
Y0030099D02*
D03*
X0101346D02*
D03*
Y0032639D02*
D03*
Y0035179D02*
D03*
D77*
X0048816Y0120811D02*
D03*
X0057706D02*
D03*
X0067056Y004064D02*
D03*
X0058166D02*
D03*
X009017Y0087122D02*
D03*
Y0096012D02*
D03*
X008636Y0087122D02*
D03*
Y0096012D02*
D03*
X0034592Y0120811D02*
D03*
X0043482D02*
D03*
X0051816Y0040894D02*
D03*
X0042926D02*
D03*
X0039116Y0105283D02*
D03*
X0030226D02*
D03*
X0082296Y004064D02*
D03*
X0073406D02*
D03*
X0056134Y0082042D02*
D03*
Y0079502D02*
D03*
X0071882Y0082042D02*
D03*
Y0079502D02*
D03*
X0053896Y0111921D02*
D03*
Y0117001D02*
D03*
X006223Y008509D02*
D03*
X005715D02*
D03*
X0039116Y0034163D02*
D03*
Y0029083D02*
D03*
X0044704Y0034163D02*
D03*
Y0029083D02*
D03*
X0071374Y003429D02*
D03*
Y002921D02*
D03*
X00762Y003429D02*
D03*
Y002921D02*
D03*
D78*
X0061722Y0110363D02*
D03*
X0089662Y0036322D02*
D03*
D79*
X0061722Y0112903D02*
D03*
X0089662Y0038862D02*
D03*
D80*
X0081328Y0121065D02*
D03*
X0033782Y007493D02*
D03*
D81*
X0078788Y0121065D02*
D03*
X0076248D02*
D03*
X0073708D02*
D03*
X0081328Y0113445D02*
D03*
X0078788D02*
D03*
X0076248D02*
D03*
X0073708D02*
D03*
X0036322Y007493D02*
D03*
X0038862D02*
D03*
X0041402D02*
D03*
X0043942D02*
D03*
X0046482D02*
D03*
X0049022D02*
D03*
X0051562D02*
D03*
X0054102D02*
D03*
X0056642D02*
D03*
X0059182D02*
D03*
X0061722D02*
D03*
X0064262D02*
D03*
X0066802D02*
D03*
X0069342D02*
D03*
X0071882D02*
D03*
X0074422D02*
D03*
X0076962D02*
D03*
X0079502D02*
D03*
X0082042D02*
D03*
X0033782Y009017D02*
D03*
X0036322D02*
D03*
X0038862D02*
D03*
X0041402D02*
D03*
X0043942D02*
D03*
X0046482D02*
D03*
X0049022D02*
D03*
X0051562D02*
D03*
X0054102D02*
D03*
X0056642D02*
D03*
X0059182D02*
D03*
X0061722D02*
D03*
X0064262D02*
D03*
X0066802D02*
D03*
X0069342D02*
D03*
X0071882D02*
D03*
X0074422D02*
D03*
X0076962D02*
D03*
X0079502D02*
D03*
X0082042D02*
D03*
D82*
X006604Y002921D02*
D03*
X006096D02*
D03*
X0033782Y0029083D02*
D03*
D83*
X006604Y003175D02*
D03*
Y003429D02*
D03*
X006096Y003175D02*
D03*
Y003429D02*
D03*
X006985Y005461D02*
D03*
X007239D02*
D03*
X007493D02*
D03*
X007747D02*
D03*
X008001D02*
D03*
X008255D02*
D03*
X008509D02*
D03*
X006858Y010541D02*
D03*
X007112D02*
D03*
X007366D02*
D03*
X00762D02*
D03*
X007874D02*
D03*
X008128D02*
D03*
X008382D02*
D03*
X004572Y005461D02*
D03*
X004826D02*
D03*
X00508D02*
D03*
X005334D02*
D03*
X005588D02*
D03*
X005842D02*
D03*
X006096D02*
D03*
X004445Y010541D02*
D03*
X004699D02*
D03*
X004953D02*
D03*
X005207D02*
D03*
X005461D02*
D03*
X005715D02*
D03*
X005969D02*
D03*
X0033782Y0031623D02*
D03*
Y0034163D02*
D03*
D84*
X0090472Y0121319D02*
D03*
X0087932D02*
D03*
D85*
X0061722Y0080264D02*
D03*
X0066802D02*
D03*
X0116078Y0047498D02*
D03*
X0122428Y0042418D02*
D03*
Y0047498D02*
D03*
X0116078Y0042418D02*
D03*
X0103886Y0047498D02*
D03*
X0110236Y0042418D02*
D03*
Y0047498D02*
D03*
X0103886Y0042418D02*
D03*
X0116078Y005715D02*
D03*
X0122428Y005207D02*
D03*
Y005715D02*
D03*
X0116078Y005207D02*
D03*
X0103886Y005715D02*
D03*
X0110236Y005207D02*
D03*
Y005715D02*
D03*
X0103886Y005207D02*
D03*
X004318Y0116205D02*
D03*
X004953Y0111125D02*
D03*
Y0116205D02*
D03*
X004318Y0111125D02*
D03*
X009144Y0047498D02*
D03*
X009779Y0042418D02*
D03*
Y0047498D02*
D03*
X009144Y0042418D02*
D03*
Y0057404D02*
D03*
X009779Y0052324D02*
D03*
Y0057404D02*
D03*
X009144Y0052324D02*
D03*
D86*
X011288Y0085726D02*
D03*
D87*
Y0074646D02*
D03*
X011572Y0076031D02*
D03*
X011288Y0077416D02*
D03*
Y0080186D02*
D03*
X011572Y0081571D02*
D03*
X011288Y0082956D02*
D03*
X011572Y0084341D02*
D03*
Y0078801D02*
D03*
D88*
X01143Y0092681D02*
D03*
Y0067691D02*
D03*
D89*
X006731Y005461D02*
D03*
X006604Y010541D02*
D03*
X004318Y005461D02*
D03*
X004191Y010541D02*
D03*
D90*
X0092202Y008382D02*
D03*
D91*
Y008128D02*
D03*
Y007874D02*
D03*
Y00762D02*
D03*
Y007366D02*
D03*
Y007112D02*
D03*
Y006858D02*
D03*
Y006604D02*
D03*
X0099822Y008382D02*
D03*
Y008128D02*
D03*
Y007874D02*
D03*
Y00762D02*
D03*
Y007366D02*
D03*
Y007112D02*
D03*
Y006858D02*
D03*
Y006604D02*
D03*
D92*
X0083058Y003048D02*
D03*
D93*
Y003302D02*
D03*
Y003556D02*
D03*
D94*
X0032766Y0044704D02*
D03*
Y0047244D02*
D03*
Y0049784D02*
D03*
Y0052324D02*
D03*
X0035306Y0054864D02*
D03*
Y0052324D02*
D03*
Y0049784D02*
D03*
Y0047244D02*
D03*
Y0044704D02*
D03*
D95*
X0032766Y0054864D02*
D03*
D96*
X0063754Y0118491D02*
D03*
D97*
X0066294D02*
D03*
D98*
X0075184Y004699D02*
D03*
X0072644D02*
D03*
X0070104D02*
D03*
D99*
X0067564D02*
D03*
D100*
X0098044Y0110744D02*
D03*
D101*
X0118364D02*
D03*
D102*
X005588Y0047498D02*
D03*
X005334D02*
D03*
X00508D02*
D03*
D103*
X0113284Y0039497D02*
D03*
Y0033147D02*
D03*
D104*
X0118364Y0036957D02*
D03*
D105*
X0061722Y0108077D02*
D03*
X0035354Y0100491D02*
D03*
X005161Y0122843D02*
D03*
X0032004Y0108331D02*
D03*
X0035306D02*
D03*
X0058166Y0038481D02*
D03*
X0062484Y0045847D02*
D03*
X0056642Y0068961D02*
D03*
X0082042Y0082931D02*
D03*
X0078994Y0080391D02*
D03*
X0061976Y0068961D02*
D03*
X0064516Y0050165D02*
D03*
X0071374Y0042037D02*
D03*
X0088138Y0057785D02*
D03*
X0041148Y0047117D02*
D03*
Y0052451D02*
D03*
X0045339Y0052324D02*
D03*
X008636Y0090297D02*
D03*
X0113792Y0053213D02*
D03*
X0102616Y0091313D02*
D03*
X0099314Y0086233D02*
D03*
X0085852Y0062865D02*
D03*
Y0065405D02*
D03*
X009525Y0070993D02*
D03*
X0094742Y0088519D02*
D03*
X0089662Y0107569D02*
D03*
X0109728Y0069723D02*
D03*
X0114808Y0102743D02*
D03*
X0074422Y0085471D02*
D03*
M02*
