M48
;Layer_Color=9474304
;FILE_FORMAT=4:4
METRIC,LZ
;TYPE=PLATED
T1F00S00C0.7112
T2F00S00C0.7620
T3F00S00C0.7874
T4F00S00C0.8128
T5F00S00C0.8636
T6F00S00C0.8890
T7F00S00C0.9000
T8F00S00C0.9906
T9F00S00C1.0000
T10F00S00C1.0200
T11F00S00C1.1430
T13F00S00C2.5000
T14F00S00C3.2600
T15F00S00C3.5000
%
T01
X0058166Y0038481
X0088138Y0057785
X0085852Y0062865
Y0065405
X009525Y0070993
X0109728Y0069723
X0113792Y0053213
X0064516Y0050165
X0062484Y0045847
X0071374Y0042037
X0041148Y0047117
Y0052451
X0045339Y0052324
X0056642Y0068961
X0061976
X0035354Y0100491
X0035306Y0108331
X0032004
X0061722Y0108077
X0074422Y0085471
X0078994Y0080391
X0082042Y0082931
X008636Y0090297
X0094742Y0088519
X0099314Y0086233
X0102616Y0091313
X0114808Y0102743
X0089662Y0107569
X005161Y0122843
T02
X0032216Y0113555
X0034756
X0037296
T03
X0039116Y0029083
Y0034163
X0044704
Y0029083
X0071374Y002921
X00762
Y003429
X0071374
X0122428Y0042418
Y0047498
Y005207
Y005715
X0116078
Y005207
Y0047498
Y0042418
X0110236
Y0047498
Y005207
Y005715
X0103886
Y005207
Y0047498
Y0042418
X009779
Y0047498
Y0052324
Y0057404
X009144
Y0052324
Y0047498
Y0042418
X0082296Y004064
X0082042Y007493
X0079502
X0092202Y00762
Y007874
Y007366
Y007112
Y006858
Y006604
X0099822
Y006858
Y007112
Y007366
Y00762
Y007874
X0076962Y007493
X0074422
X0071882
X0069342
X0066802
X0064262
X0061722
X0059182
X0056642
X0054102
X0051562
X0049022
X0046482
X0043942
X0041402
X0042926Y0040894
X0051816
X0058166Y004064
X0067056
X0073406
X0038862Y007493
X0036322
X0033782
Y009017
X0036322
X0038862
X0039116Y0105283
X0030226
X004318Y0111125
Y0116205
X004953
Y0111125
X0053896Y0111921
Y0117001
X0073708Y0113445
X0076248
X0078788
X0076962Y009017
X0074422
X0071882
X0069342
X0066802
X0064262
X0061722
X0059182
X0056642
X0054102
X0051562
X0049022
X0046482
X0043942
X0041402
X005715Y008509
X0056134Y0082042
Y0079502
X006223Y008509
X0071882Y0082042
Y0079502
X0079502Y009017
X0082042
X008636Y0087122
X009017
X0092202Y008382
Y008128
X0099822
Y008382
X009017Y0096012
X008636
X0081328Y0113445
Y0121065
X0078788
X0076248
X0073708
X0057706Y0120811
X0048816
X0043482
X0034592
T04
X009017Y002921
Y003175
X0089662Y0036322
Y0038862
X0087376Y0071374
Y0073914
Y0078486
X010541
Y0073406
Y0070866
X005588Y0047498
X005334
X00508
X0061722Y0110363
Y0112903
X0087376Y0081026
X010541
X0090472Y0121319
X0087932
T05
X0061722Y0080264
X0066802
X0066294Y0118491
X0063754
T06
X0094996Y0030099
Y0032639
Y0035179
X0101346
Y0032639
Y0030099
X010541Y0028829
Y0037719
X011288Y0074646
Y0077416
X011572Y0078801
Y0076031
Y0081571
Y0084341
X011288Y0085726
Y0082956
Y0080186
T07
X0033782Y0029083
Y0031623
Y0034163
X006096Y003429
Y003175
Y002921
X006604
Y003175
Y003429
X008001Y005461
X008255
X008509
X007747
X007493
X007239
X006985
X006731
X006096
X005842
X005588
X005334
X00508
X004826
X004572
X004318
X004191Y010541
X004445
X004699
X004953
X005207
X005461
X005715
X005969
X006604
X006858
X007112
X007366
X00762
X007874
X008128
X008382
T08
X0083058Y003048
Y003302
Y003556
T09
X0032766Y0044704
Y0047244
Y0049784
Y0052324
Y0054864
X0035306
Y0052324
Y0049784
Y0047244
Y0044704
X0038012Y0095516
X0040552
X0043092
X0045632
X0048172
X0050712
X0053252
X0055792
X0058332
X0060872
X0063412
X0065952
X0068492
X0071032
X0073572
X0076112
T10
X0067564Y004699
X0070104
X0072644
X0075184
T11
X0098044Y0110744
X0118364
T13
X0029202Y0029455
X0121158Y0029591
X0121206Y0121573
X0028956Y0121793
T14
X01143Y0067691
Y0092681
T15
X0107512Y0064516
X0032512
Y0095516
X0107512
M30
