G04 Layer_Physical_Order=2*
G04 Layer_Color=255*
%FSTAX44Y44*%
%MOMM*%
G71*
G01*
G75*
%ADD12C,1.0000*%
%ADD13C,0.5000*%
%ADD15C,4.0000*%
%ADD16C,1.6000*%
%ADD17R,2.5400X1.7780*%
%ADD18O,2.5400X1.7780*%
%ADD19O,1.6510X2.2860*%
%ADD20R,1.6510X2.2860*%
%ADD21C,2.0320*%
%ADD22R,2.0320X2.0320*%
%ADD23R,2.0320X1.7780*%
%ADD24O,2.0320X1.7780*%
%ADD25C,1.7780*%
%ADD26R,2.5400X1.6510*%
%ADD27O,2.5400X1.6510*%
%ADD28R,1.5240X2.2860*%
%ADD29O,1.5240X2.2860*%
%ADD30R,1.5000X1.5000*%
%ADD31C,1.5000*%
%ADD32O,1.6000X2.0000*%
%ADD33C,1.9050*%
%ADD34R,2.2860X1.6510*%
%ADD35O,2.2860X1.6510*%
%ADD36C,4.7600*%
%ADD37R,1.5000X1.5000*%
%ADD38R,2.2860X1.5240*%
%ADD39O,2.2860X1.5240*%
%ADD40R,2.5400X2.0320*%
%ADD41O,2.5400X2.0320*%
%ADD42O,2.0000X1.5000*%
%ADD43R,2.0000X1.5000*%
%ADD44R,1.9050X2.2860*%
%ADD45O,1.9050X2.2860*%
%ADD46C,1.5200*%
%ADD47R,1.5200X1.5200*%
%ADD48R,2.5400X2.5400*%
%ADD49C,2.5400*%
%ADD50O,1.6764X2.5400*%
%ADD51R,4.0640X2.5400*%
%ADD52R,2.5400X4.0640*%
%ADD53C,1.2700*%
G36*
X00395434Y0096337D02*
X00394165Y00961716D01*
X00393507Y00960129D01*
X00392133D01*
X00391476Y00961716D01*
X00389392Y00964432D01*
X00386676Y00966515D01*
X00383514Y00967825D01*
X0038262Y00967943D01*
Y0095516D01*
Y00942377D01*
X00383514Y00942495D01*
X00386676Y00943804D01*
X00389392Y00945888D01*
X00391476Y00948604D01*
X00392133Y00950191D01*
X00393507D01*
X00394165Y00948604D01*
X00395616Y00946712D01*
X00395202Y00945166D01*
X00394998Y00945081D01*
X00393431Y00943879D01*
X00393431Y00943879D01*
X00383271Y00933719D01*
X00382069Y00932152D01*
X00381313Y00930328D01*
X00381055Y0092837D01*
Y00915612D01*
X00379619Y00914511D01*
X00377597Y00911874D01*
X00376607Y00909486D01*
X00375233D01*
X00374244Y00911874D01*
X00372221Y00914511D01*
X00369584Y00916534D01*
X00366515Y00917805D01*
X0036322Y00918239D01*
X00359925Y00917805D01*
X00356856Y00916534D01*
X00354219Y00914511D01*
X00352197Y00911874D01*
X00351207Y00909486D01*
X00349833D01*
X00348843Y00911874D01*
X00346821Y00914511D01*
X00344184Y00916534D01*
X00341115Y00917805D01*
X0033782Y00918239D01*
X00334525Y00917805D01*
X00331456Y00916534D01*
X00328819Y00914511D01*
X00326796Y00911874D01*
X00325525Y00908804D01*
X00325091Y0090551D01*
Y0089789D01*
X00325525Y00894595D01*
X00326796Y00891526D01*
X00328819Y00888889D01*
X00331456Y00886867D01*
X00334525Y00885595D01*
X0033782Y00885161D01*
X00341115Y00885595D01*
X00344184Y00886867D01*
X00346821Y00888889D01*
X00348843Y00891526D01*
X00349833Y00893914D01*
X00351207D01*
X00352197Y00891526D01*
X00354219Y00888889D01*
X00356856Y00886867D01*
X00359925Y00885595D01*
X0036322Y00885161D01*
X00366515Y00885595D01*
X00369584Y00886867D01*
X00372221Y00888889D01*
X00374244Y00891526D01*
X00375233Y00893914D01*
X00376607D01*
X00377597Y00891526D01*
X00379619Y00888889D01*
X00382256Y00886867D01*
X00385326Y00885595D01*
X0038862Y00885161D01*
X00391914Y00885595D01*
X00394984Y00886867D01*
X00397621Y00888889D01*
X00399644Y00891526D01*
X00400633Y00893914D01*
X00402007D01*
X00402996Y00891526D01*
X00405019Y00888889D01*
X00407656Y00886867D01*
X00410726Y00885595D01*
X0041402Y00885161D01*
X00417314Y00885595D01*
X00420384Y00886867D01*
X00423021Y00888889D01*
X00425043Y00891526D01*
X00426033Y00893914D01*
X00427407D01*
X00428396Y00891526D01*
X00430419Y00888889D01*
X00433056Y00886867D01*
X00436125Y00885595D01*
X0043942Y00885161D01*
X00442715Y00885595D01*
X00445784Y00886867D01*
X00448421Y00888889D01*
X00450443Y00891526D01*
X00451433Y00893914D01*
X00452807D01*
X00453797Y00891526D01*
X00455819Y00888889D01*
X00458456Y00886867D01*
X00461525Y00885595D01*
X0046482Y00885161D01*
X00468115Y00885595D01*
X00471184Y00886867D01*
X00473821Y00888889D01*
X00475844Y00891526D01*
X00476833Y00893914D01*
X00478207D01*
X00479197Y00891526D01*
X00481219Y00888889D01*
X00483856Y00886867D01*
X00486926Y00885595D01*
X0049022Y00885161D01*
X00493515Y00885595D01*
X00496584Y00886867D01*
X00499221Y00888889D01*
X00501244Y00891526D01*
X00502233Y00893914D01*
X00503607D01*
X00504596Y00891526D01*
X00506619Y00888889D01*
X00509256Y00886867D01*
X00512326Y00885595D01*
X0051562Y00885161D01*
X00518914Y00885595D01*
X00521984Y00886867D01*
X00524621Y00888889D01*
X00526643Y00891526D01*
X00527633Y00893914D01*
X00529007D01*
X00529996Y00891526D01*
X00530934Y00890304D01*
Y00882576D01*
X00326758D01*
X00313202Y00896132D01*
X00292026Y00917308D01*
Y00974164D01*
X00306984D01*
X00307284Y00973325D01*
X00307333Y00972894D01*
X00304233Y00969116D01*
X00301911Y00964773D01*
X00300482Y00960061D01*
X00299999Y0095516D01*
X00300482Y00950259D01*
X00301911Y00945546D01*
X00304233Y00941204D01*
X00307357Y00937397D01*
X00311164Y00934273D01*
X00315507Y00931951D01*
X00320219Y00930522D01*
X0032512Y00930039D01*
X00330021Y00930522D01*
X00334733Y00931951D01*
X00339076Y00934273D01*
X00342883Y00937397D01*
X00346007Y00941204D01*
X00348329Y00945546D01*
X00349758Y00950259D01*
X00350241Y0095516D01*
X00349758Y00960061D01*
X00348329Y00964773D01*
X00346007Y00969116D01*
X00342883Y00972923D01*
X0034172Y00973878D01*
X00342148Y00975074D01*
X00395434D01*
Y0096337D01*
D02*
G37*
G36*
X0056892Y0088549D02*
X00569715Y00885595D01*
X00572784Y00886867D01*
X00575421Y00888889D01*
X00577444Y00891526D01*
X00578433Y00893914D01*
X00579807D01*
X00580797Y00891526D01*
X00581734Y00890304D01*
Y00882576D01*
X00551106D01*
Y00890304D01*
X00552043Y00891526D01*
X00553033Y00893914D01*
X00554407D01*
X00555396Y00891526D01*
X00557419Y00888889D01*
X00560056Y00886867D01*
X00563125Y00885595D01*
X0056392Y0088549D01*
Y009017D01*
X0056892D01*
Y0088549D01*
D02*
G37*
G36*
X01195745Y01234682D02*
X01194297Y01233493D01*
X01191173Y01229686D01*
X01188851Y01225343D01*
X01187422Y01220631D01*
X01186939Y0121573D01*
X01187422Y01210829D01*
X01188851Y01206117D01*
X01191173Y01201774D01*
X01194297Y01197967D01*
X01198104Y01194843D01*
X01202447Y01192521D01*
X01207159Y01191092D01*
X0121206Y01190609D01*
X01216961Y01191092D01*
X01221673Y01192521D01*
X01226016Y01194843D01*
X01229823Y01197967D01*
X01232947Y01201774D01*
X01233303Y01202439D01*
X01234535Y01202131D01*
X012346Y00583325D01*
X01233461Y00582763D01*
X01231605Y00584188D01*
X01228072Y00585651D01*
X0122428Y0058615D01*
X01220488Y00585651D01*
X01216955Y00584188D01*
X01213921Y00581859D01*
X01211776Y00579065D01*
X01173284D01*
X01171139Y00581859D01*
X01168105Y00584188D01*
X01164572Y00585651D01*
X0116078Y0058615D01*
X01156988Y00585651D01*
X01153455Y00584188D01*
X01150421Y00581859D01*
X01148092Y00578825D01*
X01146629Y00575292D01*
X0114613Y005715D01*
X0114659Y00568008D01*
X01133517Y00554935D01*
X0089662D01*
X0089662Y00554935D01*
X00894662Y00554677D01*
X00892838Y00553921D01*
X00891271Y00552719D01*
X00891271Y00552719D01*
X00868087Y00529535D01*
X00827363D01*
X00824485Y00532413D01*
X00825047Y00533552D01*
X008255Y00533492D01*
X00828763Y00533922D01*
X00831804Y00535181D01*
X00834415Y00537185D01*
X00836419Y00539796D01*
X00837548Y00542523D01*
X0083755Y00542523D01*
X0083885D01*
X00838852Y00542523D01*
X00839981Y00539796D01*
X00841985Y00537185D01*
X00844596Y00535181D01*
X00847637Y00533922D01*
X008509Y00533492D01*
X00854163Y00533922D01*
X00857204Y00535181D01*
X00859815Y00537185D01*
X00861819Y00539796D01*
X00863078Y00542837D01*
X00863508Y005461D01*
X00863078Y00549363D01*
X00861819Y00552404D01*
X00859815Y00555015D01*
X00857204Y00557019D01*
X00854163Y00558278D01*
X008509Y00558708D01*
X00847637Y00558278D01*
X00844596Y00557019D01*
X00841985Y00555015D01*
X00839981Y00552404D01*
X00838852Y00549677D01*
X0083885Y00549677D01*
X0083755D01*
X00837548Y00549677D01*
X00836419Y00552404D01*
X00834415Y00555015D01*
X00831804Y00557019D01*
X00828763Y00558278D01*
X008255Y00558708D01*
X00822237Y00558278D01*
X00819196Y00557019D01*
X00816585Y00555015D01*
X00814581Y00552404D01*
X00813452Y00549677D01*
X0081345Y00549677D01*
X0081215D01*
X00812148Y00549677D01*
X00811019Y00552404D01*
X00809015Y00555015D01*
X00806404Y00557019D01*
X00803363Y00558278D01*
X008001Y00558708D01*
X00799647Y00558648D01*
X00799085Y00559787D01*
X00809583Y00570285D01*
X00872878D01*
X00873285Y00569755D01*
X00875656Y00567936D01*
X00878417Y00566792D01*
X0088138Y00566402D01*
X00884343Y00566792D01*
X00887104Y00567936D01*
X00889475Y00569755D01*
X00891294Y00572126D01*
X00892438Y00574887D01*
X00892828Y0057785D01*
X00892438Y00580813D01*
X00891294Y00583574D01*
X00889475Y00585945D01*
X00887104Y00587764D01*
X00884343Y00588908D01*
X0088138Y00589298D01*
X00878417Y00588908D01*
X00875656Y00587764D01*
X00873285Y00585945D01*
X00872878Y00585415D01*
X0080645D01*
X0080645Y00585415D01*
X00805471Y00585286D01*
X00804492Y00585157D01*
X00802668Y00584401D01*
X00801101Y00583199D01*
X00776388Y00558486D01*
X007747Y00558708D01*
X00771437Y00558278D01*
X00768396Y00557019D01*
X00765785Y00555015D01*
X00763781Y00552404D01*
X00762652Y00549677D01*
X0076265Y00549677D01*
X0076135D01*
X00761348Y00549677D01*
X00760219Y00552404D01*
X00758215Y00555015D01*
X00755604Y00557019D01*
X00752563Y00558278D01*
X007493Y00558708D01*
X00746037Y00558278D01*
X00742996Y00557019D01*
X00740385Y00555015D01*
X00738381Y00552404D01*
X00737252Y00549677D01*
X0073725Y00549677D01*
X0073595D01*
X00735948Y00549677D01*
X00734819Y00552404D01*
X00732815Y00555015D01*
X00731465Y00556051D01*
Y00584877D01*
X00742273Y00595685D01*
X00882057D01*
X0090021Y00577532D01*
X0089975Y0057404D01*
X00900249Y00570248D01*
X00901712Y00566715D01*
X00904041Y00563681D01*
X00907075Y00561352D01*
X00910608Y00559889D01*
X009144Y0055939D01*
X00918192Y00559889D01*
X00921725Y00561352D01*
X00924759Y00563681D01*
X00926904Y00566475D01*
X00965396D01*
X00967541Y00563681D01*
X00970575Y00561352D01*
X00974108Y00559889D01*
X009779Y0055939D01*
X00981692Y00559889D01*
X00985225Y00561352D01*
X00988259Y00563681D01*
X00990588Y00566715D01*
X00992051Y00570248D01*
X0099255Y0057404D01*
X00992051Y00577832D01*
X00990588Y00581365D01*
X00988259Y00584399D01*
X00985225Y00586728D01*
X00981692Y00588191D01*
X009779Y0058869D01*
X00974108Y00588191D01*
X00970575Y00586728D01*
X00967541Y00584399D01*
X00965396Y00581605D01*
X00926904D01*
X00924759Y00584399D01*
X00921725Y00586728D01*
X00918192Y00588191D01*
X009144Y0058869D01*
X00910908Y00588231D01*
X00890539Y00608599D01*
X00888972Y00609801D01*
X00887148Y00610557D01*
X0088519Y00610815D01*
X0073914D01*
X00737182Y00610557D01*
X00735358Y00609801D01*
X00733791Y00608599D01*
X00718551Y00593359D01*
X00717349Y00591792D01*
X00716593Y00589968D01*
X00716335Y0058801D01*
Y00556051D01*
X00714985Y00555015D01*
X00712981Y00552404D01*
X00711852Y00549677D01*
X0071185Y00549677D01*
X0071055D01*
X00710548Y00549677D01*
X00709419Y00552404D01*
X00707415Y00555015D01*
X00704804Y00557019D01*
X00701763Y00558278D01*
X006985Y00558708D01*
X00695237Y00558278D01*
X00692196Y00557019D01*
X00689585Y00555015D01*
X00687581Y00552404D01*
X00686968Y00550923D01*
X00685698Y00551176D01*
Y005536D01*
X0068531Y00555551D01*
X00684205Y00557205D01*
X00682551Y0055831D01*
X006806Y00558698D01*
X006656D01*
X00663649Y0055831D01*
X00661995Y00557205D01*
X0066089Y00555551D01*
X00660502Y005536D01*
Y005386D01*
X0066089Y00536649D01*
X00661995Y00534995D01*
X00663649Y0053389D01*
X006656Y00533502D01*
X006806D01*
X00682551Y0053389D01*
X00684205Y00534995D01*
X0068531Y00536649D01*
X00685698Y005386D01*
Y00541024D01*
X00686968Y00541277D01*
X00687581Y00539796D01*
X00689585Y00537185D01*
X00692196Y00535181D01*
X00695237Y00533922D01*
X006985Y00533492D01*
X00701763Y00533922D01*
X00704804Y00535181D01*
X00707415Y00537185D01*
X00709419Y00539796D01*
X00710548Y00542523D01*
X0071055Y00542523D01*
X0071185D01*
X00711852Y00542523D01*
X00712981Y00539796D01*
X00714985Y00537185D01*
X00717596Y00535181D01*
X00720637Y00533922D01*
X007239Y00533492D01*
X00727163Y00533922D01*
X00730204Y00535181D01*
X00732815Y00537185D01*
X00734819Y00539796D01*
X00735948Y00542523D01*
X0073595Y00542523D01*
X0073725D01*
X00737252Y00542523D01*
X00738381Y00539796D01*
X00740385Y00537185D01*
X00742996Y00535181D01*
X00746037Y00533922D01*
X007493Y00533492D01*
X00752563Y00533922D01*
X00755604Y00535181D01*
X00758215Y00537185D01*
X00760219Y00539796D01*
X00761348Y00542523D01*
X0076135Y00542523D01*
X0076265D01*
X00762652Y00542523D01*
X00763781Y00539796D01*
X00765785Y00537185D01*
X00768396Y00535181D01*
X00771437Y00533922D01*
X007747Y00533492D01*
X00777963Y00533922D01*
X00781004Y00535181D01*
X00783615Y00537185D01*
X00785619Y00539796D01*
X00786748Y00542523D01*
X0078675Y00542523D01*
X0078805D01*
X00788052Y00542523D01*
X00789181Y00539796D01*
X00791185Y00537185D01*
X00793796Y00535181D01*
X00796837Y00533922D01*
X008001Y00533492D01*
X00801788Y00533714D01*
X00818881Y00516621D01*
X00820448Y00515419D01*
X00822272Y00514663D01*
X00823251Y00514534D01*
X0082423Y00514405D01*
X0082423Y00514405D01*
X0087122D01*
X00873178Y00514663D01*
X00875002Y00515419D01*
X00876569Y00516621D01*
X00899753Y00539805D01*
X01128067D01*
X01128629Y00538666D01*
X01128006Y00537854D01*
X01126862Y00535093D01*
X01126801Y0053463D01*
X0113792D01*
Y0053213D01*
X0114042D01*
Y00521011D01*
X01140883Y00521072D01*
X01143644Y00522216D01*
X01145206Y00523414D01*
X01146397Y00522727D01*
X0114613Y005207D01*
X01146629Y00516908D01*
X01148092Y00513375D01*
X01150421Y00510341D01*
X01153455Y00508012D01*
X01156988Y00506549D01*
X0115828Y00506379D01*
Y005207D01*
Y00535021D01*
X01156988Y00534851D01*
X01153455Y00533388D01*
X01150518Y00531134D01*
X01149892Y00531278D01*
X01149289Y00531528D01*
X01149368Y0053213D01*
X01148978Y00535093D01*
X01147834Y00537854D01*
X01146015Y00540225D01*
X01143743Y00541968D01*
X01143508Y00542312D01*
X01143306Y00543327D01*
X01157288Y00557309D01*
X0116078Y0055685D01*
X01164572Y00557349D01*
X01168105Y00558812D01*
X01171139Y00561141D01*
X01173284Y00563935D01*
X01211776D01*
X01213921Y00561141D01*
X01216955Y00558812D01*
X01220488Y00557349D01*
X0122428Y0055685D01*
X01228072Y00557349D01*
X01231605Y00558812D01*
X01233464Y00560238D01*
X01234603Y00559677D01*
X01234605Y00532521D01*
X01233466Y00531959D01*
X01231605Y00533388D01*
X01228072Y00534851D01*
X0122678Y00535021D01*
Y005207D01*
Y00506379D01*
X01228072Y00506549D01*
X01231605Y00508012D01*
X01233469Y00509443D01*
X01234608Y00508881D01*
X0123461Y00486797D01*
X01233471Y00486236D01*
X01231605Y00487668D01*
X01228072Y00489131D01*
X0122428Y0048963D01*
X01220488Y00489131D01*
X01216955Y00487668D01*
X01213921Y00485339D01*
X01211776Y00482545D01*
X01173284D01*
X01171139Y00485339D01*
X01168105Y00487668D01*
X01164572Y00489131D01*
X0116078Y0048963D01*
X01156988Y00489131D01*
X01153455Y00487668D01*
X01150421Y00485339D01*
X01148092Y00482305D01*
X01146629Y00478772D01*
X0114613Y0047498D01*
X01146629Y00471188D01*
X01148092Y00467655D01*
X01150421Y00464621D01*
X01153455Y00462292D01*
X01156988Y00460829D01*
X0116078Y0046033D01*
X01164572Y00460829D01*
X01168105Y00462292D01*
X01171139Y00464621D01*
X01173284Y00467415D01*
X01211776D01*
X01213921Y00464621D01*
X01216955Y00462292D01*
X01220488Y00460829D01*
X0122428Y0046033D01*
X01228072Y00460829D01*
X01231605Y00462292D01*
X01233474Y00463726D01*
X01234613Y00463165D01*
X01234616Y00435993D01*
X01233477Y00435432D01*
X01231605Y00436868D01*
X01228072Y00438331D01*
X0122678Y00438501D01*
Y0042418D01*
Y00409859D01*
X01228072Y00410029D01*
X01231605Y00411492D01*
X01233479Y0041293D01*
X01234618Y00412369D01*
X01234629Y00308435D01*
X01233397Y00308127D01*
X01232467Y00309866D01*
X01229343Y00313673D01*
X01225536Y00316797D01*
X01221193Y00319119D01*
X01216481Y00320548D01*
X0121158Y00321031D01*
X01206679Y00320548D01*
X01201967Y00319119D01*
X01197624Y00316797D01*
X01193817Y00313673D01*
X01190693Y00309866D01*
X01188371Y00305523D01*
X01186942Y00300811D01*
X01186459Y0029591D01*
X01186942Y00291009D01*
X01188371Y00286297D01*
X01190693Y00281954D01*
X01193817Y00278147D01*
X01197624Y00275023D01*
X01198687Y00274454D01*
X01198378Y00273223D01*
X01068201D01*
X01067816Y00274493D01*
X01067865Y00274525D01*
X0106897Y00276179D01*
X01069358Y0027813D01*
Y0029845D01*
X0106897Y00300401D01*
X01067865Y00302055D01*
X01066211Y0030316D01*
X0106426Y00303548D01*
X0104394D01*
X01041989Y0030316D01*
X01040335Y00302055D01*
X0103923Y00300401D01*
X01038842Y0029845D01*
Y0027813D01*
X0103923Y00276179D01*
X01040335Y00274525D01*
X01040384Y00274493D01*
X01039999Y00273223D01*
X00307442D01*
X00306988Y00274493D01*
X00309783Y00276787D01*
X00312907Y00280594D01*
X00315229Y00284937D01*
X00316658Y00289649D01*
X00317141Y0029455D01*
X00316658Y00299451D01*
X00315229Y00304163D01*
X00312907Y00308506D01*
X00309783Y00312313D01*
X00305976Y00315437D01*
X00301633Y00317759D01*
X00296921Y00319188D01*
X0029202Y00319671D01*
X00287119Y00319188D01*
X00282407Y00317759D01*
X00278064Y00315437D01*
X00274257Y00312313D01*
X00273288Y00311133D01*
X00272093Y00311561D01*
Y0090754D01*
X00272561Y0090777D01*
X00273363Y00907881D01*
X00274808Y00905998D01*
X00291806Y00889D01*
X00290048Y00887242D01*
X00288445Y00885153D01*
X00287437Y0088272D01*
X00287094Y0088011D01*
Y0071247D01*
X00287437Y00709859D01*
X00288445Y00707427D01*
X00290048Y00705338D01*
X00312908Y00682478D01*
X00314997Y00680875D01*
X0031743Y00679867D01*
X0032004Y00679524D01*
X00561111D01*
X00563457Y00678552D01*
X0056642Y00678162D01*
X00569383Y00678552D01*
X00572144Y00679696D01*
X00574515Y00681515D01*
X00576334Y00683886D01*
X00577478Y00686647D01*
X00577868Y0068961D01*
X00577478Y00692573D01*
X00576334Y00695334D01*
X00574515Y00697705D01*
X00572144Y00699524D01*
X00569383Y00700668D01*
X0056642Y00701058D01*
X00563457Y00700668D01*
X00561111Y00699696D01*
X00324218D01*
X00307266Y00716648D01*
Y0087188D01*
X0030844Y00872366D01*
X00315448Y00865358D01*
X00317537Y00863755D01*
X0031997Y00862747D01*
X0032258Y00862404D01*
X005617D01*
X00562108Y00861201D01*
X00561594Y00860807D01*
X00559367Y00857905D01*
X00557967Y00854526D01*
X00557819Y008534D01*
X00585181D01*
X00585033Y00854526D01*
X00583633Y00857905D01*
X00581407Y00860807D01*
X00580892Y00861201D01*
X005813Y00862404D01*
X00585102D01*
X00603738Y00843768D01*
X00605827Y00842165D01*
X0060826Y00841157D01*
X0061087Y00840814D01*
X00612628D01*
X00615295Y00838767D01*
X00618674Y00837367D01*
X006223Y0083689D01*
X00625926Y00837367D01*
X00629305Y00838767D01*
X00632206Y00840993D01*
X00634433Y00843895D01*
X00635832Y00847274D01*
X0063631Y008509D01*
X00635832Y00854526D01*
X00634433Y00857905D01*
X00632206Y00860807D01*
X00629305Y00863033D01*
X00625926Y00864433D01*
X006223Y0086491D01*
X00618674Y00864433D01*
X00615295Y00863033D01*
X00613997Y00862037D01*
X00601906Y00874128D01*
Y00890304D01*
X00602844Y00891526D01*
X00603833Y00893914D01*
X00605207D01*
X00606197Y00891526D01*
X00608219Y00888889D01*
X00610856Y00886867D01*
X00613926Y00885595D01*
X0061722Y00885161D01*
X00620514Y00885595D01*
X00622008Y00886214D01*
X00671561Y00836661D01*
X00673128Y00835459D01*
X00674952Y00834703D01*
X0067691Y00834445D01*
X0067691Y00834445D01*
X00713065D01*
X00713318Y00833175D01*
X00711815Y00832553D01*
X00708913Y00830327D01*
X00706687Y00827425D01*
X00705287Y00824046D01*
X00705139Y0082292D01*
X0071882D01*
X00732501D01*
X0073242Y00823536D01*
X00733623Y00824129D01*
X00773161Y00784591D01*
X00774728Y00783389D01*
X00776552Y00782633D01*
X0077851Y00782375D01*
X0077851Y00782375D01*
X0080899D01*
X00810948Y00782633D01*
X00812772Y00783389D01*
X00814339Y00784591D01*
X00864193Y00834445D01*
X00896173D01*
X00898131Y00834703D01*
X00899956Y00835459D01*
X00901523Y00836661D01*
X00904319Y00839457D01*
X00905492Y00838971D01*
Y0083058D01*
X0090588Y00828629D01*
X00906985Y00826975D01*
X00908639Y0082587D01*
X0091059Y00825482D01*
X00912531D01*
X00912784Y00824212D01*
X00911846Y00823823D01*
X00909209Y00821801D01*
X00907187Y00819164D01*
X00905915Y00816095D01*
X00905481Y008128D01*
X00905915Y00809505D01*
X00907187Y00806436D01*
X00909209Y00803799D01*
X00911846Y00801777D01*
X00914234Y00800787D01*
Y00799413D01*
X00911846Y00798423D01*
X00909209Y00796401D01*
X00907187Y00793764D01*
X00905915Y00790695D01*
X00905481Y007874D01*
X00905915Y00784106D01*
X00907187Y00781036D01*
X00909209Y00778399D01*
X00911846Y00776376D01*
X00914234Y00775387D01*
Y00774013D01*
X00911846Y00773024D01*
X00909209Y00771001D01*
X00907187Y00768364D01*
X00905915Y00765294D01*
X00905481Y00762D01*
X00905915Y00758706D01*
X00907187Y00755636D01*
X00909209Y00752999D01*
X00911846Y00750976D01*
X00914234Y00749987D01*
Y00748613D01*
X00911846Y00747624D01*
X00909209Y00745601D01*
X00907187Y00742964D01*
X00905915Y00739894D01*
X00905481Y007366D01*
X00905915Y00733306D01*
X00907187Y00730236D01*
X00909209Y00727599D01*
X00911846Y00725576D01*
X00914234Y00724587D01*
Y00723213D01*
X00911846Y00722224D01*
X00909209Y00720201D01*
X00907187Y00717564D01*
X00905915Y00714494D01*
X00905558Y00711786D01*
X00876031Y00682259D01*
X00874829Y00680692D01*
X00874073Y00678868D01*
X00873815Y0067691D01*
Y0065405D01*
X00874073Y00652092D01*
X00874829Y00650268D01*
X00876031Y00648701D01*
X00898891Y00625841D01*
X00900458Y00624639D01*
X00902282Y00623883D01*
X0090424Y00623625D01*
X0100838D01*
X01010338Y00623883D01*
X01012162Y00624639D01*
X01013729Y00625841D01*
X01059449Y00671561D01*
X01059449Y00671561D01*
X01060651Y00673128D01*
X01061407Y00674952D01*
X01061665Y0067691D01*
Y00695181D01*
X01064915Y00696527D01*
X01067816Y00698754D01*
X01070043Y00701655D01*
X01071442Y00705034D01*
X0107192Y0070866D01*
X01071442Y00712286D01*
X01070043Y00715665D01*
X01067816Y00718567D01*
X01067389Y00718894D01*
X01067706Y00720252D01*
X01068751Y0072046D01*
X01070405Y00721565D01*
X0107151Y00723219D01*
X01071898Y0072517D01*
Y0073156D01*
X010541D01*
X01036302D01*
Y0072517D01*
X0103669Y00723219D01*
X01037795Y00721565D01*
X01039449Y0072046D01*
X01040494Y00720252D01*
X01040811Y00718894D01*
X01040384Y00718567D01*
X01038157Y00715665D01*
X01036758Y00712286D01*
X0103628Y0070866D01*
X01036758Y00705034D01*
X01038157Y00701655D01*
X01040384Y00698754D01*
X01043285Y00696527D01*
X01046535Y00695181D01*
Y00680043D01*
X01005247Y00638755D01*
X00907373D01*
X00888945Y00657183D01*
Y00673777D01*
X00904924Y00689756D01*
X00905225Y00689555D01*
X00905893Y00688929D01*
X00905481Y006858D01*
X00905915Y00682505D01*
X00907187Y00679436D01*
X00909209Y00676799D01*
X00911846Y00674777D01*
X00914234Y00673787D01*
Y00672413D01*
X00911846Y00671423D01*
X00909209Y00669401D01*
X00907187Y00666764D01*
X00905915Y00663695D01*
X00905481Y006604D01*
X00905915Y00657105D01*
X00907187Y00654036D01*
X00909209Y00651399D01*
X00911846Y00649377D01*
X00914915Y00648105D01*
X0091821Y00647671D01*
X0092583D01*
X00929125Y00648105D01*
X00932194Y00649377D01*
X00934831Y00651399D01*
X00936853Y00654036D01*
X00938125Y00657105D01*
X00938559Y006604D01*
X00938125Y00663695D01*
X00936853Y00666764D01*
X00934831Y00669401D01*
X00932194Y00671423D01*
X00929806Y00672413D01*
Y00673787D01*
X00932194Y00674777D01*
X00934831Y00676799D01*
X00936853Y00679436D01*
X00938125Y00682505D01*
X00938559Y006858D01*
X00938125Y00689094D01*
X00936853Y00692164D01*
X00934831Y00694801D01*
X00932194Y00696824D01*
X00929806Y00697813D01*
Y00699187D01*
X00932194Y00700176D01*
X00934831Y00702199D01*
X00936853Y00704836D01*
X00938125Y00707906D01*
X00938559Y007112D01*
X00938125Y00714494D01*
X00936853Y00717564D01*
X00934831Y00720201D01*
X00932194Y00722224D01*
X00929806Y00723213D01*
Y00724587D01*
X00932194Y00725576D01*
X00934831Y00727599D01*
X00936853Y00730236D01*
X00938125Y00733306D01*
X00938559Y007366D01*
X00938125Y00739894D01*
X00936853Y00742964D01*
X00934831Y00745601D01*
X00932194Y00747624D01*
X00929806Y00748613D01*
Y00749987D01*
X00932194Y00750976D01*
X00934831Y00752999D01*
X00936853Y00755636D01*
X00938125Y00758706D01*
X00938559Y00762D01*
X00938125Y00765294D01*
X00936853Y00768364D01*
X00934831Y00771001D01*
X00932194Y00773024D01*
X00929806Y00774013D01*
Y00775387D01*
X00932194Y00776376D01*
X00934831Y00778399D01*
X00936853Y00781036D01*
X00938125Y00784106D01*
X00938559Y007874D01*
X00938125Y00790695D01*
X00936853Y00793764D01*
X00934831Y00796401D01*
X00932194Y00798423D01*
X00929806Y00799413D01*
Y00800787D01*
X00932194Y00801777D01*
X00934831Y00803799D01*
X00935932Y00805235D01*
X0094361D01*
X00945568Y00805493D01*
X00947392Y00806249D01*
X00948959Y00807451D01*
X00980583Y00839075D01*
X00981722Y00838513D01*
X00981681Y008382D01*
X00982115Y00834905D01*
X00983387Y00831836D01*
X00985409Y00829199D01*
X00988046Y00827177D01*
X00990434Y00826187D01*
Y00824813D01*
X00988046Y00823823D01*
X00985409Y00821801D01*
X00983387Y00819164D01*
X00982115Y00816095D01*
X0098201Y008153D01*
X0101443D01*
X01014325Y00816095D01*
X01013054Y00819164D01*
X01011031Y00821801D01*
X01008394Y00823823D01*
X01006006Y00824813D01*
Y00826187D01*
X01008394Y00827177D01*
X01011031Y00829199D01*
X01013054Y00831836D01*
X01014325Y00834905D01*
X01014759Y008382D01*
X01014494Y0084021D01*
X01030338Y00856054D01*
X01071512D01*
X01077034Y00850532D01*
Y00800468D01*
X01071512Y00794946D01*
X01068659D01*
X01068384Y00795292D01*
X01068726Y00796566D01*
X01068861Y00796734D01*
X01070405Y00797765D01*
X0107151Y00799419D01*
X01071898Y0080137D01*
Y0081915D01*
X0107151Y00821101D01*
X01070405Y00822755D01*
X01068751Y0082386D01*
X010668Y00824248D01*
X010414D01*
X01039449Y0082386D01*
X01037795Y00822755D01*
X0103669Y00821101D01*
X01036302Y0081915D01*
Y0080137D01*
X0103669Y00799419D01*
X01037795Y00797765D01*
X01039449Y0079666D01*
X01040494Y00796452D01*
X01040811Y00795094D01*
X01040384Y00794766D01*
X01038157Y00791865D01*
X01036758Y00788486D01*
X0103628Y0078486D01*
X01036758Y00781234D01*
X01038157Y00777855D01*
X01040384Y00774954D01*
X01043285Y00772727D01*
X01046664Y00771328D01*
X0105029Y0077085D01*
X0105791D01*
X01061536Y00771328D01*
X01064915Y00772727D01*
X01067582Y00774774D01*
X0107569D01*
X01076122Y00774831D01*
X01076683Y00773691D01*
X01068747Y00765755D01*
X01036913D01*
X01014682Y00787987D01*
X01014325Y00790695D01*
X01013054Y00793764D01*
X01011031Y00796401D01*
X01008394Y00798423D01*
X01006006Y00799413D01*
Y00800787D01*
X01008394Y00801777D01*
X01011031Y00803799D01*
X01013054Y00806436D01*
X01014325Y00809505D01*
X0101443Y008103D01*
X0098201D01*
X00982115Y00809505D01*
X00983387Y00806436D01*
X00985409Y00803799D01*
X00988046Y00801777D01*
X00990434Y00800787D01*
Y00799413D01*
X00988046Y00798423D01*
X00985409Y00796401D01*
X00983387Y00793764D01*
X00982115Y00790695D01*
X00981681Y007874D01*
X00982115Y00784106D01*
X00983387Y00781036D01*
X00985409Y00778399D01*
X00988046Y00776376D01*
X00990434Y00775387D01*
Y00774013D01*
X00988046Y00773024D01*
X00985409Y00771001D01*
X00983387Y00768364D01*
X00982115Y00765294D01*
X00981681Y00762D01*
X00982115Y00758706D01*
X00983387Y00755636D01*
X00985409Y00752999D01*
X00988046Y00750976D01*
X00990434Y00749987D01*
Y00748613D01*
X00988046Y00747624D01*
X00985409Y00745601D01*
X00983387Y00742964D01*
X00982115Y00739894D01*
X00981681Y007366D01*
X00982115Y00733306D01*
X00983387Y00730236D01*
X00985409Y00727599D01*
X00988046Y00725576D01*
X00990434Y00724587D01*
Y00723213D01*
X00988046Y00722224D01*
X00985409Y00720201D01*
X00983387Y00717564D01*
X00983358Y00717495D01*
X00961002D01*
X00960595Y00718025D01*
X00958224Y00719844D01*
X00955463Y00720988D01*
X009525Y00721378D01*
X00949537Y00720988D01*
X00946776Y00719844D01*
X00944405Y00718025D01*
X00942586Y00715654D01*
X00941442Y00712893D01*
X00941052Y0070993D01*
X00941442Y00706967D01*
X00942586Y00704206D01*
X00944405Y00701835D01*
X00946776Y00700016D01*
X00949537Y00698872D01*
X009525Y00698482D01*
X00955463Y00698872D01*
X00958224Y00700016D01*
X00960595Y00701835D01*
X00961002Y00702365D01*
X00985282D01*
X00985409Y00702199D01*
X00988046Y00700176D01*
X00990434Y00699187D01*
Y00697813D01*
X00988046Y00696824D01*
X00985409Y00694801D01*
X00983387Y00692164D01*
X00982115Y00689094D01*
X00981681Y006858D01*
X00982115Y00682505D01*
X00983387Y00679436D01*
X00985409Y00676799D01*
X00988046Y00674777D01*
X00990434Y00673787D01*
Y00672413D01*
X00988046Y00671423D01*
X00985409Y00669401D01*
X00983387Y00666764D01*
X00982115Y00663695D01*
X00981681Y006604D01*
X00982115Y00657105D01*
X00983387Y00654036D01*
X00985409Y00651399D01*
X00988046Y00649377D01*
X00991115Y00648105D01*
X0099441Y00647671D01*
X0100203D01*
X01005324Y00648105D01*
X01008394Y00649377D01*
X01011031Y00651399D01*
X01013054Y00654036D01*
X01014325Y00657105D01*
X01014759Y006604D01*
X01014325Y00663695D01*
X01013054Y00666764D01*
X01011031Y00669401D01*
X01008394Y00671423D01*
X01006006Y00672413D01*
Y00673787D01*
X01008394Y00674777D01*
X01011031Y00676799D01*
X01013054Y00679436D01*
X01014325Y00682505D01*
X01014759Y006858D01*
X01014325Y00689094D01*
X01013054Y00692164D01*
X01011031Y00694801D01*
X01008394Y00696824D01*
X01006006Y00697813D01*
Y00699187D01*
X01008394Y00700176D01*
X01011031Y00702199D01*
X01013054Y00704836D01*
X01014325Y00707906D01*
X01014759Y007112D01*
X01014325Y00714494D01*
X01013054Y00717564D01*
X01011031Y00720201D01*
X01008394Y00722224D01*
X01006006Y00723213D01*
Y00724587D01*
X01008394Y00725576D01*
X01011031Y00727599D01*
X01013054Y00730236D01*
X01014325Y00733306D01*
X01014759Y007366D01*
X01014325Y00739894D01*
X01013054Y00742964D01*
X01011031Y00745601D01*
X01008394Y00747624D01*
X01006006Y00748613D01*
Y00749987D01*
X01008394Y00750976D01*
X01011031Y00752999D01*
X01013054Y00755636D01*
X01014325Y00758706D01*
X01014759Y00762D01*
X01014347Y00765129D01*
X01015015Y00765755D01*
X01015316Y00765956D01*
X01028431Y00752841D01*
X01028431Y00752841D01*
X01029998Y00751639D01*
X01031822Y00750883D01*
X0103378Y00750625D01*
X0103378Y00750625D01*
X0107188D01*
X01073838Y00750883D01*
X01075662Y00751639D01*
X01077229Y00752841D01*
X01107709Y00783321D01*
X01107709Y00783321D01*
X01108911Y00784888D01*
X01109667Y00786712D01*
X01109925Y0078867D01*
Y00799987D01*
X0111107Y00801132D01*
X01112411Y00800677D01*
X01112711Y007984D01*
X01114047Y00795175D01*
X01116171Y00792406D01*
X0111894Y00790282D01*
X01122165Y00788946D01*
X01124411Y00788651D01*
Y0078737D01*
X01122165Y00787074D01*
X0111894Y00785738D01*
X01116171Y00783614D01*
X01114047Y00780845D01*
X01112711Y0077762D01*
X01112255Y0077416D01*
X01112711Y007707D01*
X01114047Y00767475D01*
X01116171Y00764706D01*
X0111894Y00762582D01*
X01122165Y00761246D01*
X01124411Y0076095D01*
Y0075967D01*
X01122165Y00759374D01*
X0111894Y00758038D01*
X01116171Y00755914D01*
X01114047Y00753145D01*
X01112711Y0074992D01*
X01112585Y0074896D01*
X01145108D01*
X01146212Y00749597D01*
X0114734Y00748732D01*
X01150565Y00747396D01*
X01154025Y00746941D01*
X01160375D01*
X01163835Y00747396D01*
X0116706Y00748732D01*
X01169829Y00750856D01*
X01171953Y00753625D01*
X01173289Y0075685D01*
X01173745Y0076031D01*
X01173289Y0076377D01*
X01171953Y00766995D01*
X01169829Y00769763D01*
X0116706Y00771888D01*
X01163835Y00773224D01*
X01161589Y00773519D01*
Y007748D01*
X01163835Y00775096D01*
X0116706Y00776432D01*
X01169829Y00778556D01*
X01171953Y00781325D01*
X01173289Y0078455D01*
X01173745Y0078801D01*
X01173289Y0079147D01*
X01171953Y00794695D01*
X01169829Y00797464D01*
X0116706Y00799588D01*
X01163835Y00800924D01*
X01161588Y00801219D01*
Y00802501D01*
X01163835Y00802796D01*
X0116706Y00804132D01*
X01169829Y00806257D01*
X01171953Y00809025D01*
X01173289Y0081225D01*
X01173745Y0081571D01*
X01173289Y0081917D01*
X01171953Y00822395D01*
X01169829Y00825164D01*
X0116706Y00827288D01*
X01163835Y00828624D01*
X01161589Y0082892D01*
Y00830201D01*
X01163835Y00830496D01*
X0116706Y00831832D01*
X01169829Y00833957D01*
X01171953Y00836725D01*
X01173289Y0083995D01*
X01173745Y0084341D01*
X01173289Y0084687D01*
X01171953Y00850095D01*
X01169829Y00852864D01*
X0116706Y00854988D01*
X01163835Y00856324D01*
X01160375Y00856779D01*
X01154025D01*
X01150565Y00856324D01*
X0114734Y00854988D01*
X01146467Y00854318D01*
X01145328Y0085488D01*
Y00865515D01*
X0114494Y00867466D01*
X01143835Y0086912D01*
X01142181Y00870225D01*
X0114023Y00870613D01*
X0111737D01*
X01115419Y00870225D01*
X01113765Y0086912D01*
X0111266Y00867466D01*
X01112272Y00865515D01*
Y00849005D01*
X0111266Y00847054D01*
X01113765Y008454D01*
X01115419Y00844295D01*
X0111737Y00843907D01*
X01123321D01*
X01123404Y00842637D01*
X01122165Y00842474D01*
X0111894Y00841138D01*
X01116171Y00839014D01*
X01114047Y00836245D01*
X01112711Y0083302D01*
X01112255Y0082956D01*
X01112711Y008261D01*
X01113277Y00824735D01*
X0109838Y00809838D01*
X01097206Y00810324D01*
Y0085471D01*
X01096863Y0085732D01*
X01095855Y00859753D01*
X01094252Y00861842D01*
X01082822Y00873272D01*
X01080733Y00874875D01*
X010783Y00875883D01*
X0107569Y00876226D01*
X01036246D01*
Y00907821D01*
X01037218Y00910167D01*
X01037608Y0091313D01*
X01037218Y00916093D01*
X01036074Y00918854D01*
X01034255Y00921225D01*
X01031884Y00923044D01*
X01029123Y00924188D01*
X0102616Y00924578D01*
X01023197Y00924188D01*
X01020436Y00923044D01*
X01018065Y00921225D01*
X01016246Y00918854D01*
X01015102Y00916093D01*
X01014712Y0091313D01*
X01015102Y00910167D01*
X01016074Y00907821D01*
Y00870318D01*
X01005533Y00859777D01*
X0100433Y0086037D01*
X01004588Y0086233D01*
X01004198Y00865293D01*
X01003054Y00868054D01*
X01001235Y00870425D01*
X00998864Y00872244D01*
X00996103Y00873388D01*
X0099314Y00873778D01*
X00990177Y00873388D01*
X00987416Y00872244D01*
X00985045Y00870425D01*
X00983226Y00868054D01*
X00982082Y00865293D01*
X00981692Y0086233D01*
X00981779Y00861667D01*
X00940477Y00820365D01*
X00935932D01*
X00934831Y00821801D01*
X00932194Y00823823D01*
X00931256Y00824212D01*
X00931509Y00825482D01*
X0093345D01*
X00935401Y0082587D01*
X00937055Y00826975D01*
X0093816Y00828629D01*
X00938548Y0083058D01*
Y0084582D01*
X0093816Y00847771D01*
X00937055Y00849425D01*
X00935401Y0085053D01*
X0093345Y00850918D01*
X00917439D01*
X00916953Y00852091D01*
X00924707Y00859845D01*
X009652D01*
X00967158Y00860103D01*
X00968982Y00860859D01*
X00970549Y00862061D01*
X00988329Y00879841D01*
X00988329Y00879841D01*
X00989531Y00881408D01*
X00990287Y00883232D01*
X00990545Y0088519D01*
Y0101219D01*
X00990545Y0101219D01*
X00990287Y01014148D01*
X00989531Y01015972D01*
X00988329Y01017539D01*
X00847139Y01158729D01*
X00845572Y01159931D01*
X00843748Y01160687D01*
X0084179Y01160945D01*
X00730817D01*
X00730817Y01160945D01*
X00728859Y01160687D01*
X00727035Y01159931D01*
X00725468Y01158729D01*
X00655051Y01088312D01*
X00653849Y01086745D01*
X00653093Y01084921D01*
X00652835Y01082963D01*
Y01066685D01*
X00650949Y0106631D01*
X00649295Y01065205D01*
X0064819Y01063551D01*
X00647802Y010616D01*
Y010466D01*
X0064819Y01044649D01*
X00649295Y01042995D01*
X00650949Y0104189D01*
X006529Y01041502D01*
X006679D01*
X00669851Y0104189D01*
X00671505Y01042995D01*
X0067261Y01044649D01*
X00672998Y010466D01*
Y01049024D01*
X00674268Y01049277D01*
X00674881Y01047796D01*
X00676885Y01045185D01*
X00679496Y01043181D01*
X00682537Y01041922D01*
X006858Y01041492D01*
X00689063Y01041922D01*
X00692104Y01043181D01*
X00694715Y01045185D01*
X00696719Y01047796D01*
X00697848Y01050523D01*
X0069785Y01050523D01*
X0069915D01*
X00699152Y01050523D01*
X00700281Y01047796D01*
X00702285Y01045185D01*
X00704896Y01043181D01*
X00707937Y01041922D01*
X00709956Y01041656D01*
X00729531Y01022081D01*
X00729531Y01022081D01*
X00731098Y01020879D01*
X00732922Y01020123D01*
X0073488Y01019865D01*
X0073488Y01019865D01*
X00756327D01*
X00800155Y00976037D01*
Y00939123D01*
X00799507Y00938475D01*
X00703182D01*
X00702696Y00939648D01*
X00705948Y009429D01*
X00706926Y00942495D01*
X0071032Y00942048D01*
X00713714Y00942495D01*
X00716876Y00943804D01*
X00719592Y00945888D01*
X00721676Y00948604D01*
X00722333Y00950191D01*
X00723708D01*
X00724365Y00948604D01*
X00726449Y00945888D01*
X00729164Y00943804D01*
X00732327Y00942495D01*
X0073572Y00942048D01*
X00739114Y00942495D01*
X00742276Y00943804D01*
X00744992Y00945888D01*
X00747076Y00948604D01*
X00747733Y00950191D01*
X00749108D01*
X00749765Y00948604D01*
X00751849Y00945888D01*
X00754564Y00943804D01*
X00757727Y00942495D01*
X0075862Y00942377D01*
Y0095516D01*
Y00967943D01*
X00757727Y00967825D01*
X00754564Y00966515D01*
X00751849Y00964432D01*
X00749765Y00961716D01*
X00749108Y00960129D01*
X00747733D01*
X00747076Y00961716D01*
X00745806Y0096337D01*
Y0096481D01*
X00745463Y0096742D01*
X00744455Y00969853D01*
X00742852Y00971942D01*
X00720872Y00993922D01*
X00718783Y00995525D01*
X0071635Y00996533D01*
X0071374Y00996876D01*
X00654418D01*
X00620542Y01030752D01*
X00618453Y01032355D01*
X00616021Y01033363D01*
X0061341Y01033706D01*
X00420288D01*
X00413665Y01040329D01*
X00414151Y01041502D01*
X004266D01*
X00428551Y0104189D01*
X00430205Y01042995D01*
X0043131Y01044649D01*
X00431698Y010466D01*
Y01049024D01*
X00432968Y01049277D01*
X00433581Y01047796D01*
X00435585Y01045185D01*
X00438196Y01043181D01*
X00441237Y01041922D01*
X004445Y01041492D01*
X00447763Y01041922D01*
X00450804Y01043181D01*
X00453415Y01045185D01*
X00455419Y01047796D01*
X00456548Y01050523D01*
X0045655Y01050523D01*
X0045785D01*
X00457852Y01050523D01*
X00458981Y01047796D01*
X00460985Y01045185D01*
X00463596Y01043181D01*
X00466637Y01041922D01*
X004699Y01041492D01*
X00473163Y01041922D01*
X00476204Y01043181D01*
X00478815Y01045185D01*
X00480819Y01047796D01*
X00481948Y01050523D01*
X0048195Y01050523D01*
X0048325D01*
X00483252Y01050523D01*
X00484381Y01047796D01*
X00486385Y01045185D01*
X00488996Y01043181D01*
X00492037Y01041922D01*
X004953Y01041492D01*
X00498563Y01041922D01*
X00501604Y01043181D01*
X00504215Y01045185D01*
X00506219Y01047796D01*
X00507348Y01050523D01*
X0050735Y01050523D01*
X0050865D01*
X00508652Y01050523D01*
X00509781Y01047796D01*
X00511785Y01045185D01*
X00514396Y01043181D01*
X00517437Y01041922D01*
X005207Y01041492D01*
X00523963Y01041922D01*
X00527004Y01043181D01*
X00529615Y01045185D01*
X00531619Y01047796D01*
X00532748Y01050523D01*
X0053275Y01050523D01*
X0053405D01*
X00534052Y01050523D01*
X00535181Y01047796D01*
X00537185Y01045185D01*
X00539796Y01043181D01*
X00542837Y01041922D01*
X005461Y01041492D01*
X00549363Y01041922D01*
X00552404Y01043181D01*
X00555015Y01045185D01*
X00557019Y01047796D01*
X00558148Y01050523D01*
X0055815Y01050523D01*
X0055945D01*
X00559452Y01050523D01*
X00560581Y01047796D01*
X00562585Y01045185D01*
X00565196Y01043181D01*
X00568237Y01041922D01*
X005715Y01041492D01*
X00574763Y01041922D01*
X00577804Y01043181D01*
X00580415Y01045185D01*
X00582419Y01047796D01*
X00583548Y01050523D01*
X0058355Y01050523D01*
X0058485D01*
X00584852Y01050523D01*
X00585981Y01047796D01*
X00587985Y01045185D01*
X00590596Y01043181D01*
X00593637Y01041922D01*
X005969Y01041492D01*
X00600163Y01041922D01*
X00603204Y01043181D01*
X00605815Y01045185D01*
X00607819Y01047796D01*
X00609078Y01050837D01*
X00609508Y010541D01*
X00609078Y01057363D01*
X00607819Y01060404D01*
X00605815Y01063015D01*
X00603204Y01065019D01*
X00600163Y01066278D01*
X005969Y01066708D01*
X00593637Y01066278D01*
X00590596Y01065019D01*
X00587985Y01063015D01*
X00585981Y01060404D01*
X00584852Y01057677D01*
X0058485Y01057677D01*
X0058355D01*
X00583548Y01057677D01*
X00582419Y01060404D01*
X00580415Y01063015D01*
X00577804Y01065019D01*
X00574763Y01066278D01*
X005715Y01066708D01*
X00568237Y01066278D01*
X00565196Y01065019D01*
X00562585Y01063015D01*
X00560581Y01060404D01*
X00559452Y01057677D01*
X0055945Y01057677D01*
X0055815D01*
X00558148Y01057677D01*
X00557019Y01060404D01*
X00555015Y01063015D01*
X00552404Y01065019D01*
X00549363Y01066278D01*
X005461Y01066708D01*
X00542837Y01066278D01*
X00539796Y01065019D01*
X00537185Y01063015D01*
X00535181Y01060404D01*
X00534052Y01057677D01*
X0053405Y01057677D01*
X0053275D01*
X00532748Y01057677D01*
X00531619Y01060404D01*
X00529615Y01063015D01*
X00527004Y01065019D01*
X00523963Y01066278D01*
X005207Y01066708D01*
X00517437Y01066278D01*
X00514396Y01065019D01*
X00511785Y01063015D01*
X00509781Y01060404D01*
X00508652Y01057677D01*
X0050865Y01057677D01*
X0050735D01*
X00507348Y01057677D01*
X00506219Y01060404D01*
X00504215Y01063015D01*
X00501604Y01065019D01*
X00498563Y01066278D01*
X004953Y01066708D01*
X00492037Y01066278D01*
X00488996Y01065019D01*
X00486385Y01063015D01*
X00484381Y01060404D01*
X00483252Y01057677D01*
X0048325Y01057677D01*
X0048195D01*
X00481948Y01057677D01*
X00480819Y01060404D01*
X00478815Y01063015D01*
X00476204Y01065019D01*
X00473163Y01066278D01*
X004699Y01066708D01*
X00466637Y01066278D01*
X00463596Y01065019D01*
X00460985Y01063015D01*
X00458981Y01060404D01*
X00457852Y01057677D01*
X0045785Y01057677D01*
X0045655D01*
X00456548Y01057677D01*
X00455419Y01060404D01*
X00453415Y01063015D01*
X00450804Y01065019D01*
X00447763Y01066278D01*
X004445Y01066708D01*
X00441237Y01066278D01*
X00438196Y01065019D01*
X00435585Y01063015D01*
X00433581Y01060404D01*
X00432968Y01058923D01*
X00431698Y01059176D01*
Y010616D01*
X0043131Y01063551D01*
X00430205Y01065205D01*
X00428551Y0106631D01*
X004266Y01066698D01*
X004116D01*
X00409649Y0106631D01*
X00407995Y01065205D01*
X0040689Y01063551D01*
X00406502Y010616D01*
Y01049949D01*
X00405232Y01049364D01*
X00404766Y01049762D01*
X0040517Y0105283D01*
X00404692Y01056456D01*
X00403293Y01059835D01*
X00401067Y01062737D01*
X00398165Y01064963D01*
X00394786Y01066363D01*
X0039116Y0106684D01*
X00387534Y01066363D01*
X00384155Y01064963D01*
X00381254Y01062737D01*
X00379027Y01059835D01*
X00377627Y01056456D01*
X0037715Y0105283D01*
X00377627Y01049204D01*
X00379027Y01045825D01*
X00381254Y01042924D01*
X00384155Y01040697D01*
X00385203Y01040263D01*
X00408978Y01016488D01*
X00411067Y01014885D01*
X00413499Y01013877D01*
X0041611Y01013534D01*
X00609232D01*
X00643108Y00979658D01*
X00645197Y00978055D01*
X00647629Y00977047D01*
X0065024Y00976704D01*
X00709562D01*
X00724445Y00961821D01*
X00724365Y00961716D01*
X00723708Y00960129D01*
X00722333D01*
X00721676Y00961716D01*
X00719592Y00964432D01*
X00716876Y00966515D01*
X00713714Y00967825D01*
X0071032Y00968272D01*
X00706926Y00967825D01*
X00703764Y00966515D01*
X00701049Y00964432D01*
X00698965Y00961716D01*
X00698307Y00960129D01*
X00696933D01*
X00696276Y00961716D01*
X00694192Y00964432D01*
X00691476Y00966515D01*
X00688314Y00967825D01*
X0068492Y00968272D01*
X00681526Y00967825D01*
X00678364Y00966515D01*
X00675648Y00964432D01*
X00673565Y00961716D01*
X00672907Y00960129D01*
X00671533D01*
X00670876Y00961716D01*
X00668792Y00964432D01*
X00666076Y00966515D01*
X00662914Y00967825D01*
X0065952Y00968272D01*
X00656126Y00967825D01*
X00652964Y00966515D01*
X00650248Y00964432D01*
X00648165Y00961716D01*
X00647507Y00960129D01*
X00646133D01*
X00645476Y00961716D01*
X00643392Y00964432D01*
X00640676Y00966515D01*
X00637514Y00967825D01*
X0063412Y00968272D01*
X00630727Y00967825D01*
X00627564Y00966515D01*
X00624849Y00964432D01*
X00622765Y00961716D01*
X00622108Y00960129D01*
X00620733D01*
X00620076Y00961716D01*
X00617992Y00964432D01*
X00615276Y00966515D01*
X00612114Y00967825D01*
X0060872Y00968272D01*
X00605326Y00967825D01*
X00602164Y00966515D01*
X00599449Y00964432D01*
X00597365Y00961716D01*
X00596707Y00960129D01*
X00595333D01*
X00594676Y00961716D01*
X00592592Y00964432D01*
X00589876Y00966515D01*
X00586714Y00967825D01*
X0058332Y00968272D01*
X00579926Y00967825D01*
X00576764Y00966515D01*
X00574049Y00964432D01*
X00571965Y00961716D01*
X00571307Y00960129D01*
X00569933D01*
X00569276Y00961716D01*
X00567192Y00964432D01*
X00564476Y00966515D01*
X00561314Y00967825D01*
X0055792Y00968272D01*
X00554526Y00967825D01*
X00551364Y00966515D01*
X00548648Y00964432D01*
X00546565Y00961716D01*
X00545908Y00960129D01*
X00544533D01*
X00543876Y00961716D01*
X00541792Y00964432D01*
X00539076Y00966515D01*
X00535914Y00967825D01*
X0053252Y00968272D01*
X00529127Y00967825D01*
X00525964Y00966515D01*
X00523248Y00964432D01*
X00521165Y00961716D01*
X00520508Y00960129D01*
X00519133D01*
X00518476Y00961716D01*
X00516392Y00964432D01*
X00513676Y00966515D01*
X00510514Y00967825D01*
X0050712Y00968272D01*
X00503727Y00967825D01*
X00500564Y00966515D01*
X00497849Y00964432D01*
X00495765Y00961716D01*
X00495107Y00960129D01*
X00493733D01*
X00493076Y00961716D01*
X00490992Y00964432D01*
X00488276Y00966515D01*
X00485114Y00967825D01*
X0048172Y00968272D01*
X00478326Y00967825D01*
X00475164Y00966515D01*
X00472449Y00964432D01*
X00470365Y00961716D01*
X00469707Y00960129D01*
X00468333D01*
X00467676Y00961716D01*
X00465592Y00964432D01*
X00462876Y00966515D01*
X00459714Y00967825D01*
X0045632Y00968272D01*
X00452926Y00967825D01*
X00449764Y00966515D01*
X00447048Y00964432D01*
X00444965Y00961716D01*
X00444308Y00960129D01*
X00442933D01*
X00442276Y00961716D01*
X00440192Y00964432D01*
X00438485Y00965741D01*
Y0098513D01*
X00438227Y00987088D01*
X00437471Y00988912D01*
X00436269Y00990479D01*
X00436269Y00990479D01*
X00416829Y01009919D01*
X00415262Y01011121D01*
X00413438Y01011877D01*
X0041148Y01012135D01*
X00395113D01*
X00360625Y01046623D01*
Y01074808D01*
X00361155Y01075215D01*
X00362974Y01077586D01*
X00364118Y01080347D01*
X00364508Y0108331D01*
X00364118Y01086273D01*
X00362974Y01089034D01*
X00361155Y01091405D01*
X00358784Y01093224D01*
X00356023Y01094368D01*
X0035306Y01094758D01*
X00350097Y01094368D01*
X00347336Y01093224D01*
X00344965Y01091405D01*
X00343146Y01089034D01*
X00342002Y01086273D01*
X00341612Y0108331D01*
X00342002Y01080347D01*
X00343146Y01077586D01*
X00344965Y01075215D01*
X00345495Y01074808D01*
Y0104349D01*
X00345753Y01041532D01*
X00346509Y01039708D01*
X00347711Y01038141D01*
X00386631Y00999221D01*
X00388198Y00998019D01*
X00390022Y00997263D01*
X0039198Y00997005D01*
X0039198Y00997005D01*
X00408347D01*
X00423355Y00981997D01*
Y00965741D01*
X00421648Y00964432D01*
X00419565Y00961716D01*
X00418908Y00960129D01*
X00417533D01*
X00416876Y00961716D01*
X00415606Y0096337D01*
Y0098259D01*
X00415263Y009852D01*
X00414255Y00987633D01*
X00412652Y00989722D01*
X00410082Y00992292D01*
X00407993Y00993895D01*
X00405561Y00994902D01*
X0040295Y00995246D01*
X00361566D01*
X00361157Y00996449D01*
X00361635Y00996815D01*
X00363454Y00999186D01*
X00364598Y01001947D01*
X00364659Y0100241D01*
X00342421D01*
X00342482Y01001947D01*
X00343626Y00999186D01*
X00345445Y00996815D01*
X00345923Y00996449D01*
X00345514Y00995246D01*
X00312694D01*
X00310083Y00994902D01*
X00308716Y00994336D01*
X00292026D01*
Y01041574D01*
X00293296Y010422D01*
X00295255Y01040697D01*
X00298634Y01039297D01*
X0030226Y0103882D01*
X00305886Y01039297D01*
X00309265Y01040697D01*
X00312167Y01042924D01*
X00314393Y01045825D01*
X00315793Y01049204D01*
X0031627Y0105283D01*
X00315793Y01056456D01*
X00314393Y01059835D01*
X00312167Y01062737D01*
X00309265Y01064963D01*
X00305886Y01066363D01*
X0030226Y0106684D01*
X00298634Y01066363D01*
X00295255Y01064963D01*
X00293296Y0106346D01*
X00292026Y01064086D01*
Y01096084D01*
X00402222D01*
X00424668Y01073638D01*
X00426757Y01072035D01*
X00429189Y01071027D01*
X004318Y01070684D01*
X00611911D01*
X00614257Y01069712D01*
X0061722Y01069322D01*
X00620183Y01069712D01*
X00622944Y01070856D01*
X00625315Y01072675D01*
X00627134Y01075046D01*
X00628278Y01077807D01*
X00628668Y0108077D01*
X00628278Y01083733D01*
X00627134Y01086494D01*
X00625315Y01088865D01*
X00625042Y01089074D01*
X0062545Y01090277D01*
X0062992D01*
X00631871Y01090665D01*
X00633525Y0109177D01*
X0063463Y01093424D01*
X00635018Y01095375D01*
Y01111885D01*
X0063463Y01113836D01*
X00633525Y0111549D01*
X00631871Y01116595D01*
X0062992Y01116983D01*
X00629825D01*
X00629394Y01118253D01*
X00631119Y01119576D01*
X00633243Y01122345D01*
X00634579Y0112557D01*
X00635034Y0112903D01*
X00634579Y0113249D01*
X00633243Y01135715D01*
X00631119Y01138484D01*
X0062835Y01140608D01*
X00625125Y01141944D01*
X00621665Y01142399D01*
X00612775D01*
X00609315Y01141944D01*
X0060609Y01140608D01*
X00603321Y01138484D01*
X00601197Y01135715D01*
X00599861Y0113249D01*
X00599406Y0112903D01*
X00599861Y0112557D01*
X00601197Y01122345D01*
X00603321Y01119576D01*
X00605046Y01118253D01*
X00604615Y01116983D01*
X0060452D01*
X00602569Y01116595D01*
X00600915Y0111549D01*
X0059981Y01113836D01*
X00599422Y01111885D01*
Y01111195D01*
X00595433D01*
X00584625Y01122003D01*
Y01196407D01*
X00586967Y01198204D01*
X00589193Y01201105D01*
X00590592Y01204484D01*
X0059107Y0120811D01*
X00590592Y01211736D01*
X00589193Y01215115D01*
X00586967Y01218017D01*
X00584065Y01220243D01*
X00580686Y01221643D01*
X0057706Y0122212D01*
X00573434Y01221643D01*
X00570055Y01220243D01*
X00567154Y01218017D01*
X00564927Y01215115D01*
X00563527Y01211736D01*
X0056305Y0120811D01*
X00563527Y01204484D01*
X00564927Y01201105D01*
X00567154Y01198204D01*
X00569495Y01196407D01*
Y0111887D01*
X00569753Y01116912D01*
X00570509Y01115088D01*
X00571711Y01113521D01*
X00586951Y01098281D01*
X00588518Y01097079D01*
X00590342Y01096323D01*
X005923Y01096065D01*
X00599422D01*
Y01095375D01*
X0059981Y01093424D01*
X00600677Y01092126D01*
X00600171Y01090856D01*
X00435978D01*
X00431321Y01095513D01*
X00432004Y01096627D01*
X00435592Y01097099D01*
X00439125Y01098562D01*
X00442159Y01100891D01*
X00444488Y01103925D01*
X00445951Y01107458D01*
X00446121Y0110875D01*
X004318D01*
Y0111125D01*
X004293D01*
Y01125571D01*
X00428008Y01125401D01*
X00424475Y01123938D01*
X00421441Y01121609D01*
X00419112Y01118575D01*
X00417649Y01115042D01*
X00417177Y01111454D01*
X00416063Y01110771D01*
X00413532Y01113302D01*
X00411443Y01114905D01*
X00409011Y01115913D01*
X004064Y01116256D01*
X00292026D01*
Y01125464D01*
X00308807D01*
Y0112412D01*
X00309195Y01122169D01*
X003103Y01120515D01*
X00311954Y0111941D01*
X00313905Y01119022D01*
X00330415D01*
X00332366Y0111941D01*
X0033402Y01120515D01*
X00335125Y01122169D01*
X00335513Y0112412D01*
Y01124215D01*
X00336783Y01124646D01*
X00338106Y01122921D01*
X00340875Y01120797D01*
X003441Y01119461D01*
X0034756Y01119006D01*
X0035102Y01119461D01*
X00354245Y01120797D01*
X00357014Y01122921D01*
X00359138Y0112569D01*
X00359625Y01126865D01*
X00360895D01*
X00361382Y0112569D01*
X00363506Y01122921D01*
X00366275Y01120797D01*
X003695Y01119461D01*
X0037046Y01119335D01*
Y0113555D01*
Y01151765D01*
X003695Y01151639D01*
X00366275Y01150303D01*
X00363506Y01148179D01*
X00361382Y0114541D01*
X00360895Y01144234D01*
X00359625D01*
X00359138Y0114541D01*
X00357014Y01148179D01*
X00354245Y01150303D01*
X0035102Y01151639D01*
X0034756Y01152094D01*
X003441Y01151639D01*
X00340875Y01150303D01*
X00338106Y01148179D01*
X00336783Y01146454D01*
X00335513Y01146885D01*
Y0114698D01*
X00335125Y01148931D01*
X0033402Y01150585D01*
X00332366Y0115169D01*
X00330415Y01152078D01*
X00313905D01*
X00311954Y0115169D01*
X003103Y01150585D01*
X00309195Y01148931D01*
X00308807Y0114698D01*
Y01145636D01*
X00292026D01*
Y01147572D01*
X00327172Y01182718D01*
X00328775Y01184807D01*
X00329783Y0118724D01*
X00330126Y0118985D01*
Y01198024D01*
X00336248D01*
X00338915Y01195977D01*
X00342294Y01194577D01*
X0034592Y011941D01*
X00349546Y01194577D01*
X00352925Y01195977D01*
X00355826Y01198204D01*
X00358053Y01201105D01*
X00359453Y01204484D01*
X0035993Y0120811D01*
X00359453Y01211736D01*
X00358053Y01215115D01*
X00355826Y01218017D01*
X00354188Y01219274D01*
X00354619Y01220544D01*
X00426121D01*
X00426552Y01219274D01*
X00424914Y01218017D01*
X00422687Y01215115D01*
X00421287Y01211736D01*
X0042081Y0120811D01*
X00421287Y01204484D01*
X00422687Y01201105D01*
X00424914Y01198204D01*
X00427815Y01195977D01*
X00431194Y01194577D01*
X0043482Y011941D01*
X00438446Y01194577D01*
X00441825Y01195977D01*
X00444726Y01198204D01*
X00446953Y01201105D01*
X00448353Y01204484D01*
X0044883Y0120811D01*
X00448353Y01211736D01*
X00446953Y01215115D01*
X00444726Y01218017D01*
X00443088Y01219274D01*
X00443519Y01220544D01*
X00461462D01*
X00474189Y01207817D01*
X00474627Y01204484D01*
X00476027Y01201105D01*
X00478254Y01198204D01*
X00481155Y01195977D01*
X00484534Y01194577D01*
X0048816Y011941D01*
X00491786Y01194577D01*
X00495165Y01195977D01*
X00498066Y01198204D01*
X00500293Y01201105D01*
X00501693Y01204484D01*
X0050217Y0120811D01*
X00501693Y01211736D01*
X00500293Y01215115D01*
X00498066Y01218017D01*
X00495165Y01220243D01*
X00491786Y01221643D01*
X00488453Y01222081D01*
X0047583Y01234704D01*
X00476316Y01235877D01*
X00506073D01*
X00506634Y01234738D01*
X00506186Y01234154D01*
X00505042Y01231393D01*
X00504981Y0123093D01*
X00527219D01*
X00527158Y01231393D01*
X00526014Y01234154D01*
X00525566Y01234738D01*
X00526128Y01235877D01*
X0079313D01*
X00793616Y01234704D01*
X00785831Y01226919D01*
X00784585Y01226755D01*
X00781516Y01225483D01*
X00778879Y01223461D01*
X00776857Y01220824D01*
X00775867Y01218436D01*
X00774493D01*
X00773503Y01220824D01*
X00771481Y01223461D01*
X00768844Y01225483D01*
X00765775Y01226755D01*
X0076248Y01227189D01*
X00759185Y01226755D01*
X00756116Y01225483D01*
X00753479Y01223461D01*
X00751457Y01220824D01*
X00750467Y01218436D01*
X00749093D01*
X00748103Y01220824D01*
X00746081Y01223461D01*
X00743444Y01225483D01*
X00740375Y01226755D01*
X0073958Y0122686D01*
Y0121065D01*
Y0119444D01*
X00740375Y01194545D01*
X00743444Y01195816D01*
X00746081Y01197839D01*
X00748103Y01200476D01*
X00749093Y01202864D01*
X00750467D01*
X00751457Y01200476D01*
X00753479Y01197839D01*
X00756116Y01195816D01*
X00759185Y01194545D01*
X00760431Y01194381D01*
X00774911Y01179901D01*
X00774911Y01179901D01*
X00776478Y01178699D01*
X00778302Y01177943D01*
X0078026Y01177685D01*
X00928707D01*
X00972875Y01133517D01*
Y01125238D01*
X0096774D01*
X00965789Y0112485D01*
X00964135Y01123745D01*
X0096303Y01122091D01*
X00962642Y0112014D01*
Y0109474D01*
X0096303Y01092789D01*
X00964135Y01091135D01*
X00965789Y0109003D01*
X0096774Y01089642D01*
X0099314D01*
X00995091Y0109003D01*
X00996745Y01091135D01*
X0099785Y01092789D01*
X00998238Y0109474D01*
Y0112014D01*
X0099785Y01122091D01*
X00996745Y01123745D01*
X00995091Y0112485D01*
X0099314Y01125238D01*
X00988005D01*
Y0113665D01*
X00987747Y01138608D01*
X00986991Y01140432D01*
X00985789Y01141999D01*
X00985789Y01141999D01*
X00937189Y01190599D01*
X00935622Y01191801D01*
X00933798Y01192557D01*
X0093184Y01192815D01*
X00783393D01*
X00781944Y01194265D01*
X00782663Y01195341D01*
X00784585Y01194545D01*
X0078788Y01194111D01*
X00791174Y01194545D01*
X00794244Y01195816D01*
X00796881Y01197839D01*
X00798904Y01200476D01*
X00799292Y01201413D01*
X00800562Y01201161D01*
Y0119922D01*
X0080095Y01197269D01*
X00802055Y01195615D01*
X00803709Y0119451D01*
X0080566Y01194122D01*
X008209D01*
X00822851Y0119451D01*
X00824505Y01195615D01*
X0082561Y01197269D01*
X00825998Y0119922D01*
Y0122208D01*
X0082561Y01224031D01*
X00825219Y01224615D01*
X00825898Y01225885D01*
X00855927D01*
X00866256Y01215556D01*
X00866208Y0121519D01*
Y0121119D01*
X00866655Y01207796D01*
X00867965Y01204634D01*
X00870048Y01201918D01*
X00872764Y01199835D01*
X00875926Y01198525D01*
X0087932Y01198078D01*
X00882714Y01198525D01*
X00885876Y01199835D01*
X00888592Y01201918D01*
X00890676Y01204634D01*
X00891333Y01206221D01*
X00892707D01*
X00893365Y01204634D01*
X00895448Y01201918D01*
X00898164Y01199835D01*
X00901326Y01198525D01*
X0090472Y01198078D01*
X00908114Y01198525D01*
X00911276Y01199835D01*
X00913992Y01201918D01*
X00916076Y01204634D01*
X00917385Y01207796D01*
X00917832Y0121119D01*
Y0121519D01*
X00917385Y01218584D01*
X00916076Y01221746D01*
X00913992Y01224462D01*
X00911276Y01226545D01*
X00908114Y01227855D01*
X0090472Y01228302D01*
X00901326Y01227855D01*
X00898164Y01226545D01*
X00895448Y01224462D01*
X00893365Y01221746D01*
X00892707Y01220159D01*
X00891333D01*
X00890676Y01221746D01*
X00888592Y01224462D01*
X00885876Y01226545D01*
X00882714Y01227855D01*
X0087932Y01228302D01*
X00875926Y01227855D01*
X00875521Y01227687D01*
X00868504Y01234704D01*
X0086899Y01235877D01*
X01195317D01*
X01195745Y01234682D01*
D02*
G37*
%LPC*%
G36*
X0037762Y00967943D02*
X00376726Y00967825D01*
X00373564Y00966515D01*
X00370849Y00964432D01*
X00368765Y00961716D01*
X00367455Y00958554D01*
X00367337Y0095766D01*
X0037762D01*
Y00967943D01*
D02*
G37*
G36*
Y0095266D02*
X00367337D01*
X00367455Y00951766D01*
X00368765Y00948604D01*
X00370849Y00945888D01*
X00373564Y00943804D01*
X00376726Y00942495D01*
X0037762Y00942377D01*
Y0095266D01*
D02*
G37*
G36*
X0122178Y0042168D02*
X01209959D01*
X01210129Y00420388D01*
X01211592Y00416855D01*
X01213921Y00413821D01*
X01216955Y00411492D01*
X01220488Y00410029D01*
X0122178Y00409859D01*
Y0042168D01*
D02*
G37*
G36*
X01053181D02*
X0104136D01*
Y00409859D01*
X01042652Y00410029D01*
X01046185Y00411492D01*
X01049219Y00413821D01*
X01051548Y00416855D01*
X01053011Y00420388D01*
X01053181Y0042168D01*
D02*
G37*
G36*
X0109986D02*
X01088039D01*
X01088209Y00420388D01*
X01089672Y00416855D01*
X01092001Y00413821D01*
X01095035Y00411492D01*
X01098568Y00410029D01*
X0109986Y00409859D01*
Y0042168D01*
D02*
G37*
G36*
X01175101D02*
X0116328D01*
Y00409859D01*
X01164572Y00410029D01*
X01168105Y00411492D01*
X01171139Y00413821D01*
X01173468Y00416855D01*
X01174931Y00420388D01*
X01175101Y0042168D01*
D02*
G37*
G36*
X009169Y00438501D02*
Y0042668D01*
X00928721D01*
X00928551Y00427972D01*
X00927088Y00431505D01*
X00924759Y00434539D01*
X00921725Y00436868D01*
X00918192Y00438331D01*
X009169Y00438501D01*
D02*
G37*
G36*
X009754D02*
X00974108Y00438331D01*
X00970575Y00436868D01*
X00967541Y00434539D01*
X00965212Y00431505D01*
X00963749Y00427972D01*
X00963579Y0042668D01*
X009754D01*
Y00438501D01*
D02*
G37*
G36*
X009119D02*
X00910608Y00438331D01*
X00907075Y00436868D01*
X00904041Y00434539D01*
X00901712Y00431505D01*
X00900249Y00427972D01*
X00900079Y0042668D01*
X009119D01*
Y00438501D01*
D02*
G37*
G36*
X0115828Y0042168D02*
X01146459D01*
X01146629Y00420388D01*
X01148092Y00416855D01*
X01150254Y00414038D01*
X01149897Y00412768D01*
X01113434D01*
X01113108Y00413248D01*
X01112886Y00414038D01*
X01115048Y00416855D01*
X01116511Y00420388D01*
X01116681Y0042168D01*
X0110486D01*
Y00409859D01*
X01106152Y00410029D01*
X0110687Y00410327D01*
X01107749Y00409316D01*
X01107422Y0040767D01*
Y0038227D01*
X0110781Y00380319D01*
X01108915Y00378665D01*
X01110569Y0037756D01*
X0111252Y00377172D01*
X0115316D01*
X01155111Y0037756D01*
X01156765Y00378665D01*
X0115787Y00380319D01*
X01158258Y0038227D01*
Y0040767D01*
X01158072Y00408605D01*
X0115828Y00408827D01*
Y0042168D01*
D02*
G37*
G36*
X0071374Y00431818D02*
X00710777Y00431428D01*
X00708016Y00430284D01*
X00705645Y00428465D01*
X00703826Y00426094D01*
X00702682Y00423333D01*
X00702292Y0042037D01*
X00702379Y00419707D01*
X00696637Y00413965D01*
X00682263D01*
X00680467Y00416306D01*
X00677565Y00418533D01*
X00674186Y00419933D01*
X0067056Y0042041D01*
X00666934Y00419933D01*
X00663555Y00418533D01*
X00660654Y00416306D01*
X00658427Y00413405D01*
X00657028Y00410026D01*
X0065655Y004064D01*
X00657028Y00402774D01*
X00658427Y00399395D01*
X00660654Y00396493D01*
X00661168Y00396099D01*
X0066076Y00394896D01*
X0059146D01*
X00591052Y00396099D01*
X00591567Y00396493D01*
X00593793Y00399395D01*
X00595192Y00402774D01*
X0059567Y004064D01*
X00595192Y00410026D01*
X00593793Y00413405D01*
X00591567Y00416306D01*
X00588665Y00418533D01*
X00585286Y00419933D01*
X0058166Y0042041D01*
X00578034Y00419933D01*
X00574655Y00418533D01*
X00571754Y00416306D01*
X00569527Y00413405D01*
X00568128Y00410026D01*
X0056765Y004064D01*
X00568128Y00402774D01*
X00569527Y00399395D01*
X00571754Y00396493D01*
X00572268Y00396099D01*
X0057186Y00394896D01*
X0052387D01*
X00523618Y00396166D01*
X00525165Y00396807D01*
X00528066Y00399034D01*
X00530293Y00401935D01*
X00531693Y00405314D01*
X0053217Y0040894D01*
X00531693Y00412566D01*
X00530293Y00415945D01*
X00528066Y00418847D01*
X00525165Y00421073D01*
X00521786Y00422472D01*
X0051816Y0042295D01*
X00514534Y00422472D01*
X00511155Y00421073D01*
X00508254Y00418847D01*
X00506027Y00415945D01*
X00504627Y00412566D01*
X0050415Y0040894D01*
X00504627Y00405314D01*
X00506027Y00401935D01*
X00508254Y00399034D01*
X00511155Y00396807D01*
X00512702Y00396166D01*
X0051245Y00394896D01*
X00457568D01*
X00443231Y00409233D01*
X00442793Y00412566D01*
X00441393Y00415945D01*
X00439166Y00418847D01*
X00436265Y00421073D01*
X00432886Y00422472D01*
X0042926Y0042295D01*
X00425634Y00422472D01*
X00422255Y00421073D01*
X00419353Y00418847D01*
X00417127Y00415945D01*
X00415728Y00412566D01*
X0041525Y0040894D01*
X00415728Y00405314D01*
X00417127Y00401935D01*
X00419353Y00399034D01*
X00422255Y00396807D01*
X00425634Y00395407D01*
X00428967Y00394969D01*
X00446258Y00377678D01*
X00448347Y00376075D01*
X00450779Y00375067D01*
X0045339Y00374724D01*
X00576351D01*
X00578697Y00373752D01*
X0058166Y00373362D01*
X00584623Y00373752D01*
X00586969Y00374724D01*
X00667652D01*
X00688216Y0035416D01*
X0068773Y00352986D01*
X00667789D01*
X00666704Y00353819D01*
X00663663Y00355078D01*
X006604Y00355508D01*
X00657137Y00355078D01*
X00654096Y00353819D01*
X00651485Y00351815D01*
X00649481Y00349204D01*
X00648222Y00346163D01*
X00647792Y003429D01*
X00648222Y00339637D01*
X00649481Y00336596D01*
X00651485Y00333985D01*
X00654096Y00331981D01*
X00656823Y00330852D01*
X00656823Y0033085D01*
Y0032955D01*
X00656823Y00329548D01*
X00654096Y00328419D01*
X00651485Y00326415D01*
X00649481Y00323804D01*
X00648222Y00320763D01*
X00647792Y003175D01*
X00648222Y00314237D01*
X00649481Y00311196D01*
X00651485Y00308585D01*
X00654096Y00306581D01*
X00655577Y00305968D01*
X00655324Y00304698D01*
X006529D01*
X00650949Y0030431D01*
X00649295Y00303205D01*
X0064819Y00301551D01*
X00647802Y002996D01*
Y002846D01*
X0064819Y00282649D01*
X00649295Y00280995D01*
X00650949Y0027989D01*
X006529Y00279502D01*
X006679D01*
X00669851Y0027989D01*
X00671505Y00280995D01*
X00672185Y00282014D01*
X0067945D01*
X0068206Y00282357D01*
X00684493Y00283365D01*
X00686582Y00284968D01*
X00694202Y00292588D01*
X00695805Y00294677D01*
X00696813Y0029711D01*
X00697156Y0029972D01*
Y0031877D01*
Y00332814D01*
X00704068D01*
X00706735Y00330767D01*
X00710114Y00329367D01*
X0071374Y0032889D01*
X00717366Y00329367D01*
X00720745Y00330767D01*
X00723412Y00332814D01*
X00752328D01*
X00754995Y00330767D01*
X00758374Y00329367D01*
X00762Y0032889D01*
X00765626Y00329367D01*
X00769005Y00330767D01*
X00771907Y00332994D01*
X00774133Y00335895D01*
X00775533Y00339274D01*
X00775971Y00342607D01*
X00778878Y00345514D01*
X00816706D01*
X00817268Y00344828D01*
X00818617Y00343722D01*
Y00342079D01*
X00817268Y00340972D01*
X00815374Y00338663D01*
X00813966Y0033603D01*
X00813099Y00333172D01*
X00813053Y003327D01*
X0083058D01*
X00848107D01*
X00848061Y00333172D01*
X00847194Y0033603D01*
X00845786Y00338663D01*
X00843892Y00340972D01*
X00842543Y00342079D01*
Y00343722D01*
X00843892Y00344828D01*
X00845786Y00347137D01*
X00847194Y0034977D01*
X0084799Y00352396D01*
X00848728Y00353134D01*
X00879186D01*
X0087921Y00353014D01*
X00880315Y0035136D01*
X00881969Y00350255D01*
X0088392Y00349867D01*
X0090932D01*
X00911271Y00350255D01*
X00912925Y0035136D01*
X0091403Y00353014D01*
X00914418Y00354965D01*
Y00371475D01*
X0091403Y00373426D01*
X00912925Y0037508D01*
X00911271Y00376185D01*
X0090932Y00376573D01*
X00909225D01*
X00908794Y00377843D01*
X00910519Y00379166D01*
X00912643Y00381935D01*
X00913979Y0038516D01*
X00914434Y0038862D01*
X00913979Y0039208D01*
X00912643Y00395305D01*
X00910519Y00398074D01*
X0090775Y00400198D01*
X00904525Y00401534D01*
X00901065Y00401989D01*
X00892175D01*
X00888715Y00401534D01*
X0088549Y00400198D01*
X00882721Y00398074D01*
X00880597Y00395305D01*
X00879261Y0039208D01*
X00878806Y0038862D01*
X00879261Y0038516D01*
X00880597Y00381935D01*
X00882721Y00379166D01*
X00884446Y00377843D01*
X00884015Y00376573D01*
X0088392D01*
X00881969Y00376185D01*
X00880315Y0037508D01*
X0087921Y00373426D01*
X00879186Y00373306D01*
X0084455D01*
X00841939Y00372963D01*
X00839507Y00371955D01*
X00837418Y00370352D01*
X00837254Y00370188D01*
X00836092Y00370541D01*
X0083312Y00370833D01*
X0082804D01*
X00825068Y00370541D01*
X0082221Y00369674D01*
X00819577Y00368266D01*
X00817268Y00366372D01*
X00816706Y00365686D01*
X007747D01*
X00772089Y00365343D01*
X00769657Y00364335D01*
X00767568Y00362732D01*
X00761707Y00356871D01*
X00758374Y00356432D01*
X00754995Y00355033D01*
X00752328Y00352986D01*
X00723412D01*
X00720745Y00355033D01*
X00717366Y00356432D01*
X00714033Y00356871D01*
X00678962Y00391942D01*
X00677668Y00392935D01*
X00677621Y00393538D01*
X00677792Y00394441D01*
X00680467Y00396493D01*
X00682263Y00398835D01*
X0069977D01*
X00701728Y00399093D01*
X00703552Y00399849D01*
X00705119Y00401051D01*
X00713077Y00409009D01*
X0071374Y00408922D01*
X00716703Y00409312D01*
X00719354Y0041041D01*
X00719588Y00410334D01*
X00719666Y00410291D01*
X00720475Y00409631D01*
X0072005Y004064D01*
X00720527Y00402774D01*
X00721927Y00399395D01*
X00724154Y00396493D01*
X00727055Y00394267D01*
X00730434Y00392868D01*
X0073406Y0039239D01*
X00737686Y00392868D01*
X00741065Y00394267D01*
X00743967Y00396493D01*
X00746193Y00399395D01*
X00747592Y00402774D01*
X0074807Y004064D01*
X00747592Y00410026D01*
X00746193Y00413405D01*
X00743967Y00416306D01*
X00741065Y00418533D01*
X00737686Y00419933D01*
X0073406Y0042041D01*
X00730434Y00419933D01*
X00727055Y00418533D01*
X00726134Y00417826D01*
X00724943Y00418513D01*
X00725188Y0042037D01*
X00724798Y00423333D01*
X00723654Y00426094D01*
X00721835Y00428465D01*
X00719464Y00430284D01*
X00716703Y00431428D01*
X0071374Y00431818D01*
D02*
G37*
G36*
X0082046Y00420081D02*
X00819334Y00419933D01*
X00815955Y00418533D01*
X00813054Y00416306D01*
X00810827Y00413405D01*
X00809427Y00410026D01*
X00809279Y004089D01*
X0082046D01*
Y00420081D01*
D02*
G37*
G36*
X0082546D02*
Y004089D01*
X00836641D01*
X00836492Y00410026D01*
X00835093Y00413405D01*
X00832867Y00416306D01*
X00829965Y00418533D01*
X00826586Y00419933D01*
X0082546Y00420081D01*
D02*
G37*
G36*
X0082046Y004039D02*
X00809279D01*
X00809427Y00402774D01*
X00810827Y00399395D01*
X00813054Y00396493D01*
X00815955Y00394267D01*
X00819334Y00392868D01*
X0082046Y00392719D01*
Y004039D01*
D02*
G37*
G36*
X00836641D02*
X0082546D01*
Y00392719D01*
X00826586Y00392868D01*
X00829965Y00394267D01*
X00832867Y00396493D01*
X00835093Y00399395D01*
X00836492Y00402774D01*
X00836641Y004039D01*
D02*
G37*
G36*
X009119Y0042168D02*
X00900079D01*
X00900249Y00420388D01*
X00901712Y00416855D01*
X00904041Y00413821D01*
X00907075Y00411492D01*
X00910608Y00410029D01*
X009119Y00409859D01*
Y0042168D01*
D02*
G37*
G36*
X00992221D02*
X009804D01*
Y00409859D01*
X00981692Y00410029D01*
X00985225Y00411492D01*
X00988259Y00413821D01*
X00990588Y00416855D01*
X00992051Y00420388D01*
X00992221Y0042168D01*
D02*
G37*
G36*
X0103636D02*
X01024539D01*
X01024709Y00420388D01*
X01026172Y00416855D01*
X01028501Y00413821D01*
X01031535Y00411492D01*
X01035068Y00410029D01*
X0103636Y00409859D01*
Y0042168D01*
D02*
G37*
G36*
X00928721D02*
X009169D01*
Y00409859D01*
X00918192Y00410029D01*
X00921725Y00411492D01*
X00924759Y00413821D01*
X00927088Y00416855D01*
X00928551Y00420388D01*
X00928721Y0042168D01*
D02*
G37*
G36*
X009754D02*
X00963579D01*
X00963749Y00420388D01*
X00965212Y00416855D01*
X00967541Y00413821D01*
X00970575Y00411492D01*
X00974108Y00410029D01*
X009754Y00409859D01*
Y0042168D01*
D02*
G37*
G36*
X0041148Y00535958D02*
X00408517Y00535568D01*
X00405756Y00534424D01*
X00403385Y00532605D01*
X00401566Y00530234D01*
X00400422Y00527473D01*
X00400032Y0052451D01*
X00400422Y00521547D01*
X00401566Y00518786D01*
X00403385Y00516415D01*
X00403915Y00516008D01*
Y00479672D01*
X00403385Y00479265D01*
X00401566Y00476894D01*
X00400422Y00474133D01*
X00400032Y0047117D01*
X00400422Y00468207D01*
X00401566Y00465446D01*
X00403385Y00463075D01*
X00405756Y00461256D01*
X00408517Y00460112D01*
X0041148Y00459722D01*
X00414443Y00460112D01*
X00417204Y00461256D01*
X00419575Y00463075D01*
X00421394Y00465446D01*
X00422538Y00468207D01*
X00422928Y0047117D01*
X00422538Y00474133D01*
X00421394Y00476894D01*
X00419575Y00479265D01*
X00419045Y00479672D01*
Y00516008D01*
X00419575Y00516415D01*
X00421394Y00518786D01*
X00422538Y00521547D01*
X00422928Y0052451D01*
X00422538Y00527473D01*
X00421394Y00530234D01*
X00419575Y00532605D01*
X00417204Y00534424D01*
X00414443Y00535568D01*
X0041148Y00535958D01*
D02*
G37*
G36*
X0062234Y00469589D02*
X00621877Y00469528D01*
X00619116Y00468384D01*
X00616745Y00466565D01*
X00614926Y00464194D01*
X00613782Y00461433D01*
X00613721Y0046097D01*
X0062234D01*
Y00469589D01*
D02*
G37*
G36*
X0076422Y004674D02*
X0075434D01*
Y0045752D01*
X00755129Y00457624D01*
X00758194Y00458894D01*
X00760826Y00460914D01*
X00762846Y00463546D01*
X00764116Y00466611D01*
X0076422Y004674D01*
D02*
G37*
G36*
X00635959Y0045597D02*
X0062734D01*
Y00447351D01*
X00627803Y00447412D01*
X00630564Y00448556D01*
X00632935Y00450375D01*
X00634754Y00452746D01*
X00635898Y00455507D01*
X00635959Y0045597D01*
D02*
G37*
G36*
X00572298Y0047248D02*
X005613D01*
Y00457494D01*
X00562293Y00457625D01*
X00565549Y00458973D01*
X00568344Y00461118D01*
X00570489Y00463913D01*
X00571838Y00467169D01*
X00572298Y00470662D01*
Y0047248D01*
D02*
G37*
G36*
X005613Y00492466D02*
Y0047748D01*
X00572298D01*
Y00479298D01*
X00571838Y00482791D01*
X00570489Y00486047D01*
X00568344Y00488842D01*
X00565549Y00490987D01*
X00562293Y00492336D01*
X005613Y00492466D01*
D02*
G37*
G36*
X009779Y0048963D02*
X00974108Y00489131D01*
X00970575Y00487668D01*
X00967541Y00485339D01*
X00965396Y00482545D01*
X00926904D01*
X00924759Y00485339D01*
X00921725Y00487668D01*
X00918192Y00489131D01*
X009144Y0048963D01*
X00910608Y00489131D01*
X00907075Y00487668D01*
X00904041Y00485339D01*
X00901712Y00482305D01*
X00900249Y00478772D01*
X0089975Y0047498D01*
X00900249Y00471188D01*
X00901712Y00467655D01*
X00904041Y00464621D01*
X00907075Y00462292D01*
X00910608Y00460829D01*
X009144Y0046033D01*
X00918192Y00460829D01*
X00921725Y00462292D01*
X00924759Y00464621D01*
X00926904Y00467415D01*
X00965396D01*
X00967541Y00464621D01*
X00970575Y00462292D01*
X00974108Y00460829D01*
X009779Y0046033D01*
X00981692Y00460829D01*
X00985225Y00462292D01*
X00988259Y00464621D01*
X00990588Y00467655D01*
X00992051Y00471188D01*
X0099255Y0047498D01*
X00992051Y00478772D01*
X00990588Y00482305D01*
X00988259Y00485339D01*
X00985225Y00487668D01*
X00981692Y00489131D01*
X009779Y0048963D01*
D02*
G37*
G36*
X0072644Y00482609D02*
X00723151Y00482176D01*
X00720086Y00480906D01*
X00717454Y00478886D01*
X00715434Y00476254D01*
X00714427Y00473824D01*
X00713053D01*
X00712046Y00476254D01*
X00710026Y00478886D01*
X00707394Y00480906D01*
X00704329Y00482176D01*
X0070104Y00482609D01*
X00697751Y00482176D01*
X00694686Y00480906D01*
X00692054Y00478886D01*
X00690034Y00476254D01*
X00689608Y00475226D01*
X00688338Y00475479D01*
Y004775D01*
X0068795Y00479451D01*
X00686845Y00481105D01*
X00685191Y0048221D01*
X0068324Y00482598D01*
X0066804D01*
X00666089Y0048221D01*
X00664435Y00481105D01*
X0066333Y00479451D01*
X00662942Y004775D01*
Y004623D01*
X0066333Y00460349D01*
X00664435Y00458695D01*
X00666089Y0045759D01*
X0066804Y00457202D01*
X0068324D01*
X00685191Y0045759D01*
X00686845Y00458695D01*
X0068795Y00460349D01*
X00688338Y004623D01*
Y00464322D01*
X00689608Y00464574D01*
X00690034Y00463546D01*
X00692054Y00460914D01*
X00694686Y00458894D01*
X00697751Y00457624D01*
X0070104Y00457191D01*
X00704329Y00457624D01*
X00707394Y00458894D01*
X00710026Y00460914D01*
X00712046Y00463546D01*
X00713053Y00465976D01*
X00714427D01*
X00715434Y00463546D01*
X00717454Y00460914D01*
X00720086Y00458894D01*
X00723151Y00457624D01*
X0072644Y00457191D01*
X00729729Y00457624D01*
X00732794Y00458894D01*
X00735426Y00460914D01*
X00737446Y00463546D01*
X00738453Y00465976D01*
X00739827D01*
X00740834Y00463546D01*
X00742854Y00460914D01*
X00745486Y00458894D01*
X00748551Y00457624D01*
X0074934Y0045752D01*
Y004699D01*
Y0048228D01*
X00748551Y00482176D01*
X00745486Y00480906D01*
X00742854Y00478886D01*
X00740834Y00476254D01*
X00739827Y00473824D01*
X00738453D01*
X00737446Y00476254D01*
X00735426Y00478886D01*
X00732794Y00480906D01*
X00729729Y00482176D01*
X0072644Y00482609D01*
D02*
G37*
G36*
X0062734Y00469589D02*
Y0046097D01*
X00635959D01*
X00635898Y00461433D01*
X00634754Y00464194D01*
X00632935Y00466565D01*
X00630564Y00468384D01*
X00627803Y00469528D01*
X0062734Y00469589D01*
D02*
G37*
G36*
X0075434Y0048228D02*
Y004724D01*
X0076422D01*
X00764116Y00473189D01*
X00762846Y00476254D01*
X00760826Y00478886D01*
X00758194Y00480906D01*
X00755129Y00482176D01*
X0075434Y0048228D01*
D02*
G37*
G36*
X0109986Y00438501D02*
X01098568Y00438331D01*
X01095035Y00436868D01*
X01092001Y00434539D01*
X01089672Y00431505D01*
X01088209Y00427972D01*
X01088039Y0042668D01*
X0109986D01*
Y00438501D01*
D02*
G37*
G36*
X0110486D02*
Y0042668D01*
X01116681D01*
X01116511Y00427972D01*
X01115048Y00431505D01*
X01112719Y00434539D01*
X01109685Y00436868D01*
X01106152Y00438331D01*
X0110486Y00438501D01*
D02*
G37*
G36*
X0104136D02*
Y0042668D01*
X01053181D01*
X01053011Y00427972D01*
X01051548Y00431505D01*
X01049219Y00434539D01*
X01046185Y00436868D01*
X01042652Y00438331D01*
X0104136Y00438501D01*
D02*
G37*
G36*
X009804D02*
Y0042668D01*
X00992221D01*
X00992051Y00427972D01*
X00990588Y00431505D01*
X00988259Y00434539D01*
X00985225Y00436868D01*
X00981692Y00438331D01*
X009804Y00438501D01*
D02*
G37*
G36*
X0103636D02*
X01035068Y00438331D01*
X01031535Y00436868D01*
X01028501Y00434539D01*
X01026172Y00431505D01*
X01024709Y00427972D01*
X01024539Y0042668D01*
X0103636D01*
Y00438501D01*
D02*
G37*
G36*
X00367839Y0044454D02*
X0035556D01*
Y00434432D01*
X0035556D01*
X00358823Y00434862D01*
X00361864Y00436121D01*
X00364475Y00438125D01*
X00366479Y00440736D01*
X00367738Y00443777D01*
X00367839Y0044454D01*
D02*
G37*
G36*
X0062234Y0045597D02*
X00613721D01*
X00613782Y00455507D01*
X00614926Y00452746D01*
X00616745Y00450375D01*
X00619116Y00448556D01*
X00621877Y00447412D01*
X0062234Y00447351D01*
Y0045597D01*
D02*
G37*
G36*
X0122178Y00438501D02*
X01220488Y00438331D01*
X01216955Y00436868D01*
X01213921Y00434539D01*
X01211592Y00431505D01*
X01210129Y00427972D01*
X01209959Y0042668D01*
X0122178D01*
Y00438501D01*
D02*
G37*
G36*
X0115828D02*
X01156988Y00438331D01*
X01153455Y00436868D01*
X01150421Y00434539D01*
X01148092Y00431505D01*
X01146629Y00427972D01*
X01146459Y0042668D01*
X0115828D01*
Y00438501D01*
D02*
G37*
G36*
X0116328D02*
Y0042668D01*
X01175101D01*
X01174931Y00427972D01*
X01173468Y00431505D01*
X01171139Y00434539D01*
X01168105Y00436868D01*
X01164572Y00438331D01*
X0116328Y00438501D01*
D02*
G37*
G36*
X0119634Y00394988D02*
X0118614D01*
Y0037207D01*
X01201438D01*
Y0038989D01*
X0120105Y00391841D01*
X01199945Y00393495D01*
X01198291Y003946D01*
X0119634Y00394988D01*
D02*
G37*
G36*
X0096012Y00365778D02*
X009398D01*
X00937849Y0036539D01*
X00936195Y00364285D01*
X0093509Y00362631D01*
X00934702Y0036068D01*
Y003429D01*
X0093509Y00340949D01*
X00936195Y00339295D01*
X00937849Y0033819D01*
X00938894Y00337982D01*
X00939211Y00336624D01*
X00938783Y00336297D01*
X00936557Y00333395D01*
X00935157Y00330016D01*
X0093468Y0032639D01*
X00935157Y00322764D01*
X00936557Y00319385D01*
X00938783Y00316483D01*
X00941482Y00314413D01*
X00941596Y0031369D01*
X00941482Y00312967D01*
X00938783Y00310896D01*
X00936557Y00307995D01*
X00935157Y00304616D01*
X0093468Y0030099D01*
X00935157Y00297364D01*
X00936557Y00293985D01*
X00938783Y00291084D01*
X00941685Y00288857D01*
X00945064Y00287458D01*
X0094869Y0028698D01*
X0095123D01*
X00954856Y00287458D01*
X00958235Y00288857D01*
X00961136Y00291084D01*
X00963363Y00293985D01*
X00964762Y00297364D01*
X0096524Y0030099D01*
X00964762Y00304616D01*
X00963363Y00307995D01*
X00961136Y00310896D01*
X00958438Y00312967D01*
X00958324Y0031369D01*
X00958438Y00314413D01*
X00961136Y00316483D01*
X00963363Y00319385D01*
X00964762Y00322764D01*
X0096524Y0032639D01*
X00964762Y00330016D01*
X00963363Y00333395D01*
X00961136Y00336297D01*
X00960709Y00336624D01*
X00961026Y00337982D01*
X00962071Y0033819D01*
X00963725Y00339295D01*
X0096483Y00340949D01*
X00965218Y003429D01*
Y0036068D01*
X0096483Y00362631D01*
X00963725Y00364285D01*
X00962071Y0036539D01*
X0096012Y00365778D01*
D02*
G37*
G36*
X0101473Y003658D02*
X0101219D01*
X01008564Y00365322D01*
X01005185Y00363923D01*
X01002283Y00361697D01*
X01000057Y00358795D01*
X00998658Y00355416D01*
X0099818Y0035179D01*
X00998658Y00348164D01*
X01000057Y00344785D01*
X01002283Y00341884D01*
X01004982Y00339813D01*
X01005096Y0033909D01*
X01004982Y00338367D01*
X01002283Y00336297D01*
X01000057Y00333395D01*
X00998658Y00330016D01*
X0099818Y0032639D01*
X00998658Y00322764D01*
X01000057Y00319385D01*
X01002283Y00316483D01*
X01004982Y00314413D01*
X01005096Y0031369D01*
X01004982Y00312967D01*
X01002283Y00310896D01*
X01000057Y00307995D01*
X00998658Y00304616D01*
X0099818Y0030099D01*
X00998658Y00297364D01*
X01000057Y00293985D01*
X01002283Y00291084D01*
X01005185Y00288857D01*
X01008564Y00287458D01*
X0101219Y0028698D01*
X0101473D01*
X01018356Y00287458D01*
X01021735Y00288857D01*
X01024637Y00291084D01*
X01026863Y00293985D01*
X01028262Y00297364D01*
X0102874Y0030099D01*
X01028262Y00304616D01*
X01026863Y00307995D01*
X01024637Y00310896D01*
X01021938Y00312967D01*
X01021824Y0031369D01*
X01021938Y00314413D01*
X01024637Y00316483D01*
X01026863Y00319385D01*
X01028262Y00322764D01*
X0102874Y0032639D01*
X01028262Y00330016D01*
X01026863Y00333395D01*
X01024637Y00336297D01*
X01021938Y00338367D01*
X01021824Y0033909D01*
X01021938Y00339813D01*
X01024637Y00341884D01*
X01026863Y00344785D01*
X01028262Y00348164D01*
X0102874Y0035179D01*
X01028262Y00355416D01*
X01026863Y00358795D01*
X01024637Y00361697D01*
X01021735Y00363923D01*
X01018356Y00365322D01*
X0101473Y003658D01*
D02*
G37*
G36*
X006071Y002896D02*
X00597002D01*
Y002846D01*
X0059739Y00282649D01*
X00598495Y00280995D01*
X00600149Y0027989D01*
X006021Y00279502D01*
X006071D01*
Y002896D01*
D02*
G37*
G36*
X00622198D02*
X006121D01*
Y00279502D01*
X006171D01*
X00619051Y0027989D01*
X00620705Y00280995D01*
X0062181Y00282649D01*
X00622198Y002846D01*
Y002896D01*
D02*
G37*
G36*
X0038866Y00304511D02*
X00387534Y00304363D01*
X00384155Y00302963D01*
X00381254Y00300737D01*
X00379027Y00297835D01*
X00377627Y00294456D01*
X00377479Y0029333D01*
X0038866D01*
Y00304511D01*
D02*
G37*
G36*
X0044954D02*
Y0029333D01*
X00460721D01*
X00460573Y00294456D01*
X00459173Y00297835D01*
X00456946Y00300737D01*
X00454045Y00302963D01*
X00450666Y00304363D01*
X0044954Y00304511D01*
D02*
G37*
G36*
X0071124Y00305781D02*
X00710114Y00305632D01*
X00706735Y00304233D01*
X00703833Y00302006D01*
X00701607Y00299105D01*
X00700208Y00295726D01*
X00700059Y002946D01*
X0071124D01*
Y00305781D01*
D02*
G37*
G36*
X0044454Y00304511D02*
X00443414Y00304363D01*
X00440035Y00302963D01*
X00437133Y00300737D01*
X00434907Y00297835D01*
X00433507Y00294456D01*
X00433359Y0029333D01*
X0044454D01*
Y00304511D01*
D02*
G37*
G36*
X0039366D02*
Y0029333D01*
X00404841D01*
X00404692Y00294456D01*
X00403293Y00297835D01*
X00401067Y00300737D01*
X00398165Y00302963D01*
X00394786Y00304363D01*
X0039366Y00304511D01*
D02*
G37*
G36*
X00775681Y002896D02*
X007645D01*
Y00278419D01*
X00765626Y00278568D01*
X00769005Y00279967D01*
X00771907Y00282194D01*
X00774133Y00285095D01*
X00775533Y00288474D01*
X00775681Y002896D01*
D02*
G37*
G36*
X00404841Y0028833D02*
X0039366D01*
Y00277149D01*
X00394786Y00277297D01*
X00398165Y00278697D01*
X00401067Y00280924D01*
X00403293Y00283825D01*
X00404692Y00287204D01*
X00404841Y0028833D01*
D02*
G37*
G36*
X00460721D02*
X0044954D01*
Y00277149D01*
X00450666Y00277297D01*
X00454045Y00278697D01*
X00456946Y00280924D01*
X00459173Y00283825D01*
X00460573Y00287204D01*
X00460721Y0028833D01*
D02*
G37*
G36*
X0038866D02*
X00377479D01*
X00377627Y00287204D01*
X00379027Y00283825D01*
X00381254Y00280924D01*
X00384155Y00278697D01*
X00387534Y00277297D01*
X0038866Y00277149D01*
Y0028833D01*
D02*
G37*
G36*
X0044454D02*
X00433359D01*
X00433507Y00287204D01*
X00434907Y00283825D01*
X00437133Y00280924D01*
X00440035Y00278697D01*
X00443414Y00277297D01*
X0044454Y00277149D01*
Y0028833D01*
D02*
G37*
G36*
X00848107Y003277D02*
X0083058D01*
X00813053D01*
X00813099Y00327228D01*
X00813966Y0032437D01*
X00815374Y00321737D01*
X00816066Y00320894D01*
X00815605Y00319453D01*
X00814275Y00318565D01*
X0081317Y00316911D01*
X00812782Y0031496D01*
Y0029464D01*
X0081317Y00292689D01*
X00814275Y00291035D01*
X00815929Y0028993D01*
X0081788Y00289542D01*
X0084328D01*
X00845231Y0028993D01*
X00846885Y00291035D01*
X0084799Y00292689D01*
X00848378Y0029464D01*
Y00294714D01*
X00860692D01*
X00870438Y00284968D01*
X00872527Y00283365D01*
X00874959Y00282357D01*
X0087757Y00282014D01*
X0088414D01*
X0088429Y00281259D01*
X00885395Y00279605D01*
X00887049Y002785D01*
X00889Y00278112D01*
X009144D01*
X00916351Y002785D01*
X00918005Y00279605D01*
X0091911Y00281259D01*
X00919498Y0028321D01*
Y0030099D01*
X0091911Y00302941D01*
X00918005Y00304595D01*
X00916351Y003057D01*
X00915306Y00305908D01*
X00914989Y00307266D01*
X00915416Y00307593D01*
X00917643Y00310495D01*
X00919043Y00313874D01*
X00919191Y00315D01*
X009017D01*
X00884209D01*
X00884358Y00313874D01*
X00885757Y00310495D01*
X00887983Y00307593D01*
X00888411Y00307266D01*
X00888094Y00305908D01*
X00887049Y003057D01*
X00885395Y00304595D01*
X0088429Y00302941D01*
X0088414Y00302186D01*
X00881748D01*
X00872002Y00311932D01*
X00869913Y00313535D01*
X0086748Y00314543D01*
X0086487Y00314886D01*
X00848378D01*
Y0031496D01*
X0084799Y00316911D01*
X00846885Y00318565D01*
X00845555Y00319453D01*
X00845094Y00320894D01*
X00845786Y00321737D01*
X00847194Y0032437D01*
X00848061Y00327228D01*
X00848107Y003277D01*
D02*
G37*
G36*
X007595Y002896D02*
X00748319D01*
X00748467Y00288474D01*
X00749867Y00285095D01*
X00752094Y00282194D01*
X00754995Y00279967D01*
X00758374Y00278568D01*
X007595Y00278419D01*
Y002896D01*
D02*
G37*
G36*
X00727421D02*
X0071624D01*
Y00278419D01*
X00717366Y00278568D01*
X00720745Y00279967D01*
X00723646Y00282194D01*
X00725873Y00285095D01*
X00727272Y00288474D01*
X00727421Y002896D01*
D02*
G37*
G36*
X0033782Y00354238D02*
X00334557Y00353808D01*
X00331516Y00352549D01*
X00328905Y00350545D01*
X00326901Y00347934D01*
X00325642Y00344893D01*
X00325212Y0034163D01*
X00325642Y00338367D01*
X00326901Y00335326D01*
X00328905Y00332715D01*
X00331516Y00330711D01*
X00334243Y00329582D01*
X00334243Y0032958D01*
Y0032828D01*
X00334243Y00328278D01*
X00331516Y00327149D01*
X00328905Y00325145D01*
X00326901Y00322534D01*
X00325642Y00319493D01*
X00325212Y0031623D01*
X00325642Y00312967D01*
X00326901Y00309926D01*
X00328905Y00307315D01*
X00331516Y00305311D01*
X00332997Y00304698D01*
X00332744Y00303428D01*
X0033032D01*
X00328369Y0030304D01*
X00326715Y00301935D01*
X0032561Y00300281D01*
X00325222Y0029833D01*
Y0028333D01*
X0032561Y00281379D01*
X00326715Y00279725D01*
X00328369Y0027862D01*
X0033032Y00278232D01*
X0034532D01*
X00347271Y0027862D01*
X00348925Y00279725D01*
X0035003Y00281379D01*
X00350418Y0028333D01*
Y0029833D01*
X0035003Y00300281D01*
X00348925Y00301935D01*
X00347271Y0030304D01*
X0034532Y00303428D01*
X00342896D01*
X00342643Y00304698D01*
X00344124Y00305311D01*
X00346735Y00307315D01*
X00348739Y00309926D01*
X00349998Y00312967D01*
X00350428Y0031623D01*
X00349998Y00319493D01*
X00348739Y00322534D01*
X00346735Y00325145D01*
X00344124Y00327149D01*
X00341397Y00328278D01*
X00341397Y0032828D01*
Y0032958D01*
X00341397Y00329582D01*
X00344124Y00330711D01*
X00346735Y00332715D01*
X00348739Y00335326D01*
X00349998Y00338367D01*
X00350428Y0034163D01*
X00349998Y00344893D01*
X00348739Y00347934D01*
X00346735Y00350545D01*
X00344124Y00352549D01*
X00341083Y00353808D01*
X0033782Y00354238D01*
D02*
G37*
G36*
X0071124Y002896D02*
X00700059D01*
X00700208Y00288474D01*
X00701607Y00285095D01*
X00703833Y00282194D01*
X00706735Y00279967D01*
X00710114Y00278568D01*
X0071124Y00278419D01*
Y002896D01*
D02*
G37*
G36*
X0115316Y00349268D02*
X0113534D01*
Y0033397D01*
X01158258D01*
Y0034417D01*
X0115787Y00346121D01*
X01156765Y00347775D01*
X01155111Y0034888D01*
X0115316Y00349268D01*
D02*
G37*
G36*
X0118114Y0036707D02*
X01165842D01*
Y0034925D01*
X0116623Y00347299D01*
X01167335Y00345645D01*
X01168989Y0034454D01*
X0117094Y00344152D01*
X0118114D01*
Y0036707D01*
D02*
G37*
G36*
X0044704Y0035564D02*
X00443414Y00355163D01*
X00440035Y00353763D01*
X00437133Y00351536D01*
X00434907Y00348635D01*
X00433507Y00345256D01*
X0043303Y0034163D01*
X00433507Y00338004D01*
X00434907Y00334625D01*
X00437133Y00331724D01*
X00440035Y00329497D01*
X00443414Y00328097D01*
X0044704Y0032762D01*
X00450666Y00328097D01*
X00454045Y00329497D01*
X00456946Y00331724D01*
X00459173Y00334625D01*
X00460573Y00338004D01*
X0046105Y0034163D01*
X00460573Y00345256D01*
X00459173Y00348635D01*
X00456946Y00351536D01*
X00454045Y00353763D01*
X00450666Y00355163D01*
X0044704Y0035564D01*
D02*
G37*
G36*
X0113034Y00349268D02*
X0111252D01*
X01110569Y0034888D01*
X01108915Y00347775D01*
X0110781Y00346121D01*
X01107422Y0034417D01*
Y0033397D01*
X0113034D01*
Y00349268D01*
D02*
G37*
G36*
X01201438Y0036707D02*
X0118614D01*
Y00344152D01*
X0119634D01*
X01198291Y0034454D01*
X01199945Y00345645D01*
X0120105Y00347299D01*
X01201438Y0034925D01*
Y0036707D01*
D02*
G37*
G36*
X010541Y00392423D02*
X01051128Y00392131D01*
X0104827Y00391264D01*
X01045637Y00389856D01*
X01043328Y00387962D01*
X01041434Y00385653D01*
X01040026Y0038302D01*
X01039159Y00380162D01*
X01038867Y0037719D01*
X01039159Y00374218D01*
X01040026Y0037136D01*
X01041434Y00368727D01*
X01043328Y00366418D01*
X01045637Y00364524D01*
X0104827Y00363116D01*
X01051128Y00362249D01*
X010541Y00361957D01*
X01057072Y00362249D01*
X0105993Y00363116D01*
X01062563Y00364524D01*
X01064872Y00366418D01*
X01066766Y00368727D01*
X01068174Y0037136D01*
X01069041Y00374218D01*
X01069333Y0037719D01*
X01069041Y00380162D01*
X01068174Y0038302D01*
X01066766Y00385653D01*
X01064872Y00387962D01*
X01062563Y00389856D01*
X0105993Y00391264D01*
X01057072Y00392131D01*
X010541Y00392423D01*
D02*
G37*
G36*
X0118114Y00394988D02*
X0117094D01*
X01168989Y003946D01*
X01167335Y00393495D01*
X0116623Y00391841D01*
X01165842Y0038989D01*
Y0037207D01*
X0118114D01*
Y00394988D01*
D02*
G37*
G36*
X006071Y00355179D02*
X00606337Y00355078D01*
X00603296Y00353819D01*
X00600685Y00351815D01*
X00598681Y00349204D01*
X00597422Y00346163D01*
X00597321Y003454D01*
X006071D01*
Y00355179D01*
D02*
G37*
G36*
X006121D02*
Y003454D01*
X00621879D01*
X00621778Y00346163D01*
X00620519Y00349204D01*
X00618515Y00351815D01*
X00615904Y00353819D01*
X00612863Y00355078D01*
X006121Y00355179D01*
D02*
G37*
G36*
X0039116Y0035564D02*
X00387534Y00355163D01*
X00384155Y00353763D01*
X00381254Y00351536D01*
X00379027Y00348635D01*
X00377627Y00345256D01*
X0037715Y0034163D01*
X00377627Y00338004D01*
X00379027Y00334625D01*
X00381254Y00331724D01*
X00384155Y00329497D01*
X00387534Y00328097D01*
X0039116Y0032762D01*
X00394786Y00328097D01*
X00398165Y00329497D01*
X00401067Y00331724D01*
X00403293Y00334625D01*
X00404692Y00338004D01*
X0040517Y0034163D01*
X00404692Y00345256D01*
X00403293Y00348635D01*
X00401067Y00351536D01*
X00398165Y00353763D01*
X00394786Y00355163D01*
X0039116Y0035564D01*
D02*
G37*
G36*
X0071624Y00305781D02*
Y002946D01*
X00727421D01*
X00727272Y00295726D01*
X00725873Y00299105D01*
X00723646Y00302006D01*
X00720745Y00304233D01*
X00717366Y00305632D01*
X0071624Y00305781D01*
D02*
G37*
G36*
X007645D02*
Y002946D01*
X00775681D01*
X00775533Y00295726D01*
X00774133Y00299105D01*
X00771907Y00302006D01*
X00769005Y00304233D01*
X00765626Y00305632D01*
X007645Y00305781D01*
D02*
G37*
G36*
X007595D02*
X00758374Y00305632D01*
X00754995Y00304233D01*
X00752094Y00302006D01*
X00749867Y00299105D01*
X00748467Y00295726D01*
X00748319Y002946D01*
X007595D01*
Y00305781D01*
D02*
G37*
G36*
X00621879Y00315D02*
X006096D01*
X00597321D01*
X00597422Y00314237D01*
X00598681Y00311196D01*
X00600685Y00308585D01*
X00603296Y00306581D01*
X00604777Y00305968D01*
X00604524Y00304698D01*
X006021D01*
X00600149Y0030431D01*
X00598495Y00303205D01*
X0059739Y00301551D01*
X00597002Y002996D01*
Y002946D01*
X006096D01*
X00622198D01*
Y002996D01*
X0062181Y00301551D01*
X00620705Y00303205D01*
X00619051Y0030431D01*
X006171Y00304698D01*
X00614676D01*
X00614423Y00305968D01*
X00615904Y00306581D01*
X00618515Y00308585D01*
X00620519Y00311196D01*
X00621778Y00314237D01*
X00621879Y00315D01*
D02*
G37*
G36*
X0113034Y0032897D02*
X01107422D01*
Y0031877D01*
X0110781Y00316819D01*
X01108915Y00315165D01*
X01110569Y0031406D01*
X0111252Y00313672D01*
X0113034D01*
Y0032897D01*
D02*
G37*
G36*
X00621879Y003404D02*
X006096D01*
X00597321D01*
X00597422Y00339637D01*
X00598681Y00336596D01*
X00600685Y00333985D01*
X00603296Y00331981D01*
X00606023Y00330852D01*
X00606023Y0033085D01*
Y0032955D01*
X00606023Y00329548D01*
X00603296Y00328419D01*
X00600685Y00326415D01*
X00598681Y00323804D01*
X00597422Y00320763D01*
X00597321Y0032D01*
X006096D01*
X00621879D01*
X00621778Y00320763D01*
X00620519Y00323804D01*
X00618515Y00326415D01*
X00615904Y00328419D01*
X00613177Y00329548D01*
X00613177Y0032955D01*
Y0033085D01*
X00613177Y00330852D01*
X00615904Y00331981D01*
X00618515Y00333985D01*
X00620519Y00336596D01*
X00621778Y00339637D01*
X00621879Y003404D01*
D02*
G37*
G36*
X0090551Y0033151D02*
X009042D01*
Y0032D01*
X00919191D01*
X00919043Y00321126D01*
X00917643Y00324505D01*
X00915416Y00327407D01*
X00912515Y00329633D01*
X00909136Y00331032D01*
X0090551Y0033151D01*
D02*
G37*
G36*
X01158258Y0032897D02*
X0113534D01*
Y00313672D01*
X0115316D01*
X01155111Y0031406D01*
X01156765Y00315165D01*
X0115787Y00316819D01*
X01158258Y0031877D01*
Y0032897D01*
D02*
G37*
G36*
X008992Y0033151D02*
X0089789D01*
X00894264Y00331032D01*
X00890885Y00329633D01*
X00887983Y00327407D01*
X00885757Y00324505D01*
X00884358Y00321126D01*
X00884209Y0032D01*
X008992D01*
Y0033151D01*
D02*
G37*
G36*
X0110236Y0048963D02*
X01098568Y00489131D01*
X01095035Y00487668D01*
X01092001Y00485339D01*
X01089856Y00482545D01*
X01051364D01*
X01049219Y00485339D01*
X01046185Y00487668D01*
X01042652Y00489131D01*
X0103886Y0048963D01*
X01035068Y00489131D01*
X01031535Y00487668D01*
X01028501Y00485339D01*
X01026172Y00482305D01*
X01024709Y00478772D01*
X0102421Y0047498D01*
X01024709Y00471188D01*
X01026172Y00467655D01*
X01028501Y00464621D01*
X01031535Y00462292D01*
X01035068Y00460829D01*
X0103886Y0046033D01*
X01042652Y00460829D01*
X01046185Y00462292D01*
X01049219Y00464621D01*
X01051364Y00467415D01*
X01089856D01*
X01092001Y00464621D01*
X01095035Y00462292D01*
X01098568Y00460829D01*
X0110236Y0046033D01*
X01106152Y00460829D01*
X01109685Y00462292D01*
X01112719Y00464621D01*
X01115048Y00467655D01*
X01116511Y00471188D01*
X0111701Y0047498D01*
X01116511Y00478772D01*
X01115048Y00482305D01*
X01112719Y00485339D01*
X01109685Y00487668D01*
X01106152Y00489131D01*
X0110236Y0048963D01*
D02*
G37*
G36*
X0035604Y01016029D02*
Y0100741D01*
X00364659D01*
X00364598Y01007873D01*
X00363454Y01010634D01*
X00361635Y01013005D01*
X00359264Y01014824D01*
X00356503Y01015968D01*
X0035604Y01016029D01*
D02*
G37*
G36*
X0031754Y0108081D02*
X00308921D01*
X00308982Y01080347D01*
X00310126Y01077586D01*
X00311945Y01075215D01*
X00314316Y01073396D01*
X00317077Y01072252D01*
X0031754Y01072191D01*
Y0108081D01*
D02*
G37*
G36*
X0076362Y00967943D02*
Y0095766D01*
X00773903D01*
X00773785Y00958554D01*
X00772476Y00961716D01*
X00770392Y00964432D01*
X00767676Y00966515D01*
X00764514Y00967825D01*
X0076362Y00967943D01*
D02*
G37*
G36*
X0035104Y01016029D02*
X00350577Y01015968D01*
X00347816Y01014824D01*
X00345445Y01013005D01*
X00343626Y01010634D01*
X00342482Y01007873D01*
X00342421Y0100741D01*
X0035104D01*
Y01016029D01*
D02*
G37*
G36*
X00331159Y0108081D02*
X0032254D01*
Y01072191D01*
X00323003Y01072252D01*
X00325764Y01073396D01*
X00328135Y01075215D01*
X00329954Y01077586D01*
X00331098Y01080347D01*
X00331159Y0108081D01*
D02*
G37*
G36*
X0118114Y0110494D02*
X01166101D01*
X01166196Y0110397D01*
X01167208Y01100634D01*
X01168852Y01097559D01*
X01171064Y01094864D01*
X01173759Y01092652D01*
X01176834Y01091008D01*
X0118017Y01089996D01*
X0118114Y01089901D01*
Y0110494D01*
D02*
G37*
G36*
X01201179D02*
X0118614D01*
Y01089901D01*
X0118711Y01089996D01*
X01190446Y01091008D01*
X01193521Y01092652D01*
X01196216Y01094864D01*
X01198428Y01097559D01*
X01200072Y01100634D01*
X01201084Y0110397D01*
X01201179Y0110494D01*
D02*
G37*
G36*
X0031754Y01094429D02*
X00317077Y01094368D01*
X00314316Y01093224D01*
X00311945Y01091405D01*
X00310126Y01089034D01*
X00308982Y01086273D01*
X00308921Y0108581D01*
X0031754D01*
Y01094429D01*
D02*
G37*
G36*
X0032254D02*
Y0108581D01*
X00331159D01*
X00331098Y01086273D01*
X00329954Y01089034D01*
X00328135Y01091405D01*
X00325764Y01093224D01*
X00323003Y01094368D01*
X0032254Y01094429D01*
D02*
G37*
G36*
X0056384Y00834101D02*
Y0082292D01*
X00575021D01*
X00574873Y00824046D01*
X00573473Y00827425D01*
X00571246Y00830327D01*
X00568345Y00832553D01*
X00564966Y00833952D01*
X0056384Y00834101D01*
D02*
G37*
G36*
X00569Y008484D02*
X00557819D01*
X00557967Y00847274D01*
X00559367Y00843895D01*
X00561594Y00840993D01*
X00564495Y00838767D01*
X00567874Y00837367D01*
X00569Y00837219D01*
Y008484D01*
D02*
G37*
G36*
X0066802Y0081729D02*
X00664228Y00816791D01*
X00660695Y00815328D01*
X00657661Y00812999D01*
X00655332Y00809965D01*
X00653869Y00806432D01*
X0065337Y0080264D01*
X00653869Y00798848D01*
X00655332Y00795315D01*
X00657661Y00792281D01*
X00660695Y00789952D01*
X00664228Y00788489D01*
X0066802Y0078799D01*
X00671812Y00788489D01*
X00675345Y00789952D01*
X00678379Y00792281D01*
X00680708Y00795315D01*
X00682171Y00798848D01*
X0068267Y0080264D01*
X00682171Y00806432D01*
X00680708Y00809965D01*
X00678379Y00812999D01*
X00675345Y00815328D01*
X00671812Y00816791D01*
X0066802Y0081729D01*
D02*
G37*
G36*
X0055884Y00834101D02*
X00557714Y00833952D01*
X00554335Y00832553D01*
X00551433Y00830327D01*
X00549207Y00827425D01*
X00547808Y00824046D01*
X00547659Y0082292D01*
X0055884D01*
Y00834101D01*
D02*
G37*
G36*
X00585181Y008484D02*
X00574D01*
Y00837219D01*
X00575126Y00837367D01*
X00578505Y00838767D01*
X00581407Y00840993D01*
X00583633Y00843895D01*
X00585033Y00847274D01*
X00585181Y008484D01*
D02*
G37*
G36*
X00773903Y0095266D02*
X0076362D01*
Y00942377D01*
X00764514Y00942495D01*
X00767676Y00943804D01*
X00770392Y00945888D01*
X00772476Y00948604D01*
X00773785Y00951766D01*
X00773903Y0095266D01*
D02*
G37*
G36*
X01143Y00955699D02*
X01138481Y00955343D01*
X01134073Y00954285D01*
X01129885Y0095255D01*
X01126019Y00950182D01*
X01122572Y00947238D01*
X01119628Y00943791D01*
X0111726Y00939925D01*
X01115525Y00935737D01*
X01114467Y00931329D01*
X01114111Y0092681D01*
X01114467Y00922291D01*
X01115525Y00917883D01*
X0111726Y00913695D01*
X01119628Y00909829D01*
X01122572Y00906382D01*
X01126019Y00903438D01*
X01129885Y0090107D01*
X01134073Y00899335D01*
X01138481Y00898277D01*
X01143Y00897921D01*
X01147519Y00898277D01*
X01151927Y00899335D01*
X01156115Y0090107D01*
X01159981Y00903438D01*
X01163428Y00906382D01*
X01166372Y00909829D01*
X0116874Y00913695D01*
X01170475Y00917883D01*
X01171533Y00922291D01*
X01171889Y0092681D01*
X01171533Y00931329D01*
X01170475Y00935737D01*
X0116874Y00939925D01*
X01166372Y00943791D01*
X01163428Y00947238D01*
X01159981Y00950182D01*
X01156115Y0095255D01*
X01151927Y00954285D01*
X01147519Y00955343D01*
X01143Y00955699D01*
D02*
G37*
G36*
X0107512Y00980281D02*
X01070219Y00979798D01*
X01065507Y00978369D01*
X01061164Y00976047D01*
X01057357Y00972923D01*
X01054233Y00969116D01*
X01051911Y00964773D01*
X01050482Y00960061D01*
X01049999Y0095516D01*
X01050482Y00950259D01*
X01051911Y00945546D01*
X01054233Y00941204D01*
X01057357Y00937397D01*
X01061164Y00934273D01*
X01065507Y00931951D01*
X01070219Y00930522D01*
X0107512Y00930039D01*
X01080021Y00930522D01*
X01084733Y00931951D01*
X01089077Y00934273D01*
X01092883Y00937397D01*
X01096007Y00941204D01*
X01098329Y00945546D01*
X01099758Y00950259D01*
X01100241Y0095516D01*
X01099758Y00960061D01*
X01098329Y00964773D01*
X01096007Y00969116D01*
X01092883Y00972923D01*
X01089077Y00976047D01*
X01084733Y00978369D01*
X01080021Y00979798D01*
X0107512Y00980281D01*
D02*
G37*
G36*
X0037546Y01151765D02*
Y0113805D01*
X00386329D01*
Y01138725D01*
X00385874Y01142185D01*
X00384538Y0114541D01*
X00382414Y01148179D01*
X00379645Y01150303D01*
X0037642Y01151639D01*
X0037546Y01151765D01*
D02*
G37*
G36*
X0053896Y0118402D02*
X00535334Y01183542D01*
X00531955Y01182143D01*
X00529054Y01179917D01*
X00527257Y01177575D01*
X0050326D01*
X0050326Y01177575D01*
X00501302Y01177317D01*
X00499478Y01176561D01*
X00499021Y0117621D01*
X004953Y011767D01*
X00491508Y01176201D01*
X00487975Y01174738D01*
X00484941Y01172409D01*
X00482796Y01169615D01*
X00444304D01*
X00442159Y01172409D01*
X00439125Y01174738D01*
X00435592Y01176201D01*
X004318Y011767D01*
X00428008Y01176201D01*
X00424475Y01174738D01*
X00421441Y01172409D01*
X00419112Y01169375D01*
X00417649Y01165842D01*
X0041715Y0116205D01*
X00417649Y01158258D01*
X00419112Y01154725D01*
X00421441Y01151691D01*
X00424475Y01149362D01*
X00428008Y01147899D01*
X004318Y011474D01*
X00435592Y01147899D01*
X00439125Y01149362D01*
X00442159Y01151691D01*
X00444304Y01154485D01*
X00482796D01*
X00484941Y01151691D01*
X00487975Y01149362D01*
X00491508Y01147899D01*
X004953Y011474D01*
X00499092Y01147899D01*
X00502625Y01149362D01*
X00505659Y01151691D01*
X00507988Y01154725D01*
X00509451Y01158258D01*
X0050995Y0116205D01*
X00510297Y01162445D01*
X00527257D01*
X00529054Y01160104D01*
X00531955Y01157877D01*
X00535334Y01156478D01*
X0053896Y01156D01*
X00542586Y01156478D01*
X00545965Y01157877D01*
X00548867Y01160104D01*
X00551093Y01163005D01*
X00552492Y01166384D01*
X0055297Y0117001D01*
X00552492Y01173636D01*
X00551093Y01177015D01*
X00548867Y01179917D01*
X00545965Y01182143D01*
X00542586Y01183542D01*
X0053896Y0118402D01*
D02*
G37*
G36*
X0053646Y01132891D02*
X00535334Y01132742D01*
X00531955Y01131343D01*
X00529054Y01129117D01*
X00526827Y01126215D01*
X00525428Y01122836D01*
X00525279Y0112171D01*
X0053646D01*
Y01132891D01*
D02*
G37*
G36*
X0054146Y01132891D02*
Y0112171D01*
X00552641D01*
X00552492Y01122836D01*
X00551093Y01126215D01*
X00548867Y01129117D01*
X00545965Y01131343D01*
X00542586Y01132742D01*
X0054146Y01132891D01*
D02*
G37*
G36*
X0073458Y0120815D02*
X00724351D01*
Y0120684D01*
X00724785Y01203546D01*
X00726057Y01200476D01*
X00728079Y01197839D01*
X00730716Y01195816D01*
X00733785Y01194545D01*
X0073458Y0119444D01*
Y0120815D01*
D02*
G37*
G36*
X005136Y0122593D02*
X00504981D01*
X00505042Y01225467D01*
X00506186Y01222706D01*
X00508005Y01220335D01*
X00510376Y01218516D01*
X00513137Y01217372D01*
X005136Y01217311D01*
Y0122593D01*
D02*
G37*
G36*
X00527219D02*
X005186D01*
Y01217311D01*
X00519063Y01217372D01*
X00521824Y01218516D01*
X00524195Y01220335D01*
X00526014Y01222706D01*
X00527158Y01225467D01*
X00527219Y0122593D01*
D02*
G37*
G36*
X0066294Y01201465D02*
X00659148Y01200966D01*
X00655615Y01199503D01*
X00653198Y01197648D01*
X00651799Y01198168D01*
X00651775Y01198291D01*
X0065067Y01199945D01*
X00649016Y0120105D01*
X00647065Y01201438D01*
X00628015D01*
X00626064Y0120105D01*
X0062441Y01199945D01*
X00623305Y01198291D01*
X00622917Y0119634D01*
Y0117348D01*
X00623305Y01171529D01*
X0062441Y01169875D01*
X00626064Y0116877D01*
X00628015Y01168382D01*
X00647065D01*
X00649016Y0116877D01*
X0065067Y01169875D01*
X00651775Y01171529D01*
X00651799Y01171652D01*
X00653198Y01172172D01*
X00655615Y01170317D01*
X00659148Y01168854D01*
X0066294Y01168355D01*
X00666732Y01168854D01*
X00670265Y01170317D01*
X00673299Y01172646D01*
X00675628Y0117568D01*
X00677091Y01179213D01*
X0067759Y01183005D01*
Y01186815D01*
X00677091Y01190607D01*
X00675628Y0119414D01*
X00673299Y01197174D01*
X00670265Y01199503D01*
X00666732Y01200966D01*
X0066294Y01201465D01*
D02*
G37*
G36*
X0073458Y0122686D02*
X00733785Y01226755D01*
X00730716Y01225483D01*
X00728079Y01223461D01*
X00726057Y01220824D01*
X00724785Y01217755D01*
X00724351Y0121446D01*
Y0121315D01*
X0073458D01*
Y0122686D01*
D02*
G37*
G36*
X00386329Y0113305D02*
X0037546D01*
Y01119335D01*
X0037642Y01119461D01*
X00379645Y01120797D01*
X00382414Y01122921D01*
X00384538Y0112569D01*
X00385874Y01128915D01*
X00386329Y01132375D01*
Y0113305D01*
D02*
G37*
G36*
X0053646Y0111671D02*
X00525279D01*
X00525428Y01115584D01*
X00526827Y01112205D01*
X00529054Y01109304D01*
X00531955Y01107077D01*
X00535334Y01105677D01*
X0053646Y01105529D01*
Y0111671D01*
D02*
G37*
G36*
X00552641D02*
X0054146D01*
Y01105529D01*
X00542586Y01105677D01*
X00545965Y01107077D01*
X00548867Y01109304D01*
X00551093Y01112205D01*
X00552492Y01115584D01*
X00552641Y0111671D01*
D02*
G37*
G36*
X004928Y0110875D02*
X00480979D01*
X00481149Y01107458D01*
X00482612Y01103925D01*
X00484941Y01100891D01*
X00487975Y01098562D01*
X00491508Y01097099D01*
X004928Y01096929D01*
Y0110875D01*
D02*
G37*
G36*
X00509621D02*
X004978D01*
Y01096929D01*
X00499092Y01097099D01*
X00502625Y01098562D01*
X00505659Y01100891D01*
X00507988Y01103925D01*
X00509451Y01107458D01*
X00509621Y0110875D01*
D02*
G37*
G36*
X0118114Y01124979D02*
X0118017Y01124884D01*
X01176834Y01123872D01*
X01173759Y01122228D01*
X01171064Y01120016D01*
X01168852Y01117321D01*
X01167208Y01114246D01*
X01166196Y0111091D01*
X01166101Y0110994D01*
X0118114D01*
Y01124979D01*
D02*
G37*
G36*
X004928Y01125571D02*
X00491508Y01125401D01*
X00487975Y01123938D01*
X00484941Y01121609D01*
X00482612Y01118575D01*
X00481149Y01115042D01*
X00480979Y0111375D01*
X004928D01*
Y01125571D01*
D02*
G37*
G36*
X004978D02*
Y0111375D01*
X00509621D01*
X00509451Y01115042D01*
X00507988Y01118575D01*
X00505659Y01121609D01*
X00502625Y01123938D01*
X00499092Y01125401D01*
X004978Y01125571D01*
D02*
G37*
G36*
X0118614Y01124979D02*
Y0110994D01*
X01201179D01*
X01201084Y0111091D01*
X01200072Y01114246D01*
X01198428Y01117321D01*
X01196216Y01120016D01*
X01193521Y01122228D01*
X01190446Y01123872D01*
X0118711Y01124884D01*
X0118614Y01124979D01*
D02*
G37*
G36*
X004343Y01125571D02*
Y0111375D01*
X00446121D01*
X00445951Y01115042D01*
X00444488Y01118575D01*
X00442159Y01121609D01*
X00439125Y01123938D01*
X00435592Y01125401D01*
X004343Y01125571D01*
D02*
G37*
G36*
X0061722Y0081729D02*
X00613428Y00816791D01*
X00609895Y00815328D01*
X00606861Y00812999D01*
X00604532Y00809965D01*
X00603069Y00806432D01*
X0060257Y0080264D01*
X00603069Y00798848D01*
X00604532Y00795315D01*
X00606861Y00792281D01*
X00609895Y00789952D01*
X00613428Y00788489D01*
X0061722Y0078799D01*
X00621012Y00788489D01*
X00624545Y00789952D01*
X00627579Y00792281D01*
X00629908Y00795315D01*
X00631371Y00798848D01*
X0063187Y0080264D01*
X00631371Y00806432D01*
X00629908Y00809965D01*
X00627579Y00812999D01*
X00624545Y00815328D01*
X00621012Y00816791D01*
X0061722Y0081729D01*
D02*
G37*
G36*
X0103636Y00535021D02*
X01035068Y00534851D01*
X01031535Y00533388D01*
X01028501Y00531059D01*
X01026172Y00528025D01*
X01024709Y00524492D01*
X01024539Y005232D01*
X0103636D01*
Y00535021D01*
D02*
G37*
G36*
X0104136D02*
Y005232D01*
X01053181D01*
X01053011Y00524492D01*
X01051548Y00528025D01*
X01049219Y00531059D01*
X01046185Y00533388D01*
X01042652Y00534851D01*
X0104136Y00535021D01*
D02*
G37*
G36*
X00992221Y0052074D02*
X009804D01*
Y00508919D01*
X00981692Y00509089D01*
X00985225Y00510552D01*
X00988259Y00512881D01*
X00990588Y00515915D01*
X00992051Y00519448D01*
X00992221Y0052074D01*
D02*
G37*
G36*
X0113542Y0052963D02*
X01126801D01*
X01126862Y00529167D01*
X01128006Y00526406D01*
X01129825Y00524035D01*
X01132196Y00522216D01*
X01134957Y00521072D01*
X0113542Y00521011D01*
Y0052963D01*
D02*
G37*
G36*
X0109986Y00535021D02*
X01098568Y00534851D01*
X01095035Y00533388D01*
X01092001Y00531059D01*
X01089672Y00528025D01*
X01088209Y00524492D01*
X01088039Y005232D01*
X0109986D01*
Y00535021D01*
D02*
G37*
G36*
X0122178D02*
X01220488Y00534851D01*
X01216955Y00533388D01*
X01213921Y00531059D01*
X01211592Y00528025D01*
X01210129Y00524492D01*
X01209959Y005232D01*
X0122178D01*
Y00535021D01*
D02*
G37*
G36*
X009119Y00537561D02*
X00910608Y00537391D01*
X00907075Y00535928D01*
X00904041Y00533599D01*
X00901712Y00530565D01*
X00900249Y00527032D01*
X00900079Y0052574D01*
X009119D01*
Y00537561D01*
D02*
G37*
G36*
X0110486Y00535021D02*
Y005232D01*
X01116681D01*
X01116511Y00524492D01*
X01115048Y00528025D01*
X01112719Y00531059D01*
X01109685Y00533388D01*
X01106152Y00534851D01*
X0110486Y00535021D01*
D02*
G37*
G36*
X0116328D02*
Y005232D01*
X01175101D01*
X01174931Y00524492D01*
X01173468Y00528025D01*
X01171139Y00531059D01*
X01168105Y00533388D01*
X01164572Y00534851D01*
X0116328Y00535021D01*
D02*
G37*
G36*
X009754Y0052074D02*
X00963579D01*
X00963749Y00519448D01*
X00965212Y00515915D01*
X00967541Y00512881D01*
X00970575Y00510552D01*
X00974108Y00509089D01*
X009754Y00508919D01*
Y0052074D01*
D02*
G37*
G36*
X01053181Y005182D02*
X0104136D01*
Y00506379D01*
X01042652Y00506549D01*
X01046185Y00508012D01*
X01049219Y00510341D01*
X01051548Y00513375D01*
X01053011Y00516908D01*
X01053181Y005182D01*
D02*
G37*
G36*
X0109986D02*
X01088039D01*
X01088209Y00516908D01*
X01089672Y00513375D01*
X01092001Y00510341D01*
X01095035Y00508012D01*
X01098568Y00506549D01*
X0109986Y00506379D01*
Y005182D01*
D02*
G37*
G36*
X0061976Y00701058D02*
X00616797Y00700668D01*
X00614036Y00699524D01*
X00611665Y00697705D01*
X00609846Y00695334D01*
X00608702Y00692573D01*
X00608312Y0068961D01*
X00608702Y00686647D01*
X00609846Y00683886D01*
X00611665Y00681515D01*
X00614036Y00679696D01*
X00616382Y00678724D01*
X00635074Y00660032D01*
Y00506959D01*
X00634102Y00504613D01*
X00633712Y0050165D01*
X00634102Y00498687D01*
X00635246Y00495926D01*
X00637065Y00493555D01*
X00639436Y00491736D01*
X00642197Y00490592D01*
X0064516Y00490202D01*
X00648123Y00490592D01*
X00650884Y00491736D01*
X00653255Y00493555D01*
X00655074Y00495926D01*
X00656218Y00498687D01*
X00656608Y0050165D01*
X00656218Y00504613D01*
X00655246Y00506959D01*
Y0066421D01*
X00654903Y00666821D01*
X00653895Y00669253D01*
X00652292Y00671342D01*
X00630646Y00692988D01*
X00629674Y00695334D01*
X00627855Y00697705D01*
X00625484Y00699524D01*
X00622723Y00700668D01*
X0061976Y00701058D01*
D02*
G37*
G36*
X0103636Y005182D02*
X01024539D01*
X01024709Y00516908D01*
X01026172Y00513375D01*
X01028501Y00510341D01*
X01031535Y00508012D01*
X01035068Y00506549D01*
X0103636Y00506379D01*
Y005182D01*
D02*
G37*
G36*
X01116681D02*
X0110486D01*
Y00506379D01*
X01106152Y00506549D01*
X01109685Y00508012D01*
X01112719Y00510341D01*
X01115048Y00513375D01*
X01116511Y00516908D01*
X01116681Y005182D01*
D02*
G37*
G36*
X009119Y0052074D02*
X00900079D01*
X00900249Y00519448D01*
X00901712Y00515915D01*
X00904041Y00512881D01*
X00907075Y00510552D01*
X00910608Y00509089D01*
X009119Y00508919D01*
Y0052074D01*
D02*
G37*
G36*
X00928721D02*
X009169D01*
Y00508919D01*
X00918192Y00509089D01*
X00921725Y00510552D01*
X00924759Y00512881D01*
X00927088Y00515915D01*
X00928551Y00519448D01*
X00928721Y0052074D01*
D02*
G37*
G36*
X01175101Y005182D02*
X0116328D01*
Y00506379D01*
X01164572Y00506549D01*
X01168105Y00508012D01*
X01171139Y00510341D01*
X01173468Y00513375D01*
X01174931Y00516908D01*
X01175101Y005182D01*
D02*
G37*
G36*
X0122178D02*
X01209959D01*
X01210129Y00516908D01*
X01211592Y00513375D01*
X01213921Y00510341D01*
X01216955Y00508012D01*
X01220488Y00506549D01*
X0122178Y00506379D01*
Y005182D01*
D02*
G37*
G36*
X010516Y00748048D02*
X010414D01*
X01039449Y0074766D01*
X01037795Y00746555D01*
X0103669Y00744901D01*
X01036302Y0074295D01*
Y0073656D01*
X010516D01*
Y00748048D01*
D02*
G37*
G36*
X010668D02*
X010566D01*
Y0073656D01*
X01071898D01*
Y0074295D01*
X0107151Y00744901D01*
X01070405Y00746555D01*
X01068751Y0074766D01*
X010668Y00748048D01*
D02*
G37*
G36*
X011263Y0074396D02*
X01112585D01*
X01112711Y00743D01*
X01114047Y00739775D01*
X01116171Y00737007D01*
X0111894Y00734882D01*
X01122165Y00733546D01*
X01125625Y00733091D01*
X011263D01*
Y0074396D01*
D02*
G37*
G36*
X01145015D02*
X011313D01*
Y00733091D01*
X01131975D01*
X01135435Y00733546D01*
X0113866Y00734882D01*
X01141428Y00737007D01*
X01143553Y00739775D01*
X01144889Y00743D01*
X01145015Y0074396D01*
D02*
G37*
G36*
X0056642Y00765839D02*
X00563125Y00765405D01*
X00560056Y00764134D01*
X00557419Y00762111D01*
X00555396Y00759474D01*
X00554407Y00757086D01*
X00553033D01*
X00552043Y00759474D01*
X00550021Y00762111D01*
X00547384Y00764134D01*
X00544314Y00765405D01*
X0054102Y00765839D01*
X00537725Y00765405D01*
X00534656Y00764134D01*
X00532019Y00762111D01*
X00529996Y00759474D01*
X00529007Y00757086D01*
X00527633D01*
X00526643Y00759474D01*
X00524621Y00762111D01*
X00521984Y00764134D01*
X00518914Y00765405D01*
X0051562Y00765839D01*
X00512326Y00765405D01*
X00509256Y00764134D01*
X00506619Y00762111D01*
X00504596Y00759474D01*
X00503607Y00757086D01*
X00502233D01*
X00501244Y00759474D01*
X00499221Y00762111D01*
X00496584Y00764134D01*
X00493515Y00765405D01*
X0049022Y00765839D01*
X00486926Y00765405D01*
X00483856Y00764134D01*
X00481219Y00762111D01*
X00479197Y00759474D01*
X00478207Y00757086D01*
X00476833D01*
X00475844Y00759474D01*
X00473821Y00762111D01*
X00471184Y00764134D01*
X00468115Y00765405D01*
X0046482Y00765839D01*
X00461525Y00765405D01*
X00458456Y00764134D01*
X00455819Y00762111D01*
X00453797Y00759474D01*
X00452807Y00757086D01*
X00451433D01*
X00450443Y00759474D01*
X00448421Y00762111D01*
X00445784Y00764134D01*
X00442715Y00765405D01*
X0043942Y00765839D01*
X00436125Y00765405D01*
X00433056Y00764134D01*
X00430419Y00762111D01*
X00428396Y00759474D01*
X00427407Y00757086D01*
X00426033D01*
X00425043Y00759474D01*
X00423021Y00762111D01*
X00420384Y00764134D01*
X00417314Y00765405D01*
X0041402Y00765839D01*
X00410726Y00765405D01*
X00407656Y00764134D01*
X00405019Y00762111D01*
X00402996Y00759474D01*
X00402007Y00757086D01*
X00400633D01*
X00399644Y00759474D01*
X00397621Y00762111D01*
X00394984Y00764134D01*
X00391914Y00765405D01*
X0038862Y00765839D01*
X00385326Y00765405D01*
X00382256Y00764134D01*
X00379619Y00762111D01*
X00377597Y00759474D01*
X00376607Y00757086D01*
X00375233D01*
X00374244Y00759474D01*
X00372221Y00762111D01*
X00369584Y00764134D01*
X00366515Y00765405D01*
X0036322Y00765839D01*
X00359925Y00765405D01*
X00356856Y00764134D01*
X00354219Y00762111D01*
X00352197Y00759474D01*
X00351808Y00758537D01*
X00350538Y00758789D01*
Y0076073D01*
X0035015Y00762681D01*
X00349045Y00764335D01*
X00347391Y0076544D01*
X0034544Y00765828D01*
X003302D01*
X00328249Y0076544D01*
X00326595Y00764335D01*
X0032549Y00762681D01*
X00325102Y0076073D01*
Y0073787D01*
X0032549Y00735919D01*
X00326595Y00734265D01*
X00328249Y0073316D01*
X003302Y00732772D01*
X0034544D01*
X00347391Y0073316D01*
X00349045Y00734265D01*
X0035015Y00735919D01*
X00350538Y0073787D01*
Y00739811D01*
X00351808Y00740063D01*
X00352197Y00739126D01*
X00354219Y00736489D01*
X00356856Y00734466D01*
X00359925Y00733195D01*
X0036322Y00732761D01*
X00366515Y00733195D01*
X00369584Y00734466D01*
X00372221Y00736489D01*
X00374244Y00739126D01*
X00375233Y00741514D01*
X00376607D01*
X00377597Y00739126D01*
X00379619Y00736489D01*
X00382256Y00734466D01*
X00385326Y00733195D01*
X0038862Y00732761D01*
X00391914Y00733195D01*
X00394984Y00734466D01*
X00397621Y00736489D01*
X00399644Y00739126D01*
X00400633Y00741514D01*
X00402007D01*
X00402996Y00739126D01*
X00405019Y00736489D01*
X00407656Y00734466D01*
X00410726Y00733195D01*
X0041402Y00732761D01*
X00417314Y00733195D01*
X00420384Y00734466D01*
X00423021Y00736489D01*
X00425043Y00739126D01*
X00426033Y00741514D01*
X00427407D01*
X00428396Y00739126D01*
X00430419Y00736489D01*
X00433056Y00734466D01*
X00436125Y00733195D01*
X0043942Y00732761D01*
X00442715Y00733195D01*
X00445784Y00734466D01*
X00448421Y00736489D01*
X00450443Y00739126D01*
X00451433Y00741514D01*
X00452807D01*
X00453797Y00739126D01*
X00455819Y00736489D01*
X00458456Y00734466D01*
X00461525Y00733195D01*
X0046482Y00732761D01*
X00468115Y00733195D01*
X00471184Y00734466D01*
X00473821Y00736489D01*
X00475844Y00739126D01*
X00476833Y00741514D01*
X00478207D01*
X00479197Y00739126D01*
X00481219Y00736489D01*
X00483856Y00734466D01*
X00486926Y00733195D01*
X0049022Y00732761D01*
X00493515Y00733195D01*
X00496584Y00734466D01*
X00499221Y00736489D01*
X00501244Y00739126D01*
X00502233Y00741514D01*
X00503607D01*
X00504596Y00739126D01*
X00506619Y00736489D01*
X00509256Y00734466D01*
X00512326Y00733195D01*
X0051562Y00732761D01*
X00518914Y00733195D01*
X00521984Y00734466D01*
X00524621Y00736489D01*
X00526643Y00739126D01*
X00527633Y00741514D01*
X00529007D01*
X00529996Y00739126D01*
X00532019Y00736489D01*
X00534656Y00734466D01*
X00537725Y00733195D01*
X0054102Y00732761D01*
X00544314Y00733195D01*
X00547384Y00734466D01*
X00550021Y00736489D01*
X00552043Y00739126D01*
X00553033Y00741514D01*
X00554407D01*
X00555396Y00739126D01*
X00557419Y00736489D01*
X00560056Y00734466D01*
X00563125Y00733195D01*
X0056642Y00732761D01*
X00569715Y00733195D01*
X00572784Y00734466D01*
X00575421Y00736489D01*
X00577444Y00739126D01*
X00578433Y00741514D01*
X00579807D01*
X00580797Y00739126D01*
X00582819Y00736489D01*
X00585456Y00734466D01*
X00588526Y00733195D01*
X0058932Y0073309D01*
Y007493D01*
Y0076551D01*
X00588526Y00765405D01*
X00585456Y00764134D01*
X00582819Y00762111D01*
X00580797Y00759474D01*
X00579807Y00757086D01*
X00578433D01*
X00577444Y00759474D01*
X00575421Y00762111D01*
X00572784Y00764134D01*
X00569715Y00765405D01*
X0056642Y00765839D01*
D02*
G37*
G36*
X00575021Y0081792D02*
X0056134D01*
X00547659D01*
X00547808Y00816794D01*
X00549207Y00813415D01*
X00551433Y00810514D01*
X00554132Y00808443D01*
X00554246Y0080772D01*
X00554132Y00806997D01*
X00551433Y00804927D01*
X00549207Y00802025D01*
X00547808Y00798646D01*
X0054733Y0079502D01*
X00547808Y00791394D01*
X00549207Y00788015D01*
X00551433Y00785114D01*
X00554335Y00782887D01*
X00557714Y00781488D01*
X0056134Y0078101D01*
X00564966Y00781488D01*
X00568345Y00782887D01*
X00571246Y00785114D01*
X00573473Y00788015D01*
X00574873Y00791394D01*
X0057535Y0079502D01*
X00574873Y00798646D01*
X00573473Y00802025D01*
X00571246Y00804927D01*
X00568548Y00806997D01*
X00568434Y0080772D01*
X00568548Y00808443D01*
X00571246Y00810514D01*
X00573473Y00813415D01*
X00574873Y00816794D01*
X00575021Y0081792D01*
D02*
G37*
G36*
X00732501D02*
X0071882D01*
X00705139D01*
X00705287Y00816794D01*
X00706687Y00813415D01*
X00708913Y00810514D01*
X00711612Y00808443D01*
X00711726Y0080772D01*
X00711612Y00806997D01*
X00708913Y00804927D01*
X00706687Y00802025D01*
X00705287Y00798646D01*
X0070481Y0079502D01*
X00705287Y00791394D01*
X00706687Y00788015D01*
X00708913Y00785114D01*
X00711815Y00782887D01*
X00715194Y00781488D01*
X0071882Y0078101D01*
X00722446Y00781488D01*
X00725825Y00782887D01*
X00728727Y00785114D01*
X00730953Y00788015D01*
X00732353Y00791394D01*
X0073283Y0079502D01*
X00732353Y00798646D01*
X00730953Y00802025D01*
X00728727Y00804927D01*
X00726028Y00806997D01*
X00725914Y0080772D01*
X00726028Y00808443D01*
X00728727Y00810514D01*
X00730953Y00813415D01*
X00732353Y00816794D01*
X00732501Y0081792D01*
D02*
G37*
G36*
X0082042Y00765839D02*
X00817125Y00765405D01*
X00814056Y00764134D01*
X00811419Y00762111D01*
X00809397Y00759474D01*
X00808407Y00757086D01*
X00807033D01*
X00806043Y00759474D01*
X00804021Y00762111D01*
X00801384Y00764134D01*
X00798315Y00765405D01*
X0079502Y00765839D01*
X00791725Y00765405D01*
X00788656Y00764134D01*
X00786019Y00762111D01*
X00783997Y00759474D01*
X00783007Y00757086D01*
X00781633D01*
X00780643Y00759474D01*
X00778621Y00762111D01*
X00775984Y00764134D01*
X00772915Y00765405D01*
X0076962Y00765839D01*
X00766326Y00765405D01*
X00763256Y00764134D01*
X00760619Y00762111D01*
X00758596Y00759474D01*
X00757607Y00757086D01*
X00756233D01*
X00755244Y00759474D01*
X00753221Y00762111D01*
X00750584Y00764134D01*
X00747514Y00765405D01*
X0074422Y00765839D01*
X00740926Y00765405D01*
X00737856Y00764134D01*
X00735219Y00762111D01*
X00733196Y00759474D01*
X00732207Y00757086D01*
X00730833D01*
X00729844Y00759474D01*
X00727821Y00762111D01*
X00725184Y00764134D01*
X00722114Y00765405D01*
X0071882Y00765839D01*
X00715526Y00765405D01*
X00712456Y00764134D01*
X00709819Y00762111D01*
X00707796Y00759474D01*
X00706807Y00757086D01*
X00705433D01*
X00704444Y00759474D01*
X00702421Y00762111D01*
X00699784Y00764134D01*
X00696714Y00765405D01*
X0069342Y00765839D01*
X00690126Y00765405D01*
X00687056Y00764134D01*
X00684419Y00762111D01*
X00682396Y00759474D01*
X00681407Y00757086D01*
X00680033D01*
X00679044Y00759474D01*
X00677021Y00762111D01*
X00674384Y00764134D01*
X00671314Y00765405D01*
X0066802Y00765839D01*
X00664725Y00765405D01*
X00661656Y00764134D01*
X00659019Y00762111D01*
X00656997Y00759474D01*
X00656007Y00757086D01*
X00654633D01*
X00653643Y00759474D01*
X00651621Y00762111D01*
X00648984Y00764134D01*
X00645915Y00765405D01*
X0064262Y00765839D01*
X00639325Y00765405D01*
X00636256Y00764134D01*
X00633619Y00762111D01*
X00631596Y00759474D01*
X00630607Y00757086D01*
X00629233D01*
X00628243Y00759474D01*
X00626221Y00762111D01*
X00623584Y00764134D01*
X00620514Y00765405D01*
X0061722Y00765839D01*
X00613926Y00765405D01*
X00610856Y00764134D01*
X00608219Y00762111D01*
X00606197Y00759474D01*
X00605207Y00757086D01*
X00603833D01*
X00602844Y00759474D01*
X00600821Y00762111D01*
X00598184Y00764134D01*
X00595115Y00765405D01*
X0059432Y0076551D01*
Y007493D01*
Y0073309D01*
X00595115Y00733195D01*
X00598184Y00734466D01*
X00600821Y00736489D01*
X00602844Y00739126D01*
X00603833Y00741514D01*
X00605207D01*
X00606197Y00739126D01*
X00608219Y00736489D01*
X00610856Y00734466D01*
X00613926Y00733195D01*
X0061722Y00732761D01*
X00620514Y00733195D01*
X00623584Y00734466D01*
X00626221Y00736489D01*
X00628243Y00739126D01*
X00629233Y00741514D01*
X00630607D01*
X00631596Y00739126D01*
X00633619Y00736489D01*
X00636256Y00734466D01*
X00639325Y00733195D01*
X0064262Y00732761D01*
X00645915Y00733195D01*
X00648984Y00734466D01*
X00651621Y00736489D01*
X00653643Y00739126D01*
X00654633Y00741514D01*
X00656007D01*
X00656997Y00739126D01*
X00659019Y00736489D01*
X00661656Y00734466D01*
X00664725Y00733195D01*
X0066802Y00732761D01*
X00671314Y00733195D01*
X00672808Y00733814D01*
X00783321Y00623301D01*
X00783321Y00623301D01*
X00784888Y00622099D01*
X00786712Y00621343D01*
X0078867Y00621085D01*
X00850018D01*
X00850425Y00620555D01*
X00852796Y00618736D01*
X00855557Y00617592D01*
X0085852Y00617202D01*
X00861483Y00617592D01*
X00864244Y00618736D01*
X00866615Y00620555D01*
X00868434Y00622926D01*
X00869578Y00625687D01*
X00869968Y0062865D01*
X00869578Y00631613D01*
X00868434Y00634374D01*
X00866615Y00636745D01*
X00864244Y00638564D01*
X00861483Y00639708D01*
X0085852Y00640098D01*
X00855557Y00639708D01*
X00852796Y00638564D01*
X00850425Y00636745D01*
X00850018Y00636215D01*
X00791803D01*
X00696059Y0073196D01*
X00696467Y00733162D01*
X00696714Y00733195D01*
X00698208Y00733814D01*
X00783321Y00648701D01*
X00784888Y00647499D01*
X00786712Y00646743D01*
X00787691Y00646614D01*
X0078867Y00646485D01*
X0078867Y00646485D01*
X00850018D01*
X00850425Y00645955D01*
X00852796Y00644136D01*
X00855557Y00642992D01*
X0085852Y00642602D01*
X00861483Y00642992D01*
X00864244Y00644136D01*
X00866615Y00645955D01*
X00868434Y00648326D01*
X00869578Y00651087D01*
X00869968Y0065405D01*
X00869578Y00657013D01*
X00868434Y00659774D01*
X00866615Y00662145D01*
X00864244Y00663964D01*
X00861483Y00665108D01*
X0085852Y00665498D01*
X00855557Y00665108D01*
X00852796Y00663964D01*
X00850425Y00662145D01*
X00850018Y00661615D01*
X00791803D01*
X00721459Y0073196D01*
X00721867Y00733162D01*
X00722114Y00733195D01*
X00725184Y00734466D01*
X00727821Y00736489D01*
X00729844Y00739126D01*
X00730833Y00741514D01*
X00732207D01*
X00733196Y00739126D01*
X00735219Y00736489D01*
X00737856Y00734466D01*
X00740926Y00733195D01*
X0074422Y00732761D01*
X00747514Y00733195D01*
X00750584Y00734466D01*
X00753221Y00736489D01*
X00755244Y00739126D01*
X00756233Y00741514D01*
X00757607D01*
X00758596Y00739126D01*
X00760619Y00736489D01*
X00763256Y00734466D01*
X00766326Y00733195D01*
X0076962Y00732761D01*
X00772915Y00733195D01*
X00775984Y00734466D01*
X00778621Y00736489D01*
X00780643Y00739126D01*
X00781633Y00741514D01*
X00783007D01*
X00783997Y00739126D01*
X00786019Y00736489D01*
X00788656Y00734466D01*
X00791725Y00733195D01*
X0079502Y00732761D01*
X00798315Y00733195D01*
X00801384Y00734466D01*
X00804021Y00736489D01*
X00806043Y00739126D01*
X00807033Y00741514D01*
X00808407D01*
X00809397Y00739126D01*
X00811419Y00736489D01*
X00814056Y00734466D01*
X00817125Y00733195D01*
X0082042Y00732761D01*
X00823715Y00733195D01*
X00826784Y00734466D01*
X00829421Y00736489D01*
X00831443Y00739126D01*
X00832715Y00742196D01*
X00833149Y0074549D01*
Y0075311D01*
X00832715Y00756404D01*
X00831443Y00759474D01*
X00829421Y00762111D01*
X00826784Y00764134D01*
X00823715Y00765405D01*
X0082042Y00765839D01*
D02*
G37*
G36*
X0088646Y00824248D02*
X0086106D01*
X00859109Y0082386D01*
X00857455Y00822755D01*
X0085635Y00821101D01*
X00855962Y0081915D01*
Y0080137D01*
X0085635Y00799419D01*
X00857455Y00797765D01*
X00859109Y0079666D01*
X00860154Y00796452D01*
X00860471Y00795094D01*
X00860043Y00794766D01*
X00857817Y00791865D01*
X00856417Y00788486D01*
X0085594Y0078486D01*
X00856417Y00781234D01*
X00857817Y00777855D01*
X00860043Y00774954D01*
X00862945Y00772727D01*
X00866324Y00771328D01*
X0086995Y0077085D01*
X0087757D01*
X00881196Y00771328D01*
X00884575Y00772727D01*
X00887477Y00774954D01*
X00889703Y00777855D01*
X00891103Y00781234D01*
X0089158Y0078486D01*
X00891103Y00788486D01*
X00889703Y00791865D01*
X00887477Y00794766D01*
X00887049Y00795094D01*
X00887366Y00796452D01*
X00888411Y0079666D01*
X00890065Y00797765D01*
X0089117Y00799419D01*
X00891558Y0080137D01*
Y0081915D01*
X0089117Y00821101D01*
X00890065Y00822755D01*
X00888411Y0082386D01*
X0088646Y00824248D01*
D02*
G37*
G36*
X0114808Y01038878D02*
X01145117Y01038488D01*
X01142356Y01037344D01*
X01139985Y01035525D01*
X01138166Y01033154D01*
X01137022Y01030393D01*
X01136632Y0102743D01*
X01137022Y01024467D01*
X01138166Y01021706D01*
X01139985Y01019335D01*
X01142356Y01017516D01*
X01145117Y01016372D01*
X01146018Y01016254D01*
X01188775Y00973497D01*
Y00746083D01*
X01170347Y00727655D01*
X0112014D01*
X01118182Y00727397D01*
X01116358Y00726641D01*
X01114791Y00725439D01*
X01097943Y00708591D01*
X0109728Y00708678D01*
X01094317Y00708288D01*
X01091556Y00707144D01*
X01089185Y00705325D01*
X01087366Y00702954D01*
X01086222Y00700193D01*
X01085832Y0069723D01*
X01086222Y00694267D01*
X01087366Y00691506D01*
X01089185Y00689135D01*
X01091556Y00687316D01*
X01094317Y00686172D01*
X0109728Y00685782D01*
X01100243Y00686172D01*
X01103004Y00687316D01*
X01105375Y00689135D01*
X01107194Y00691506D01*
X01108338Y00694267D01*
X01108728Y0069723D01*
X01108641Y00697893D01*
X01123273Y00712525D01*
X0117348D01*
X01175438Y00712783D01*
X01177262Y00713539D01*
X01178829Y00714741D01*
X01201689Y00737601D01*
X01202891Y00739168D01*
X01203647Y00740992D01*
X01203905Y0074295D01*
Y0097663D01*
X01203905Y0097663D01*
X01203647Y00978588D01*
X01202891Y00980412D01*
X01201689Y00981979D01*
X01201689Y00981979D01*
X01159145Y01024523D01*
X01159528Y0102743D01*
X01159138Y01030393D01*
X01157994Y01033154D01*
X01156175Y01035525D01*
X01153804Y01037344D01*
X01151043Y01038488D01*
X0114808Y01038878D01*
D02*
G37*
G36*
X009804Y00537561D02*
Y0052574D01*
X00992221D01*
X00992051Y00527032D01*
X00990588Y00530565D01*
X00988259Y00533599D01*
X00985225Y00535928D01*
X00981692Y00537391D01*
X009804Y00537561D01*
D02*
G37*
G36*
X0055499Y00608275D02*
X0033274D01*
X00330782Y00608017D01*
X00328958Y00607261D01*
X00327391Y00606059D01*
X00327391Y00606059D01*
X00296911Y00575579D01*
X00295709Y00574012D01*
X00294953Y00572188D01*
X00294695Y0057023D01*
Y0049149D01*
X00294953Y00489532D01*
X00295709Y00487708D01*
X00296911Y00486141D01*
X00312846Y00470206D01*
X00312982Y00469177D01*
X00314241Y00466136D01*
X00316245Y00463525D01*
X00318856Y00461521D01*
X00321583Y00460392D01*
X00321583Y0046039D01*
Y0045909D01*
X00321583Y00459088D01*
X00318856Y00457959D01*
X00316245Y00455955D01*
X00314241Y00453344D01*
X00312982Y00450303D01*
X00312552Y0044704D01*
X00312982Y00443777D01*
X00314241Y00440736D01*
X00316245Y00438125D01*
X00318856Y00436121D01*
X00321897Y00434862D01*
X0032516Y00434432D01*
X0033016D01*
X00333423Y00434862D01*
X00336464Y00436121D01*
X00339075Y00438125D01*
X00339725Y00438972D01*
X00340995D01*
X00341645Y00438125D01*
X00344256Y00436121D01*
X00347297Y00434862D01*
X0035056Y00434432D01*
X0035056D01*
Y0044704D01*
X0035306D01*
Y0044954D01*
X00367839D01*
X00367738Y00450303D01*
X00366479Y00453344D01*
X00364475Y00455955D01*
X00361864Y00457959D01*
X00359137Y00459088D01*
X00359137Y0045909D01*
Y0046039D01*
X00359137Y00460392D01*
X00361864Y00461521D01*
X00364475Y00463525D01*
X00366479Y00466136D01*
X00367738Y00469177D01*
X00367839Y0046994D01*
X0035306D01*
Y0047494D01*
X00367839D01*
X00367738Y00475703D01*
X00366479Y00478744D01*
X00364475Y00481355D01*
X00361864Y00483359D01*
X00359137Y00484488D01*
X00359137Y0048449D01*
Y0048579D01*
X00359137Y00485792D01*
X00361864Y00486921D01*
X00364475Y00488925D01*
X00366479Y00491536D01*
X00367738Y00494577D01*
X00367839Y0049534D01*
X0035306D01*
Y0050034D01*
X00367839D01*
X00367738Y00501103D01*
X00366479Y00504144D01*
X00364475Y00506755D01*
X00361864Y00508759D01*
X00359137Y00509888D01*
X00359137Y0050989D01*
Y0051119D01*
X00359137Y00511192D01*
X00361864Y00512321D01*
X00364475Y00514325D01*
X00366479Y00516936D01*
X00367738Y00519977D01*
X00367839Y0052074D01*
X0035306D01*
Y0052574D01*
X00367839D01*
X00367738Y00526503D01*
X00366479Y00529544D01*
X00364475Y00532155D01*
X00361864Y00534159D01*
X00359137Y00535288D01*
X00359137Y0053529D01*
Y0053659D01*
X00359137Y00536592D01*
X00361864Y00537721D01*
X00364475Y00539725D01*
X00366479Y00542336D01*
X00367738Y00545377D01*
X00368168Y0054864D01*
X00367738Y00551903D01*
X00366479Y00554944D01*
X00364475Y00557555D01*
X00361864Y00559559D01*
X00358823Y00560818D01*
X0035556Y00561248D01*
X0035056D01*
X00347297Y00560818D01*
X00344256Y00559559D01*
X00343098Y0055867D01*
X00341845Y00558877D01*
X00341265Y00559745D01*
X00339611Y0056085D01*
X0033766Y00561238D01*
X00336242D01*
X00335716Y00562508D01*
X00348573Y00575365D01*
X00522647D01*
X00539558Y00558454D01*
X00538839Y00557377D01*
X00536663Y00558278D01*
X005334Y00558708D01*
X00530137Y00558278D01*
X00527096Y00557019D01*
X00524485Y00555015D01*
X00522481Y00552404D01*
X00521352Y00549677D01*
X0052135Y00549677D01*
X0052005D01*
X00520048Y00549677D01*
X00518919Y00552404D01*
X00516915Y00555015D01*
X00514304Y00557019D01*
X00511263Y00558278D01*
X00508Y00558708D01*
X00504737Y00558278D01*
X00501696Y00557019D01*
X00499085Y00555015D01*
X00497081Y00552404D01*
X00495952Y00549677D01*
X0049595Y00549677D01*
X0049465D01*
X00494648Y00549677D01*
X00493519Y00552404D01*
X00491515Y00555015D01*
X00488904Y00557019D01*
X00485863Y00558278D01*
X004826Y00558708D01*
X00479337Y00558278D01*
X00476296Y00557019D01*
X00473685Y00555015D01*
X00471681Y00552404D01*
X00470552Y00549677D01*
X0047055Y00549677D01*
X0046925D01*
X00469248Y00549677D01*
X00468119Y00552404D01*
X00466115Y00555015D01*
X00463504Y00557019D01*
X00460463Y00558278D01*
X004572Y00558708D01*
X00453937Y00558278D01*
X00450896Y00557019D01*
X00448285Y00555015D01*
X00446281Y00552404D01*
X00445668Y00550923D01*
X00444398Y00551176D01*
Y005536D01*
X0044401Y00555551D01*
X00442905Y00557205D01*
X00441251Y0055831D01*
X004393Y00558698D01*
X004243D01*
X00422349Y0055831D01*
X00420695Y00557205D01*
X0041959Y00555551D01*
X00419202Y005536D01*
Y005386D01*
X0041959Y00536649D01*
X00420695Y00534995D01*
X00422349Y0053389D01*
X00424235Y00533515D01*
Y0051435D01*
X00424493Y00512392D01*
X00425249Y00510568D01*
X00426451Y00509001D01*
X00439151Y00496301D01*
X00440718Y00495099D01*
X00442542Y00494343D01*
X004445Y00494085D01*
X004445Y00494085D01*
X00522647D01*
X005253Y00491432D01*
X00525214Y00489884D01*
X00523856Y00488842D01*
X00521711Y00486047D01*
X00521335Y00485139D01*
X00520065D01*
X00519689Y00486047D01*
X00517544Y00488842D01*
X00514749Y00490987D01*
X00511493Y00492336D01*
X00508Y00492795D01*
X00504507Y00492336D01*
X00501251Y00490987D01*
X00498456Y00488842D01*
X00496311Y00486047D01*
X00494963Y00482791D01*
X00494502Y00479298D01*
Y00470662D01*
X00494963Y00467169D01*
X00496311Y00463913D01*
X00498456Y00461118D01*
X00501251Y00458973D01*
X00504507Y00457625D01*
X00508Y00457164D01*
X00511493Y00457625D01*
X00514749Y00458973D01*
X00517544Y00461118D01*
X00519689Y00463913D01*
X00520065Y00464821D01*
X00521335D01*
X00521711Y00463913D01*
X00523856Y00461118D01*
X00526651Y00458973D01*
X00529907Y00457625D01*
X005334Y00457164D01*
X00536893Y00457625D01*
X00540149Y00458973D01*
X00542944Y00461118D01*
X00545089Y00463913D01*
X00545465Y00464821D01*
X00546735D01*
X00547111Y00463913D01*
X00549256Y00461118D01*
X00552051Y00458973D01*
X00555307Y00457625D01*
X005563Y00457494D01*
Y0047498D01*
Y00492466D01*
X00555307Y00492336D01*
X00552051Y00490987D01*
X00549256Y00488842D01*
X00547111Y00486047D01*
X00546735Y00485139D01*
X00545465D01*
X00545089Y00486047D01*
X00542944Y00488842D01*
X00540965Y00490361D01*
Y0049403D01*
X00540707Y00495988D01*
X00539951Y00497812D01*
X00538749Y00499379D01*
X00531129Y00506999D01*
X00529562Y00508201D01*
X00527738Y00508957D01*
X0052578Y00509215D01*
X00447633D01*
X00439365Y00517483D01*
Y00533515D01*
X00441251Y0053389D01*
X00442905Y00534995D01*
X0044401Y00536649D01*
X00444398Y005386D01*
Y00541024D01*
X00445668Y00541277D01*
X00446281Y00539796D01*
X00448285Y00537185D01*
X00450385Y00535573D01*
X00450401Y00535084D01*
X00450126Y00534173D01*
X00447666Y00533154D01*
X00445295Y00531335D01*
X00443476Y00528964D01*
X00442332Y00526203D01*
X00441942Y0052324D01*
X00442332Y00520277D01*
X00443476Y00517516D01*
X00445295Y00515145D01*
X00447666Y00513326D01*
X00450427Y00512182D01*
X0045339Y00511792D01*
X00456353Y00512182D01*
X00459114Y00513326D01*
X00461485Y00515145D01*
X00461892Y00515675D01*
X005588D01*
X00560758Y00515933D01*
X00562582Y00516689D01*
X00564149Y00517891D01*
X00580402Y00534143D01*
X00580937Y00533922D01*
X005842Y00533492D01*
X00587463Y00533922D01*
X00590504Y00535181D01*
X00593115Y00537185D01*
X00595119Y00539796D01*
X00596248Y00542523D01*
X0059625Y00542523D01*
X0059755D01*
X00597552Y00542523D01*
X00598681Y00539796D01*
X00600685Y00537185D01*
X00603296Y00535181D01*
X00606337Y00533922D01*
X006096Y00533492D01*
X00612863Y00533922D01*
X00615904Y00535181D01*
X00618515Y00537185D01*
X00620519Y00539796D01*
X00621778Y00542837D01*
X00622208Y005461D01*
X00621778Y00549363D01*
X00620519Y00552404D01*
X00618515Y00555015D01*
X00615904Y00557019D01*
X00612863Y00558278D01*
X006096Y00558708D01*
X00607912Y00558486D01*
X00560339Y00606059D01*
X00558772Y00607261D01*
X00556948Y00608017D01*
X0055499Y00608275D01*
D02*
G37*
G36*
X009169Y00537561D02*
Y0052574D01*
X00928721D01*
X00928551Y00527032D01*
X00927088Y00530565D01*
X00924759Y00533599D01*
X00921725Y00535928D01*
X00918192Y00537391D01*
X009169Y00537561D01*
D02*
G37*
G36*
X009754D02*
X00974108Y00537391D01*
X00970575Y00535928D01*
X00967541Y00533599D01*
X00965212Y00530565D01*
X00963749Y00527032D01*
X00963579Y0052574D01*
X009754D01*
Y00537561D01*
D02*
G37*
G36*
X0110236Y0058615D02*
X01098568Y00585651D01*
X01095035Y00584188D01*
X01092001Y00581859D01*
X01089856Y00579065D01*
X01051364D01*
X01049219Y00581859D01*
X01046185Y00584188D01*
X01042652Y00585651D01*
X0103886Y0058615D01*
X01035068Y00585651D01*
X01031535Y00584188D01*
X01028501Y00581859D01*
X01026172Y00578825D01*
X01024709Y00575292D01*
X0102421Y005715D01*
X01024709Y00567708D01*
X01026172Y00564175D01*
X01028501Y00561141D01*
X01031535Y00558812D01*
X01035068Y00557349D01*
X0103886Y0055685D01*
X01042652Y00557349D01*
X01046185Y00558812D01*
X01049219Y00561141D01*
X01051364Y00563935D01*
X01089856D01*
X01092001Y00561141D01*
X01095035Y00558812D01*
X01098568Y00557349D01*
X0110236Y0055685D01*
X01106152Y00557349D01*
X01109685Y00558812D01*
X01112719Y00561141D01*
X01115048Y00564175D01*
X01116511Y00567708D01*
X0111701Y005715D01*
X01116511Y00575292D01*
X01115048Y00578825D01*
X01112719Y00581859D01*
X01109685Y00584188D01*
X01106152Y00585651D01*
X0110236Y0058615D01*
D02*
G37*
G36*
X01143Y00705799D02*
X01138481Y00705443D01*
X01134073Y00704385D01*
X01129885Y0070265D01*
X01126019Y00700282D01*
X01122572Y00697338D01*
X01119628Y00693891D01*
X0111726Y00690025D01*
X01115525Y00685837D01*
X01114467Y00681429D01*
X01114111Y0067691D01*
X01114467Y00672391D01*
X01115525Y00667983D01*
X0111726Y00663795D01*
X01119628Y00659929D01*
X01122572Y00656482D01*
X01126019Y00653538D01*
X01129885Y0065117D01*
X01134073Y00649435D01*
X01138481Y00648377D01*
X01143Y00648021D01*
X01147519Y00648377D01*
X01151927Y00649435D01*
X01156115Y0065117D01*
X01159981Y00653538D01*
X01163428Y00656482D01*
X01166372Y00659929D01*
X0116874Y00663795D01*
X01170475Y00667983D01*
X01171533Y00672391D01*
X01171889Y0067691D01*
X01171533Y00681429D01*
X01170475Y00685837D01*
X0116874Y00690025D01*
X01166372Y00693891D01*
X01163428Y00697338D01*
X01159981Y00700282D01*
X01156115Y0070265D01*
X01151927Y00704385D01*
X01147519Y00705443D01*
X01143Y00705799D01*
D02*
G37*
G36*
X0088646Y00753128D02*
X0086106D01*
X00859109Y0075274D01*
X00857455Y00751635D01*
X0085635Y00749981D01*
X00855962Y0074803D01*
Y0073025D01*
X0085635Y00728299D01*
X00857455Y00726645D01*
X00859109Y0072554D01*
X00860154Y00725332D01*
X00860471Y00723974D01*
X00860043Y00723646D01*
X00857817Y00720745D01*
X00856417Y00717366D01*
X0085594Y0071374D01*
X00856417Y00710114D01*
X00857817Y00706735D01*
X00860043Y00703833D01*
X00862945Y00701607D01*
X00866324Y00700208D01*
X0086995Y0069973D01*
X0087757D01*
X00881196Y00700208D01*
X00884575Y00701607D01*
X00887477Y00703833D01*
X00889703Y00706735D01*
X00891103Y00710114D01*
X0089158Y0071374D01*
X00891103Y00717366D01*
X00889703Y00720745D01*
X00887477Y00723646D01*
X00887049Y00723974D01*
X00887366Y00725332D01*
X00888411Y0072554D01*
X00890065Y00726645D01*
X0089117Y00728299D01*
X00891558Y0073025D01*
Y0074803D01*
X0089117Y00749981D01*
X00890065Y00751635D01*
X00888411Y0075274D01*
X0088646Y00753128D01*
D02*
G37*
G36*
X0032512Y00670281D02*
X00320219Y00669798D01*
X00315507Y00668369D01*
X00311164Y00666047D01*
X00307357Y00662923D01*
X00304233Y00659116D01*
X00301911Y00654773D01*
X00300482Y00650061D01*
X00299999Y0064516D01*
X00300482Y00640259D01*
X00301911Y00635547D01*
X00304233Y00631204D01*
X00307357Y00627397D01*
X00311164Y00624273D01*
X00315507Y00621951D01*
X00320219Y00620522D01*
X0032512Y00620039D01*
X00330021Y00620522D01*
X00334733Y00621951D01*
X00339076Y00624273D01*
X00342883Y00627397D01*
X00346007Y00631204D01*
X00348329Y00635547D01*
X00349758Y00640259D01*
X00350241Y0064516D01*
X00349758Y00650061D01*
X00348329Y00654773D01*
X00346007Y00659116D01*
X00342883Y00662923D01*
X00339076Y00666047D01*
X00334733Y00668369D01*
X00330021Y00669798D01*
X0032512Y00670281D01*
D02*
G37*
G36*
X0107512D02*
X01070219Y00669798D01*
X01065507Y00668369D01*
X01061164Y00666047D01*
X01057357Y00662923D01*
X01054233Y00659116D01*
X01051911Y00654773D01*
X01050482Y00650061D01*
X01049999Y0064516D01*
X01050482Y00640259D01*
X01051911Y00635547D01*
X01054233Y00631204D01*
X01057357Y00627397D01*
X01061164Y00624273D01*
X01065507Y00621951D01*
X01070219Y00620522D01*
X0107512Y00620039D01*
X01080021Y00620522D01*
X01084733Y00621951D01*
X01089077Y00624273D01*
X01092883Y00627397D01*
X01096007Y00631204D01*
X01098329Y00635547D01*
X01099758Y00640259D01*
X01100241Y0064516D01*
X01099758Y00650061D01*
X01098329Y00654773D01*
X01096007Y00659116D01*
X01092883Y00662923D01*
X01089077Y00666047D01*
X01084733Y00668369D01*
X01080021Y00669798D01*
X0107512Y00670281D01*
D02*
G37*
%LPD*%
D12*
X004318Y0108077D02*
X0061722D01*
X004064Y0110617D02*
X004318Y0108077D01*
X0033274Y0102571D02*
X0035354Y0100491D01*
X0033274Y0102571D02*
Y0107061D01*
X0068546Y0122843D02*
X006985Y0121539D01*
X005161Y0122843D02*
X0068546D01*
X0032004Y0120811D02*
Y0121539D01*
Y0118985D02*
Y0120811D01*
X0034592D01*
X0028194Y0115175D02*
X0032004Y0118985D01*
Y0121539D02*
X0033528Y0123063D01*
X0046564D01*
X0048816Y0120811D01*
X0028194Y0105283D02*
Y0115175D01*
X0074135Y0116588D02*
X0085215D01*
X009525Y0106553D01*
X0072946Y0117777D02*
X0074135Y0116588D01*
X0072946Y0117777D02*
X0073708Y0118539D01*
X0071501Y0116332D02*
X0072946Y0117777D01*
X0064008Y0108839D02*
X0071501Y0116332D01*
X0073708Y0118539D02*
Y0121065D01*
X0041611Y0102362D02*
X0061341D01*
X0039116Y0104857D02*
X0041611Y0102362D01*
X0039116Y0104857D02*
Y0105283D01*
X006985Y0117983D02*
Y0121539D01*
Y0117983D02*
X0071501Y0116332D01*
X0028194Y0091313D02*
Y0105283D01*
X0030226D01*
X0032004Y0108331D02*
X0033274Y0107061D01*
X0028812Y0113555D02*
X0032216D01*
X0028194Y0091313D02*
X0030607Y00889D01*
X0028702Y0110617D02*
X004064D01*
X004318Y0111125D02*
X004953D01*
X0064008Y0102997D02*
Y0108839D01*
X009017Y003175D02*
X009271Y003429D01*
Y0037465D01*
X0095504Y0040259D01*
X0106172D01*
X0113284Y0033147D01*
X0064008Y0102997D02*
X0065278Y0101727D01*
X0087757Y002921D02*
X009017D01*
X0086487Y003048D02*
X0087757Y002921D01*
X0083058Y003048D02*
X0086487D01*
X0083058Y003302D02*
X0088519D01*
X0089789Y003175D01*
X009017D01*
X0084455Y0036322D02*
X0089662D01*
X0084074Y0035941D02*
X0084455Y0036322D01*
X0083058Y003556D02*
X0083439Y0035941D01*
X007747Y003556D02*
X0083058D01*
X00762Y003429D02*
X007747Y003556D01*
X0071374Y003429D02*
X00762D01*
X008001Y003302D02*
X0083058D01*
X0071374Y002921D02*
X00762D01*
X0067945D02*
X0068707Y0029972D01*
X006604Y002921D02*
X0067945D01*
X006604Y003429D02*
X0068707D01*
X0071374D01*
X006604Y003175D02*
X006858D01*
X0068707Y0031877D01*
Y0029972D02*
Y0031877D01*
Y003429D01*
X0058166Y0038481D02*
X0067183D01*
X0071374Y003429D01*
X0042926Y0040894D02*
X0045339Y0038481D01*
X0058166D01*
X0114173Y0106553D02*
X0118364Y0110744D01*
X009525Y0106553D02*
X0114173D01*
X0059182Y0086995D02*
Y009017D01*
X0054102Y0087249D02*
Y009017D01*
Y0087249D02*
X0058674D01*
X0059182Y0086995D02*
X0061087Y008509D01*
X006223D01*
X0032258Y0087249D02*
X0054102D01*
X0032004Y0068961D02*
X0056642D01*
X003302Y0071247D02*
X0059182D01*
Y0066421D02*
Y0071247D01*
Y007493D01*
X0054102Y008509D02*
X005715D01*
X0121666Y0044831D02*
X0122428Y0044069D01*
Y0042418D02*
Y0044069D01*
X0116078Y0042418D02*
X0122428D01*
X0103886D02*
X0110236D01*
X009144D02*
X009779D01*
X009144Y0052324D02*
X009779D01*
X0103886Y005207D02*
X0110236D01*
X0116078D02*
X0122428D01*
X0060833Y0047498D02*
X0062484Y0045847D01*
X005588Y0047498D02*
X0060833D01*
X0061341Y0044704D02*
X0062484Y0045847D01*
X0035306Y0044704D02*
X0061341D01*
X0062484Y0045847D02*
X0062992D01*
X0062484D02*
X0062738Y0046101D01*
X0059182Y0066421D02*
X0062738Y0062865D01*
X0061976Y0068961D02*
X0064516Y0066421D01*
X0062738Y0046101D02*
Y0062865D01*
X0064516Y0050165D02*
Y0066421D01*
X0062484Y0045847D02*
X00635Y0044831D01*
X0030607Y00889D02*
X0032258Y0087249D01*
X008636Y0090297D02*
Y0096012D01*
Y0090297D02*
X009017Y0094107D01*
Y0096012D01*
X009779Y0042418D02*
Y0044831D01*
X00635D02*
X009779D01*
X0110236Y0042418D02*
Y0044577D01*
X0109982Y0044831D02*
X0110236Y0044577D01*
X009779Y0044831D02*
X0109982D01*
X0121666D01*
X012192Y0049911D02*
X0122428Y0050419D01*
Y005207D01*
X0110236Y0049911D02*
Y005207D01*
X009779Y0049911D02*
Y0052324D01*
X0075184Y0049911D02*
X009779D01*
X0110236D01*
X0062992Y0045847D02*
X0067056Y0049911D01*
X0075184D01*
Y004699D02*
Y0049911D01*
X0113792D02*
Y0053213D01*
X0110236Y0049911D02*
X0113792D01*
X012192D01*
X0102616Y0086614D02*
Y0091313D01*
X0099822Y008382D02*
X0102616Y0086614D01*
X0107569D01*
X0108712Y0085471D01*
X010541Y0078486D02*
X0107569D01*
X0108712Y0079629D01*
Y0085471D01*
X0076112Y0095516D02*
X0076227Y0095631D01*
X0076112Y0095516D02*
Y0097243D01*
X0071628Y0101727D02*
X0076112Y0097243D01*
X0065278Y0101727D02*
X0071628D01*
X0073572Y0095516D02*
Y0096481D01*
X0071374Y0098679D02*
X0073572Y0096481D01*
X0065024Y0098679D02*
X0071374D01*
X0061341Y0102362D02*
X0065024Y0098679D01*
X0040552Y0095516D02*
Y0098259D01*
X0028702Y0098425D02*
X00311784D01*
X00312694Y0098516D01*
X0040295D01*
X0040552Y0098259D01*
X00762Y002921D02*
X008001Y003302D01*
X0033401Y008509D02*
X0054102D01*
X0031242Y0082931D02*
X0033401Y008509D01*
X0031242Y0073025D02*
X003302Y0071247D01*
X0031242Y0073025D02*
Y0082931D01*
X0029718Y0088011D02*
X0030607Y00889D01*
X0029718Y0071247D02*
X0032004Y0068961D01*
X0029718Y0071247D02*
Y0088011D01*
X005715Y0084709D02*
Y008509D01*
X0054102Y0082931D02*
Y008509D01*
X0070993Y0082931D02*
X0071882Y0082042D01*
X0056134D02*
X0057023Y0082931D01*
X0070993D01*
X0054991Y0082042D02*
X0056134D01*
X0054102Y0082931D02*
X0054991Y0082042D01*
D13*
X0050326Y0117001D02*
X0053896D01*
X004953Y0116205D02*
X0050326Y0117001D01*
X0057706Y0111887D02*
Y0120811D01*
Y0111887D02*
X005923Y0110363D01*
X0085906Y0123345D02*
X0087932Y0121319D01*
X0080306Y0123345D02*
X0085906D01*
X0078788Y0121827D02*
X0080306Y0123345D01*
X0078788Y0121065D02*
Y0121827D01*
X0073708Y0110143D02*
Y0113445D01*
Y0110143D02*
X0076536Y0107315D01*
X0084328D01*
X0076241Y0113438D02*
X0076248Y0113445D01*
X0076241Y0110658D02*
Y0113438D01*
X0078314Y0108585D02*
X0085852D01*
X0076241Y0110658D02*
X0078314Y0108585D01*
X0084179Y0115338D02*
X0098298Y0101219D01*
X00730817Y0115338D02*
X0084179D01*
X006604Y01082963D02*
X00730817Y0115338D01*
X006604Y010541D02*
Y01082963D01*
X0078026Y0118525D02*
X0093184D01*
X0076248Y0120303D02*
X0078026Y0118525D01*
X0076248Y0120303D02*
Y0121065D01*
X0093184Y0118525D02*
X0098044Y0113665D01*
X007493Y0103759D02*
X00768178D01*
X007366Y0105029D02*
X007493Y0103759D01*
X007366Y0105029D02*
Y010541D01*
X0073488Y0102743D02*
X0075946D01*
X007112Y0105111D02*
X0073488Y0102743D01*
X007112Y0105111D02*
Y010541D01*
X0039198Y0100457D02*
X0041148D01*
X0035306Y0104349D02*
X0039198Y0100457D01*
X0035306Y0104349D02*
Y0108331D01*
X004318Y0116205D02*
X004953D01*
X005923Y0110363D02*
X0061722D01*
X0107188Y0075819D02*
X0110236Y0078867D01*
X0103378Y0075819D02*
X0107188D01*
X0100457Y007874D02*
X0103378Y0075819D01*
X0099822Y007874D02*
X0100457D01*
X0110236Y0080312D02*
X011288Y0082956D01*
X0110236Y0078867D02*
Y0080312D01*
X0051562Y0093599D02*
X0061495D01*
X00508Y0092837D02*
X0051562Y0093599D01*
X0045974Y0092837D02*
X00508D01*
X0092456Y0093218D02*
Y0099187D01*
X0084328Y0107315D02*
X0092456Y0099187D01*
X008636Y0087122D02*
X0092456Y0093218D01*
X0098044Y0110744D02*
Y0113665D01*
X0071882Y0089281D02*
Y009017D01*
Y0089281D02*
X007366Y0087503D01*
X00827868D01*
X0078994Y0082931D02*
X0080518Y0084455D01*
X0078994Y0080391D02*
Y0082931D01*
X0052578Y0050165D02*
X005334Y0049403D01*
Y0047498D02*
Y0049403D01*
X0088519Y0060325D02*
X009144Y0057404D01*
X007239Y005461D02*
Y0058801D01*
X0073914Y0060325D01*
X0088519D01*
X0067056Y004064D02*
X0069977D01*
X0071374Y0042037D01*
X007747Y005461D02*
X0080645Y0057785D01*
X0088138D01*
X008001Y005461D02*
X0082423Y0052197D01*
X0087122D01*
X0089662Y0054737D01*
X0113665D01*
X0116078Y005715D01*
X004318Y0051435D02*
Y005461D01*
Y0051435D02*
X004445Y0050165D01*
X0052578D01*
X0032766Y0054864D02*
Y0056515D01*
X0034544Y0058293D01*
X0032131Y0047244D02*
X0032766D01*
X0030226Y0049149D02*
X0032131Y0047244D01*
X0030226Y0049149D02*
Y0057023D01*
X0033274Y0060071D01*
X0055499D01*
X006096Y005461D01*
X0034544Y0058293D02*
X0052578D01*
X005588Y0054991D01*
Y005461D02*
Y0054991D01*
X0041148Y0047117D02*
Y0052451D01*
X0045339Y0052324D02*
X005588D01*
X0058166Y005461D01*
X005842D01*
X0092202Y008128D02*
X0094361D01*
X0099314Y0086233D01*
X010541Y0067691D02*
Y0070866D01*
X0100838Y0063119D02*
X010541Y0067691D01*
X0088138Y0065405D02*
X0090424Y0063119D01*
X0100838D01*
X0088138Y0065405D02*
Y0067691D01*
X0091567Y007112D01*
X0092202D01*
X0038862Y009017D02*
Y0092837D01*
X0039878Y0093853D01*
X0046482Y009017D02*
Y0091059D01*
X007112Y010541D02*
X0071501D01*
X007874D02*
X0084582Y0099568D01*
X00827868Y0087503D02*
X0083566Y00882822D01*
X0084582Y0087884D02*
Y0099568D01*
X00762Y010541D02*
X0076581D01*
X0083566Y0098425D01*
Y00882822D02*
Y0098425D01*
X0080772Y0093599D02*
Y0097917D01*
X0075946Y0102743D02*
X0080772Y0097917D01*
X0082296Y00937088D02*
Y00982808D01*
X00768178Y0103759D02*
X0082296Y00982808D01*
X0043092Y0095516D02*
Y0098513D01*
X0041148Y0100457D02*
X0043092Y0098513D01*
X0066802Y007493D02*
X0078867Y0062865D01*
X0085852D01*
X0069342Y007493D02*
X0078867Y0065405D01*
X0085852D01*
X009525Y0070993D02*
X0099695D01*
X0099822Y007112D01*
X0094742Y0088519D02*
Y0089027D01*
X0099822Y007112D02*
X0100457D01*
X0114808Y0102489D02*
Y0102743D01*
X0109728Y0069723D02*
X0112014Y0072009D01*
X0117348D01*
X0119634Y0074295D01*
Y0097663D01*
X0114808Y0102489D02*
X0119634Y0097663D01*
X0051562Y009017D02*
Y0091059D01*
X0061495Y0093599D02*
X0063412Y0095516D01*
X0051562Y0091059D02*
X0053086Y0092583D01*
X0080264Y0093091D02*
X0080772Y0093599D01*
X00806782Y0092091D02*
X0082296Y00937088D01*
X0069342Y009017D02*
X0071263Y0092091D01*
X00806782D01*
X0066802Y009017D02*
X00668192D01*
X00697402Y0093091D01*
X0080264D01*
X0053086Y0092583D02*
X0067818D01*
X0070751Y0095516D01*
X0071032D01*
X0039878Y0093853D02*
X0049276D01*
X0050712Y0095289D01*
Y0095516D01*
X0043942Y009017D02*
Y0090805D01*
X0045974Y0092837D01*
X0082169Y0085471D02*
X0084582Y0087884D01*
X0074422Y0085471D02*
X0082169D01*
X009144Y0057404D02*
X009779D01*
X0103886Y005715D02*
X0110236D01*
X0116078D02*
X0122428D01*
X0116078Y0047498D02*
X0122428D01*
X0103886D02*
X0110236D01*
X009144D02*
X009779D01*
X0061722Y009017D02*
X0067691Y0084201D01*
X0072644D01*
X0077851Y0078994D01*
X00921573Y0086741D02*
X009652D01*
X00896173Y0084201D02*
X00921573Y0086741D01*
X0077851Y0078994D02*
X0080899D01*
X0086106Y0084201D01*
X00896173D01*
X0088249Y0085201D02*
X009017Y0087122D01*
X0082042Y0082931D02*
X0083058D01*
X0085328Y0085201D01*
X0088249D01*
X0080518Y0084455D02*
X00831678D01*
X00858348Y0087122D01*
X008636D01*
X0094742Y0089027D02*
X0096266Y0090551D01*
Y0100965D01*
X0089662Y0107569D02*
X0096266Y0100965D01*
X009017Y0087122D02*
X0094488Y009144D01*
Y0099949D01*
X0085852Y0108585D02*
X0094488Y0099949D01*
X009652Y0086741D02*
X0098298Y0088519D01*
Y0101219D01*
D15*
X0107512Y0095516D02*
D03*
X0032512D02*
D03*
X0107512Y0064516D02*
D03*
X0032512D02*
D03*
X0028956Y0121793D02*
D03*
X0121158Y0029591D02*
D03*
X0029202Y0029455D02*
D03*
X0121206Y0121573D02*
D03*
D16*
X0076112Y0095516D02*
D03*
X0073572D02*
D03*
X0071032D02*
D03*
X0068492D02*
D03*
X0065952D02*
D03*
X0063412D02*
D03*
X0038012D02*
D03*
X0040552D02*
D03*
X0043092D02*
D03*
X0045632D02*
D03*
X0048172D02*
D03*
X0050712D02*
D03*
X0053252D02*
D03*
X0055792D02*
D03*
X0058332D02*
D03*
X0060872D02*
D03*
D17*
X009017Y002921D02*
D03*
X010541Y0073406D02*
D03*
Y0081026D02*
D03*
X0087376Y0073914D02*
D03*
Y0081026D02*
D03*
D18*
X009017Y003175D02*
D03*
X010541Y0070866D02*
D03*
Y0078486D02*
D03*
X0087376Y0071374D02*
D03*
Y0078486D02*
D03*
D19*
X0037296Y0113555D02*
D03*
X0034756D02*
D03*
D20*
X0032216D02*
D03*
D21*
X010541Y0037719D02*
D03*
D22*
Y0028829D02*
D03*
D23*
X0094996Y0035179D02*
D03*
D24*
Y0032639D02*
D03*
Y0030099D02*
D03*
X0101346D02*
D03*
Y0032639D02*
D03*
Y0035179D02*
D03*
D25*
X0048816Y0120811D02*
D03*
X0057706D02*
D03*
X0067056Y004064D02*
D03*
X0058166D02*
D03*
X009017Y0087122D02*
D03*
Y0096012D02*
D03*
X008636Y0087122D02*
D03*
Y0096012D02*
D03*
X0034592Y0120811D02*
D03*
X0043482D02*
D03*
X0051816Y0040894D02*
D03*
X0042926D02*
D03*
X0039116Y0105283D02*
D03*
X0030226D02*
D03*
X0082296Y004064D02*
D03*
X0073406D02*
D03*
X0056134Y0082042D02*
D03*
Y0079502D02*
D03*
X0071882Y0082042D02*
D03*
Y0079502D02*
D03*
X0053896Y0111921D02*
D03*
Y0117001D02*
D03*
X006223Y008509D02*
D03*
X005715D02*
D03*
X0039116Y0034163D02*
D03*
Y0029083D02*
D03*
X0044704Y0034163D02*
D03*
Y0029083D02*
D03*
X0071374Y003429D02*
D03*
Y002921D02*
D03*
X00762Y003429D02*
D03*
Y002921D02*
D03*
D26*
X0061722Y0110363D02*
D03*
X0089662Y0036322D02*
D03*
D27*
X0061722Y0112903D02*
D03*
X0089662Y0038862D02*
D03*
D28*
X0081328Y0121065D02*
D03*
X0033782Y007493D02*
D03*
D29*
X0078788Y0121065D02*
D03*
X0076248D02*
D03*
X0073708D02*
D03*
X0081328Y0113445D02*
D03*
X0078788D02*
D03*
X0076248D02*
D03*
X0073708D02*
D03*
X0036322Y007493D02*
D03*
X0038862D02*
D03*
X0041402D02*
D03*
X0043942D02*
D03*
X0046482D02*
D03*
X0049022D02*
D03*
X0051562D02*
D03*
X0054102D02*
D03*
X0056642D02*
D03*
X0059182D02*
D03*
X0061722D02*
D03*
X0064262D02*
D03*
X0066802D02*
D03*
X0069342D02*
D03*
X0071882D02*
D03*
X0074422D02*
D03*
X0076962D02*
D03*
X0079502D02*
D03*
X0082042D02*
D03*
X0033782Y009017D02*
D03*
X0036322D02*
D03*
X0038862D02*
D03*
X0041402D02*
D03*
X0043942D02*
D03*
X0046482D02*
D03*
X0049022D02*
D03*
X0051562D02*
D03*
X0054102D02*
D03*
X0056642D02*
D03*
X0059182D02*
D03*
X0061722D02*
D03*
X0064262D02*
D03*
X0066802D02*
D03*
X0069342D02*
D03*
X0071882D02*
D03*
X0074422D02*
D03*
X0076962D02*
D03*
X0079502D02*
D03*
X0082042D02*
D03*
D30*
X006604Y002921D02*
D03*
X006096D02*
D03*
X0033782Y0029083D02*
D03*
D31*
X006604Y003175D02*
D03*
Y003429D02*
D03*
X006096Y003175D02*
D03*
Y003429D02*
D03*
X006985Y005461D02*
D03*
X007239D02*
D03*
X007493D02*
D03*
X007747D02*
D03*
X008001D02*
D03*
X008255D02*
D03*
X008509D02*
D03*
X006858Y010541D02*
D03*
X007112D02*
D03*
X007366D02*
D03*
X00762D02*
D03*
X007874D02*
D03*
X008128D02*
D03*
X008382D02*
D03*
X004572Y005461D02*
D03*
X004826D02*
D03*
X00508D02*
D03*
X005334D02*
D03*
X005588D02*
D03*
X005842D02*
D03*
X006096D02*
D03*
X004445Y010541D02*
D03*
X004699D02*
D03*
X004953D02*
D03*
X005207D02*
D03*
X005461D02*
D03*
X005715D02*
D03*
X005969D02*
D03*
X0033782Y0031623D02*
D03*
Y0034163D02*
D03*
D32*
X0090472Y0121319D02*
D03*
X0087932D02*
D03*
D33*
X0061722Y0080264D02*
D03*
X0066802D02*
D03*
X0116078Y0047498D02*
D03*
X0122428Y0042418D02*
D03*
Y0047498D02*
D03*
X0116078Y0042418D02*
D03*
X0103886Y0047498D02*
D03*
X0110236Y0042418D02*
D03*
Y0047498D02*
D03*
X0103886Y0042418D02*
D03*
X0116078Y005715D02*
D03*
X0122428Y005207D02*
D03*
Y005715D02*
D03*
X0116078Y005207D02*
D03*
X0103886Y005715D02*
D03*
X0110236Y005207D02*
D03*
Y005715D02*
D03*
X0103886Y005207D02*
D03*
X004318Y0116205D02*
D03*
X004953Y0111125D02*
D03*
Y0116205D02*
D03*
X004318Y0111125D02*
D03*
X009144Y0047498D02*
D03*
X009779Y0042418D02*
D03*
Y0047498D02*
D03*
X009144Y0042418D02*
D03*
Y0057404D02*
D03*
X009779Y0052324D02*
D03*
Y0057404D02*
D03*
X009144Y0052324D02*
D03*
D34*
X011288Y0085726D02*
D03*
D35*
Y0074646D02*
D03*
X011572Y0076031D02*
D03*
X011288Y0077416D02*
D03*
Y0080186D02*
D03*
X011572Y0081571D02*
D03*
X011288Y0082956D02*
D03*
X011572Y0084341D02*
D03*
Y0078801D02*
D03*
D36*
X01143Y0092681D02*
D03*
Y0067691D02*
D03*
D37*
X006731Y005461D02*
D03*
X006604Y010541D02*
D03*
X004318Y005461D02*
D03*
X004191Y010541D02*
D03*
D38*
X0092202Y008382D02*
D03*
D39*
Y008128D02*
D03*
Y007874D02*
D03*
Y00762D02*
D03*
Y007366D02*
D03*
Y007112D02*
D03*
Y006858D02*
D03*
Y006604D02*
D03*
X0099822Y008382D02*
D03*
Y008128D02*
D03*
Y007874D02*
D03*
Y00762D02*
D03*
Y007366D02*
D03*
Y007112D02*
D03*
Y006858D02*
D03*
Y006604D02*
D03*
D40*
X0083058Y003048D02*
D03*
D41*
Y003302D02*
D03*
Y003556D02*
D03*
D42*
X0032766Y0044704D02*
D03*
Y0047244D02*
D03*
Y0049784D02*
D03*
Y0052324D02*
D03*
X0035306Y0054864D02*
D03*
Y0052324D02*
D03*
Y0049784D02*
D03*
Y0047244D02*
D03*
Y0044704D02*
D03*
D43*
X0032766Y0054864D02*
D03*
D44*
X0063754Y0118491D02*
D03*
D45*
X0066294D02*
D03*
D46*
X0075184Y004699D02*
D03*
X0072644D02*
D03*
X0070104D02*
D03*
D47*
X0067564D02*
D03*
D48*
X0098044Y0110744D02*
D03*
D49*
X0118364D02*
D03*
D50*
X005588Y0047498D02*
D03*
X005334D02*
D03*
X00508D02*
D03*
D51*
X0113284Y0039497D02*
D03*
Y0033147D02*
D03*
D52*
X0118364Y0036957D02*
D03*
D53*
X0061722Y0108077D02*
D03*
X0035354Y0100491D02*
D03*
X005161Y0122843D02*
D03*
X0032004Y0108331D02*
D03*
X0035306D02*
D03*
X0058166Y0038481D02*
D03*
X0062484Y0045847D02*
D03*
X0056642Y0068961D02*
D03*
X0082042Y0082931D02*
D03*
X0078994Y0080391D02*
D03*
X0061976Y0068961D02*
D03*
X0064516Y0050165D02*
D03*
X0071374Y0042037D02*
D03*
X0088138Y0057785D02*
D03*
X0041148Y0047117D02*
D03*
Y0052451D02*
D03*
X0045339Y0052324D02*
D03*
X008636Y0090297D02*
D03*
X0113792Y0053213D02*
D03*
X0102616Y0091313D02*
D03*
X0099314Y0086233D02*
D03*
X0085852Y0062865D02*
D03*
Y0065405D02*
D03*
X009525Y0070993D02*
D03*
X0094742Y0088519D02*
D03*
X0089662Y0107569D02*
D03*
X0109728Y0069723D02*
D03*
X0114808Y0102743D02*
D03*
X0074422Y0085471D02*
D03*
M02*
