G04 Layer_Color=128*
%FSTAX44Y44*%
%MOMM*%
G71*
G01*
G75*
%ADD107C,0.0508*%
D107*
X0105762Y0095516D02*
X0109262D01*
X0107512Y0093766D02*
Y0097266D01*
X0030762Y0095516D02*
X0034262D01*
X0032512Y0093766D02*
Y0097266D01*
X0105762Y0064516D02*
X0109262D01*
X0107512Y0062766D02*
Y0066266D01*
X0030762Y0064516D02*
X0034262D01*
X0032512Y0062766D02*
Y0066266D01*
X0075612Y0095516D02*
X0076612D01*
X0076112Y0095016D02*
Y0096016D01*
X0073072Y0095516D02*
X0074072D01*
X0073572Y0095016D02*
Y0096016D01*
X0070532Y0095516D02*
X0071532D01*
X0071032Y0095016D02*
Y0096016D01*
X0067992Y0095516D02*
X0068992D01*
X0068492Y0095016D02*
Y0096016D01*
X0065452Y0095516D02*
X0066452D01*
X0065952Y0095016D02*
Y0096016D01*
X0062912Y0095516D02*
X0063912D01*
X0063412Y0095016D02*
Y0096016D01*
X0037512Y0095516D02*
X0038512D01*
X0038012Y0095016D02*
Y0096016D01*
X0040052Y0095516D02*
X0041052D01*
X0040552Y0095016D02*
Y0096016D01*
X0042592Y0095516D02*
X0043592D01*
X0043092Y0095016D02*
Y0096016D01*
X0045132Y0095516D02*
X0046132D01*
X0045632Y0095016D02*
Y0096016D01*
X0047672Y0095516D02*
X0048672D01*
X0048172Y0095016D02*
Y0096016D01*
X0050212Y0095516D02*
X0051212D01*
X0050712Y0095016D02*
Y0096016D01*
X0052752Y0095516D02*
X0053752D01*
X0053252Y0095016D02*
Y0096016D01*
X0055292Y0095516D02*
X0056292D01*
X0055792Y0095016D02*
Y0096016D01*
X0057832Y0095516D02*
X0058832D01*
X0058332Y0095016D02*
Y0096016D01*
X0060372Y0095516D02*
X0061372D01*
X0060872Y0095016D02*
Y0096016D01*
X00897636Y002921D02*
X00905764D01*
X009017Y00288036D02*
Y00296164D01*
X00897636Y003175D02*
X00905764D01*
X009017Y00313436D02*
Y00321564D01*
X0036915Y0113555D02*
X0037677D01*
X0037296Y0113174D02*
Y0113936D01*
X0034375Y0113555D02*
X0035137D01*
X0034756Y0113174D02*
Y0113936D01*
X0031835Y0113555D02*
X0032597D01*
X0032216Y0113174D02*
Y0113936D01*
X0027706Y0121793D02*
X0030206D01*
X0028956Y0120543D02*
Y0123043D01*
X01049655Y0037719D02*
X01058545D01*
X010541Y00372745D02*
Y00381635D01*
X01049655Y0028829D02*
X01058545D01*
X010541Y00283845D02*
Y00292735D01*
X00945515Y0035179D02*
X00954405D01*
X0094996Y00347345D02*
Y00356235D01*
X00945515Y0032639D02*
X00954405D01*
X0094996Y00321945D02*
Y00330835D01*
X00945515Y0030099D02*
X00954405D01*
X0094996Y00296545D02*
Y00305435D01*
X01009015Y0030099D02*
X01017905D01*
X0101346Y00296545D02*
Y00305435D01*
X01009015Y0032639D02*
X01017905D01*
X0101346Y00321945D02*
Y00330835D01*
X01009015Y0035179D02*
X01017905D01*
X0101346Y00347345D02*
Y00356235D01*
X0119908Y0029591D02*
X0122408D01*
X0121158Y0028341D02*
Y0030841D01*
X0027952Y0029455D02*
X0030452D01*
X0029202Y0028205D02*
Y0030705D01*
X0119956Y0121573D02*
X0122456D01*
X0121206Y0120323D02*
Y0122823D01*
X00484223Y0120811D02*
X00492097D01*
X0048816Y01204173D02*
Y01212047D01*
X00573123Y0120811D02*
X00580997D01*
X0057706Y01204173D02*
Y01212047D01*
X00613156Y0110363D02*
X00621284D01*
X0061722Y01099566D02*
Y01107694D01*
X00613156Y0112903D02*
X00621284D01*
X0061722Y01124966D02*
Y01133094D01*
X00809343Y0121065D02*
X00817217D01*
X0081328Y01206713D02*
Y01214587D01*
X00783943Y0121065D02*
X00791817D01*
X0078788Y01206713D02*
Y01214587D01*
X00758543Y0121065D02*
X00766417D01*
X0076248Y01206713D02*
Y01214587D01*
X00733143Y0121065D02*
X00741017D01*
X0073708Y01206713D02*
Y01214587D01*
X00809343Y0113445D02*
X00817217D01*
X0081328Y01130513D02*
Y01138387D01*
X00783943Y0113445D02*
X00791817D01*
X0078788Y01130513D02*
Y01138387D01*
X00758543Y0113445D02*
X00766417D01*
X0076248Y01130513D02*
Y01138387D01*
X00733143Y0113445D02*
X00741017D01*
X0073708Y01130513D02*
Y01138387D01*
X006559Y002921D02*
X006649D01*
X006604Y002876D02*
Y002966D01*
X006559Y003175D02*
X006649D01*
X006604Y00313D02*
Y00322D01*
X006559Y003429D02*
X006649D01*
X006604Y003384D02*
Y003474D01*
X006051Y002921D02*
X006141D01*
X006096Y002876D02*
Y002966D01*
X006051Y003175D02*
X006141D01*
X006096Y00313D02*
Y00322D01*
X006051Y003429D02*
X006141D01*
X006096Y003384D02*
Y003474D01*
X00900656Y0121319D02*
X00908784D01*
X0090472Y01209126D02*
Y01217254D01*
X00875256Y0121319D02*
X00883384D01*
X0087932Y01209126D02*
Y01217254D01*
X00612902Y0080264D02*
X00621538D01*
X0061722Y00798322D02*
Y00806958D01*
X00663702Y0080264D02*
X00672338D01*
X0066802Y00798322D02*
Y00806958D01*
X01156843Y0047498D02*
X01164717D01*
X0116078Y00471043D02*
Y00478917D01*
X01220343Y0042418D02*
X01228217D01*
X0122428Y00420243D02*
Y00428117D01*
X01220343Y0047498D02*
X01228217D01*
X0122428Y00471043D02*
Y00478917D01*
X01156843Y0042418D02*
X01164717D01*
X0116078Y00420243D02*
Y00428117D01*
X01034923Y0047498D02*
X01042797D01*
X0103886Y00471043D02*
Y00478917D01*
X01098423Y0042418D02*
X01106297D01*
X0110236Y00420243D02*
Y00428117D01*
X01098423Y0047498D02*
X01106297D01*
X0110236Y00471043D02*
Y00478917D01*
X01034923Y0042418D02*
X01042797D01*
X0103886Y00420243D02*
Y00428117D01*
X01156843Y005715D02*
X01164717D01*
X0116078Y00567563D02*
Y00575437D01*
X01220343Y005207D02*
X01228217D01*
X0122428Y00516763D02*
Y00524637D01*
X01220343Y005715D02*
X01228217D01*
X0122428Y00567563D02*
Y00575437D01*
X01156843Y005207D02*
X01164717D01*
X0116078Y00516763D02*
Y00524637D01*
X01034923Y005715D02*
X01042797D01*
X0103886Y00567563D02*
Y00575437D01*
X01098423Y005207D02*
X01106297D01*
X0110236Y00516763D02*
Y00524637D01*
X01098423Y005715D02*
X01106297D01*
X0110236Y00567563D02*
Y00575437D01*
X01034923Y005207D02*
X01042797D01*
X0103886Y00516763D02*
Y00524637D01*
X00427863Y0116205D02*
X00435737D01*
X004318Y01158113D02*
Y01165987D01*
X00491363Y0111125D02*
X00499237D01*
X004953Y01107313D02*
Y01115187D01*
X00491363Y0116205D02*
X00499237D01*
X004953Y01158113D02*
Y01165987D01*
X00427863Y0111125D02*
X00435737D01*
X004318Y01107313D02*
Y01115187D01*
X01124355Y0085726D02*
X01133245D01*
X011288Y00852815D02*
Y00861705D01*
X01124355Y0074646D02*
X01133245D01*
X011288Y00742015D02*
Y00750905D01*
X01152755Y0076031D02*
X01161645D01*
X011572Y00755865D02*
Y00764755D01*
X01124355Y0077416D02*
X01133245D01*
X011288Y00769715D02*
Y00778605D01*
X01124355Y0080186D02*
X01133245D01*
X011288Y00797415D02*
Y00806305D01*
X01152755Y0081571D02*
X01161645D01*
X011572Y00811265D02*
Y00820155D01*
X01124355Y0082956D02*
X01133245D01*
X011288Y00825115D02*
Y00834005D01*
X01152755Y0084341D02*
X01161645D01*
X011572Y00838965D02*
Y00847855D01*
X011267Y0092681D02*
X011593D01*
X01143Y0091051D02*
Y0094311D01*
X011267Y0067691D02*
X011593D01*
X01143Y0066061D02*
Y0069321D01*
X01152755Y0078801D02*
X01161645D01*
X011572Y00783565D02*
Y00792455D01*
X00666623Y004064D02*
X00674497D01*
X0067056Y00402463D02*
Y00410337D01*
X00577723Y004064D02*
X00585597D01*
X0058166Y00402463D02*
Y00410337D01*
X00897763Y0087122D02*
X00905637D01*
X009017Y00867283D02*
Y00875157D01*
X00897763Y0096012D02*
X00905637D01*
X009017Y00956183D02*
Y00964057D01*
X00859663Y0087122D02*
X00867537D01*
X008636Y00867283D02*
Y00875157D01*
X00859663Y0096012D02*
X00867537D01*
X008636Y00956183D02*
Y00964057D01*
X00341983Y0120811D02*
X00349857D01*
X0034592Y01204173D02*
Y01212047D01*
X00430883Y0120811D02*
X00438757D01*
X0043482Y01204173D02*
Y01212047D01*
X00514223Y0040894D02*
X00522097D01*
X0051816Y00405003D02*
Y00412877D01*
X00425323Y0040894D02*
X00433197D01*
X0042926Y00405003D02*
Y00412877D01*
X00387223Y0105283D02*
X00395097D01*
X0039116Y01048893D02*
Y01056767D01*
X00298323Y0105283D02*
X00306197D01*
X0030226Y01048893D02*
Y01056767D01*
X00819023Y004064D02*
X00826897D01*
X0082296Y00402463D02*
Y00410337D01*
X00730123Y004064D02*
X00737997D01*
X0073406Y00402463D02*
Y00410337D01*
X006686Y005461D02*
X006776D01*
X006731Y005416D02*
Y005506D01*
X00694Y005461D02*
X00703D01*
X006985Y005416D02*
Y005506D01*
X007194Y005461D02*
X007284D01*
X007239Y005416D02*
Y005506D01*
X007448Y005461D02*
X007538D01*
X007493Y005416D02*
Y005506D01*
X007702Y005461D02*
X007792D01*
X007747Y005416D02*
Y005506D01*
X007956Y005461D02*
X008046D01*
X008001Y005416D02*
Y005506D01*
X00821Y005461D02*
X0083D01*
X008255Y005416D02*
Y005506D01*
X008464Y005461D02*
X008554D01*
X008509Y005416D02*
Y005506D01*
X006559Y010541D02*
X006649D01*
X006604Y010496D02*
Y010586D01*
X006813Y010541D02*
X006903D01*
X006858Y010496D02*
Y010586D01*
X007067Y010541D02*
X007157D01*
X007112Y010496D02*
Y010586D01*
X007321Y010541D02*
X007411D01*
X007366Y010496D02*
Y010586D01*
X007575Y010541D02*
X007665D01*
X00762Y010496D02*
Y010586D01*
X007829Y010541D02*
X007919D01*
X007874Y010496D02*
Y010586D01*
X008083Y010541D02*
X008173D01*
X008128Y010496D02*
Y010586D01*
X008337Y010541D02*
X008427D01*
X008382Y010496D02*
Y010586D01*
X004273Y005461D02*
X004363D01*
X004318Y005416D02*
Y005506D01*
X004527Y005461D02*
X004617D01*
X004572Y005416D02*
Y005506D01*
X004781Y005461D02*
X004871D01*
X004826Y005416D02*
Y005506D01*
X005035Y005461D02*
X005125D01*
X00508Y005416D02*
Y005506D01*
X005289Y005461D02*
X005379D01*
X005334Y005416D02*
Y005506D01*
X005543Y005461D02*
X005633D01*
X005588Y005416D02*
Y005506D01*
X005797Y005461D02*
X005887D01*
X005842Y005416D02*
Y005506D01*
X006051Y005461D02*
X006141D01*
X006096Y005416D02*
Y005506D01*
X004146Y010541D02*
X004236D01*
X004191Y010496D02*
Y010586D01*
X0044Y010541D02*
X00449D01*
X004445Y010496D02*
Y010586D01*
X004654Y010541D02*
X004744D01*
X004699Y010496D02*
Y010586D01*
X004908Y010541D02*
X004998D01*
X004953Y010496D02*
Y010586D01*
X005162Y010541D02*
X005252D01*
X005207Y010496D02*
Y010586D01*
X005416Y010541D02*
X005506D01*
X005461Y010496D02*
Y010586D01*
X00567Y010541D02*
X00576D01*
X005715Y010496D02*
Y010586D01*
X005924Y010541D02*
X006014D01*
X005969Y010496D02*
Y010586D01*
X00892556Y0036322D02*
X00900684D01*
X0089662Y00359156D02*
Y00367284D01*
X00892556Y0038862D02*
X00900684D01*
X0089662Y00384556D02*
Y00392684D01*
X00918083Y008382D02*
X00925957D01*
X0092202Y00834263D02*
Y00842137D01*
X00918083Y008128D02*
X00925957D01*
X0092202Y00808863D02*
Y00816737D01*
X00918083Y007874D02*
X00925957D01*
X0092202Y00783463D02*
Y00791337D01*
X00918083Y00762D02*
X00925957D01*
X0092202Y00758063D02*
Y00765937D01*
X00918083Y007366D02*
X00925957D01*
X0092202Y00732663D02*
Y00740537D01*
X00918083Y007112D02*
X00925957D01*
X0092202Y00707263D02*
Y00715137D01*
X00918083Y006858D02*
X00925957D01*
X0092202Y00681863D02*
Y00689737D01*
X00918083Y006604D02*
X00925957D01*
X0092202Y00656463D02*
Y00664337D01*
X00994283Y008382D02*
X01002157D01*
X0099822Y00834263D02*
Y00842137D01*
X00994283Y008128D02*
X01002157D01*
X0099822Y00808863D02*
Y00816737D01*
X00994283Y007874D02*
X01002157D01*
X0099822Y00783463D02*
Y00791337D01*
X00994283Y00762D02*
X01002157D01*
X0099822Y00758063D02*
Y00765937D01*
X00994283Y007366D02*
X01002157D01*
X0099822Y00732663D02*
Y00740537D01*
X00994283Y007112D02*
X01002157D01*
X0099822Y00707263D02*
Y00715137D01*
X00994283Y006858D02*
X01002157D01*
X0099822Y00681863D02*
Y00689737D01*
X00994283Y006604D02*
X01002157D01*
X0099822Y00656463D02*
Y00664337D01*
X00825627Y003048D02*
X00835533D01*
X0083058Y00299847D02*
Y00309753D01*
X00825627Y003302D02*
X00835533D01*
X0083058Y00325247D02*
Y00335153D01*
X00825627Y003556D02*
X00835533D01*
X0083058Y00350647D02*
Y00360553D01*
X0032266Y0044704D02*
X0033266D01*
X0032766Y0044204D02*
Y0045204D01*
X0032266Y0047244D02*
X0033266D01*
X0032766Y0046744D02*
Y0047744D01*
X0032266Y0049784D02*
X0033266D01*
X0032766Y0049284D02*
Y0050284D01*
X0032266Y0052324D02*
X0033266D01*
X0032766Y0051824D02*
Y0052824D01*
X0032266Y0054864D02*
X0033266D01*
X0032766Y0054364D02*
Y0055364D01*
X0034806Y0054864D02*
X0035806D01*
X0035306Y0054364D02*
Y0055364D01*
X0034806Y0052324D02*
X0035806D01*
X0035306Y0051824D02*
Y0052824D01*
X0034806Y0049784D02*
X0035806D01*
X0035306Y0049284D02*
Y0050284D01*
X0034806Y0047244D02*
X0035806D01*
X0035306Y0046744D02*
Y0047744D01*
X0034806Y0044704D02*
X0035806D01*
X0035306Y0044204D02*
Y0045204D01*
X00633222Y0118491D02*
X00641858D01*
X0063754Y01180592D02*
Y01189228D01*
X00658622Y0118491D02*
X00667258D01*
X0066294Y01180592D02*
Y01189228D01*
X00910463Y0047498D02*
X00918337D01*
X009144Y00471043D02*
Y00478917D01*
X00973963Y0042418D02*
X00981837D01*
X009779Y00420243D02*
Y00428117D01*
X00973963Y0047498D02*
X00981837D01*
X009779Y00471043D02*
Y00478917D01*
X00910463Y0042418D02*
X00918337D01*
X009144Y00420243D02*
Y00428117D01*
X00910463Y0057404D02*
X00918337D01*
X009144Y00570103D02*
Y00577977D01*
X00973963Y0052324D02*
X00981837D01*
X009779Y00519303D02*
Y00527177D01*
X00973963Y0057404D02*
X00981837D01*
X009779Y00570103D02*
Y00577977D01*
X00910463Y0052324D02*
X00918337D01*
X009144Y00519303D02*
Y00527177D01*
X0074674Y004699D02*
X0075694D01*
X0075184Y004648D02*
Y00475D01*
X0072134Y004699D02*
X0073154D01*
X0072644Y004648D02*
Y00475D01*
X0069594Y004699D02*
X0070614D01*
X0070104Y004648D02*
Y00475D01*
X0067054Y004699D02*
X0068074D01*
X0067564Y004648D02*
Y00475D01*
X00557403Y0082042D02*
X00565277D01*
X0056134Y00816483D02*
Y00824357D01*
X00557403Y0079502D02*
X00565277D01*
X0056134Y00791083D02*
Y00798957D01*
X00714883Y0082042D02*
X00722757D01*
X0071882Y00816483D02*
Y00824357D01*
X00714883Y0079502D02*
X00722757D01*
X0071882Y00791083D02*
Y00798957D01*
X00535023Y0111921D02*
X00542897D01*
X0053896Y01115273D02*
Y01123147D01*
X00535023Y0117001D02*
X00542897D01*
X0053896Y01166073D02*
Y01173947D01*
X01050036Y0073406D02*
X01058164D01*
X010541Y00729996D02*
Y00738124D01*
X01050036Y0070866D02*
X01058164D01*
X010541Y00704596D02*
Y00712724D01*
X01050036Y0081026D02*
X01058164D01*
X010541Y00806196D02*
Y00814324D01*
X01050036Y0078486D02*
X01058164D01*
X010541Y00780796D02*
Y00788924D01*
X00869696Y0073914D02*
X00877824D01*
X0087376Y00735076D02*
Y00743204D01*
X00869696Y0071374D02*
X00877824D01*
X0087376Y00709676D02*
Y00717804D01*
X00869696Y0081026D02*
X00877824D01*
X0087376Y00806196D02*
Y00814324D01*
X00869696Y0078486D02*
X00877824D01*
X0087376Y00780796D02*
Y00788924D01*
X00618363Y008509D02*
X00626237D01*
X006223Y00846963D02*
Y00854837D01*
X00567563Y008509D02*
X00575437D01*
X005715Y00846963D02*
Y00854837D01*
X00387223Y0034163D02*
X00395097D01*
X0039116Y00337693D02*
Y00345567D01*
X00387223Y0029083D02*
X00395097D01*
X0039116Y00286893D02*
Y00294767D01*
X00443103Y0034163D02*
X00450977D01*
X0044704Y00337693D02*
Y00345567D01*
X00443103Y0029083D02*
X00450977D01*
X0044704Y00286893D02*
Y00294767D01*
X00709803Y003429D02*
X00717677D01*
X0071374Y00338963D02*
Y00346837D01*
X00709803Y002921D02*
X00717677D01*
X0071374Y00288163D02*
Y00296037D01*
X00758063Y003429D02*
X00765937D01*
X00762Y00338963D02*
Y00346837D01*
X00758063Y002921D02*
X00765937D01*
X00762Y00288163D02*
Y00296037D01*
X00974725Y0110744D02*
X00986155D01*
X0098044Y01101725D02*
Y01113155D01*
X01177925Y0110744D02*
X01189355D01*
X0118364Y01101725D02*
Y01113155D01*
X00333883Y007493D02*
X00341757D01*
X0033782Y00745363D02*
Y00753237D01*
X00359283Y007493D02*
X00367157D01*
X0036322Y00745363D02*
Y00753237D01*
X00384683Y007493D02*
X00392557D01*
X0038862Y00745363D02*
Y00753237D01*
X00410083Y007493D02*
X00417957D01*
X0041402Y00745363D02*
Y00753237D01*
X00435483Y007493D02*
X00443357D01*
X0043942Y00745363D02*
Y00753237D01*
X00460883Y007493D02*
X00468757D01*
X0046482Y00745363D02*
Y00753237D01*
X00486283Y007493D02*
X00494157D01*
X0049022Y00745363D02*
Y00753237D01*
X00511683Y007493D02*
X00519557D01*
X0051562Y00745363D02*
Y00753237D01*
X00537083Y007493D02*
X00544957D01*
X0054102Y00745363D02*
Y00753237D01*
X00562483Y007493D02*
X00570357D01*
X0056642Y00745363D02*
Y00753237D01*
X00587883Y007493D02*
X00595757D01*
X0059182Y00745363D02*
Y00753237D01*
X00613283Y007493D02*
X00621157D01*
X0061722Y00745363D02*
Y00753237D01*
X00638683Y007493D02*
X00646557D01*
X0064262Y00745363D02*
Y00753237D01*
X00664083Y007493D02*
X00671957D01*
X0066802Y00745363D02*
Y00753237D01*
X00689483Y007493D02*
X00697357D01*
X0069342Y00745363D02*
Y00753237D01*
X00714883Y007493D02*
X00722757D01*
X0071882Y00745363D02*
Y00753237D01*
X00740283Y007493D02*
X00748157D01*
X0074422Y00745363D02*
Y00753237D01*
X00765683Y007493D02*
X00773557D01*
X0076962Y00745363D02*
Y00753237D01*
X00791083Y007493D02*
X00798957D01*
X0079502Y00745363D02*
Y00753237D01*
X00816483Y007493D02*
X00824357D01*
X0082042Y00745363D02*
Y00753237D01*
X00333883Y009017D02*
X00341757D01*
X0033782Y00897763D02*
Y00905637D01*
X00359283Y009017D02*
X00367157D01*
X0036322Y00897763D02*
Y00905637D01*
X00384683Y009017D02*
X00392557D01*
X0038862Y00897763D02*
Y00905637D01*
X00410083Y009017D02*
X00417957D01*
X0041402Y00897763D02*
Y00905637D01*
X00435483Y009017D02*
X00443357D01*
X0043942Y00897763D02*
Y00905637D01*
X00460883Y009017D02*
X00468757D01*
X0046482Y00897763D02*
Y00905637D01*
X00486283Y009017D02*
X00494157D01*
X0049022Y00897763D02*
Y00905637D01*
X00511683Y009017D02*
X00519557D01*
X0051562Y00897763D02*
Y00905637D01*
X00537083Y009017D02*
X00544957D01*
X0054102Y00897763D02*
Y00905637D01*
X00562483Y009017D02*
X00570357D01*
X0056642Y00897763D02*
Y00905637D01*
X00587883Y009017D02*
X00595757D01*
X0059182Y00897763D02*
Y00905637D01*
X00613283Y009017D02*
X00621157D01*
X0061722Y00897763D02*
Y00905637D01*
X00638683Y009017D02*
X00646557D01*
X0064262Y00897763D02*
Y00905637D01*
X00664083Y009017D02*
X00671957D01*
X0066802Y00897763D02*
Y00905637D01*
X00689483Y009017D02*
X00697357D01*
X0069342Y00897763D02*
Y00905637D01*
X00714883Y009017D02*
X00722757D01*
X0071882Y00897763D02*
Y00905637D01*
X00740283Y009017D02*
X00748157D01*
X0074422Y00897763D02*
Y00905637D01*
X00765683Y009017D02*
X00773557D01*
X0076962Y00897763D02*
Y00905637D01*
X00791083Y009017D02*
X00798957D01*
X0079502Y00897763D02*
Y00905637D01*
X00816483Y009017D02*
X00824357D01*
X0082042Y00897763D02*
Y00905637D01*
X00554736Y0047498D02*
X00562864D01*
X005588Y00470916D02*
Y00479044D01*
X00529336Y0047498D02*
X00537464D01*
X005334Y00470916D02*
Y00479044D01*
X00503936Y0047498D02*
X00512064D01*
X00508Y00470916D02*
Y00479044D01*
X0112649Y0039497D02*
X0113919D01*
X0113284Y0038862D02*
Y0040132D01*
X0112649Y0033147D02*
X0113919D01*
X0113284Y0032512D02*
Y0033782D01*
X0117729Y0036957D02*
X0118999D01*
X0118364Y0036322D02*
Y0037592D01*
X0033332Y0029083D02*
X0034232D01*
X0033782Y0028633D02*
Y0029533D01*
X0033332Y0031623D02*
X0034232D01*
X0033782Y0031173D02*
Y0032073D01*
X0033332Y0034163D02*
X0034232D01*
X0033782Y0033713D02*
Y0034613D01*
X00613664Y0108077D02*
X00620776D01*
X0061722Y01077214D02*
Y01084326D01*
X00349984Y0100491D02*
X00357096D01*
X0035354Y01001354D02*
Y01008466D01*
X00512544Y0122843D02*
X00519656D01*
X005161Y01224874D02*
Y01231986D01*
X00316484Y0108331D02*
X00323596D01*
X0032004Y01079754D02*
Y01086866D01*
X00349504Y0108331D02*
X00356616D01*
X0035306Y01079754D02*
Y01086866D01*
X00578104Y0038481D02*
X00585216D01*
X0058166Y00381254D02*
Y00388366D01*
X00621284Y0045847D02*
X00628396D01*
X0062484Y00454914D02*
Y00462026D01*
X00562864Y0068961D02*
X00569976D01*
X0056642Y00686054D02*
Y00693166D01*
X00816864Y0082931D02*
X00823976D01*
X0082042Y00825754D02*
Y00832866D01*
X00786384Y0080391D02*
X00793496D01*
X0078994Y00800354D02*
Y00807466D01*
X00616204Y0068961D02*
X00623316D01*
X0061976Y00686054D02*
Y00693166D01*
X00641604Y0050165D02*
X00648716D01*
X0064516Y00498094D02*
Y00505206D01*
X00710184Y0042037D02*
X00717296D01*
X0071374Y00416814D02*
Y00423926D01*
X00877824Y0057785D02*
X00884936D01*
X0088138Y00574294D02*
Y00581406D01*
X00407924Y0047117D02*
X00415036D01*
X0041148Y00467614D02*
Y00474726D01*
X00407924Y0052451D02*
X00415036D01*
X0041148Y00520954D02*
Y00528066D01*
X00449834Y0052324D02*
X00456946D01*
X0045339Y00519684D02*
Y00526796D01*
X00860044Y0090297D02*
X00867156D01*
X008636Y00899414D02*
Y00906526D01*
X01134364Y0053213D02*
X01141476D01*
X0113792Y00528574D02*
Y00535686D01*
X01022604Y0091313D02*
X01029716D01*
X0102616Y00909574D02*
Y00916686D01*
X00989584Y0086233D02*
X00996696D01*
X0099314Y00858774D02*
Y00865886D01*
X00854964Y0062865D02*
X00862076D01*
X0085852Y00625094D02*
Y00632206D01*
X00854964Y0065405D02*
X00862076D01*
X0085852Y00650494D02*
Y00657606D01*
X00948944Y0070993D02*
X00956056D01*
X009525Y00706374D02*
Y00713486D01*
X00943864Y0088519D02*
X00950976D01*
X0094742Y00881634D02*
Y00888746D01*
X00893064Y0107569D02*
X00900176D01*
X0089662Y01072134D02*
Y01079246D01*
X01093724Y0069723D02*
X01100836D01*
X0109728Y00693674D02*
Y00700786D01*
X01144524Y0102743D02*
X01151636D01*
X0114808Y01023874D02*
Y01030986D01*
X00740664Y0085471D02*
X00747776D01*
X0074422Y00851154D02*
Y00858266D01*
M02*
