G04 Layer_Color=48896*
%FSTAX44Y44*%
%MOMM*%
G71*
G01*
G75*
%ADD106C,0.0500*%
G36*
X00758454Y0095116D02*
X00757505D01*
Y00957179D01*
X00757494Y00957167D01*
X00757447Y0095712D01*
X00757365Y00957061D01*
X00757259Y0095698D01*
X00757131Y00956874D01*
X00756978Y00956769D01*
X00756803Y0095664D01*
X00756604Y00956523D01*
X00756592D01*
X0075658Y00956511D01*
X0075651Y00956464D01*
X00756404Y00956406D01*
X00756276Y00956336D01*
X00756124Y00956254D01*
X0075596Y00956183D01*
X00755784Y00956101D01*
X0075562Y00956031D01*
Y00956956D01*
X00755632D01*
X00755655Y00956968D01*
X00755702Y00956991D01*
X00755749Y00957026D01*
X00755819Y00957061D01*
X00755901Y00957097D01*
X00756088Y00957202D01*
X00756299Y00957331D01*
X00756533Y00957483D01*
X00756768Y00957659D01*
X0075699Y00957846D01*
X00757002Y00957858D01*
X00757013Y00957869D01*
X00757084Y0095794D01*
X00757189Y00958045D01*
X00757318Y00958174D01*
X00757458Y00958338D01*
X00757599Y00958513D01*
X00757728Y00958701D01*
X00757833Y00958888D01*
X00758454D01*
Y0095116D01*
D02*
G37*
G36*
X00381454D02*
X00380505D01*
Y00957179D01*
X00380494Y00957167D01*
X00380447Y0095712D01*
X00380365Y00957061D01*
X00380259Y0095698D01*
X00380131Y00956874D01*
X00379978Y00956769D01*
X00379803Y0095664D01*
X00379604Y00956523D01*
X00379592D01*
X0037958Y00956511D01*
X0037951Y00956464D01*
X00379404Y00956406D01*
X00379276Y00956336D01*
X00379123Y00956254D01*
X0037896Y00956183D01*
X00378784Y00956101D01*
X0037862Y00956031D01*
Y00956956D01*
X00378632D01*
X00378655Y00956968D01*
X00378702Y00956991D01*
X00378749Y00957026D01*
X00378819Y00957061D01*
X00378901Y00957097D01*
X00379088Y00957202D01*
X00379299Y00957331D01*
X00379533Y00957483D01*
X00379767Y00957659D01*
X0037999Y00957846D01*
X00380002Y00957858D01*
X00380013Y00957869D01*
X00380084Y0095794D01*
X00380189Y00958045D01*
X00380318Y00958174D01*
X00380458Y00958338D01*
X00380599Y00958513D01*
X00380728Y00958701D01*
X00380833Y00958888D01*
X00381454D01*
Y0095116D01*
D02*
G37*
G36*
X00763735Y00958876D02*
X00763805D01*
X00763898Y00958865D01*
X00764109Y0095883D01*
X00764343Y00958759D01*
X00764589Y00958666D01*
X00764835Y00958549D01*
X00764952Y00958467D01*
X0076507Y00958373D01*
X00765081D01*
X00765093Y0095835D01*
X00765163Y00958279D01*
X00765257Y00958162D01*
X00765374Y0095801D01*
X00765503Y00957811D01*
X00765608Y00957577D01*
X00765714Y00957296D01*
X00765772Y0095698D01*
X00764835Y00956909D01*
Y00956921D01*
Y00956933D01*
X00764812Y00957003D01*
X00764777Y00957097D01*
X00764742Y00957214D01*
X00764624Y00957483D01*
X00764554Y009576D01*
X00764472Y00957706D01*
X00764461Y00957729D01*
X00764402Y00957776D01*
X0076432Y00957834D01*
X00764215Y00957916D01*
X00764074Y00957987D01*
X0076391Y00958057D01*
X00763723Y00958104D01*
X00763524Y00958115D01*
X00763442D01*
X0076336Y00958104D01*
X00763254Y0095808D01*
X00763126Y00958057D01*
X00762985Y0095801D01*
X00762856Y0095794D01*
X00762716Y00957858D01*
X00762692Y00957846D01*
X00762646Y00957799D01*
X00762564Y00957717D01*
X0076247Y00957612D01*
X00762353Y00957483D01*
X00762236Y00957319D01*
X00762119Y0095712D01*
X00762013Y00956898D01*
Y00956886D01*
X00762002Y00956874D01*
X0076199Y00956827D01*
X00761978Y0095678D01*
X00761955Y00956722D01*
X00761931Y0095664D01*
X00761908Y00956546D01*
X00761885Y00956441D01*
X00761861Y00956324D01*
X00761838Y00956195D01*
X00761814Y00956043D01*
X00761791Y00955891D01*
X00761779Y00955715D01*
X00761767Y00955528D01*
X00761756Y00955329D01*
Y00955129D01*
X00761767Y00955141D01*
X00761814Y009552D01*
X00761885Y00955293D01*
X0076199Y00955411D01*
X00762107Y00955539D01*
X00762247Y00955668D01*
X00762411Y00955785D01*
X00762587Y00955891D01*
X0076261Y00955902D01*
X00762669Y00955926D01*
X00762774Y00955973D01*
X00762903Y00956019D01*
X00763055Y00956066D01*
X00763231Y00956113D01*
X00763419Y00956136D01*
X00763617Y00956148D01*
X00763711D01*
X00763782Y00956136D01*
X00763863Y00956125D01*
X00763957Y00956113D01*
X0076418Y00956066D01*
X00764426Y00955973D01*
X00764566Y00955926D01*
X00764695Y00955855D01*
X00764835Y00955773D01*
X00764976Y0095568D01*
X00765105Y00955574D01*
X00765233Y00955446D01*
X00765245Y00955434D01*
X00765257Y00955411D01*
X00765292Y00955375D01*
X00765339Y00955317D01*
X00765386Y00955247D01*
X00765444Y00955165D01*
X00765503Y00955071D01*
X00765573Y00954966D01*
X00765631Y00954837D01*
X0076569Y00954708D01*
X00765749Y00954556D01*
X00765796Y00954404D01*
X00765842Y00954228D01*
X00765877Y00954052D01*
X00765889Y00953853D01*
X00765901Y00953654D01*
Y00953642D01*
Y00953619D01*
Y00953584D01*
Y00953537D01*
X00765889Y00953467D01*
Y00953397D01*
X00765866Y00953209D01*
X00765819Y0095301D01*
X00765772Y00952776D01*
X0076569Y00952542D01*
X00765585Y00952308D01*
Y00952296D01*
X00765573Y00952284D01*
X0076555Y00952249D01*
X00765526Y00952202D01*
X00765456Y00952097D01*
X00765362Y00951956D01*
X00765233Y00951804D01*
X00765081Y00951652D01*
X00764917Y009515D01*
X00764718Y00951359D01*
X00764695Y00951347D01*
X00764624Y00951312D01*
X00764507Y00951254D01*
X00764367Y00951195D01*
X0076418Y00951137D01*
X00763969Y00951078D01*
X00763735Y00951043D01*
X00763489Y00951031D01*
X00763442D01*
X00763372Y00951043D01*
X0076329D01*
X00763196Y00951055D01*
X00763079Y00951078D01*
X0076295Y00951102D01*
X0076281Y00951137D01*
X00762657Y00951183D01*
X00762493Y00951242D01*
X00762341Y00951312D01*
X00762177Y00951394D01*
X00762013Y009515D01*
X00761849Y00951617D01*
X00761697Y00951746D01*
X00761557Y00951898D01*
X00761545Y00951909D01*
X00761522Y00951945D01*
X00761486Y00951991D01*
X0076144Y00952062D01*
X00761381Y00952155D01*
X00761322Y00952272D01*
X00761252Y00952413D01*
X00761194Y00952577D01*
X00761123Y00952764D01*
X00761053Y00952975D01*
X00760995Y00953209D01*
X00760936Y00953467D01*
X00760889Y00953748D01*
X00760854Y00954064D01*
X00760831Y00954392D01*
X00760819Y00954755D01*
Y00954766D01*
Y00954778D01*
Y00954813D01*
Y00954848D01*
Y00954966D01*
X00760831Y00955118D01*
X00760842Y00955305D01*
X00760866Y00955516D01*
X00760889Y0095575D01*
X00760924Y00955996D01*
X00760959Y00956265D01*
X00761018Y00956535D01*
X00761088Y00956804D01*
X0076117Y00957061D01*
X00761264Y00957331D01*
X00761369Y00957565D01*
X00761498Y00957799D01*
X00761639Y00957998D01*
X0076165Y0095801D01*
X00761674Y00958033D01*
X00761709Y0095808D01*
X00761767Y00958139D01*
X00761849Y00958209D01*
X00761931Y00958279D01*
X00762037Y00958361D01*
X00762154Y00958443D01*
X00762283Y00958525D01*
X00762435Y00958607D01*
X00762587Y00958677D01*
X00762763Y00958748D01*
X0076295Y00958806D01*
X00763149Y00958853D01*
X0076336Y00958876D01*
X00763582Y00958888D01*
X00763664D01*
X00763735Y00958876D01*
D02*
G37*
%LPC*%
G36*
X0076343Y00955317D02*
X00763372D01*
X00763325Y00955305D01*
X00763208Y00955293D01*
X00763055Y00955258D01*
X00762891Y009552D01*
X00762704Y00955118D01*
X00762529Y00955001D01*
X00762353Y00954848D01*
X00762329Y00954825D01*
X00762283Y00954766D01*
X00762212Y00954661D01*
X0076213Y00954532D01*
X00762048Y00954357D01*
X00761978Y00954146D01*
X00761931Y00953912D01*
X00761908Y00953642D01*
Y00953619D01*
Y0095356D01*
X0076192Y00953467D01*
X00761931Y0095335D01*
X00761955Y00953197D01*
X0076199Y00953045D01*
X00762037Y00952881D01*
X00762107Y00952706D01*
X00762119Y00952682D01*
X00762142Y00952635D01*
X00762189Y00952553D01*
X00762259Y0095246D01*
X00762341Y00952343D01*
X00762435Y00952237D01*
X00762552Y0095212D01*
X00762681Y00952027D01*
X00762692Y00952015D01*
X00762751Y00951991D01*
X00762821Y00951956D01*
X00762915Y00951921D01*
X00763032Y00951874D01*
X00763173Y00951839D01*
X00763313Y00951816D01*
X00763465Y00951804D01*
X00763524D01*
X00763571Y00951816D01*
X00763676Y00951827D01*
X00763828Y00951863D01*
X0076398Y00951921D01*
X00764156Y00952003D01*
X00764332Y0095212D01*
X00764496Y00952284D01*
X00764519Y00952308D01*
X00764566Y00952378D01*
X00764636Y00952483D01*
X00764718Y00952624D01*
X00764789Y00952811D01*
X00764859Y00953045D01*
X00764906Y00953303D01*
X00764929Y00953596D01*
Y00953607D01*
Y00953631D01*
Y00953678D01*
X00764917Y00953724D01*
Y00953795D01*
X00764906Y00953877D01*
X00764882Y00954052D01*
X00764824Y00954251D01*
X00764753Y00954462D01*
X00764648Y00954661D01*
X00764507Y00954848D01*
X00764484Y00954872D01*
X00764437Y00954919D01*
X00764343Y00955001D01*
X00764215Y00955083D01*
X00764062Y00955165D01*
X00763875Y00955247D01*
X00763664Y00955293D01*
X0076343Y00955317D01*
D02*
G37*
%LPD*%
D106*
X0077382Y0096516D02*
X007732Y00967057D01*
X0077142Y0096796D01*
Y0094236D02*
X007732Y00943263D01*
X0077382Y0094516D01*
X0076912Y0095516D02*
X00768728Y00957632D01*
X00767592Y00959862D01*
X00765822Y00961632D01*
X00763592Y00962768D01*
X0076112Y0096316D01*
X00758648Y00962768D01*
X00756418Y00961632D01*
X00754648Y00959862D01*
X00753512Y00957632D01*
X0075312Y0095516D01*
X00753512Y00952688D01*
X00754648Y00950458D01*
X00756418Y00948688D01*
X00758648Y00947551D01*
X0076112Y0094716D01*
X00763592Y00947551D01*
X00765822Y00948688D01*
X00767592Y00950458D01*
X00768728Y00952688D01*
X0076912Y0095516D01*
X0074372D02*
X00743328Y00957632D01*
X00742192Y00959862D01*
X00740422Y00961632D01*
X00738192Y00962768D01*
X0073572Y0096316D01*
X00733248Y00962768D01*
X00731018Y00961632D01*
X00729248Y00959862D01*
X00728111Y00957632D01*
X0072772Y0095516D01*
X00728111Y00952688D01*
X00729248Y00950458D01*
X00731018Y00948688D01*
X00733248Y00947551D01*
X0073572Y0094716D01*
X00738192Y00947551D01*
X00740422Y00948688D01*
X00742192Y00950458D01*
X00743328Y00952688D01*
X0074372Y0095516D01*
X0071832D02*
X00717928Y00957632D01*
X00716792Y00959862D01*
X00715022Y00961632D01*
X00712792Y00962768D01*
X0071032Y0096316D01*
X00707848Y00962768D01*
X00705618Y00961632D01*
X00703848Y00959862D01*
X00702711Y00957632D01*
X0070232Y0095516D01*
X00702711Y00952688D01*
X00703848Y00950458D01*
X00705618Y00948688D01*
X00707848Y00947551D01*
X0071032Y0094716D01*
X00712792Y00947551D01*
X00715022Y00948688D01*
X00716792Y00950458D01*
X00717928Y00952688D01*
X0071832Y0095516D01*
X0069292D02*
X00692529Y00957632D01*
X00691392Y00959862D01*
X00689622Y00961632D01*
X00687392Y00962768D01*
X0068492Y0096316D01*
X00682448Y00962768D01*
X00680218Y00961632D01*
X00678448Y00959862D01*
X00677311Y00957632D01*
X0067692Y0095516D01*
X00677311Y00952688D01*
X00678448Y00950458D01*
X00680218Y00948688D01*
X00682448Y00947551D01*
X0068492Y0094716D01*
X00687392Y00947551D01*
X00689622Y00948688D01*
X00691392Y00950458D01*
X00692529Y00952688D01*
X0069292Y0095516D01*
X0066752D02*
X00667129Y00957632D01*
X00665992Y00959862D01*
X00664222Y00961632D01*
X00661992Y00962768D01*
X0065952Y0096316D01*
X00657048Y00962768D01*
X00654818Y00961632D01*
X00653048Y00959862D01*
X00651911Y00957632D01*
X0065152Y0095516D01*
X00651911Y00952688D01*
X00653048Y00950458D01*
X00654818Y00948688D01*
X00657048Y00947551D01*
X0065952Y0094716D01*
X00661992Y00947551D01*
X00664222Y00948688D01*
X00665992Y00950458D01*
X00667129Y00952688D01*
X0066752Y0095516D01*
X0064212D02*
X00641729Y00957632D01*
X00640592Y00959862D01*
X00638822Y00961632D01*
X00636592Y00962768D01*
X0063412Y0096316D01*
X00631648Y00962768D01*
X00629418Y00961632D01*
X00627648Y00959862D01*
X00626511Y00957632D01*
X0062612Y0095516D01*
X00626511Y00952688D01*
X00627648Y00950458D01*
X00629418Y00948688D01*
X00631648Y00947551D01*
X0063412Y0094716D01*
X00636592Y00947551D01*
X00638822Y00948688D01*
X00640592Y00950458D01*
X00641729Y00952688D01*
X0064212Y0095516D01*
X0036742Y0094516D02*
X0036804Y00943263D01*
X0036982Y0094236D01*
Y0096796D02*
X0036804Y00967057D01*
X0036742Y0096516D01*
X0038812Y0095516D02*
X00387729Y00957632D01*
X00386592Y00959862D01*
X00384822Y00961632D01*
X00382592Y00962768D01*
X0038012Y0096316D01*
X00377648Y00962768D01*
X00375418Y00961632D01*
X00373648Y00959862D01*
X00372511Y00957632D01*
X0037212Y0095516D01*
X00372511Y00952688D01*
X00373648Y00950458D01*
X00375418Y00948688D01*
X00377648Y00947551D01*
X0038012Y0094716D01*
X00382592Y00947551D01*
X00384822Y00948688D01*
X00386592Y00950458D01*
X00387729Y00952688D01*
X0038812Y0095516D01*
X00387729Y00957632D01*
X00386592Y00959862D01*
X00384822Y00961632D01*
X00382592Y00962768D01*
X0038012Y0096316D01*
X00377648Y00962768D01*
X00375418Y00961632D01*
X00373648Y00959862D01*
X00372511Y00957632D01*
X0037212Y0095516D01*
X00372511Y00952688D01*
X00373648Y00950458D01*
X00375418Y00948688D01*
X00377648Y00947551D01*
X0038012Y0094716D01*
X00382592Y00947551D01*
X00384822Y00948688D01*
X00386592Y00950458D01*
X00387729Y00952688D01*
X0038812Y0095516D01*
X0041352D02*
X00413129Y00957632D01*
X00411992Y00959862D01*
X00410222Y00961632D01*
X00407992Y00962768D01*
X0040552Y0096316D01*
X00403048Y00962768D01*
X00400818Y00961632D01*
X00399048Y00959862D01*
X00397911Y00957632D01*
X0039752Y0095516D01*
X00397911Y00952688D01*
X00399048Y00950458D01*
X00400818Y00948688D01*
X00403048Y00947551D01*
X0040552Y0094716D01*
X00407992Y00947551D01*
X00410222Y00948688D01*
X00411992Y00950458D01*
X00413129Y00952688D01*
X0041352Y0095516D01*
X0043892D02*
X00438529Y00957632D01*
X00437392Y00959862D01*
X00435622Y00961632D01*
X00433392Y00962768D01*
X0043092Y0096316D01*
X00428448Y00962768D01*
X00426218Y00961632D01*
X00424448Y00959862D01*
X00423312Y00957632D01*
X0042292Y0095516D01*
X00423312Y00952688D01*
X00424448Y00950458D01*
X00426218Y00948688D01*
X00428448Y00947551D01*
X0043092Y0094716D01*
X00433392Y00947551D01*
X00435622Y00948688D01*
X00437392Y00950458D01*
X00438529Y00952688D01*
X0043892Y0095516D01*
X0046432D02*
X00463928Y00957632D01*
X00462792Y00959862D01*
X00461022Y00961632D01*
X00458792Y00962768D01*
X0045632Y0096316D01*
X00453848Y00962768D01*
X00451618Y00961632D01*
X00449848Y00959862D01*
X00448712Y00957632D01*
X0044832Y0095516D01*
X00448712Y00952688D01*
X00449848Y00950458D01*
X00451618Y00948688D01*
X00453848Y00947551D01*
X0045632Y0094716D01*
X00458792Y00947551D01*
X00461022Y00948688D01*
X00462792Y00950458D01*
X00463928Y00952688D01*
X0046432Y0095516D01*
X0048972D02*
X00489328Y00957632D01*
X00488192Y00959862D01*
X00486422Y00961632D01*
X00484192Y00962768D01*
X0048172Y0096316D01*
X00479248Y00962768D01*
X00477018Y00961632D01*
X00475248Y00959862D01*
X00474112Y00957632D01*
X0047372Y0095516D01*
X00474112Y00952688D01*
X00475248Y00950458D01*
X00477018Y00948688D01*
X00479248Y00947551D01*
X0048172Y0094716D01*
X00484192Y00947551D01*
X00486422Y00948688D01*
X00488192Y00950458D01*
X00489328Y00952688D01*
X0048972Y0095516D01*
X0051512D02*
X00514729Y00957632D01*
X00513592Y00959862D01*
X00511822Y00961632D01*
X00509592Y00962768D01*
X0050712Y0096316D01*
X00504648Y00962768D01*
X00502418Y00961632D01*
X00500648Y00959862D01*
X00499511Y00957632D01*
X0049912Y0095516D01*
X00499511Y00952688D01*
X00500648Y00950458D01*
X00502418Y00948688D01*
X00504648Y00947551D01*
X0050712Y0094716D01*
X00509592Y00947551D01*
X00511822Y00948688D01*
X00513592Y00950458D01*
X00514729Y00952688D01*
X0051512Y0095516D01*
X0054052D02*
X00540129Y00957632D01*
X00538992Y00959862D01*
X00537222Y00961632D01*
X00534992Y00962768D01*
X0053252Y0096316D01*
X00530048Y00962768D01*
X00527818Y00961632D01*
X00526048Y00959862D01*
X00524911Y00957632D01*
X0052452Y0095516D01*
X00524911Y00952688D01*
X00526048Y00950458D01*
X00527818Y00948688D01*
X00530048Y00947551D01*
X0053252Y0094716D01*
X00534992Y00947551D01*
X00537222Y00948688D01*
X00538992Y00950458D01*
X00540129Y00952688D01*
X0054052Y0095516D01*
X0056592D02*
X00565528Y00957632D01*
X00564392Y00959862D01*
X00562622Y00961632D01*
X00560392Y00962768D01*
X0055792Y0096316D01*
X00555448Y00962768D01*
X00553218Y00961632D01*
X00551448Y00959862D01*
X00550312Y00957632D01*
X0054992Y0095516D01*
X00550312Y00952688D01*
X00551448Y00950458D01*
X00553218Y00948688D01*
X00555448Y00947551D01*
X0055792Y0094716D01*
X00560392Y00947551D01*
X00562622Y00948688D01*
X00564392Y00950458D01*
X00565528Y00952688D01*
X0056592Y0095516D01*
X0059132D02*
X00590928Y00957632D01*
X00589792Y00959862D01*
X00588022Y00961632D01*
X00585792Y00962768D01*
X0058332Y0096316D01*
X00580848Y00962768D01*
X00578618Y00961632D01*
X00576848Y00959862D01*
X00575712Y00957632D01*
X0057532Y0095516D01*
X00575712Y00952688D01*
X00576848Y00950458D01*
X00578618Y00948688D01*
X00580848Y00947551D01*
X0058332Y0094716D01*
X00585792Y00947551D01*
X00588022Y00948688D01*
X00589792Y00950458D01*
X00590928Y00952688D01*
X0059132Y0095516D01*
X0061672D02*
X00616329Y00957632D01*
X00615192Y00959862D01*
X00613422Y00961632D01*
X00611192Y00962768D01*
X0060872Y0096316D01*
X00606248Y00962768D01*
X00604018Y00961632D01*
X00602248Y00959862D01*
X00601111Y00957632D01*
X0060072Y0095516D01*
X00601111Y00952688D01*
X00602248Y00950458D01*
X00604018Y00948688D01*
X00606248Y00947551D01*
X0060872Y0094716D01*
X00611192Y00947551D01*
X00613422Y00948688D01*
X00615192Y00950458D01*
X00616329Y00952688D01*
X0061672Y0095516D01*
X00345201D02*
X00345042Y00957677D01*
X0034457Y00960154D01*
X0034379Y00962552D01*
X00342717Y00964834D01*
X00341365Y00966963D01*
X00339758Y00968906D01*
X0033792Y00970632D01*
X0033588Y00972114D01*
X0033367Y00973329D01*
X00331325Y00974258D01*
X00328883Y00974885D01*
X00326381Y00975201D01*
X00323859D01*
X00321357Y00974885D01*
X00318915Y00974258D01*
X0031657Y00973329D01*
X0031436Y00972114D01*
X0031232Y00970632D01*
X00310482Y00968906D01*
X00308875Y00966963D01*
X00307523Y00964834D01*
X0030645Y00962552D01*
X0030567Y00960154D01*
X00305198Y00957677D01*
X0030504Y0095516D01*
X00305198Y00952643D01*
X0030567Y00950166D01*
X0030645Y00947768D01*
X00307523Y00945486D01*
X00308875Y00943357D01*
X00310482Y00941414D01*
X0031232Y00939688D01*
X0031436Y00938205D01*
X0031657Y00936991D01*
X00318915Y00936062D01*
X00321357Y00935435D01*
X00323859Y00935119D01*
X00326381D01*
X00328883Y00935435D01*
X00331325Y00936062D01*
X0033367Y00936991D01*
X0033588Y00938205D01*
X0033792Y00939688D01*
X00339758Y00941414D01*
X00341365Y00943357D01*
X00342717Y00945486D01*
X0034379Y00947768D01*
X0034457Y00950166D01*
X00345042Y00952643D01*
X00345201Y0095516D01*
X01095201D02*
X01095042Y00957677D01*
X0109457Y00960154D01*
X0109379Y00962552D01*
X01092717Y00964834D01*
X01091366Y00966963D01*
X01089758Y00968906D01*
X0108792Y00970632D01*
X0108588Y00972114D01*
X0108367Y00973329D01*
X01081325Y00974258D01*
X01078883Y00974885D01*
X01076381Y00975201D01*
X01073859D01*
X01071357Y00974885D01*
X01068915Y00974258D01*
X0106657Y00973329D01*
X0106436Y00972114D01*
X0106232Y00970632D01*
X01060482Y00968906D01*
X01058875Y00966963D01*
X01057523Y00964834D01*
X0105645Y00962552D01*
X0105567Y00960154D01*
X01055198Y00957677D01*
X0105504Y0095516D01*
X01055198Y00952643D01*
X0105567Y00950166D01*
X0105645Y00947768D01*
X01057523Y00945486D01*
X01058875Y00943357D01*
X01060482Y00941414D01*
X0106232Y00939688D01*
X0106436Y00938205D01*
X0106657Y00936991D01*
X01068915Y00936062D01*
X01071357Y00935435D01*
X01073859Y00935119D01*
X01076381D01*
X01078883Y00935435D01*
X01081325Y00936062D01*
X0108367Y00936991D01*
X0108588Y00938205D01*
X0108792Y00939688D01*
X01089758Y00941414D01*
X01091366Y00943357D01*
X01092717Y00945486D01*
X0109379Y00947768D01*
X0109457Y00950166D01*
X01095042Y00952643D01*
X01095201Y0095516D01*
Y0064516D02*
X01095042Y00647677D01*
X0109457Y00650154D01*
X0109379Y00652552D01*
X01092717Y00654834D01*
X01091366Y00656963D01*
X01089758Y00658906D01*
X0108792Y00660632D01*
X0108588Y00662114D01*
X0108367Y00663329D01*
X01081325Y00664258D01*
X01078883Y00664885D01*
X01076381Y00665201D01*
X01073859D01*
X01071357Y00664885D01*
X01068915Y00664258D01*
X0106657Y00663329D01*
X0106436Y00662114D01*
X0106232Y00660632D01*
X01060482Y00658906D01*
X01058875Y00656963D01*
X01057523Y00654834D01*
X0105645Y00652552D01*
X0105567Y00650154D01*
X01055198Y00647677D01*
X0105504Y0064516D01*
X01055198Y00642643D01*
X0105567Y00640166D01*
X0105645Y00637768D01*
X01057523Y00635486D01*
X01058875Y00633357D01*
X01060482Y00631414D01*
X0106232Y00629688D01*
X0106436Y00628205D01*
X0106657Y00626991D01*
X01068915Y00626062D01*
X01071357Y00625435D01*
X01073859Y00625119D01*
X01076381D01*
X01078883Y00625435D01*
X01081325Y00626062D01*
X0108367Y00626991D01*
X0108588Y00628205D01*
X0108792Y00629688D01*
X01089758Y00631414D01*
X01091366Y00633357D01*
X01092717Y00635486D01*
X0109379Y00637768D01*
X0109457Y00640166D01*
X01095042Y00642643D01*
X01095201Y0064516D01*
X00345201D02*
X00345042Y00647677D01*
X0034457Y00650154D01*
X0034379Y00652552D01*
X00342717Y00654834D01*
X00341365Y00656963D01*
X00339758Y00658906D01*
X0033792Y00660632D01*
X0033588Y00662114D01*
X0033367Y00663329D01*
X00331325Y00664258D01*
X00328883Y00664885D01*
X00326381Y00665201D01*
X00323859D01*
X00321357Y00664885D01*
X00318915Y00664258D01*
X0031657Y00663329D01*
X0031436Y00662114D01*
X0031232Y00660632D01*
X00310482Y00658906D01*
X00308875Y00656963D01*
X00307523Y00654834D01*
X0030645Y00652552D01*
X0030567Y00650154D01*
X00305198Y00647677D01*
X0030504Y0064516D01*
X00305198Y00642643D01*
X0030567Y00640166D01*
X0030645Y00637768D01*
X00307523Y00635486D01*
X00308875Y00633357D01*
X00310482Y00631414D01*
X0031232Y00629688D01*
X0031436Y00628205D01*
X0031657Y00626991D01*
X00318915Y00626062D01*
X00321357Y00625435D01*
X00323859Y00625119D01*
X00326381D01*
X00328883Y00625435D01*
X00331325Y00626062D01*
X0033367Y00626991D01*
X0033588Y00628205D01*
X0033792Y00629688D01*
X00339758Y00631414D01*
X00341365Y00633357D01*
X00342717Y00635486D01*
X0034379Y00637768D01*
X0034457Y00640166D01*
X00345042Y00642643D01*
X00345201Y0064516D01*
X0056024Y0028823D02*
X0056224Y0029023D01*
X0056224Y0029623D02*
X0056024Y0029823D01*
X0056224Y0031923D02*
X0056024Y0032123D01*
X0056024Y0031123D02*
X0056224Y0031323D01*
X0056224Y0034223D02*
X0056024Y0034423D01*
X0056024Y0033423D02*
X0056224Y0033623D01*
X0048424Y0030183D02*
X0048624Y0029983D01*
X0048624Y0033263D02*
X0048424Y0033063D01*
X0077382Y0094516D02*
Y0096516D01*
X0074588Y0096786D02*
X0074842Y0096532D01*
X0074578Y0094236D02*
X0074588Y0094246D01*
X0074842Y00945D01*
X0074588Y0094236D02*
Y0094246D01*
Y0096786D02*
Y0096796D01*
X0074842Y0096532D02*
X0075096Y0096786D01*
X0074588D02*
X0074842Y0096532D01*
X0075082Y0096796D02*
X0077128D01*
X0074842Y00945D02*
X0075096Y0094246D01*
X0074588D02*
X0074842Y00945D01*
X0074588Y0094236D02*
Y0094246D01*
X0075082Y0094236D02*
X0077118D01*
X0074588D02*
Y0094246D01*
X0074842Y00945D01*
X0072542Y0094236D02*
X0074578D01*
X0074588Y0094246D01*
X0072048Y0094236D02*
Y0094246D01*
X0072302Y00945D01*
X0072556Y0094246D01*
X0074588Y0096786D02*
X0074842Y0096532D01*
X0072542Y0096796D02*
X0074588D01*
X0072048Y0096786D02*
X0072302Y0096532D01*
X0072556Y0096786D01*
X0072048D02*
Y0096796D01*
Y0094236D02*
Y0094246D01*
X0072302Y00945D01*
X0070002Y0094236D02*
X0072038D01*
X0072048Y0094246D01*
X0069508Y0094236D02*
Y0094246D01*
X0069762Y00945D01*
X0070016Y0094246D01*
X0072048Y0096786D02*
X0072302Y0096532D01*
X0070002Y0096796D02*
X0072048D01*
X0069508Y0096786D02*
X0069762Y0096532D01*
X0070016Y0096786D01*
X0069508D02*
Y0096796D01*
Y0094236D02*
Y0094246D01*
X0069762Y00945D01*
X0067462Y0094236D02*
X0069498D01*
X0069508Y0094246D01*
X0066968Y0094236D02*
Y0094246D01*
X0067222Y00945D01*
X0067476Y0094246D01*
X0069508Y0096786D02*
X0069762Y0096532D01*
X0067462Y0096796D02*
X0069508D01*
X0066968Y0096786D02*
X0067222Y0096532D01*
X0067476Y0096786D01*
X0066968D02*
Y0096796D01*
Y0094236D02*
Y0094246D01*
X0067222Y00945D01*
X0064922Y0094236D02*
X0066958D01*
X0066968Y0094246D01*
X0064428Y0094236D02*
Y0094246D01*
X0064682Y00945D01*
X0064936Y0094246D01*
X0066968Y0096786D02*
X0067222Y0096532D01*
X0064922Y0096796D02*
X0066968D01*
X0064428Y0096786D02*
X0064682Y0096532D01*
X0064936Y0096786D01*
X0064428D02*
Y0096796D01*
Y0094236D02*
Y0094246D01*
X0062382Y0094236D02*
X0064418D01*
X0064428Y0094246D01*
X0061888Y0094236D02*
Y0094246D01*
X0062142Y00945D01*
X0062396Y0094246D01*
X0062382Y0096796D02*
X0064428D01*
X0061888Y0096786D02*
X0062142Y0096532D01*
X0062396Y0096786D01*
X0061888D02*
Y0096796D01*
X0036742Y0094516D02*
Y0096516D01*
X0039028Y0096786D02*
X0039282Y0096532D01*
X0039536Y0096786D01*
X0039028Y0094236D02*
Y0094246D01*
X0039282Y00945D01*
Y009449D02*
Y00945D01*
Y009449D02*
X0039536Y0094236D01*
X0036982Y0096796D02*
X0039028D01*
X0041568Y0096786D02*
X0041822Y0096532D01*
X0042076Y0096786D01*
X0039536Y0096796D02*
X0041568D01*
Y0096786D02*
Y0096796D01*
X0036982Y0094236D02*
X0039018D01*
X0039028Y0094246D01*
X0039536Y0094236D02*
X0041568D01*
Y0094246D01*
X0041822Y00945D01*
X0042076Y0094246D01*
X0046648Y0096786D02*
Y0096796D01*
X0044616D02*
X0046648D01*
X0046902Y0096532D02*
X0047156Y0096786D01*
X0046648D02*
X0046902Y0096532D01*
X0042062Y0096796D02*
X0044108D01*
X0044362Y0096532D02*
X0044616Y0096786D01*
X0044108D02*
X0044362Y0096532D01*
X0051728Y0096786D02*
Y0096796D01*
X0049696D02*
X0051728D01*
X0051982Y0096532D02*
X0052236Y0096786D01*
X0051728D02*
X0051982Y0096532D01*
X0047142Y0096796D02*
X0049188D01*
X0049442Y0096532D02*
X0049696Y0096786D01*
X0049188D02*
X0049442Y0096532D01*
X0056808Y0096786D02*
Y0096796D01*
X0054776D02*
X0056808D01*
X0057062Y0096532D02*
X0057316Y0096786D01*
X0056808D02*
X0057062Y0096532D01*
X0052222Y0096796D02*
X0054268D01*
X0054522Y0096532D02*
X0054776Y0096786D01*
X0054268D02*
X0054522Y0096532D01*
X0061888Y0096786D02*
Y0096796D01*
X0059856D02*
X0061888D01*
Y0096786D02*
X0062142Y0096532D01*
X0057302Y0096796D02*
X0059348D01*
X0059602Y0096532D02*
X0059856Y0096786D01*
X0059348D02*
X0059602Y0096532D01*
X0046902Y00945D02*
X0047156Y0094246D01*
X0046648D02*
X0046902Y00945D01*
X0046648Y0094236D02*
Y0094246D01*
X0044616Y0094236D02*
X0046648D01*
X0044098D02*
X0044108Y0094246D01*
X0042062Y0094236D02*
X0044098D01*
X0044362Y009449D02*
X0044616Y0094236D01*
X0044362Y009449D02*
Y00945D01*
X0044108Y0094246D02*
X0044362Y00945D01*
X0044108Y0094236D02*
Y0094246D01*
X0051982Y00945D02*
X0052236Y0094246D01*
X0051728D02*
X0051982Y00945D01*
X0051728Y0094236D02*
Y0094246D01*
X0049696Y0094236D02*
X0051728D01*
X0049178D02*
X0049188Y0094246D01*
X0047142Y0094236D02*
X0049178D01*
X0049442Y009449D02*
X0049696Y0094236D01*
X0049442Y009449D02*
Y00945D01*
X0049188Y0094246D02*
X0049442Y00945D01*
X0049188Y0094236D02*
Y0094246D01*
X0057062Y00945D02*
X0057316Y0094246D01*
X0056808D02*
X0057062Y00945D01*
X0056808Y0094236D02*
Y0094246D01*
X0054776Y0094236D02*
X0056808D01*
X0054258D02*
X0054268Y0094246D01*
X0052222Y0094236D02*
X0054258D01*
X0054522Y009449D02*
X0054776Y0094236D01*
X0054522Y009449D02*
Y00945D01*
X0054268Y0094246D02*
X0054522Y00945D01*
X0054268Y0094236D02*
Y0094246D01*
X0061888D02*
X0062142Y00945D01*
X0061888Y0094236D02*
Y0094246D01*
X0059856Y0094236D02*
X0061888D01*
X0059338D02*
X0059348Y0094246D01*
X0057302Y0094236D02*
X0059338D01*
X0059602Y009449D02*
X0059856Y0094236D01*
X0059602Y009449D02*
Y00945D01*
X0059348Y0094246D02*
X0059602Y00945D01*
X0059348Y0094236D02*
Y0094246D01*
X0064418Y0094236D02*
X0064428Y0094246D01*
Y0094236D02*
Y0094246D01*
X01059125Y0066516D02*
Y0093516D01*
X00344125D02*
X01059125D01*
X01103125Y0061866D02*
Y0098166D01*
X00344125Y0066516D02*
Y0093516D01*
X00300125Y0061866D02*
X01103125D01*
X00344125Y0066516D02*
X01059125D01*
X00300125Y0098166D02*
X01103125D01*
X00300125Y0061866D02*
Y0098166D01*
X0050469Y0034978D02*
X0054179D01*
X0050469Y0028268D02*
X0054179D01*
X0050469D02*
Y0034978D01*
X0054179Y0028268D02*
Y0034978D01*
X0056224Y0029023D02*
Y0029623D01*
X0054214Y0029823D02*
X0056024D01*
X0054214Y0028823D02*
X0056024D01*
X0054179Y0031123D02*
X0056024D01*
X0054179Y0032123D02*
X0056024D01*
X0056224Y0031323D02*
Y0031923D01*
X0054179Y0033423D02*
X0056024D01*
X0054179Y0034423D02*
X0056024D01*
X0056224Y0033623D02*
Y0034223D01*
X0048424Y0030183D02*
Y0033063D01*
X0048624Y0029983D02*
X0050469D01*
X0048624Y0033263D02*
X0050469D01*
X00528993Y0033513D02*
X00526994Y00337129D01*
Y00341128D01*
X00528993Y00343127D01*
X00530993D01*
X00532992Y00341128D01*
Y00339129D01*
Y00341128D01*
X00534991Y00343127D01*
X00536991D01*
X0053899Y00341128D01*
Y00337129D01*
X00536991Y0033513D01*
X0053899Y00321077D02*
Y0031308D01*
X00530993Y00321077D01*
X00528993D01*
X00526994Y00319078D01*
Y00315079D01*
X00528993Y0031308D01*
X0053899Y0029103D02*
Y00295029D01*
Y00293029D01*
X00526994D01*
X00528993Y0029103D01*
M02*
