G04 Layer_Color=255*
%FSTAX44Y44*%
%MOMM*%
G71*
G01*
G75*
%ADD14C,1.9050*%
%ADD15C,1.7780*%
%ADD16C,1.5000*%
%ADD17R,1.5000X1.5000*%
%ADD18O,2.5400X1.7780*%
%ADD19R,2.5400X1.7780*%
%ADD20R,2.0320X2.0320*%
%ADD21C,2.0320*%
%ADD22C,1.6000*%
%ADD23C,4.0000*%
%ADD24O,2.0320X1.7780*%
%ADD25R,2.0320X1.7780*%
%ADD26O,1.9050X2.2860*%
%ADD27R,1.9050X2.2860*%
%ADD28C,2.5400*%
%ADD29R,2.5400X2.5400*%
%ADD30R,1.6510X2.2860*%
%ADD31O,1.6510X2.2860*%
%ADD32O,2.5400X2.0320*%
%ADD33R,2.5400X2.0320*%
%ADD34O,2.5400X1.6510*%
%ADD35R,2.5400X1.6510*%
%ADD36O,2.2860X1.6510*%
%ADD37C,4.7600*%
%ADD38R,2.2860X1.6510*%
%ADD39O,2.0000X1.5000*%
%ADD40R,2.0000X1.5000*%
%ADD41R,1.5000X1.5000*%
%ADD42O,1.6000X2.0000*%
%ADD43O,1.5240X2.2860*%
%ADD44R,1.5240X2.2860*%
%ADD45R,1.5200X1.5200*%
%ADD46C,1.5200*%
%ADD47O,1.6764X2.5400*%
%ADD48O,2.2860X1.5240*%
%ADD49R,2.2860X1.5240*%
%ADD50R,4.0640X2.5400*%
%ADD51R,2.5400X4.0640*%
D14*
X0116078Y0042418D02*
D03*
X0122428Y0047498D02*
D03*
Y0042418D02*
D03*
X0116078Y0047498D02*
D03*
X009144Y0042418D02*
D03*
X009779Y0047498D02*
D03*
Y0042418D02*
D03*
X009144Y0047498D02*
D03*
X0103886Y0042418D02*
D03*
X0110236Y0047498D02*
D03*
Y0042418D02*
D03*
X0103886Y0047498D02*
D03*
X009144Y0052324D02*
D03*
X009779Y0057404D02*
D03*
Y0052324D02*
D03*
X009144Y0057404D02*
D03*
X0116078Y005207D02*
D03*
X0122428Y005715D02*
D03*
Y005207D02*
D03*
X0116078Y005715D02*
D03*
X0103886Y005207D02*
D03*
X0110236Y005715D02*
D03*
Y005207D02*
D03*
X0103886Y005715D02*
D03*
X0066802Y0080264D02*
D03*
X0061722D02*
D03*
X0044196Y0115062D02*
D03*
X0050546Y0120142D02*
D03*
Y0115062D02*
D03*
X0044196Y0120142D02*
D03*
D15*
X0058166Y004064D02*
D03*
X0067056D02*
D03*
X0042926Y0040894D02*
D03*
X0051816D02*
D03*
X0073406Y004064D02*
D03*
X0082296D02*
D03*
X004191Y002921D02*
D03*
Y003429D02*
D03*
X0037084Y002921D02*
D03*
Y003429D02*
D03*
X00762Y002921D02*
D03*
Y003429D02*
D03*
X0071374Y002921D02*
D03*
Y003429D02*
D03*
X008636Y0096012D02*
D03*
Y0087122D02*
D03*
X009017Y0096012D02*
D03*
Y0087122D02*
D03*
X0030226Y0102362D02*
D03*
X0039116D02*
D03*
X0056134Y0079502D02*
D03*
Y0082042D02*
D03*
X0071882Y0079502D02*
D03*
Y0082042D02*
D03*
X005715Y008509D02*
D03*
X006223D02*
D03*
X0055626Y0119634D02*
D03*
Y0114554D02*
D03*
X003937Y0118618D02*
D03*
X003048D02*
D03*
D16*
X006096Y005461D02*
D03*
X005842D02*
D03*
X005588D02*
D03*
X005334D02*
D03*
X00508D02*
D03*
X004826D02*
D03*
X004572D02*
D03*
X008509D02*
D03*
X008255D02*
D03*
X008001D02*
D03*
X007747D02*
D03*
X007493D02*
D03*
X007239D02*
D03*
X006985D02*
D03*
X005969Y010541D02*
D03*
X005715D02*
D03*
X005461D02*
D03*
X005207D02*
D03*
X004953D02*
D03*
X004699D02*
D03*
X004445D02*
D03*
X008382D02*
D03*
X008128D02*
D03*
X007874D02*
D03*
X00762D02*
D03*
X007366D02*
D03*
X007112D02*
D03*
X006858D02*
D03*
X003048Y003429D02*
D03*
Y003175D02*
D03*
X006096Y003429D02*
D03*
Y003175D02*
D03*
X006604Y003429D02*
D03*
Y003175D02*
D03*
D17*
X004318Y005461D02*
D03*
X006731D02*
D03*
X004191Y010541D02*
D03*
X006604D02*
D03*
D18*
X010541Y0070866D02*
D03*
Y0078486D02*
D03*
X0087376D02*
D03*
Y0071374D02*
D03*
X009017Y003175D02*
D03*
D19*
X010541Y0073406D02*
D03*
Y0081026D02*
D03*
X0087376D02*
D03*
Y0073914D02*
D03*
X009017Y002921D02*
D03*
D20*
X0105156Y0028956D02*
D03*
D21*
Y0037846D02*
D03*
D22*
X0060872Y0095516D02*
D03*
X0058332D02*
D03*
X0055792D02*
D03*
X0053252D02*
D03*
X0050712D02*
D03*
X0048172D02*
D03*
X0045632D02*
D03*
X0043092D02*
D03*
X0040552D02*
D03*
X0038012D02*
D03*
X0063412D02*
D03*
X0065952D02*
D03*
X0068492D02*
D03*
X0071032D02*
D03*
X0073572D02*
D03*
X0076112D02*
D03*
D23*
X0032512Y0064516D02*
D03*
X0107512D02*
D03*
X0032512Y0095516D02*
D03*
X0107512D02*
D03*
D24*
X0101854Y0034544D02*
D03*
Y0032004D02*
D03*
Y0029464D02*
D03*
X0095504D02*
D03*
Y0032004D02*
D03*
D25*
Y0034544D02*
D03*
D26*
X006477Y0117094D02*
D03*
D27*
X006223D02*
D03*
D28*
X0118364Y0110744D02*
D03*
D29*
X0098044D02*
D03*
D30*
X0032258D02*
D03*
D31*
X0034798D02*
D03*
X0037338D02*
D03*
D32*
X0083058Y003556D02*
D03*
Y003302D02*
D03*
D33*
Y003048D02*
D03*
D34*
X0089662Y0038862D02*
D03*
D35*
Y0036322D02*
D03*
D36*
X011572Y0078674D02*
D03*
Y0084214D02*
D03*
X011288Y0082829D02*
D03*
X011572Y0081444D02*
D03*
X011288Y0080059D02*
D03*
Y0077289D02*
D03*
X011572Y0075904D02*
D03*
X011288Y0085599D02*
D03*
D37*
X01143Y0067564D02*
D03*
Y0092554D02*
D03*
D38*
X011288Y0074519D02*
D03*
D39*
X0035306Y0044704D02*
D03*
Y0047244D02*
D03*
Y0049784D02*
D03*
Y0052324D02*
D03*
Y0054864D02*
D03*
X0032766Y0052324D02*
D03*
Y0049784D02*
D03*
Y0047244D02*
D03*
Y0044704D02*
D03*
D40*
Y0054864D02*
D03*
D41*
X003048Y002921D02*
D03*
X006096D02*
D03*
X006604D02*
D03*
D42*
X0087884Y012065D02*
D03*
X0090424D02*
D03*
D43*
X0072644Y011176D02*
D03*
X0075184D02*
D03*
X0077724D02*
D03*
X0080264D02*
D03*
X0072644Y011938D02*
D03*
X0075184D02*
D03*
X0077724D02*
D03*
X0082042Y009017D02*
D03*
X0079502D02*
D03*
X0076962D02*
D03*
X0074422D02*
D03*
X0071882D02*
D03*
X0069342D02*
D03*
X0066802D02*
D03*
X0064262D02*
D03*
X0061722D02*
D03*
X0059182D02*
D03*
X0056642D02*
D03*
X0054102D02*
D03*
X0051562D02*
D03*
X0049022D02*
D03*
X0046482D02*
D03*
X0043942D02*
D03*
X0041402D02*
D03*
X0038862D02*
D03*
X0036322D02*
D03*
X0033782D02*
D03*
X0082042Y007493D02*
D03*
X0079502D02*
D03*
X0076962D02*
D03*
X0074422D02*
D03*
X0071882D02*
D03*
X0069342D02*
D03*
X0066802D02*
D03*
X0064262D02*
D03*
X0061722D02*
D03*
X0059182D02*
D03*
X0056642D02*
D03*
X0054102D02*
D03*
X0051562D02*
D03*
X0049022D02*
D03*
X0046482D02*
D03*
X0043942D02*
D03*
X0041402D02*
D03*
X0038862D02*
D03*
X0036322D02*
D03*
D44*
X0080264Y011938D02*
D03*
X0033782Y007493D02*
D03*
D45*
X0067564Y004699D02*
D03*
D46*
X0070104D02*
D03*
X0072644D02*
D03*
X0075184D02*
D03*
D47*
X00508Y0047498D02*
D03*
X005334D02*
D03*
X005588D02*
D03*
D48*
X0099822Y006604D02*
D03*
Y006858D02*
D03*
Y007112D02*
D03*
Y007366D02*
D03*
Y00762D02*
D03*
Y007874D02*
D03*
Y008128D02*
D03*
Y008382D02*
D03*
X0092202Y006604D02*
D03*
Y006858D02*
D03*
Y007112D02*
D03*
Y007366D02*
D03*
Y00762D02*
D03*
Y007874D02*
D03*
Y008128D02*
D03*
D49*
Y008382D02*
D03*
D50*
X0111633Y0037592D02*
D03*
D51*
X0115443Y0032512D02*
D03*
X0109093D02*
D03*
M02*
