G04 Layer_Color=128*
%FSTAX44Y44*%
%MOMM*%
G71*
G01*
G75*
%ADD107C,0.0508*%
D107*
X01156843Y0042418D02*
X01164717D01*
X0116078Y00420243D02*
Y00428117D01*
X01220343Y0047498D02*
X01228217D01*
X0122428Y00471043D02*
Y00478917D01*
X01220343Y0042418D02*
X01228217D01*
X0122428Y00420243D02*
Y00428117D01*
X01156843Y0047498D02*
X01164717D01*
X0116078Y00471043D02*
Y00478917D01*
X00910463Y0042418D02*
X00918337D01*
X009144Y00420243D02*
Y00428117D01*
X00973963Y0047498D02*
X00981837D01*
X009779Y00471043D02*
Y00478917D01*
X00973963Y0042418D02*
X00981837D01*
X009779Y00420243D02*
Y00428117D01*
X00910463Y0047498D02*
X00918337D01*
X009144Y00471043D02*
Y00478917D01*
X01034923Y0042418D02*
X01042797D01*
X0103886Y00420243D02*
Y00428117D01*
X01098423Y0047498D02*
X01106297D01*
X0110236Y00471043D02*
Y00478917D01*
X01098423Y0042418D02*
X01106297D01*
X0110236Y00420243D02*
Y00428117D01*
X01034923Y0047498D02*
X01042797D01*
X0103886Y00471043D02*
Y00478917D01*
X00577723Y004064D02*
X00585597D01*
X0058166Y00402463D02*
Y00410337D01*
X00666623Y004064D02*
X00674497D01*
X0067056Y00402463D02*
Y00410337D01*
X00910463Y0052324D02*
X00918337D01*
X009144Y00519303D02*
Y00527177D01*
X00973963Y0057404D02*
X00981837D01*
X009779Y00570103D02*
Y00577977D01*
X00973963Y0052324D02*
X00981837D01*
X009779Y00519303D02*
Y00527177D01*
X00910463Y0057404D02*
X00918337D01*
X009144Y00570103D02*
Y00577977D01*
X01156843Y005207D02*
X01164717D01*
X0116078Y00516763D02*
Y00524637D01*
X01220343Y005715D02*
X01228217D01*
X0122428Y00567563D02*
Y00575437D01*
X01220343Y005207D02*
X01228217D01*
X0122428Y00516763D02*
Y00524637D01*
X01156843Y005715D02*
X01164717D01*
X0116078Y00567563D02*
Y00575437D01*
X01034923Y005207D02*
X01042797D01*
X0103886Y00516763D02*
Y00524637D01*
X01098423Y005715D02*
X01106297D01*
X0110236Y00567563D02*
Y00575437D01*
X01098423Y005207D02*
X01106297D01*
X0110236Y00516763D02*
Y00524637D01*
X01034923Y005715D02*
X01042797D01*
X0103886Y00567563D02*
Y00575437D01*
X00425323Y0040894D02*
X00433197D01*
X0042926Y00405003D02*
Y00412877D01*
X00514223Y0040894D02*
X00522097D01*
X0051816Y00405003D02*
Y00412877D01*
X006051Y005461D02*
X006141D01*
X006096Y005416D02*
Y005506D01*
X005797Y005461D02*
X005887D01*
X005842Y005416D02*
Y005506D01*
X005543Y005461D02*
X005633D01*
X005588Y005416D02*
Y005506D01*
X005289Y005461D02*
X005379D01*
X005334Y005416D02*
Y005506D01*
X005035Y005461D02*
X005125D01*
X00508Y005416D02*
Y005506D01*
X004781Y005461D02*
X004871D01*
X004826Y005416D02*
Y005506D01*
X004527Y005461D02*
X004617D01*
X004572Y005416D02*
Y005506D01*
X004273Y005461D02*
X004363D01*
X004318Y005416D02*
Y005506D01*
X008464Y005461D02*
X008554D01*
X008509Y005416D02*
Y005506D01*
X00821Y005461D02*
X0083D01*
X008255Y005416D02*
Y005506D01*
X007956Y005461D02*
X008046D01*
X008001Y005416D02*
Y005506D01*
X007702Y005461D02*
X007792D01*
X007747Y005416D02*
Y005506D01*
X007448Y005461D02*
X007538D01*
X007493Y005416D02*
Y005506D01*
X007194Y005461D02*
X007284D01*
X007239Y005416D02*
Y005506D01*
X00694Y005461D02*
X00703D01*
X006985Y005416D02*
Y005506D01*
X006686Y005461D02*
X006776D01*
X006731Y005416D02*
Y005506D01*
X01050036Y0070866D02*
X01058164D01*
X010541Y00704596D02*
Y00712724D01*
X01050036Y0073406D02*
X01058164D01*
X010541Y00729996D02*
Y00738124D01*
X01050036Y0078486D02*
X01058164D01*
X010541Y00780796D02*
Y00788924D01*
X01050036Y0081026D02*
X01058164D01*
X010541Y00806196D02*
Y00814324D01*
X00869696Y0078486D02*
X00877824D01*
X0087376Y00780796D02*
Y00788924D01*
X00869696Y0081026D02*
X00877824D01*
X0087376Y00806196D02*
Y00814324D01*
X00869696Y0071374D02*
X00877824D01*
X0087376Y00709676D02*
Y00717804D01*
X00869696Y0073914D02*
X00877824D01*
X0087376Y00735076D02*
Y00743204D01*
X005924Y010541D02*
X006014D01*
X005969Y010496D02*
Y010586D01*
X00567Y010541D02*
X00576D01*
X005715Y010496D02*
Y010586D01*
X005416Y010541D02*
X005506D01*
X005461Y010496D02*
Y010586D01*
X005162Y010541D02*
X005252D01*
X005207Y010496D02*
Y010586D01*
X004908Y010541D02*
X004998D01*
X004953Y010496D02*
Y010586D01*
X004654Y010541D02*
X004744D01*
X004699Y010496D02*
Y010586D01*
X0044Y010541D02*
X00449D01*
X004445Y010496D02*
Y010586D01*
X004146Y010541D02*
X004236D01*
X004191Y010496D02*
Y010586D01*
X008337Y010541D02*
X008427D01*
X008382Y010496D02*
Y010586D01*
X008083Y010541D02*
X008173D01*
X008128Y010496D02*
Y010586D01*
X007829Y010541D02*
X007919D01*
X007874Y010496D02*
Y010586D01*
X007575Y010541D02*
X007665D01*
X00762Y010496D02*
Y010586D01*
X007321Y010541D02*
X007411D01*
X007366Y010496D02*
Y010586D01*
X007067Y010541D02*
X007157D01*
X007112Y010496D02*
Y010586D01*
X006813Y010541D02*
X006903D01*
X006858Y010496D02*
Y010586D01*
X006559Y010541D02*
X006649D01*
X006604Y010496D02*
Y010586D01*
X00730123Y004064D02*
X00737997D01*
X0073406Y00402463D02*
Y00410337D01*
X00819023Y004064D02*
X00826897D01*
X0082296Y00402463D02*
Y00410337D01*
X00415163Y002921D02*
X00423037D01*
X004191Y00288163D02*
Y00296037D01*
X00415163Y003429D02*
X00423037D01*
X004191Y00338963D02*
Y00346837D01*
X00366903Y002921D02*
X00374777D01*
X0037084Y00288163D02*
Y00296037D01*
X00366903Y003429D02*
X00374777D01*
X0037084Y00338963D02*
Y00346837D01*
X00758063Y002921D02*
X00765937D01*
X00762Y00288163D02*
Y00296037D01*
X00758063Y003429D02*
X00765937D01*
X00762Y00338963D02*
Y00346837D01*
X00709803Y002921D02*
X00717677D01*
X0071374Y00288163D02*
Y00296037D01*
X00709803Y003429D02*
X00717677D01*
X0071374Y00338963D02*
Y00346837D01*
X00897636Y003175D02*
X00905764D01*
X009017Y00313436D02*
Y00321564D01*
X00897636Y002921D02*
X00905764D01*
X009017Y00288036D02*
Y00296164D01*
X01047115Y0028956D02*
X01056005D01*
X0105156Y00285115D02*
Y00294005D01*
X01047115Y0037846D02*
X01056005D01*
X0105156Y00374015D02*
Y00382905D01*
X0060372Y0095516D02*
X0061372D01*
X0060872Y0095016D02*
Y0096016D01*
X0057832Y0095516D02*
X0058832D01*
X0058332Y0095016D02*
Y0096016D01*
X0055292Y0095516D02*
X0056292D01*
X0055792Y0095016D02*
Y0096016D01*
X0052752Y0095516D02*
X0053752D01*
X0053252Y0095016D02*
Y0096016D01*
X0050212Y0095516D02*
X0051212D01*
X0050712Y0095016D02*
Y0096016D01*
X0047672Y0095516D02*
X0048672D01*
X0048172Y0095016D02*
Y0096016D01*
X0045132Y0095516D02*
X0046132D01*
X0045632Y0095016D02*
Y0096016D01*
X0042592Y0095516D02*
X0043592D01*
X0043092Y0095016D02*
Y0096016D01*
X0040052Y0095516D02*
X0041052D01*
X0040552Y0095016D02*
Y0096016D01*
X0037512Y0095516D02*
X0038512D01*
X0038012Y0095016D02*
Y0096016D01*
X0062912Y0095516D02*
X0063912D01*
X0063412Y0095016D02*
Y0096016D01*
X0065452Y0095516D02*
X0066452D01*
X0065952Y0095016D02*
Y0096016D01*
X0067992Y0095516D02*
X0068992D01*
X0068492Y0095016D02*
Y0096016D01*
X0070532Y0095516D02*
X0071532D01*
X0071032Y0095016D02*
Y0096016D01*
X0073072Y0095516D02*
X0074072D01*
X0073572Y0095016D02*
Y0096016D01*
X0075612Y0095516D02*
X0076612D01*
X0076112Y0095016D02*
Y0096016D01*
X0030762Y0064516D02*
X0034262D01*
X0032512Y0062766D02*
Y0066266D01*
X0105762Y0064516D02*
X0109262D01*
X0107512Y0062766D02*
Y0066266D01*
X0030762Y0095516D02*
X0034262D01*
X0032512Y0093766D02*
Y0097266D01*
X0105762Y0095516D02*
X0109262D01*
X0107512Y0093766D02*
Y0097266D01*
X01014095Y0034544D02*
X01022985D01*
X0101854Y00340995D02*
Y00349885D01*
X01014095Y0032004D02*
X01022985D01*
X0101854Y00315595D02*
Y00324485D01*
X01014095Y0029464D02*
X01022985D01*
X0101854Y00290195D02*
Y00299085D01*
X00950595Y0029464D02*
X00959485D01*
X0095504Y00290195D02*
Y00299085D01*
X00950595Y0032004D02*
X00959485D01*
X0095504Y00315595D02*
Y00324485D01*
X00950595Y0034544D02*
X00959485D01*
X0095504Y00340995D02*
Y00349885D01*
X00859663Y0096012D02*
X00867537D01*
X008636Y00956183D02*
Y00964057D01*
X00859663Y0087122D02*
X00867537D01*
X008636Y00867283D02*
Y00875157D01*
X00897763Y0096012D02*
X00905637D01*
X009017Y00956183D02*
Y00964057D01*
X00897763Y0087122D02*
X00905637D01*
X009017Y00867283D02*
Y00875157D01*
X00643382Y0117094D02*
X00652018D01*
X006477Y01166622D02*
Y01175258D01*
X00617982Y0117094D02*
X00626618D01*
X006223Y01166622D02*
Y01175258D01*
X01177925Y0110744D02*
X01189355D01*
X0118364Y01101725D02*
Y01113155D01*
X00974725Y0110744D02*
X00986155D01*
X0098044Y01101725D02*
Y01113155D01*
X00298323Y0102362D02*
X00306197D01*
X0030226Y01019683D02*
Y01027557D01*
X00387223Y0102362D02*
X00395097D01*
X0039116Y01019683D02*
Y01027557D01*
X0031877Y0110744D02*
X0032639D01*
X0032258Y0110363D02*
Y0111125D01*
X0034417Y0110744D02*
X0035179D01*
X0034798Y0110363D02*
Y0111125D01*
X0036957Y0110744D02*
X0037719D01*
X0037338Y0110363D02*
Y0111125D01*
X00825627Y003556D02*
X00835533D01*
X0083058Y00350647D02*
Y00360553D01*
X00825627Y003302D02*
X00835533D01*
X0083058Y00325247D02*
Y00335153D01*
X00825627Y003048D02*
X00835533D01*
X0083058Y00299847D02*
Y00309753D01*
X00892556Y0038862D02*
X00900684D01*
X0089662Y00384556D02*
Y00392684D01*
X00892556Y0036322D02*
X00900684D01*
X0089662Y00359156D02*
Y00367284D01*
X01152755Y0078674D02*
X01161645D01*
X011572Y00782295D02*
Y00791185D01*
X011267Y0067564D02*
X011593D01*
X01143Y0065934D02*
Y0069194D01*
X011267Y0092554D02*
X011593D01*
X01143Y0090924D02*
Y0094184D01*
X01152755Y0084214D02*
X01161645D01*
X011572Y00837695D02*
Y00846585D01*
X01124355Y0082829D02*
X01133245D01*
X011288Y00823845D02*
Y00832735D01*
X01152755Y0081444D02*
X01161645D01*
X011572Y00809995D02*
Y00818885D01*
X01124355Y0080059D02*
X01133245D01*
X011288Y00796145D02*
Y00805035D01*
X01124355Y0077289D02*
X01133245D01*
X011288Y00768445D02*
Y00777335D01*
X01152755Y0075904D02*
X01161645D01*
X011572Y00754595D02*
Y00763485D01*
X01124355Y0074519D02*
X01133245D01*
X011288Y00740745D02*
Y00749635D01*
X01124355Y0085599D02*
X01133245D01*
X011288Y00851545D02*
Y00860435D01*
X0034806Y0044704D02*
X0035806D01*
X0035306Y0044204D02*
Y0045204D01*
X0034806Y0047244D02*
X0035806D01*
X0035306Y0046744D02*
Y0047744D01*
X0034806Y0049784D02*
X0035806D01*
X0035306Y0049284D02*
Y0050284D01*
X0034806Y0052324D02*
X0035806D01*
X0035306Y0051824D02*
Y0052824D01*
X0034806Y0054864D02*
X0035806D01*
X0035306Y0054364D02*
Y0055364D01*
X0032266Y0054864D02*
X0033266D01*
X0032766Y0054364D02*
Y0055364D01*
X0032266Y0052324D02*
X0033266D01*
X0032766Y0051824D02*
Y0052824D01*
X0032266Y0049784D02*
X0033266D01*
X0032766Y0049284D02*
Y0050284D01*
X0032266Y0047244D02*
X0033266D01*
X0032766Y0046744D02*
Y0047744D01*
X0032266Y0044704D02*
X0033266D01*
X0032766Y0044204D02*
Y0045204D01*
X00663702Y0080264D02*
X00672338D01*
X0066802Y00798322D02*
Y00806958D01*
X00612902Y0080264D02*
X00621538D01*
X0061722Y00798322D02*
Y00806958D01*
X00557403Y0079502D02*
X00565277D01*
X0056134Y00791083D02*
Y00798957D01*
X00557403Y0082042D02*
X00565277D01*
X0056134Y00816483D02*
Y00824357D01*
X00714883Y0079502D02*
X00722757D01*
X0071882Y00791083D02*
Y00798957D01*
X00714883Y0082042D02*
X00722757D01*
X0071882Y00816483D02*
Y00824357D01*
X00567563Y008509D02*
X00575437D01*
X005715Y00846963D02*
Y00854837D01*
X00618363Y008509D02*
X00626237D01*
X006223Y00846963D02*
Y00854837D01*
X003003Y003429D02*
X003093D01*
X003048Y003384D02*
Y003474D01*
X003003Y003175D02*
X003093D01*
X003048Y00313D02*
Y00322D01*
X003003Y002921D02*
X003093D01*
X003048Y002876D02*
Y002966D01*
X00438023Y0115062D02*
X00445897D01*
X0044196Y01146683D02*
Y01154557D01*
X00501523Y0120142D02*
X00509397D01*
X0050546Y01197483D02*
Y01205357D01*
X00501523Y0115062D02*
X00509397D01*
X0050546Y01146683D02*
Y01154557D01*
X00438023Y0120142D02*
X00445897D01*
X0044196Y01197483D02*
Y01205357D01*
X00552323Y0119634D02*
X00560197D01*
X0055626Y01192403D02*
Y01200277D01*
X00552323Y0114554D02*
X00560197D01*
X0055626Y01141603D02*
Y01149477D01*
X00389763Y0118618D02*
X00397637D01*
X003937Y01182243D02*
Y01190117D01*
X00300863Y0118618D02*
X00308737D01*
X003048Y01182243D02*
Y01190117D01*
X00874776Y012065D02*
X00882904D01*
X0087884Y01202436D02*
Y01210564D01*
X00900176Y012065D02*
X00908304D01*
X0090424Y01202436D02*
Y01210564D01*
X006051Y003429D02*
X006141D01*
X006096Y003384D02*
Y003474D01*
X006051Y003175D02*
X006141D01*
X006096Y00313D02*
Y00322D01*
X006051Y002921D02*
X006141D01*
X006096Y002876D02*
Y002966D01*
X006559Y003429D02*
X006649D01*
X006604Y003384D02*
Y003474D01*
X006559Y003175D02*
X006649D01*
X006604Y00313D02*
Y00322D01*
X006559Y002921D02*
X006649D01*
X006604Y002876D02*
Y002966D01*
X00722503Y011176D02*
X00730377D01*
X0072644Y01113663D02*
Y01121537D01*
X00747903Y011176D02*
X00755777D01*
X0075184Y01113663D02*
Y01121537D01*
X00773303Y011176D02*
X00781177D01*
X0077724Y01113663D02*
Y01121537D01*
X00798703Y011176D02*
X00806577D01*
X0080264Y01113663D02*
Y01121537D01*
X00722503Y011938D02*
X00730377D01*
X0072644Y01189863D02*
Y01197737D01*
X00747903Y011938D02*
X00755777D01*
X0075184Y01189863D02*
Y01197737D01*
X00773303Y011938D02*
X00781177D01*
X0077724Y01189863D02*
Y01197737D01*
X00798703Y011938D02*
X00806577D01*
X0080264Y01189863D02*
Y01197737D01*
X00816483Y009017D02*
X00824357D01*
X0082042Y00897763D02*
Y00905637D01*
X00791083Y009017D02*
X00798957D01*
X0079502Y00897763D02*
Y00905637D01*
X00765683Y009017D02*
X00773557D01*
X0076962Y00897763D02*
Y00905637D01*
X00740283Y009017D02*
X00748157D01*
X0074422Y00897763D02*
Y00905637D01*
X00714883Y009017D02*
X00722757D01*
X0071882Y00897763D02*
Y00905637D01*
X00689483Y009017D02*
X00697357D01*
X0069342Y00897763D02*
Y00905637D01*
X00664083Y009017D02*
X00671957D01*
X0066802Y00897763D02*
Y00905637D01*
X00638683Y009017D02*
X00646557D01*
X0064262Y00897763D02*
Y00905637D01*
X00613283Y009017D02*
X00621157D01*
X0061722Y00897763D02*
Y00905637D01*
X00587883Y009017D02*
X00595757D01*
X0059182Y00897763D02*
Y00905637D01*
X00562483Y009017D02*
X00570357D01*
X0056642Y00897763D02*
Y00905637D01*
X00537083Y009017D02*
X00544957D01*
X0054102Y00897763D02*
Y00905637D01*
X00511683Y009017D02*
X00519557D01*
X0051562Y00897763D02*
Y00905637D01*
X00486283Y009017D02*
X00494157D01*
X0049022Y00897763D02*
Y00905637D01*
X00460883Y009017D02*
X00468757D01*
X0046482Y00897763D02*
Y00905637D01*
X00435483Y009017D02*
X00443357D01*
X0043942Y00897763D02*
Y00905637D01*
X00410083Y009017D02*
X00417957D01*
X0041402Y00897763D02*
Y00905637D01*
X00384683Y009017D02*
X00392557D01*
X0038862Y00897763D02*
Y00905637D01*
X00359283Y009017D02*
X00367157D01*
X0036322Y00897763D02*
Y00905637D01*
X00333883Y009017D02*
X00341757D01*
X0033782Y00897763D02*
Y00905637D01*
X00816483Y007493D02*
X00824357D01*
X0082042Y00745363D02*
Y00753237D01*
X00791083Y007493D02*
X00798957D01*
X0079502Y00745363D02*
Y00753237D01*
X00765683Y007493D02*
X00773557D01*
X0076962Y00745363D02*
Y00753237D01*
X00740283Y007493D02*
X00748157D01*
X0074422Y00745363D02*
Y00753237D01*
X00714883Y007493D02*
X00722757D01*
X0071882Y00745363D02*
Y00753237D01*
X00689483Y007493D02*
X00697357D01*
X0069342Y00745363D02*
Y00753237D01*
X00664083Y007493D02*
X00671957D01*
X0066802Y00745363D02*
Y00753237D01*
X00638683Y007493D02*
X00646557D01*
X0064262Y00745363D02*
Y00753237D01*
X00613283Y007493D02*
X00621157D01*
X0061722Y00745363D02*
Y00753237D01*
X00587883Y007493D02*
X00595757D01*
X0059182Y00745363D02*
Y00753237D01*
X00562483Y007493D02*
X00570357D01*
X0056642Y00745363D02*
Y00753237D01*
X00537083Y007493D02*
X00544957D01*
X0054102Y00745363D02*
Y00753237D01*
X00511683Y007493D02*
X00519557D01*
X0051562Y00745363D02*
Y00753237D01*
X00486283Y007493D02*
X00494157D01*
X0049022Y00745363D02*
Y00753237D01*
X00460883Y007493D02*
X00468757D01*
X0046482Y00745363D02*
Y00753237D01*
X00435483Y007493D02*
X00443357D01*
X0043942Y00745363D02*
Y00753237D01*
X00410083Y007493D02*
X00417957D01*
X0041402Y00745363D02*
Y00753237D01*
X00384683Y007493D02*
X00392557D01*
X0038862Y00745363D02*
Y00753237D01*
X00359283Y007493D02*
X00367157D01*
X0036322Y00745363D02*
Y00753237D01*
X00333883Y007493D02*
X00341757D01*
X0033782Y00745363D02*
Y00753237D01*
X0067054Y004699D02*
X0068074D01*
X0067564Y004648D02*
Y00475D01*
X0069594Y004699D02*
X0070614D01*
X0070104Y004648D02*
Y00475D01*
X0072134Y004699D02*
X0073154D01*
X0072644Y004648D02*
Y00475D01*
X0074674Y004699D02*
X0075694D01*
X0075184Y004648D02*
Y00475D01*
X00503936Y0047498D02*
X00512064D01*
X00508Y00470916D02*
Y00479044D01*
X00529336Y0047498D02*
X00537464D01*
X005334Y00470916D02*
Y00479044D01*
X00554736Y0047498D02*
X00562864D01*
X005588Y00470916D02*
Y00479044D01*
X00994283Y006604D02*
X01002157D01*
X0099822Y00656463D02*
Y00664337D01*
X00994283Y006858D02*
X01002157D01*
X0099822Y00681863D02*
Y00689737D01*
X00994283Y007112D02*
X01002157D01*
X0099822Y00707263D02*
Y00715137D01*
X00994283Y007366D02*
X01002157D01*
X0099822Y00732663D02*
Y00740537D01*
X00994283Y00762D02*
X01002157D01*
X0099822Y00758063D02*
Y00765937D01*
X00994283Y007874D02*
X01002157D01*
X0099822Y00783463D02*
Y00791337D01*
X00994283Y008128D02*
X01002157D01*
X0099822Y00808863D02*
Y00816737D01*
X00994283Y008382D02*
X01002157D01*
X0099822Y00834263D02*
Y00842137D01*
X00918083Y006604D02*
X00925957D01*
X0092202Y00656463D02*
Y00664337D01*
X00918083Y006858D02*
X00925957D01*
X0092202Y00681863D02*
Y00689737D01*
X00918083Y007112D02*
X00925957D01*
X0092202Y00707263D02*
Y00715137D01*
X00918083Y007366D02*
X00925957D01*
X0092202Y00732663D02*
Y00740537D01*
X00918083Y00762D02*
X00925957D01*
X0092202Y00758063D02*
Y00765937D01*
X00918083Y007874D02*
X00925957D01*
X0092202Y00783463D02*
Y00791337D01*
X00918083Y008128D02*
X00925957D01*
X0092202Y00808863D02*
Y00816737D01*
X00918083Y008382D02*
X00925957D01*
X0092202Y00834263D02*
Y00842137D01*
X0110998Y0037592D02*
X0112268D01*
X0111633Y0036957D02*
Y0038227D01*
X0114808Y0032512D02*
X0116078D01*
X0115443Y0031877D02*
Y0033147D01*
X0108458Y0032512D02*
X0109728D01*
X0109093Y0031877D02*
Y0033147D01*
X00915924Y0100838D02*
X00923036D01*
X0091948Y01004824D02*
Y01011936D01*
X0032512Y01044956D02*
X00332232D01*
X00328676Y010414D02*
Y01048512D01*
X00336804Y0060706D02*
X00343916D01*
X0034036Y00603504D02*
Y00610616D01*
X00296164Y0056642D02*
X00303276D01*
X0029972Y00562864D02*
Y00569976D01*
X01190244Y005461D02*
X01197356D01*
X011938Y00542544D02*
Y00549656D01*
X01002284Y00508D02*
X01009396D01*
X0100584Y00504444D02*
Y00511556D01*
X00796544Y005207D02*
X00803656D01*
X008001Y00517144D02*
Y00524256D01*
X0081915Y0102235D02*
X00826262D01*
X00822706Y01018794D02*
Y01025906D01*
X00832104Y0085852D02*
X00839216D01*
X0083566Y00854964D02*
Y00862076D01*
X00481584Y0051816D02*
X00488696D01*
X0048514Y00514604D02*
Y00521716D01*
X00387604Y0037338D02*
X00394716D01*
X0039116Y00369824D02*
Y00376936D01*
X00935736Y00975106D02*
X00942848D01*
X00939292Y0097155D02*
Y00978662D01*
X00860044Y0102362D02*
X00867156D01*
X008636Y01020064D02*
Y01027176D01*
X00392684Y009906D02*
X00399796D01*
X0039624Y00987044D02*
Y00994156D01*
X00306324Y0060706D02*
X00313436D01*
X0030988Y00603504D02*
Y00610616D01*
X00633984Y004953D02*
X00641096D01*
X0063754Y00491744D02*
Y00498856D01*
X00805434Y0044831D02*
X00812546D01*
X0080899Y00444754D02*
Y00451866D01*
X00915924Y0107442D02*
X00923036D01*
X0091948Y01070864D02*
Y01077976D01*
X00865124Y0058928D02*
X00872236D01*
X0086868Y00585724D02*
Y00592836D01*
X00819404Y0084074D02*
X00826516D01*
X0082296Y00837184D02*
Y00844296D01*
X00379984Y0054864D02*
X00387096D01*
X0038354Y00545084D02*
Y00552196D01*
X00860044Y009906D02*
X00867156D01*
X008636Y00987044D02*
Y00994156D01*
X00329184Y009906D02*
X00336296D01*
X0033274Y00987044D02*
Y00994156D01*
X01121664Y005207D02*
X01128776D01*
X0112522Y00517144D02*
Y00524256D01*
X00692404Y0117602D02*
X00699516D01*
X0069596Y01172464D02*
Y01179576D01*
M02*
