M48
;Layer_Color=9474304
;FILE_FORMAT=4:4
METRIC,LZ
;TYPE=PLATED
T1F00S00C0.7112
T2F00S00C0.7620
T3F00S00C0.7874
T4F00S00C0.8128
T5F00S00C0.8636
T6F00S00C0.8890
T7F00S00C0.9000
T8F00S00C0.9906
T9F00S00C1.0000
T10F00S00C1.0200
T11F00S00C1.1430
T13F00S00C3.2600
T14F00S00C3.5000
%
T01
X0039116Y0037338
X011938Y005461
X0112522Y005207
X0100584Y00508
X008001Y005207
X0080899Y0044831
X0086868Y0058928
X0063754Y004953
X0048514Y0051816
X0038354Y0054864
X0034036Y0060706
X0030988
X0029972Y0056642
X0033274Y009906
X00328676Y01044956
X0039624Y009906
X0069596Y0117602
X00822706Y0102235
X008636Y0102362
Y009906
X0091948Y0100838
X00939292Y00975106
X0091948Y0107442
X0083566Y0085852
X0082296Y0084074
T02
X0032258Y0110744
X0034798
X0037338
T03
X0037084Y002921
Y003429
X004191
Y002921
X0071374
X00762
Y003429
X0071374
X0122428Y0042418
Y0047498
Y005207
Y005715
X0116078
Y005207
Y0047498
Y0042418
X0110236
Y0047498
Y005207
Y005715
X0103886
Y005207
Y0047498
Y0042418
X009779
Y0047498
Y0052324
Y0057404
X009144
Y0052324
Y0047498
Y0042418
X0082296Y004064
X0082042Y007493
X0079502
X0092202Y007366
Y007112
Y006858
Y006604
X0099822
Y006858
Y007112
Y007366
Y00762
Y007874
X0092202
Y00762
X0076962Y007493
X0074422
X0071882
X0069342
X0066802
X0064262
X0061722
X0059182
X0056642
X0054102
X0051562
X0049022
X0046482
X0043942
X0041402
X0042926Y0040894
X0051816
X0058166Y004064
X0067056
X0073406
X0038862Y007493
X0036322
X0033782
Y009017
X0036322
X0038862
X0039116Y0102362
X0030226
X003048Y0118618
X003937
X0044196Y0115062
X0050546
X0055626Y0114554
X0072644Y011176
X0075184
X0077724
X0076962Y009017
X0074422
X0071882
X0069342
X0066802
X0064262
X0061722
X0059182
X0056642
X0054102
X0051562
X0049022
X0046482
X0043942
X0041402
X005715Y008509
X0056134Y0082042
Y0079502
X006223Y008509
X0071882Y0082042
Y0079502
X0079502Y009017
X0082042
X008636Y0087122
X009017
X0092202Y008382
Y008128
X0099822
Y008382
X009017Y0096012
X008636
X0080264Y011176
Y011938
X0077724
X0075184
X0072644
X0055626Y0119634
X0050546Y0120142
X0044196
T04
X009017Y002921
Y003175
X0089662Y0036322
Y0038862
X0087376Y0071374
Y0073914
Y0078486
X010541
Y0073406
Y0070866
X005588Y0047498
X005334
X00508
X0087376Y0081026
X010541
X0090424Y012065
X0087884
T05
X0061722Y0080264
X0066802
X006477Y0117094
X006223
T06
X0095504Y0029464
Y0032004
Y0034544
X0101854
Y0032004
Y0029464
X0105156Y0028956
Y0037846
X011288Y0074519
Y0077289
X011572Y0078674
Y0075904
Y0081444
Y0084214
X011288Y0082829
Y0080059
Y0085599
T07
X003048Y002921
Y003175
Y003429
X006096
Y003175
Y002921
X006604
Y003175
Y003429
X008001Y005461
X008255
X008509
X007747
X007493
X007239
X006985
X006731
X006096
X005842
X005588
X005334
X00508
X004826
X004572
X004318
X004445Y010541
X004699
X004953
X005207
X005461
X005715
X005969
X006604
X006858
X007112
X007366
X00762
X007874
X004191
X008128
X008382
T08
X0083058Y003048
Y003302
Y003556
T09
X0032766Y0044704
X0035306
Y0047244
Y0049784
Y0052324
Y0054864
X0032766
Y0052324
Y0049784
Y0047244
X0038012Y0095516
X0040552
X0043092
X0045632
X0048172
X0050712
X0053252
X0055792
X0058332
X0060872
X0063412
X0065952
X0068492
X0071032
X0073572
X0076112
T10
X0067564Y004699
X0070104
X0072644
X0075184
T11
X0098044Y0110744
X0118364
T13
X01143Y0067564
Y0092554
T14
X0107512Y0064516
X0032512
Y0095516
X0107512
M30
